<svg xmlns="http://www.w3.org/2000/svg" width="367.993" height="402.551" viewBox="0 0 367.993 402.551"><g transform="translate(7)"><path d="M367.34-212.389c0-1.124,0-3.371-.727-3.746-2.18-3.371-3.27-7.492-6.54-9.364-.363-.749-.363-1.124-1.453-1.5-.363-2.247,0-4.869-1.09-5.619-3.27-3.746-5.814-7.117-10.174-9.364-8.357-5.619-18.531-7.117-28.7-7.866-9.084-.375-18.167.749-27.251,1.124-7.267.749-15.987,1.5-23.254,4.12-12.717,2.247-23.981,5.619-36.335,8.99L196.2-225.125c-1.09.375-1.817.375-2.543,1.5v1.124c2.907-.749,6.177-2.247,7.994,2.247,0-5.619,4.723-6.742,8.357-7.866,5.814-1.5,11.627-3.746,18.167-4.87,1.09-.375,2.543-1.124,2.907-.375,1.09,1.5,2.18.749,2.907,0a4.877,4.877,0,0,1,2.18-1.873c5.45-1.124,11.627-3,17.077-4.12a30.309,30.309,0,0,1,8.357-1.873c5.45-.749,11.264-1.124,18.167-2.622.727.375.727.375.727,1.5,0,0,0,.375.727.375a59.832,59.832,0,0,0-13.807,2.622,3.377,3.377,0,0,1,1.453,3,14.2,14.2,0,0,0-7.267-2.622c-2.18,0-5.087,1.873-7.994,1.5-3.27,0-2.907,4.495-5.45,5.244-2.543-3.371-2.907-3.746-5.814-3-2.907,1.124-5.45,2.622-7.63,3.371v1.124c1.453-.749,3.27-.749,4.723-1.124-1.453,1.124-3.27,2.247-3.27,3-.727,3-2.907,1.873-5.087,1.873a5.322,5.322,0,0,1-2.907,1.124c-1.817.749-4,0-6.54,0a3.773,3.773,0,0,0,2.18-1.124,67.164,67.164,0,0,0,6.54-2.247c.363,0,.363-.749.727-1.5-.363-.749-1.09-1.124-1.453-.749-1.817,1.5-2.907,2.247-4.723,2.247-4,0-6.177,2.622-9.084,4.12a8.773,8.773,0,0,1-2.907-.375v3a23.084,23.084,0,0,0-4,.749c.727-.749,1.09-1.873,1.817-2.247-1.453,0-3.27,0-3.27.375-.727,3-3.633,3-5.087,4.12a33.322,33.322,0,0,1-4.723,3.746s-1.453-.375-1.817-1.124c0-.375-.727-.375-.727-.375-1.817,3.746-5.45,1.124-8.357,1.5-2.18.749-4.36-1.124-5.45,2.247-.363.375-2.543.375-4.36.749-.363,2.247-3.27,4.87-4.36,4.12l-.363-1.873a32.632,32.632,0,0,0,4-2.622,18.413,18.413,0,0,1-5.087-.749,14.375,14.375,0,0,1,4.723-2.622l-1.09-.375c-4.36,1.124-10.174,3.746-14.534,5.619,1.09,1.873,1.09,4.12,1.453,5.244,1.09-1.124,2.543-4.12,4-5.244a12.268,12.268,0,0,1,6.54-1.873c0,.375.363.375.363,1.5a6.886,6.886,0,0,1-2.907.375c-.727.375-1.09,1.5-2.543,1.873-.727,1.5-1.09,3-1.817,3-2.543,1.873-5.45,2.247-7.994,3.371-.727.749-2.18,1.124-3.633,1.5.727-.375,0-.375,0-.375,1.09-1.124,1.453-1.873,2.907-2.247-5.087,0-7.994,2.247-10.9,5.993.363-.375.363-1.5.363-1.5a8.294,8.294,0,0,0-4.36-.749c2.543-2.622,3.27-3.746,4.36-3.746-2.543,0-5.45,1.124-7.994,2.247-6.177.749-9.81,6.742-15.987,7.866a7.223,7.223,0,0,0-2.907,1.5v1.124l7.63-1.124a11.612,11.612,0,0,1-2.18,1.873c1.817.375,2.18.375,2.907,1.124-3.27,1.5-5.45,4.12-7.267,4.495-.727.749-.727,1.5-1.09,1.5-2.907-.749-5.087,0-6.9,3.371,0,.749-.727.749-1.09,1.124a7.953,7.953,0,0,1-2.543.375c-3.633,2.622-7.267,3.746-11.264,3a3.223,3.223,0,0,1-2.907,1.5c-2.907,2.247-3.633,4.12-.727,7.117a.359.359,0,0,0-.363.375c-.363-.375-1.453-.375-2.18-.375-1.09-.375-2.543-1.873-3.633-1.873-.363,0-.727,1.873-1.453,1.873-1.817,0-3.633,0-5.087,1.124-3.27,1.5-5.814,4.495-8.357,5.993-3.27,1.873-6.9,2.622-9.81,4.87l-.727-.375c2.18-2.247,3.633-3,5.814-4.869a8.767,8.767,0,0,0-3.27.375c-.727,0-1.453.375-2.907,1.5-.363.375-.363.749-.727.749a2.334,2.334,0,0,1-1.453-2.247c-1.817.749-2.907,1.873-4.36,2.247a16.755,16.755,0,0,0,3.27,1.124v1.124a10.953,10.953,0,0,1-2.907.749c-1.453-2.247-3.27-.375-4.36.749-1.453.749-2.543,2.622-4,2.622a169.88,169.88,0,0,0-25.071,21.351c-5.814,5.244-10.174,12.361-13.08,19.1-1.817,3-3.27,7.492-2.543,10.488a52.81,52.81,0,0,0,1.09,15.358,82.819,82.819,0,0,0,5.087,14.608c2.543,4.495,7.267,7.492,10.9,11.237,1.09,1.124,3.27,1.124,3.633,1.873,1.09,2.622,3.633,4.495,6.54,5.993,2.18,1.873,3.633,3.371,5.814,4.495,2.907,2.247,6.9,3,9.447,4.495-.363.375-.363.375-.363.749a18.244,18.244,0,0,0-4,.749c4.36,1.124,9.447,0,12.354,1.873,4.36.749,6.9,3,10.9,4.495a99.564,99.564,0,0,1,13.444,5.244c2.543,1.5,5.814,2.622,9.447,4.495a92.434,92.434,0,0,0,10.537,5.619,152.135,152.135,0,0,1,19.621,8.99c3.633,1.5,7.267,4.495,11.627,5.993,4.723,2.622,9.447,7.117,15.624,8.615l.727.375c2.543,1.873,4.724,3.746,7.267,4.869l1.09,1.5c1.09.375,2.18,1.873,4,3a25.249,25.249,0,0,0-1.453,5.619c.363,0,.363.375.727.375a23.6,23.6,0,0,0,3.633-4.495,12.67,12.67,0,0,0,3.27,3c-1.817,1.124-3.633,3.746-4.723,4.12-3.27,0-6.177.749-7.63,2.622v.749a94.717,94.717,0,0,0-10.9,1.873,1.87,1.87,0,0,0-1.453.749c.363,0,.363.749.363.749a20.243,20.243,0,0,1,4.36.375c1.09,0,2.907.749,3.633.749.727-1.124.727-2.622,1.09-2.622,3.27-.749,6.54-1.124,9.81-3.746h.727c1.817-.375,4.36-1.5,7.267-1.873.727,0,2.18,0,2.543.375.727.375.727,1.5,1.09,2.622a3.671,3.671,0,0,0,1.453.375l-4.723,3c1.817,3,3.27,1.5,4.723,1.124,4.723-1.873,6.177-1.873,9.084,2.622a9.325,9.325,0,0,0,2.543,3c3.633,2.622,3.633,5.619,1.09,10.114-4.723,7.117-10.174,11.237-17.441,15.732-2.907,1.5-6.177,3-8.72,4.495-4,1.5-7.994,2.622-11.264,3.746-5.45,1.5-10.537,1.873-15.624,3.746-1.817.749-4.36.749-6.54,1.873,0,.375-.727,1.124-.727,1.873-.727-2.622-2.907-2.622-5.087-3-4.724-.749-10.537-.749-15.987-1.5a12.974,12.974,0,0,1-6.54-1.5c-2.543-1.124-2.543-4.495-.727-6.742a34.8,34.8,0,0,1,3.633-3.746c2.543-1.5,4.36-3.371,6.9-3.746,5.45-3,11.627-4.495,17.8-7.492.727-.749,1.817-1.124,1.817-1.5.363-1.5.727-1.5,2.543-1.5h2.543c0-.375.363-1.873.363-3-.363-.749-1.09-1.5-1.817-2.622-3.27,2.247-5.814,5.244-10.9,4.869-1.817-.375-6.54-2.247-6.54,3.746-1.453-1.5-3.27-2.247-5.45-3.746,1.817-.749,4-2.622,5.45-3a32.616,32.616,0,0,0,5.087-2.622c1.817-.375,4-1.124,6.9-1.873,2.543-1.873,6.177-2.622,9.81-4.12a25.708,25.708,0,0,0,5.45-3,1.32,1.32,0,0,1-.363-.749c-2.18.375-4,0-5.814.375a50.921,50.921,0,0,0-8.72,4.87,2.134,2.134,0,0,0-1.453.375,20.859,20.859,0,0,0-7.267,2.247c-.727.375-2.18.375-3.633,1.124s-3.633,1.5-5.45,2.622a12.006,12.006,0,0,0-3.633.375c.363-.749.363-2.247,1.09-2.622v-.749a13.885,13.885,0,0,0-3.27-3c-5.814,3.746-11.99,6.368-18.167,10.488a14.6,14.6,0,0,0-7.994,8.241c-1.09,1.873-.363,4.495-1.453,6.742C73.394,71.165,79.934,82.4,87.2,86.148c6.54,4.869,15.261,3.746,22.891,5.993,1.817,0,4,.375,5.087,0,11.99,0,23.254-.749,34.154-3.746,6.177-1.5,10.174-3.371,15.26-4.87,8.72-3.371,17.077-8.241,26.161-13.485,4.36-2.622,9.447-7.117,9.084-14.608-.363-1.873.363-4.495,0-6.368-.363-4.495,0-9.739-4-13.485a26.748,26.748,0,0,1-4.36-10.114c-1.817-2.622-1.09-3,1.817-4.495,4-.375,6.9-1.124,9.084-4.495-2.543-.749-2.907-.749-5.087,1.873-3.633,1.873-9.447,1.5-12.354-.749V16.477c1.817-1.124,3.27-2.622,5.45-3.746-4.36-2.247-7.994,2.622-10.9-1.873,1.09,0,1.817-.375,2.543-.375a.364.364,0,0,0,.363-.375c-1.453-.375-2.907-.375-4-.749-.727,0-2.543,0-3.27-.749a14.22,14.22,0,0,0-7.994-6.742,190.459,190.459,0,0,0-32.7-21.351c-2.543-1.124-5.087-2.247-6.54-3.746-.727-.375-2.18-.749-3.633-1.5,0,0-.727-1.5-1.09-1.5-5.814-2.622-11.627-6.368-17.441-8.99-5.087-3.746-11.264-4.12-15.624-7.492-6.54-3.746-13.08-5.993-19.257-8.615-5.814-3.371-11.264-4.869-16.351-7.866-5.45-2.247-10.174-4.495-15.261-6.742-3.27-1.873-7.994-3.746-11.627-6.368-6.9-4.495-9.447-7.117-6.9-16.856a11.875,11.875,0,0,1,.727-3l-1.453-.375c1.09-2.622,1.817-6.742,2.543-9.739,4.723.375,6.9-2.622,7.63-7.117.727-.375,2.543-1.124,2.907-1.873a2.08,2.08,0,0,0,1.817-2.247c2.18-3,3.633-5.244,6.9-5.993.727-.375,1.09-1.5,1.453-2.622,1.453-1.124,1.453-1.873,2.18-3.371,2.907-1.5,5.814-4.12,9.81-6.368L70.85-142.718c1.817-.375,4-1.873,2.907-4.495a18.86,18.86,0,0,0,4.36-2.622c-1.453,1.873-1.817,2.622-2.543,3,0,1.124,0,1.124.363,1.5,2.543-3.746,7.63-1.5,9.084-5.993-1.09,0-1.817-.749-3.633-.749a31.561,31.561,0,0,1,3.633-1.873,101.531,101.531,0,0,1,15.26-8.241c7.267-4.12,14.17-8.615,21.8-11.237.363-.375,1.453-1.5,1.817-1.5,8.72-3.746,15.987-7.866,24.344-11.612,5.087-2.622,11.627-3.746,16.351-6.368,13.807-6.742,27.978-11.612,42.148-16.481,8.72-3.371,18.167-4.869,27.614-7.866,2.18-.749,4.36-2.247,7.994-3,9.084-2.247,18.167-4.87,27.614-6.742a14.9,14.9,0,0,0,1.09-1.5c1.09-1.124,2.18-1.5,3.633-3.371-.363,1.124,0,1.124,0,1.873a7.823,7.823,0,0,0-.363,1.873,17.083,17.083,0,0,1,6.177,0,42.314,42.314,0,0,1,7.994-1.873c6.177.375,11.99.375,18.531-1.873.727-.749,1.09-.749,1.453-.749,6.54,0,11.99.375,17.44.375a7.2,7.2,0,0,1,1.817.375,44.82,44.82,0,0,1,10.174,2.247c.727.375,2.18.375,4.36.749-2.18.749-2.907,1.124-3.633,1.124V-227a17.171,17.171,0,0,0,4.36.375,11.31,11.31,0,0,0,3.27,1.124c5.087.375,6.177,1.873,5.087,6.368-1.09,4.12-1.09,4.12,2.543,5.244-1.817,2.622-2.543,6.368-4.723,8.615,0,.375-.727,1.124-1.817,1.124-.363,0-1.453-.749-1.817-.749a3.982,3.982,0,0,1,1.453-2.247l2.18-3.371a8.021,8.021,0,0,0,1.817-3,22.568,22.568,0,0,0-3.27.749c-3.27,3-3.633,8.615-7.994,10.863,0,.749-.363.749-.363,1.5,0,.375-.363.749,0,1.5a11.012,11.012,0,0,0,2.543.749,2.908,2.908,0,0,1,.727-1.873c-.363-3.746,1.817-2.247,3.27-3l.363.749a38.657,38.657,0,0,1-7.994,9.364c0-1.873-1.09-2.247-1.453-4.12-.727,1.5-2.18,2.247-4.36,3,0,0,0,1.124.727,1.5.363,0,2.18,0,2.543.375.363,0,.727,1.124.727,1.5.363.375.363,1.124,1.453,1.5-1.453.375-1.817,1.124-3.633,1.5a4.3,4.3,0,0,0-1.817-.375c1.817-.749,3.27-2.247,4-2.622a7.545,7.545,0,0,0-7.267,2.622c-4.723,3.371-8.72,7.491-13.08,11.612a10.84,10.84,0,0,0-2.907,3c2.543,3.371-1.817,2.622-3.633,4.12a3.9,3.9,0,0,0,6.54-1.124c1.09-2.622,1.817-3.746,4.724-4.495,2.543-.749,4-3,2.543-5.619a15.725,15.725,0,0,0,6.177-4.869,3.2,3.2,0,0,1,3.633,0,22.517,22.517,0,0,1-1.453,3c-.727.749,0,.749,0,.749a33.383,33.383,0,0,0,3.633-1.873c1.817-1.873,3.633-4.87,5.45-7.117,3.633-4.495,7.994-9.364,11.627-13.485,0,0,.727-.375.727-.749l4-7.492a3.82,3.82,0,0,1,2.18-.749c.363,0,.727.749.363.749-.363,3,.727,7.492-2.543,10.114-3.633,3.371-4,7.491-4.724,12.736-3.633-1.124-5.087.375-5.087,4.12,0,.375,0,1.873-.363,1.873-2.18,2.247-3.633,4.87-5.45,7.117-2.543,1.5-5.087,3.746-6.177,6.368-.727.375-.727,2.247-.727,3.371.727.375.727.749,1.453,1.124,1.09,0,5.814-3,5.814-4.495-1.09-3.371,1.453-5.619,2.907-7.492a4.1,4.1,0,0,1,2.18-1.124c2.18,1.873,2.543-.375,3.27-1.5.727-1.5,1.817-1.873,2.907-2.622a13.1,13.1,0,0,1,2.907-3.746,117.207,117.207,0,0,0,9.084-11.987c1.09-1.5,2.18-3.746,1.453-5.619C366.25-206.771,366.977-209.767,367.34-212.389Zm-77.756-31.09c-.727,0-1.453,1.124-1.453,1.873-1.453,2.247-3.633-.375-5.814.375a9.037,9.037,0,0,1-.727-3c5.087-.749,9.447-1.873,13.08-1.873a8.428,8.428,0,0,1,4.36-1.124c.727-.375,2.543,0,3.27,0C299.031-244.6,293.944-241.981,289.584-243.479Zm13.08,3.746c1.09.375,2.907-.749,5.087-.749-2.907-3-5.814,1.124-8.357-.749a41.57,41.57,0,0,1,5.45-2.247c1.09.749,2.907,1.124,3.633,1.873C307.751-238.235,303.755-236.362,302.664-239.733Zm-18.531,2.622c-2.907,0-5.087,1.873-8.357,0,3.633-1.124,5.814-.375,8.72-1.124A1.89,1.89,0,0,1,284.134-237.111Zm-22.891,5.619c0-.375-.727-.749-1.09-1.124a18.156,18.156,0,0,0-2.907,3.746,7.567,7.567,0,0,0-2.18-2.622c-1.817.749-3.27,1.5-5.45,2.622a6.448,6.448,0,0,0-.727-1.873l4.723-2.247c-1.09-.375-1.09-1.124-1.817-2.247a24.31,24.31,0,0,1,4.723.749,2.723,2.723,0,0,0,1.453-.749c1.817-1.873,3.27-2.247,5.087.375,0,.375.727.375,1.09,1.5A13.672,13.672,0,0,1,261.243-231.493Zm6.177-1.5c0-1.124,0-1.124-.363-1.5a15.544,15.544,0,0,0,5.45-1.873,1.339,1.339,0,0,0,.727,1.124A41.407,41.407,0,0,0,267.42-232.991ZM237.262-227l-.363-1.5c2.543-.749,5.45-1.124,7.994-2.247a4.183,4.183,0,0,1,.363,1.873A20.731,20.731,0,0,0,237.262-227ZM155.51-207.145c1.09,0,1.817,1.124,2.907,3,.363-1.124,1.09-2.247,1.09-3s-1.817-3-2.18-2.622c-3.633,2.247-7.994,3.746-11.264,5.619a38.435,38.435,0,0,0,6.177-.375C151.876-206.771,154.42-207.52,155.51-207.145Zm-14.17,11.612c0-1.5-1.09-1.873-1.09-2.622a29.978,29.978,0,0,0-4.36,5.244c-1.09,0-1.09-1.5-1.453-1.5a2.5,2.5,0,0,1,1.817-1.124,2.534,2.534,0,0,1,1.09-1.5l1.09-3c1.817.375,3.27,1.873,5.087,2.622A3.562,3.562,0,0,0,141.339-195.533Zm-19.257,7.117s-.363-.375,0-1.124c-2.543.749-3.27,1.5-5.814,1.873-2.18,1.124-4.36,0-6.54-.375l-.363,1.5c2.543.375,4.723,1.124,6.9,1.124C118.812-185.42,120.265-188.042,122.082-188.417ZM72.667-164.444c3.633,1.873,6.9-2.622,10.174-3.371,4.36-2.247,9.084-7.117,14.534-7.866,2.18-.749,4.36-3,6.54-4.12a2.477,2.477,0,0,0-1.453-1.873c4,0,6.9,1.124,9.447-1.873-2.543-1.5-5.814,3-7.994-1.873-1.817,1.124-4.36,2.247-5.814,3.746-.727,2.247-1.453,3-4.36,2.247a1.87,1.87,0,0,0-1.453.749,13.777,13.777,0,0,1-4.36,3.371c-.363,1.124-.727,2.622-1.817,3-2.18.375-5.087,1.873-7.994,2.247-.363,0-.363,0-1.09.375l1.817.749a16.983,16.983,0,0,1-8.357,1.873c-2.543,1.124-5.087,3.746-6.54,4.495a6.263,6.263,0,0,0,4,2.247C69.76-161.072,70.85-162.571,72.667-164.444ZM300.121-154.7l-3.27,3v1.124c1.453-.749,2.543-.375,3.27-.749,2.18-1.124,4.36-3.371,6.54-5.993,2.543-1.873,5.814-3.371,9.084-5.993,1.817-2.622,4-4.495,5.45-6.742,0-.375-.363-.375-.363-.749a29.015,29.015,0,0,0-4.724,2.247c-2.18,2.622-5.45,6.368-9.084,7.866-.727,0-.727.749-1.09,1.124A18.61,18.61,0,0,0,300.121-154.7Zm29.431-10.863c-.363,1.5-1.817,2.247-2.907,3,.727,1.5,2.18,1.873,2.907,2.622-.727,2.247-2.18,2.247-3.27,1.5-1.09,0-1.817-.749-2.18-.749a16.726,16.726,0,0,0-4.36,0,63.507,63.507,0,0,0,.727,7.866l-.363,1.5a41.886,41.886,0,0,0,9.084-4.12c.727,0,.727-1.124,1.453-2.622a10.745,10.745,0,0,0,.363-3.746h.727C330.279-161.447,330.279-163.32,329.552-165.567Zm-21.8,1.5a5.268,5.268,0,0,0-1.453-.749,2.68,2.68,0,0,0-1.453.375c-1.09.375-1.817,1.873-2.543,2.247l.363.749a5.826,5.826,0,0,0,3.27-.749C306.3-162.2,307.751-163.32,307.751-164.069Zm-8.357,1.5a77.074,77.074,0,0,1-9.084,5.993c4,1.873,9.447-.375,11.99-2.622A6.547,6.547,0,0,1,299.394-162.571Zm21.437,10.863a9.177,9.177,0,0,0,.727-3.371c.727-.375,2.543-.375,4.36-1.5C323.739-153.955,321.922-153.206,320.832-151.708ZM49.049-145.715c2.543-4.869,6.9-5.993,9.81-8.241.727,0,.727,0,.727.375C56.316-150.959,53.773-148.337,49.049-145.715Zm228.908,0c-2.18,3.371-5.814,5.993-7.63,4.12-4,.749-5.087,3.371-6.9,5.619,0,1.5-1.817,1.5-3.27,3,2.543,1.5,3.633,1.5,5.45-.375a10.684,10.684,0,0,1,4-4.12c.727-.749,2.543-1.124,2.907-1.5,3.27-1.5,6.177-3.746,9.81-6.368-.363-2.247.363-3,3.633-3,1.09.375,1.817-.749,2.543-1.873-1.09-1.124-2.907-1.5-4.36-1.873C281.59-147.213,280.864-145.34,277.957-145.715Zm36.7-5.993c-2.907,1.124-3.633,3.371-5.45,4.12,4,3.746,6.177,3.371,9.084-.749C316.108-147.962,314.655-148.337,314.655-151.708Zm-24.707,7.117c.727-.749,1.817-2.247,2.907-2.622,1.817-.375,2.18-1.124,2.18-4.12-3.27,3-5.45,4.495-8.357,6.742C288.857-142.718,288.857-142.718,289.947-144.591Zm17.8,0c.363-.375-1.453-1.124-2.907-.375l-7.63,5.993s0,.749,1.09,1.5c1.09-.375,2.18-1.5,3.633-1.873,0,.375.363.375.727.749-2.18,1.873-3.633,3.371-6.177,3.746-.363,0-.363-.375-.727-.375a6.557,6.557,0,0,0,.363-2.622c-1.817-.375-2.543-.375-3.633-1.124-.727.749,0,.749,0,1.124-1.453,1.5-2.907,3-4.723,5.244a32.836,32.836,0,0,0-5.087,2.622c-1.09.375-1.453,1.124-2.907,2.247a15.336,15.336,0,0,0-4.36,2.247,6.094,6.094,0,0,0,1.09,3c1.09,1.873,1.09,1.873-1.453,2.247-2.543.749-4.36,2.247-6.54,3.746-2.543,1.5-4.724,5.244-7.267,1.5-.363-.749-.727-.749-1.453,0-2.907.749-5.087,1.873-3.634,6.368a23.967,23.967,0,0,1-2.907-2.622c-2.543,2.622-5.45,4.12-8.357,6.742-1.453.749-2.907.749-2.18,4.12a8.293,8.293,0,0,0-4-.749l-2.543-.375c-1.453,1.5-2.543,3.371-4.36,4.12-1.09,1.5-2.543,1.5-4,2.247-3.27.749-6.54.375-6.9,4.869-2.543-1.873-5.814,0-7.63,3.746-1.453.375-4,.749-4,1.124-.363,1.873-.363,2.622-2.543,2.248-1.09,0-4,0-4.724-.375-1.453-2.622-2.907-4.12-7.267-1.873,1.453-2.622,1.817-3.746,3.27-5.619,1.09-.749,1.817-1.124,2.18-1.873,0,1.5.727,1.873,1.453,4.12.727-2.247.727-3,1.09-4.12a7.748,7.748,0,0,1,2.543,1.5c.363-.375.363-.375,1.09-.375-.727-1.124-.727-2.247-1.453-3.746,0,0-2.543,0-2.907.375-1.817.375-1.817,1.124-2.907,1.5-1.817.749-4.36.749-5.814,1.873a1.89,1.89,0,0,1-.363-1.124l3.27-2.247c.363-.375,1.09-.375,1.453-.749.727-1.124,1.817-2.248,2.18-1.873,2.543,2.247,5.45-.749,7.63-2.622,1.817-1.124,4.36-4.495,6.9-4.12,3.633-.375,6.54-4.869,11.99-4.869-1.817,1.124-1.817,1.873-2.543,2.247-2.18,1.873-3.633,2.622-5.814,4.87-2.543.375-5.087,1.5-6.9,1.5-2.18.375-3.633,1.873-3.633,5.244,4.36-2.247,7.63-3.746,11.264-5.244.363.375.363,1.5.363,2.622,1.817-1.124,2.907-2.247,4.723-3,0-.749-.727-1.873,0-1.873,2.907-2.247,5.087-4.495,7.994-6.368,2.18-.375,2.18-.749,2.543-3-1.817,1.124-3.27,1.124-4.36,1.873-.363-.749-.363-.749-.727-.749l1.817-3a45.293,45.293,0,0,0,4.36-3c-2.907,1.124-7.63-.375-8.357,4.495a5.071,5.071,0,0,1-2.543-3.746A107.057,107.057,0,0,0,215.1-110.5a.364.364,0,0,1,.363.375c2.907-.749,5.45-2.622,7.994-3.371l.727.375c-3.27,2.247-6.54,3.746-9.81,5.993-1.453.375-2.543-.749-4.723-.749a1.32,1.32,0,0,1-.363.749c-1.09.749-3.633.749-3.633,1.873-2.907,4.12-6.177,3.371-9.81,4.495-1.09.375-2.18,0-2.907.375-4.36,2.247-8.357,4.869-12.354,6.742-7.63,3.371-15.26,7.492-22.891,10.488-6.54,3-13.08,5.993-20.347,7.866-4.36,2.247-10.537,3.371-15.987,5.619-2.543.375-3.633,3.371-3.633,5.619a5.711,5.711,0,0,1,0,4.869v2.247c.727,2.247.727,4.869,1.453,7.492.363,1.124,0,3,.363,4.12,2.18,1.5,4.36,3.371,6.9,4.495,2.907,1.5,6.54-.375,10.174-1.124,4-1.124,7.63-3.371,11.627-4.495,10.174-4.495,21.8-8.99,32.338-13.859,9.81-4.12,19.257-8.99,28.7-13.859.363-1.124.727-1.124,1.453-1.5a28.549,28.549,0,0,0,10.537-6.742c1.817-.375,2.543-.375,3.633-1.124,1.453-1.124,1.453-3,1.817-3.746.727-.375,2.907.749,3.633,0,2.907-.749,5.45-2.622,7.63-4.12,1.453-.749,3.27-1.124,4.723-2.247a.359.359,0,0,0-.363-.375,9.252,9.252,0,0,0-4,1.124c3.27-4.869,7.63-7.492,10.537-4.495,2.543-1.5,4.723-3.371,7.267-4.495-1.817-1.873.363-3.371,1.453-4.495,2.18-1.873,4-3,6.9-1.124-.727-3,1.453-3.746,4-5.244a34.966,34.966,0,0,1,6.54-.749l-1.453-2.622a8.352,8.352,0,0,0,5.814-7.117,4.483,4.483,0,0,1,1.817,3.371,27.456,27.456,0,0,0,4.36-4.87c.363,0,1.09.749,1.453,1.5a42.123,42.123,0,0,1,6.177-5.244c1.817-1.5,6.177-1.124,7.267-4.12v-.749c1.09-1.5,2.543-3,2.543-4.12.727-2.247,3.27-3.371,5.087-3.371.727,0,1.453,1.124,3.27,1.873a27.338,27.338,0,0,1,.363-5.244C309.568-142.718,308.478-141.969,307.751-144.591ZM29.429-129.983s-.727,0-.727-1.124a3.807,3.807,0,0,0,1.817-2.247,7.633,7.633,0,0,1,2.18-3.371c.727-.749,1.453-1.873,2.18-1.873,1.817-.375,2.907-.375,4.36-.749,2.543-2.247,4-4.495,5.814-5.244a3.524,3.524,0,0,1,3.27-.375C41.783-139.347,35.606-134.852,29.429-129.983Zm249.982-9.364a20.654,20.654,0,0,0-9.084,5.993l-9.084,4.87c-6.54,4.87-13.08,7.866-19.621,11.986-2.18.749-3.633,2.247-5.087,2.622.727,2.622,1.817,3,2.18,3.746,2.543-1.124,3.633-2.622,5.45-4.12,1.09-1.873,2.907-2.622,4.36-3.746a23.709,23.709,0,0,1,8.72-5.244,3.013,3.013,0,0,0,2.543-2.247c.363-.375,1.09-1.5,1.453-1.5,5.814-1.5,10.537-5.993,15.624-8.241.727-2.622,2.907-2.622,4.36-3.371a9.792,9.792,0,0,0,4.36-2.247,7.824,7.824,0,0,0-.363-1.873c-.363.375-1.09,0-2.907.375C281.59-141.969,280.5-140.471,279.41-139.347ZM257.246-132.6c-1.09,1.124-1.09,2.247-2.18,2.247-.727.749-2.543,1.5-3.27,1.124-3.633-.749-4-.749-5.45,2.247-1.09.749-2.18,0-4,.749-2.543,1.5-4.36,3-6.177,4.12v1.124c-.727.749-.727,1.5-.727,3.371,3.27,1.873,4-2.622,7.63-2.622,2.543-.375,5.087-3.371,7.63-5.244,2.907-3,5.45-3.746,9.81-4.12A12.67,12.67,0,0,1,257.246-132.6Zm30.884,5.619a11.082,11.082,0,0,1-3.633-1.873c.363,0,.363-.749.363-1.124a4.9,4.9,0,0,0,3.27,0,5.537,5.537,0,0,1,.727,2.622C288.494-127.361,288.494-126.986,288.131-126.986ZM191.481-91.4a7.1,7.1,0,0,1-4.36,2.247C187.847-91.776,189.664-92.15,191.481-91.4ZM193.3-76.793c-1.453,0-1.817,0-2.543-.749-1.09,0-.363-.749-.363-.749a11.083,11.083,0,0,0,3.633-1.873A5.708,5.708,0,0,1,193.3-76.793Zm57.772,53.939c-.363.749-.727.749-2.543,1.124.363-.375,0-1.124,0-1.873-.363-.749-1.453-1.124-2.543-2.622,0-3,4.36-.749,5.45-2.622a10.852,10.852,0,0,0-.363-3,6.185,6.185,0,0,1,2.907,2.247c0-3.746.363-5.619,0-8.241-.363-8.615-2.18-16.481-11.264-19.478l-6.177-3a3.852,3.852,0,0,1-.363,1.124,2.971,2.971,0,0,0,1.817,3c5.087,1.873,6.54,6.742,6.177,11.612,0,2.622.727,5.244-.727,8.241-1.817,1.873-2.18,4.495-4,7.492,2.18.749,2.907.749,3.633,1.124-3.27,5.993-5.814,7.866-9.084,7.117-.727,1.5-1.453,4.495-3.633,5.993a48.879,48.879,0,0,1-9.81,9.739c-5.814,3.371-11.627,6.368-17.8,9.364A7.958,7.958,0,0,1,200.2,6.738c.363.749.363.749,1.453,1.5a1.436,1.436,0,0,1,1.453-.749A47.341,47.341,0,0,1,213.282.745C214.735,0,215.1-1.128,215.825-1.5c5.087-3,10.537-5.993,14.9-8.99a3.87,3.87,0,0,0,1.817-1.124,40.976,40.976,0,0,0,3.633-3.371c1.817-2.247,3.27-3.371,4.36-5.244,2.543-2.622,4.723-3.371,5.814-.749,1.453.749.727,2.247,1.453,3.371,4.36-1.873,8.357-7.117,5.814-10.114C252.523-26.225,252.16-24.352,251.069-22.854ZM104.278-34.466l.727.749c-1.817,1.873-1.09,2.247,1.453,2.247.727,1.124,2.18,1.124,2.907,1.873,0,.375,0,.375-.363.749l-5.814-1.5a7.824,7.824,0,0,0-.363-1.873C102.825-32.967,103.915-33.716,104.278-34.466Zm140.251,4.12a3.587,3.587,0,0,1-1.09-.375c.727-1.5,1.817-1.873,1.817-3,.363,0,.727.375.727,1.124Zm-6.54,1.124a12.477,12.477,0,0,0-1.453,5.244,12.535,12.535,0,0,0,2.543-.375c-.363-2.247-.727-3.371-.363-4.869ZM133.709-17.235a25.048,25.048,0,0,1,6.54,3.371,17.1,17.1,0,0,0-4.36,1.873c-1.453-1.873-2.18-4.12-3.27-4.869C132.982-17.235,132.982-17.235,133.709-17.235Zm111.547,5.244q0,.562-2.18,0a2.134,2.134,0,0,0-1.453.375s0,1.5.363,1.5c0,.375.727.749,1.453.375a26.087,26.087,0,0,0,5.45-4.12c-.727,0-.727-.375-1.09-.375C247.073-13.864,246.346-12.74,245.256-11.991Zm-90.11,7.117c.363,1.124,1.453,2.247,1.817,3.371,0,.375-.363.375-1.453.749a7.2,7.2,0,0,0-2.907-3A6.218,6.218,0,0,1,155.146-4.874Zm77.029,2.622c-.363,4.12-3.27,2.622-5.087,2.247-2.543,5.244-7.267,6.742-11.264,8.99l-5.087,2.247c-1.453.749-1.817,2.622-3.27,4.495v.749c3.633-2.247,6.54-3.371,9.447-5.619a28.19,28.19,0,0,0,6.9-5.619c1.09-.749,3.27-1.124,4.36-2.622,1.817-.375,3.633-.749,4.36-1.873C233.992,0,234.356-1.877,232.176-2.252ZM187.484,8.236c3.27-.375,5.45-2.247,8.357-2.247C194.388,2.992,191.118,4.116,187.484,8.236Zm8.72,0c-1.817.375-2.907,1.5-4.723,2.247,2.543,0,3.633.375,6.54.375C197.294,9.36,196.568,8.985,196.2,8.236Zm-51.6,14.234c0,.749-.363,1.124-.363,1.5,1.09.375,2.18,1.5,3.633,1.5a2.878,2.878,0,0,1,.363-1.873C146.426,22.845,145.7,22.47,144.609,22.47Zm-10.9,4.12c-.727.749-2.543,1.124-3.27,1.5a2.232,2.232,0,0,1,.727,1.873c1.817-1.124,2.543-1.873,3.27-1.873Zm-13.08,5.993c2.543,2.622,3.27.749,5.087-1.873h2.543a13.211,13.211,0,0,0-1.817-3c-2.543,2.622-5.087,4.87-7.994,3C119.175,32.209,120.629,32.209,120.629,32.584ZM135.889,41.2l1.453.749c2.543-.375,4.723-.749,5.814-1.873,2.543-.749,5.814-3,7.994-1.124a17.7,17.7,0,0,1,4.36-3.746c4.36-.375,8.72-1.5,13.807-2.622a8.39,8.39,0,0,1-.363-2.247c-2.543,0-4.723,0-6.177.749-2.543,0-4,1.5-5.814,1.5-2.18,1.124-4.36,2.247-6.177,3.371a18.644,18.644,0,0,1-5.814,2.247l-7.63,1.124C136.979,39.326,136.616,40.824,135.889,41.2ZM113,37.828a23.772,23.772,0,0,1,1.453-5.244c-2.543.749-5.814.375-6.177,4.495C109.728,38.2,111.545,39.326,113,37.828Zm-10.9,3.746a3.01,3.01,0,0,0,2.18-.749,25.478,25.478,0,0,1-.363,5.244C101.735,44.945,101.008,43.072,102.1,41.573Zm6.54,4.495s0,1.124.363,1.5a18.334,18.334,0,0,0-3.633,1.5,1.4,1.4,0,0,1-1.09-1.5C105.731,47.192,107.185,46.443,108.638,46.068Zm47.6,30.715c.727.375,1.817,1.873,2.18,1.873-1.453.375-3.633.375-6.177.749-.727,0-1.09-.375-2.543-.749-2.907-1.5-4.723.749-5.087,3.746-2.543.375-4.724,1.124-6.177,1.124a7,7,0,0,1-4-.749c1.453-.749,2.543-.749,2.907-1.873v-.749c-2.907.749-6.54.749-9.447,2.247a.364.364,0,0,1-.363.375c.727.375,1.817.375,2.543.749V84.65c-4.36,0-9.447.375-14.17.749,1.453-3,3.27-3.371,5.087-2.247a4.688,4.688,0,0,0,4.36-.749,10.8,10.8,0,0,1,5.087-2.622,8.681,8.681,0,0,0-.363-2.622c4.36,2.622,7.267,1.124,10.537.375,1.453,0,1.817-1.124,2.18-1.124,3.633.749,6.54-.375,9.81-2.247,5.814-1.5,11.627-3.371,17.441-4.869C166.41,72.289,161.687,73.412,156.236,76.784Zm-42.148,3.371c-1.09-.375-2.907.375-4.723.375-2.907-1.124-6.177-1.873-8.357-.375a5.813,5.813,0,0,1-2.543-2.622c-.363,0-.363-.749-.363-.749.363-.375,1.09-1.124,1.453-1.124,2.543,0,6.54,0,9.447,1.124a35.726,35.726,0,0,1,10.537,1.5C117.722,79.78,117,82.4,114.088,80.155Z" transform="translate(-6.347 249.922)" fill="#b10000"/><path d="M9.3,17.769h.517c.172-.517.517-.517,1.035-.345,0,.172.172.172.345,0,.862-.172,1.207-1.035,1.552-1.724s.517-1.552.862-2.414c0-.172.172-.345.172-.517a2.451,2.451,0,0,0,.345-1.035c.172-.517,0-.862.172-1.207l.69-1.207A8.054,8.054,0,0,1,15.848,7.6c.517-1.207,1.552-2.241,1.9-3.621s1.207-2.586.69-4.138a5.78,5.78,0,0,1,0-1.724v-.345a10.166,10.166,0,0,0-.69-1.379l-.517-.517a6.7,6.7,0,0,0-2.586-.345,4.663,4.663,0,0,0-2.586.517A19.309,19.309,0,0,1,8.262-2.4a1.818,1.818,0,0,1-2.069-.517,4.242,4.242,0,0,0-1.9-.69,1.639,1.639,0,0,0-1.724.69,1.552,1.552,0,0,0,0,1.9c.862,1.207.517,2.586.345,3.966,0,.517-.517.862-.517,1.207.172.69-.172,1.035-.517,1.552,0,.172-.172.172-.172.345,0,.69-.172,1.379-.172,2.069-.172.69-.517,1.379-.69,2.069,0,.345.172.862.172,1.379v.345c.345,1.207,1.552,1.724,2.586,2.414A9.776,9.776,0,0,1,5.848,15.7l1.207.69c.172.172.69.172.862.345Z" transform="translate(213.024 291.612)" fill="#b10000"/></g><text transform="translate(0 392.43)" fill="#b10000" font-size="26" font-family="Raleway-Bold, Raleway" font-weight="700"><tspan x="0" y="0">THE SANDY FOUNDATION</tspan></text></svg>