<svg xmlns="http://www.w3.org/2000/svg" width="239.727" height="255.703" viewBox="0 0 239.727 255.703"><g transform="translate(9.734)"><path d="M236.34-228.072c0-.654,0-1.963-.463-2.181-1.389-1.963-2.083-4.361-4.167-5.452-.231-.436-.231-.654-.926-.872-.232-1.308,0-2.835-.695-3.271-2.083-2.181-3.7-4.143-6.482-5.451-5.324-3.271-11.806-4.143-18.288-4.579-5.787-.218-11.575.436-17.362.654-4.63.436-10.186.872-14.815,2.4-8.1,1.308-15.278,3.271-23.149,5.233l-22.686,6.106c-.694.218-1.157.218-1.62.872v.654c1.852-.436,3.935-1.308,5.093,1.308,0-3.271,3.009-3.925,5.324-4.579,3.7-.872,7.408-2.181,11.575-2.835.694-.218,1.62-.654,1.852-.218.694.872,1.389.436,1.852,0a3.056,3.056,0,0,1,1.389-1.09c3.472-.654,7.408-1.744,10.88-2.4a20.867,20.867,0,0,1,5.324-1.09c3.472-.436,7.176-.654,11.575-1.526.463.218.463.218.463.872,0,0,0,.218.463.218a41.341,41.341,0,0,0-8.8,1.526,1.922,1.922,0,0,1,.926,1.745,9.615,9.615,0,0,0-4.63-1.526c-1.389,0-3.241,1.09-5.093.872-2.083,0-1.852,2.617-3.472,3.053-1.62-1.963-1.852-2.181-3.7-1.744-1.852.654-3.472,1.526-4.861,1.963v.654a14.873,14.873,0,0,1,3.009-.654c-.926.654-2.083,1.308-2.083,1.744-.463,1.744-1.852,1.09-3.241,1.09a3.574,3.574,0,0,1-1.852.654c-1.157.436-2.546,0-4.167,0a2.471,2.471,0,0,0,1.389-.654c1.852-.436,2.778-.872,4.167-1.308.231,0,.231-.436.463-.872-.232-.436-.694-.654-.926-.436a4.611,4.611,0,0,1-3.009,1.308c-2.546,0-3.935,1.526-5.787,2.4a6.088,6.088,0,0,1-1.852-.218v1.744a15.959,15.959,0,0,0-2.546.436c.463-.436.694-1.09,1.157-1.308-.926,0-2.083,0-2.083.218-.463,1.744-2.315,1.744-3.241,2.4a21.057,21.057,0,0,1-3.009,2.181s-.926-.218-1.157-.654c0-.218-.463-.218-.463-.218-1.157,2.181-3.472.654-5.324.872-1.389.436-2.778-.654-3.472,1.308a17.29,17.29,0,0,1-2.778.436c-.231,1.308-2.083,2.835-2.778,2.4l-.231-1.09a21.1,21.1,0,0,0,2.546-1.526,12.757,12.757,0,0,1-3.241-.436,9.427,9.427,0,0,1,3.009-1.526l-.694-.218a78.244,78.244,0,0,0-9.26,3.271,10.6,10.6,0,0,1,.926,3.053c.694-.654,1.62-2.4,2.546-3.053a8.366,8.366,0,0,1,4.167-1.09c0,.218.231.218.231.872a4.772,4.772,0,0,1-1.852.218c-.463.218-.694.872-1.62,1.09-.463.872-.694,1.744-1.157,1.744-1.62,1.09-3.472,1.308-5.093,1.963a5.559,5.559,0,0,1-2.315.872c.463-.218,0-.218,0-.218.694-.654.926-1.09,1.852-1.308-3.241,0-5.093,1.308-6.945,3.489.231-.218.231-.872.231-.872a5.724,5.724,0,0,0-2.778-.436c1.62-1.526,2.083-2.181,2.778-2.181a14.657,14.657,0,0,0-5.093,1.308c-3.935.436-6.25,3.925-10.186,4.579a4.768,4.768,0,0,0-1.852.872v.654l4.861-.654a7.254,7.254,0,0,1-1.389,1.09c1.157.218,1.389.218,1.852.654-2.083.872-3.472,2.4-4.63,2.617-.463.436-.463.872-.694.872a3.583,3.583,0,0,0-4.4,1.963c0,.436-.463.436-.694.654a5.516,5.516,0,0,1-1.62.218,9.631,9.631,0,0,1-7.176,1.744,2.106,2.106,0,0,1-1.852.872c-1.852,1.308-2.315,2.4-.463,4.143,0,0-.231,0-.231.218-.231-.218-.926-.218-1.389-.218-.694-.218-1.62-1.09-2.315-1.09-.231,0-.463,1.09-.926,1.09a5.43,5.43,0,0,0-3.241.654c-2.083.872-3.7,2.617-5.324,3.489-2.083,1.09-4.4,1.526-6.25,2.835l-.463-.218a41.892,41.892,0,0,1,3.7-2.835,6.082,6.082,0,0,0-2.083.218,3.393,3.393,0,0,0-1.852.872c-.231.218-.231.436-.463.436a1.355,1.355,0,0,1-.926-1.308c-1.157.436-1.852,1.09-2.778,1.308a11.377,11.377,0,0,0,2.083.654v.654a7.52,7.52,0,0,1-1.852.436c-.926-1.308-2.083-.218-2.778.436-.926.436-1.62,1.526-2.546,1.526A106.334,106.334,0,0,0,16.423-180.1a32.467,32.467,0,0,0-8.334,11.121c-1.157,1.744-2.083,4.361-1.62,6.106a28.164,28.164,0,0,0,.694,8.94,45.51,45.51,0,0,0,3.241,8.5c1.62,2.617,4.63,4.361,6.945,6.542.694.654,2.083.654,2.315,1.09.694,1.526,2.315,2.617,4.167,3.489a19.28,19.28,0,0,0,3.7,2.617c1.852,1.308,4.4,1.744,6.019,2.617-.231.218-.231.218-.231.436a12.611,12.611,0,0,0-2.546.436c2.778.654,6.019,0,7.871,1.09,2.778.436,4.4,1.744,6.945,2.617a67.156,67.156,0,0,1,8.565,3.053c1.62.872,3.7,1.526,6.019,2.617a60.927,60.927,0,0,0,6.713,3.271,101.544,101.544,0,0,1,12.5,5.233c2.315.872,4.63,2.617,7.408,3.489,3.009,1.526,6.019,4.143,9.954,5.015l.463.218a26.457,26.457,0,0,0,4.63,2.835l.694.872c.694.218,1.389,1.09,2.546,1.744a13.692,13.692,0,0,0-.926,3.271c.231,0,.231.218.463.218a14.065,14.065,0,0,0,2.315-2.617,7.852,7.852,0,0,0,2.083,1.744c-1.157.654-2.315,2.181-3.009,2.4-2.083,0-3.935.436-4.861,1.526v.436a65.562,65.562,0,0,0-6.945,1.09,1.228,1.228,0,0,0-.926.436c.231,0,.231.436.231.436a14.084,14.084,0,0,1,2.778.218c.694,0,1.852.436,2.315.436.463-.654.463-1.526.694-1.526,2.083-.436,4.167-.654,6.25-2.181h.463a46.866,46.866,0,0,1,4.63-1.09,3.625,3.625,0,0,1,1.62.218c.463.218.463.872.694,1.526a2.509,2.509,0,0,0,.926.218l-3.009,1.744c1.157,1.744,2.083.872,3.009.654,3.009-1.09,3.935-1.09,5.787,1.526a5.581,5.581,0,0,0,1.62,1.744c2.315,1.526,2.315,3.271.694,5.888-3.009,4.143-6.482,6.542-11.112,9.159-1.852.872-3.935,1.744-5.556,2.617-2.546.872-5.093,1.526-7.176,2.181-3.472.872-6.713,1.09-9.954,2.181-1.157.436-2.778.436-4.167,1.09,0,.218-.463.654-.463,1.09-.463-1.526-1.852-1.526-3.241-1.744-3.009-.436-6.713-.436-10.186-.872A8.911,8.911,0,0,1,65.962-63c-1.62-.654-1.62-2.617-.463-3.925a21.243,21.243,0,0,1,2.315-2.181c1.62-.872,2.778-1.963,4.4-2.181,3.472-1.744,7.408-2.617,11.343-4.361.463-.436,1.157-.654,1.157-.872.231-.872.463-.872,1.62-.872h1.62a17.394,17.394,0,0,0,.231-1.744c-.231-.436-.694-.872-1.157-1.526-2.083,1.308-3.7,3.053-6.945,2.835-1.157-.218-4.167-1.308-4.167,2.181a22.691,22.691,0,0,0-3.472-2.181c1.157-.436,2.546-1.526,3.472-1.744A21.554,21.554,0,0,0,79.157-81.1c1.157-.218,2.546-.654,4.4-1.09,1.62-1.09,3.935-1.526,6.25-2.4a16.9,16.9,0,0,0,3.472-1.744.749.749,0,0,1-.231-.436c-1.389.218-2.546,0-3.7.218a33.435,33.435,0,0,0-5.556,2.835,1.459,1.459,0,0,0-.926.218,14.208,14.208,0,0,0-4.63,1.308,22.43,22.43,0,0,0-2.315.654c-.926.436-2.315.872-3.472,1.526a8.341,8.341,0,0,0-2.315.218c.231-.436.231-1.308.694-1.526v-.436A8.585,8.585,0,0,0,68.74-83.5c-3.7,2.181-7.639,3.707-11.575,6.106a8.92,8.92,0,0,0-5.093,4.8c-.694,1.09-.231,2.617-.926,3.925C49.063-63,53.23-56.459,57.86-54.278c4.167,2.835,9.723,2.181,14.584,3.489a15.913,15.913,0,0,0,3.241,0c7.639,0,14.815-.436,21.76-2.181,3.935-.872,6.482-1.963,9.723-2.835,5.556-1.963,10.88-4.8,16.667-7.85,2.778-1.526,6.019-4.143,5.787-8.5-.231-1.09.231-2.617,0-3.707-.231-2.617,0-5.67-2.546-7.85A14.9,14.9,0,0,1,124.3-89.6c-1.157-1.526-.694-1.744,1.157-2.617,2.546-.218,4.4-.654,5.787-2.617-1.62-.436-1.852-.436-3.241,1.09-2.315,1.09-6.019.872-7.871-.436v-.654c1.157-.654,2.083-1.526,3.472-2.181-2.778-1.308-5.093,1.526-6.945-1.09.694,0,1.157-.218,1.62-.218a.218.218,0,0,0,.231-.218c-.926-.218-1.852-.218-2.546-.436a3.615,3.615,0,0,1-2.083-.436,8.9,8.9,0,0,0-5.093-3.925,123.066,123.066,0,0,0-20.834-12.429,14.312,14.312,0,0,1-4.167-2.181c-.463-.218-1.389-.436-2.315-.872,0,0-.463-.872-.694-.872-3.7-1.526-7.408-3.707-11.112-5.233-3.241-2.181-7.176-2.4-9.954-4.361a113.083,113.083,0,0,0-12.269-5.015c-3.7-1.963-7.176-2.835-10.417-4.579-3.472-1.308-6.482-2.617-9.723-3.925-2.083-1.09-5.093-2.181-7.408-3.707-4.4-2.617-6.019-4.143-4.4-9.813a6.422,6.422,0,0,1,.463-1.744l-.926-.218a41.065,41.065,0,0,0,1.62-5.67c3.009.218,4.4-1.526,4.861-4.143.463-.218,1.62-.654,1.852-1.09a1.245,1.245,0,0,0,1.157-1.308c1.389-1.744,2.315-3.053,4.4-3.489.463-.218.694-.872.926-1.526.926-.654.926-1.09,1.389-1.963,1.852-.872,3.7-2.4,6.25-3.707l9.954-6.324c1.157-.218,2.546-1.09,1.852-2.617a12.3,12.3,0,0,0,2.778-1.526c-.926,1.09-1.157,1.526-1.62,1.744,0,.654,0,.654.231.872,1.62-2.181,4.861-.872,5.787-3.489-.694,0-1.157-.436-2.315-.436a20.89,20.89,0,0,1,2.315-1.09,66.87,66.87,0,0,1,9.723-4.8c4.63-2.4,9.028-5.015,13.89-6.542.231-.218.926-.872,1.157-.872,5.556-2.181,10.186-4.579,15.51-6.76,3.241-1.526,7.408-2.181,10.417-3.707,8.8-3.925,17.825-6.76,26.853-9.595,5.556-1.963,11.575-2.835,17.593-4.579a31.774,31.774,0,0,1,5.093-1.744c5.787-1.308,11.575-2.835,17.593-3.925.463-.436.463-.654.694-.872a16.6,16.6,0,0,0,2.315-1.963c-.232.654,0,.654,0,1.09a4.215,4.215,0,0,0-.232,1.09,11.9,11.9,0,0,1,3.935,0,29.109,29.109,0,0,1,5.093-1.09,31.531,31.531,0,0,0,11.806-1.09c.463-.436.694-.436.926-.436,4.167,0,7.639.218,11.112.218a4.961,4.961,0,0,1,1.157.218,30.875,30.875,0,0,1,6.482,1.308,17.29,17.29,0,0,0,2.778.436,10.39,10.39,0,0,1-2.315.654v.436a11.944,11.944,0,0,0,2.778.218,7.676,7.676,0,0,0,2.083.654c3.241.218,3.935,1.09,3.241,3.707-.694,2.4-.694,2.4,1.62,3.053-1.157,1.526-1.62,3.707-3.009,5.015,0,.218-.463.654-1.157.654-.231,0-.926-.436-1.157-.436a2.3,2.3,0,0,1,.926-1.308l1.389-1.963a4.641,4.641,0,0,0,1.157-1.744,15.535,15.535,0,0,0-2.083.436c-2.083,1.744-2.315,5.015-5.093,6.324,0,.436-.231.436-.231.872,0,.218-.231.436,0,.872a7.514,7.514,0,0,0,1.62.436,1.617,1.617,0,0,1,.463-1.09c-.231-2.181,1.157-1.308,2.083-1.744l.231.436a23.186,23.186,0,0,1-5.093,5.452c0-1.09-.694-1.308-.926-2.4-.463.872-1.389,1.308-2.778,1.744,0,0,0,.654.463.872a4.163,4.163,0,0,1,1.62.218c.231,0,.463.654.463.872.231.218.231.654.926.872-.926.218-1.157.654-2.315.872a2.952,2.952,0,0,0-1.157-.218,16.761,16.761,0,0,0,2.546-1.526,5.061,5.061,0,0,0-4.63,1.526,79.3,79.3,0,0,0-8.334,6.76,6.635,6.635,0,0,0-1.852,1.744c1.62,1.963-1.157,1.526-2.315,2.4a2.6,2.6,0,0,0,4.167-.654c.694-1.526,1.157-2.181,3.009-2.617,1.62-.436,2.546-1.744,1.62-3.271a9.934,9.934,0,0,0,3.935-2.835,2.2,2.2,0,0,1,2.315,0,12.669,12.669,0,0,1-.926,1.744c-.463.436,0,.436,0,.436a22.067,22.067,0,0,0,2.315-1.09c1.157-1.09,2.315-2.835,3.472-4.143,2.315-2.617,5.093-5.452,7.408-7.85,0,0,.463-.218.463-.436l2.546-4.361a2.583,2.583,0,0,1,1.389-.436c.231,0,.463.436.231.436-.231,1.744.463,4.361-1.62,5.888-2.315,1.963-2.546,4.361-3.009,7.414-2.315-.654-3.241.218-3.241,2.4,0,.218,0,1.09-.231,1.09-1.389,1.308-2.315,2.835-3.472,4.143a8.969,8.969,0,0,0-3.935,3.707c-.463.218-.463,1.308-.463,1.963.463.218.463.436.926.654.694,0,3.7-1.744,3.7-2.617-.694-1.963.926-3.271,1.852-4.361a2.7,2.7,0,0,1,1.389-.654c1.389,1.09,1.62-.218,2.083-.872.463-.872,1.157-1.09,1.852-1.526a7.75,7.75,0,0,1,1.852-2.181A69.193,69.193,0,0,0,234.951-220c.694-.872,1.389-2.181.926-3.271A16.885,16.885,0,0,1,236.34-228.072Zm-49.539-18.1c-.463,0-.926.654-.926,1.09-.926,1.308-2.315-.218-3.7.218a4.892,4.892,0,0,1-.463-1.744,74.878,74.878,0,0,1,8.334-1.09,5.768,5.768,0,0,1,2.778-.654,6.676,6.676,0,0,1,2.083,0C192.82-246.826,189.579-245.3,186.8-246.171Zm8.334,2.181c.694.218,1.852-.436,3.241-.436-1.852-1.744-3.7.654-5.324-.436a27.934,27.934,0,0,1,3.472-1.308,22.065,22.065,0,0,1,2.315,1.09C198.375-243.119,195.829-242.028,195.134-243.991Zm-11.806,1.526c-1.852,0-3.241,1.09-5.324,0,2.315-.654,3.7-.218,5.556-.654A1.033,1.033,0,0,1,183.328-242.464Zm-14.584,3.271c0-.218-.463-.436-.694-.654a10.775,10.775,0,0,0-1.852,2.181,4.525,4.525,0,0,0-1.389-1.526c-1.157.436-2.083.872-3.472,1.526a3.56,3.56,0,0,0-.463-1.09l3.009-1.308c-.694-.218-.694-.654-1.157-1.308a16.844,16.844,0,0,1,3.009.436,1.8,1.8,0,0,0,.926-.436c1.157-1.09,2.083-1.308,3.241.218,0,.218.463.218.694.872A8.825,8.825,0,0,1,168.744-239.194Zm3.935-.872c0-.654,0-.654-.231-.872a10.531,10.531,0,0,0,3.472-1.09.768.768,0,0,0,.463.654A27.959,27.959,0,0,0,172.68-240.066Zm-19.214,3.489-.231-.872a43.676,43.676,0,0,0,5.093-1.308,2.251,2.251,0,0,1,.231,1.09A14.25,14.25,0,0,0,153.466-236.577ZM101.38-225.02c.694,0,1.157.654,1.852,1.744a8.652,8.652,0,0,0,.694-1.744c0-.436-1.157-1.744-1.389-1.526-2.315,1.308-5.093,2.181-7.176,3.271a26.769,26.769,0,0,0,3.935-.218C99.065-224.8,100.686-225.238,101.38-225.02Zm-9.028,6.76c0-.872-.694-1.09-.694-1.526a17.92,17.92,0,0,0-2.778,3.053c-.694,0-.694-.872-.926-.872a1.6,1.6,0,0,1,1.157-.654c.231-.654.463-.654.694-.872l.694-1.744c1.157.218,2.083,1.09,3.241,1.526A2.227,2.227,0,0,0,92.352-218.26Zm-12.269,4.143s-.231-.218,0-.654a23.788,23.788,0,0,1-3.7,1.09c-1.389.654-2.778,0-4.167-.218l-.231.872a36.254,36.254,0,0,0,4.4.654C78-212.372,78.926-213.9,80.083-214.117ZM48.6-200.161c2.315,1.09,4.4-1.526,6.482-1.963,2.778-1.308,5.787-4.143,9.26-4.579,1.389-.436,2.778-1.744,4.167-2.4,0-.436-.463-.872-.926-1.09,2.546,0,4.4.654,6.019-1.09-1.62-.872-3.7,1.744-5.093-1.09a20.218,20.218,0,0,0-3.7,2.181c-.463,1.308-.926,1.744-2.778,1.308a1.228,1.228,0,0,0-.926.436,8.718,8.718,0,0,1-2.778,1.963c-.231.654-.463,1.526-1.157,1.744-1.389.218-3.241,1.09-5.093,1.308-.231,0-.231,0-.694.218l1.157.436a11.676,11.676,0,0,1-5.324,1.09c-1.62.654-3.241,2.181-4.167,2.617a4.1,4.1,0,0,0,2.546,1.308C46.748-198.2,47.443-199.07,48.6-200.161Zm144.914,5.67-2.083,1.744v.654c.926-.436,1.62-.218,2.083-.436a14.76,14.76,0,0,0,4.167-3.489c1.62-1.09,3.7-1.963,5.787-3.489,1.157-1.526,2.546-2.617,3.472-3.925,0-.218-.231-.218-.231-.436a19.3,19.3,0,0,0-3.009,1.308c-1.389,1.526-3.472,3.707-5.787,4.579-.463,0-.463.436-.694.654A11.667,11.667,0,0,0,193.514-194.491Zm18.751-6.324c-.231.872-1.157,1.308-1.852,1.744.463.872,1.389,1.09,1.852,1.526-.463,1.308-1.389,1.308-2.083.872-.694,0-1.157-.436-1.389-.436a11.654,11.654,0,0,0-2.778,0,33.874,33.874,0,0,0,.463,4.579l-.231.872a27.955,27.955,0,0,0,5.787-2.4c.463,0,.463-.654.926-1.526a5.743,5.743,0,0,0,.231-2.181h.463C212.728-198.416,212.728-199.507,212.265-200.815Zm-13.89.872a3.476,3.476,0,0,0-.926-.436,1.838,1.838,0,0,0-.926.218c-.694.218-1.157,1.09-1.62,1.308l.231.436a4,4,0,0,0,2.083-.436C197.449-198.852,198.375-199.507,198.375-199.943Zm-5.324.872a49.751,49.751,0,0,1-5.787,3.489c2.546,1.09,6.019-.218,7.639-1.526A3.935,3.935,0,0,1,193.051-199.07Zm13.658,6.324a4.956,4.956,0,0,0,.463-1.963,13.059,13.059,0,0,0,2.778-.872C208.561-194.055,207.4-193.619,206.709-192.747ZM33.553-189.258c1.62-2.835,4.4-3.489,6.25-4.8.463,0,.463,0,.463.218A42.076,42.076,0,0,1,33.553-189.258Zm145.84,0c-1.389,1.963-3.7,3.489-4.861,2.4-2.546.436-3.241,1.963-4.4,3.271,0,.872-1.157.872-2.083,1.744,1.62.872,2.315.872,3.472-.218a6.508,6.508,0,0,1,2.546-2.4c.463-.436,1.62-.654,1.852-.872a39.557,39.557,0,0,0,6.25-3.707c-.231-1.308.231-1.744,2.315-1.744.694.218,1.157-.436,1.62-1.09a6.142,6.142,0,0,0-2.778-1.09C181.708-190.13,181.245-189.04,179.393-189.258Zm23.381-3.489c-1.852.654-2.315,1.963-3.472,2.4,2.546,2.181,3.935,1.963,5.787-.436C203.7-190.566,202.774-190.784,202.774-192.747ZM187.032-188.6a6.143,6.143,0,0,1,1.852-1.526c1.157-.218,1.389-.654,1.389-2.4-2.083,1.744-3.472,2.617-5.324,3.925C186.338-187.513,186.338-187.513,187.032-188.6Zm11.343,0c.231-.218-.926-.654-1.852-.218l-4.861,3.489s0,.436.694.872a22.057,22.057,0,0,1,2.315-1.09c0,.218.231.218.463.436-1.389,1.09-2.315,1.963-3.935,2.181-.232,0-.232-.218-.463-.218a3.513,3.513,0,0,0,.231-1.526,5.727,5.727,0,0,1-2.315-.654c-.463.436,0,.436,0,.654-.926.872-1.852,1.744-3.009,3.053A21.713,21.713,0,0,0,182.4-180.1c-.694.218-.926.654-1.852,1.308a10.16,10.16,0,0,0-2.778,1.308,3.356,3.356,0,0,0,.694,1.744c.694,1.09.694,1.09-.926,1.308a15.024,15.024,0,0,0-4.167,2.181c-1.62.872-3.009,3.053-4.63.872-.232-.436-.463-.436-.926,0-1.852.436-3.241,1.09-2.315,3.707a14.872,14.872,0,0,1-1.852-1.526c-1.62,1.526-3.472,2.4-5.324,3.925-.926.436-1.852.436-1.389,2.4a5.724,5.724,0,0,0-2.546-.436l-1.62-.218c-.926.872-1.62,1.963-2.778,2.4-.694.872-1.62.872-2.546,1.308-2.083.436-4.167.218-4.4,2.835-1.62-1.09-3.7,0-4.861,2.181-.926.218-2.546.436-2.546.654-.232,1.09-.232,1.526-1.62,1.308a12.963,12.963,0,0,1-3.009-.218c-.926-1.526-1.852-2.4-4.63-1.09a21.334,21.334,0,0,1,2.083-3.271c.694-.436,1.157-.654,1.389-1.09,0,.872.463,1.09.926,2.4.463-1.308.463-1.744.694-2.4a5.046,5.046,0,0,1,1.62.872c.231-.218.231-.218.694-.218a21.874,21.874,0,0,1-.926-2.181,6.088,6.088,0,0,0-1.852.218c-1.157.218-1.157.654-1.852.872-1.157.436-2.778.436-3.7,1.09a1.033,1.033,0,0,1-.231-.654l2.083-1.308c.231-.218.694-.218.926-.436.463-.654,1.157-1.308,1.389-1.09,1.62,1.308,3.472-.436,4.861-1.526,1.157-.654,2.778-2.617,4.4-2.4,2.315-.218,4.167-2.835,7.639-2.835-1.157.654-1.157,1.09-1.62,1.308a41.889,41.889,0,0,0-3.7,2.835c-1.62.218-3.241.872-4.4.872-1.389.218-2.315,1.09-2.315,3.053,2.778-1.308,4.861-2.181,7.176-3.053.231.218.231.872.231,1.526a21.4,21.4,0,0,1,3.009-1.744c0-.436-.463-1.09,0-1.09,1.852-1.308,3.241-2.617,5.093-3.707,1.389-.218,1.389-.436,1.62-1.744-1.157.654-2.083.654-2.778,1.09-.231-.436-.231-.436-.463-.436l1.157-1.744a29.1,29.1,0,0,0,2.778-1.744c-1.852.654-4.861-.218-5.324,2.617a2.954,2.954,0,0,1-1.62-2.181,69.389,69.389,0,0,0-6.019,3.489.218.218,0,0,1,.231.218c1.852-.436,3.472-1.526,5.093-1.963l.463.218c-2.083,1.308-4.167,2.181-6.25,3.489-.926.218-1.62-.436-3.009-.436a.749.749,0,0,1-.231.436c-.694.436-2.315.436-2.315,1.09-1.852,2.4-3.935,1.963-6.25,2.617-.694.218-1.389,0-1.852.218-2.778,1.308-5.324,2.835-7.871,3.925-4.861,1.963-9.723,4.361-14.584,6.106a81.853,81.853,0,0,1-12.964,4.579c-2.778,1.308-6.713,1.963-10.186,3.271-1.62.218-2.315,1.963-2.315,3.271a3.066,3.066,0,0,1,0,2.835v1.308c.463,1.308.463,2.835.926,4.361.231.654,0,1.744.231,2.4a28.607,28.607,0,0,0,4.4,2.617c1.852.872,4.167-.218,6.482-.654,2.546-.654,4.861-1.963,7.408-2.617,6.482-2.617,13.89-5.233,20.6-8.068,6.25-2.4,12.269-5.233,18.288-8.068.231-.654.463-.654.926-.872a18.47,18.47,0,0,0,6.713-3.925,5.727,5.727,0,0,0,2.315-.654c.926-.654.926-1.744,1.157-2.181.463-.218,1.852.436,2.315,0a16.533,16.533,0,0,0,4.861-2.4,17.979,17.979,0,0,0,3.009-1.308c0-.218-.231-.218-.231-.218a6.328,6.328,0,0,0-2.546.654c2.083-2.835,4.861-4.361,6.713-2.617a49.69,49.69,0,0,1,4.63-2.617c-1.157-1.09.232-1.963.926-2.617,1.389-1.09,2.546-1.744,4.4-.654-.463-1.744.926-2.181,2.546-3.053a24.293,24.293,0,0,1,4.167-.436l-.926-1.526a4.988,4.988,0,0,0,3.7-4.143,2.542,2.542,0,0,1,1.157,1.963,16.574,16.574,0,0,0,2.778-2.835c.231,0,.694.436.926.872a26.375,26.375,0,0,1,3.935-3.053c1.157-.872,3.935-.654,4.63-2.4v-.436c.694-.872,1.62-1.744,1.62-2.4a3.512,3.512,0,0,1,3.241-1.963c.463,0,.926.654,2.083,1.09a14.567,14.567,0,0,1,.232-3.053C199.533-187.513,198.838-187.077,198.375-188.6ZM21.053-180.1s-.463,0-.463-.654a2.275,2.275,0,0,0,1.157-1.308,4.433,4.433,0,0,1,1.389-1.963c.463-.436.926-1.09,1.389-1.09,1.157-.218,1.852-.218,2.778-.436,1.62-1.308,2.546-2.617,3.7-3.053a2.428,2.428,0,0,1,2.083-.218C28.923-185.551,24.988-182.934,21.053-180.1Zm159.266-5.452a13.3,13.3,0,0,0-5.787,3.489l-5.787,2.835c-4.167,2.835-8.334,4.579-12.5,6.978-1.389.436-2.315,1.308-3.241,1.526a5.27,5.27,0,0,0,1.389,2.181,13.47,13.47,0,0,0,3.472-2.4c.694-1.09,1.852-1.526,2.778-2.181a15.447,15.447,0,0,1,5.556-3.053,1.883,1.883,0,0,0,1.62-1.308c.231-.218.694-.872.926-.872,3.7-.872,6.713-3.489,9.954-4.8.463-1.526,1.852-1.526,2.778-1.963a6.465,6.465,0,0,0,2.778-1.308,4.215,4.215,0,0,0-.231-1.09c-.231.218-.694,0-1.852.218A13.367,13.367,0,0,0,180.319-185.551ZM166.2-181.626c-.694.654-.694,1.308-1.389,1.308a2.653,2.653,0,0,1-2.083.654c-2.315-.436-2.546-.436-3.472,1.308-.694.436-1.389,0-2.546.436-1.62.872-2.778,1.744-3.935,2.4v.654c-.463.436-.463.872-.463,1.963,2.083,1.09,2.546-1.526,4.861-1.526,1.62-.218,3.241-1.963,4.861-3.053,1.852-1.744,3.472-2.181,6.25-2.4A7.852,7.852,0,0,1,166.2-181.626Zm19.677,3.271a7.334,7.334,0,0,1-2.315-1.09c.231,0,.231-.436.231-.654a3.4,3.4,0,0,0,2.083,0,3.018,3.018,0,0,1,.463,1.526C186.106-178.573,186.106-178.355,185.875-178.355ZM124.3-157.639a4.68,4.68,0,0,1-2.778,1.308A1.9,1.9,0,0,1,124.3-157.639Zm1.157,8.5c-.926,0-1.157,0-1.62-.436-.694,0-.231-.436-.231-.436a7.333,7.333,0,0,0,2.315-1.09A3.088,3.088,0,0,1,125.455-149.134Zm36.807,31.4c-.231.436-.463.436-1.62.654.231-.218,0-.654,0-1.09-.231-.436-.926-.654-1.62-1.526,0-1.744,2.778-.436,3.472-1.526a5.8,5.8,0,0,0-.231-1.744,3.907,3.907,0,0,1,1.852,1.308,32.839,32.839,0,0,0,0-4.8c-.231-5.015-1.389-9.595-7.176-11.339L153-139.54a2.113,2.113,0,0,1-.231.654,1.726,1.726,0,0,0,1.157,1.744c3.241,1.09,4.167,3.925,3.935,6.76,0,1.526.463,3.053-.463,4.8-1.157,1.09-1.389,2.617-2.546,4.361,1.389.436,1.852.436,2.315.654-2.083,3.489-3.7,4.579-5.787,4.143-.463.872-.926,2.617-2.315,3.489a29.982,29.982,0,0,1-6.25,5.67c-3.7,1.963-7.408,3.707-11.343,5.452a4.944,4.944,0,0,1-1.62,1.308c.231.436.231.436.926.872a.945.945,0,0,1,.926-.436A30.557,30.557,0,0,1,138.188-104c.926-.436,1.157-1.09,1.62-1.308,3.241-1.744,6.713-3.489,9.491-5.233a2.5,2.5,0,0,0,1.157-.654,25.334,25.334,0,0,0,2.315-1.963,28.845,28.845,0,0,0,2.778-3.053c1.62-1.526,3.009-1.963,3.7-.436.926.436.463,1.308.926,1.963,2.778-1.09,5.324-4.143,3.7-5.888C163.189-119.7,162.957-118.606,162.263-117.734Zm-93.523-6.76.463.436c-1.157,1.09-.694,1.308.926,1.308.463.654,1.389.654,1.852,1.09,0,.218,0,.218-.231.436l-3.7-.872a4.215,4.215,0,0,0-.231-1.09C67.814-123.621,68.508-124.058,68.74-124.494Zm89.356,2.4a2.429,2.429,0,0,1-.694-.218c.463-.872,1.157-1.09,1.157-1.744.231,0,.463.218.463.654Zm-4.167.654a6.793,6.793,0,0,0-.926,3.053,8.683,8.683,0,0,0,1.62-.218,6.315,6.315,0,0,1-.231-2.835Zm-66.438,6.978a16.6,16.6,0,0,1,4.167,1.963,11.441,11.441,0,0,0-2.778,1.09c-.926-1.09-1.389-2.4-2.083-2.835C87.028-114.463,87.028-114.463,87.491-114.463Zm71.068,3.053q0,.327-1.389,0a1.459,1.459,0,0,0-.926.218s0,.872.231.872c0,.218.463.436.926.218a16.581,16.581,0,0,0,3.472-2.4c-.463,0-.463-.218-.694-.218C159.716-112.5,159.253-111.846,158.559-111.41Zm-57.41,4.143c.231.654.926,1.308,1.157,1.963,0,.218-.231.218-.926.436a4.364,4.364,0,0,0-1.852-1.744A4.169,4.169,0,0,1,101.149-107.267Zm49.076,1.526c-.231,2.4-2.083,1.526-3.241,1.308-1.62,3.053-4.63,3.925-7.176,5.233l-3.241,1.308c-.926.436-1.157,1.526-2.083,2.617v.436c2.315-1.308,4.167-1.963,6.019-3.271a17.767,17.767,0,0,0,4.4-3.271c.694-.436,2.083-.654,2.778-1.526,1.157-.218,2.315-.436,2.778-1.09C151.383-104.432,151.614-105.522,150.225-105.74Zm-28.473,6.106c2.083-.218,3.472-1.308,5.324-1.308C126.15-102.688,124.067-102.033,121.752-99.635Zm5.556,0a17.98,17.98,0,0,0-3.009,1.308c1.62,0,2.315.218,4.167.218C128-98.981,127.539-99.2,127.307-99.635ZM94.436-91.348c0,.436-.231.654-.231.872.694.218,1.389.872,2.315.872,0-.436,0-.872.231-1.09A6.421,6.421,0,0,0,94.436-91.348Zm-6.945,2.4a8.486,8.486,0,0,1-2.083.872,1.25,1.25,0,0,1,.463,1.09c1.157-.654,1.62-1.09,2.083-1.09Zm-8.334,3.489c1.62,1.526,2.083.436,3.241-1.09h1.62A7.594,7.594,0,0,0,82.861-88.3c-1.62,1.526-3.241,2.835-5.093,1.744C78.231-85.679,79.157-85.679,79.157-85.461Zm9.723,5.015.926.436c1.62-.218,3.009-.436,3.7-1.09,1.62-.436,3.7-1.744,5.093-.654a11.085,11.085,0,0,1,2.778-2.181,75.714,75.714,0,0,0,8.8-1.526,4.508,4.508,0,0,1-.231-1.308,10.194,10.194,0,0,0-3.935.436c-1.62,0-2.546.872-3.7.872-1.389.654-2.778,1.308-3.935,1.963a12.576,12.576,0,0,1-3.7,1.308l-4.861.654C89.574-81.536,89.343-80.663,88.88-80.445ZM74.3-82.408a12.935,12.935,0,0,1,.926-3.053c-1.62.436-3.7.218-3.935,2.617C72.212-82.19,73.37-81.536,74.3-82.408Zm-6.945,2.181a2.04,2.04,0,0,0,1.389-.436,13.579,13.579,0,0,1-.231,3.053C67.12-78.265,66.657-79.355,67.351-80.227Zm4.167,2.617s0,.654.231.872a12.312,12.312,0,0,0-2.315.872c-.694-.218-.694-.654-.694-.872C69.666-76.956,70.592-77.393,71.518-77.611ZM101.843-59.73c.463.218,1.157,1.09,1.389,1.09-.926.218-2.315.218-3.935.436a9.893,9.893,0,0,1-1.62-.436c-1.852-.872-3.009.436-3.241,2.181-1.62.218-3.009.654-3.935.654a4.823,4.823,0,0,1-2.546-.436c.926-.436,1.62-.436,1.852-1.09v-.436c-1.852.436-4.167.436-6.019,1.308a.218.218,0,0,1-.231.218c.463.218,1.157.218,1.62.436v.654c-2.778,0-6.019.218-9.028.436.926-1.744,2.083-1.963,3.241-1.308a3.217,3.217,0,0,0,2.778-.436,7.147,7.147,0,0,1,3.241-1.526,4.645,4.645,0,0,0-.231-1.526c2.778,1.526,4.63.654,6.713.218.926,0,1.157-.654,1.389-.654,2.315.436,4.167-.218,6.25-1.308,3.7-.872,7.408-1.963,11.112-2.835C108.325-62.346,105.316-61.692,101.843-59.73ZM74.99-57.767c-.694-.218-1.852.218-3.009.218-1.852-.654-3.935-1.09-5.324-.218a3.552,3.552,0,0,1-1.62-1.526c-.231,0-.231-.436-.231-.436.231-.218.694-.654.926-.654a19.629,19.629,0,0,1,6.019.654,24.769,24.769,0,0,1,6.713.872C77.305-57.985,76.842-56.459,74.99-57.767Z" transform="translate(-6.347 249.922)" fill="#b10000"/><path d="M9.3,17.769h.517c.172-.517.517-.517,1.035-.345,0,.172.172.172.345,0,.862-.172,1.207-1.035,1.552-1.724s.517-1.552.862-2.414c0-.172.172-.345.172-.517a2.451,2.451,0,0,0,.345-1.035c.172-.517,0-.862.172-1.207l.69-1.207A8.054,8.054,0,0,1,15.848,7.6c.517-1.207,1.552-2.241,1.9-3.621s1.207-2.586.69-4.138a5.78,5.78,0,0,1,0-1.724v-.345a10.166,10.166,0,0,0-.69-1.379l-.517-.517a6.7,6.7,0,0,0-2.586-.345,4.663,4.663,0,0,0-2.586.517A19.309,19.309,0,0,1,8.262-2.4a1.818,1.818,0,0,1-2.069-.517,4.242,4.242,0,0,0-1.9-.69,1.639,1.639,0,0,0-1.724.69,1.552,1.552,0,0,0,0,1.9c.862,1.207.517,2.586.345,3.966,0,.517-.517.862-.517,1.207.172.69-.172,1.035-.517,1.552,0,.172-.172.172-.172.345,0,.69-.172,1.379-.172,2.069-.172.69-.517,1.379-.69,2.069,0,.345.172.862.172,1.379v.345c.345,1.207,1.552,1.724,2.586,2.414A9.776,9.776,0,0,1,5.848,15.7l1.207.69c.172.172.69.172.862.345Z" transform="translate(131.399 163.294)" fill="#b10000"/></g><path d="M11.5-11.191H7.182V0h-2.6V-11.191H.266v-2.3H11.5Zm13.015-2.3V0h-2.6V-5.757H15.789V0H13.167V-13.49h2.622v5.453h6.118V-13.49ZM36.689-2.3V0H27.322V-13.49h9.2v2.3H29.944v3.249h5.681v2.128H29.944V-2.3ZM51.338-9.956a3.241,3.241,0,0,0-.485-.361A5.888,5.888,0,0,0,50-10.764a7.364,7.364,0,0,0-1.092-.371,4.771,4.771,0,0,0-1.2-.152,2.684,2.684,0,0,0-1.615.4,1.32,1.32,0,0,0-.532,1.121,1.152,1.152,0,0,0,.2.693,1.724,1.724,0,0,0,.579.484,4.875,4.875,0,0,0,.959.38q.58.171,1.34.361.988.266,1.8.57a4.865,4.865,0,0,1,1.368.76,3.138,3.138,0,0,1,.864,1.093,3.622,3.622,0,0,1,.3,1.568A3.9,3.9,0,0,1,52.563-2a3.432,3.432,0,0,1-1.1,1.245,4.79,4.79,0,0,1-1.6.694,8.008,8.008,0,0,1-1.89.219,10.155,10.155,0,0,1-3-.456A9.269,9.269,0,0,1,42.313-1.6l1.159-2.261a3.662,3.662,0,0,0,.618.446,9.438,9.438,0,0,0,1.055.551,8.2,8.2,0,0,0,1.349.466,6.1,6.1,0,0,0,1.52.19q2.166,0,2.166-1.387a1.137,1.137,0,0,0-.247-.741,2.1,2.1,0,0,0-.7-.532,6.729,6.729,0,0,0-1.1-.418q-.646-.19-1.444-.418A12.276,12.276,0,0,1,45-6.28a4.421,4.421,0,0,1-1.187-.741,2.777,2.777,0,0,1-.712-.988,3.422,3.422,0,0,1-.237-1.34,4.193,4.193,0,0,1,.38-1.824A3.687,3.687,0,0,1,44.3-12.5a4.777,4.777,0,0,1,1.568-.807,6.477,6.477,0,0,1,1.919-.276,7.447,7.447,0,0,1,2.622.447,9.764,9.764,0,0,1,2.09,1.054Zm7.22-3.534h2.318L66.006,0h-2.7L62.054-3.363H57.342L56.107,0h-2.7Zm3.021,8.284-1.862-5.3-1.938,5.3ZM70.11-8.645V0H67.488V-13.49h2.033l7.03,8.854v-8.835h2.622V0H77.045ZM81.985,0V-13.49h4.9a7.324,7.324,0,0,1,2.9.532,5.948,5.948,0,0,1,2.081,1.444,5.979,5.979,0,0,1,1.254,2.137,8.038,8.038,0,0,1,.418,2.613,7.9,7.9,0,0,1-.465,2.783,5.941,5.941,0,0,1-1.34,2.128,6.031,6.031,0,0,1-2.1,1.368A7.412,7.412,0,0,1,86.887,0ZM90.9-6.764A5.741,5.741,0,0,0,90.63-8.55a4,4,0,0,0-.779-1.406,3.467,3.467,0,0,0-1.264-.912,4.263,4.263,0,0,0-1.7-.323h-2.28V-2.3h2.28a4.105,4.105,0,0,0,1.72-.342,3.52,3.52,0,0,0,1.254-.94A4.183,4.183,0,0,0,90.63-5,5.676,5.676,0,0,0,90.9-6.764Zm5.377-6.726,3.325,6.5,3.382-6.5h2.831l-4.9,8.778V0h-2.6V-4.75l-4.883-8.74ZM111.207,0V-13.49h9.063v2.3h-6.441v3.477h5.358v2.128h-5.358V0Zm16.359.1a6.129,6.129,0,0,1-2.688-.58,6.6,6.6,0,0,1-2.071-1.539,7,7,0,0,1-1.34-2.195,6.984,6.984,0,0,1-.475-2.527,6.78,6.78,0,0,1,.5-2.584,7.131,7.131,0,0,1,1.387-2.185,6.617,6.617,0,0,1,2.1-1.511,6.232,6.232,0,0,1,2.641-.561,5.923,5.923,0,0,1,2.67.6,6.668,6.668,0,0,1,2.061,1.568,7.217,7.217,0,0,1,1.33,2.2,6.935,6.935,0,0,1,.475,2.508,6.822,6.822,0,0,1-.494,2.575A6.99,6.99,0,0,1,132.3-1.967a6.578,6.578,0,0,1-2.09,1.5A6.232,6.232,0,0,1,127.566.1Zm-3.914-6.84a5.428,5.428,0,0,0,.266,1.691,4.514,4.514,0,0,0,.77,1.444A3.826,3.826,0,0,0,125.922-2.6a3.553,3.553,0,0,0,1.662.38,3.523,3.523,0,0,0,1.682-.389A3.829,3.829,0,0,0,130.5-3.648a4.616,4.616,0,0,0,.76-1.454,5.4,5.4,0,0,0,.257-1.644,5.257,5.257,0,0,0-.275-1.691,4.662,4.662,0,0,0-.779-1.444,3.719,3.719,0,0,0-1.235-1,3.585,3.585,0,0,0-1.643-.37,3.58,3.58,0,0,0-1.691.389,3.749,3.749,0,0,0-1.235,1.026,4.608,4.608,0,0,0-.75,1.444A5.4,5.4,0,0,0,123.652-6.745Zm18.221,4.522a3.009,3.009,0,0,0,1.567-.38,3.065,3.065,0,0,0,1.026-.988,4.08,4.08,0,0,0,.551-1.4,8.076,8.076,0,0,0,.161-1.625V-13.49h2.6v6.878a9.834,9.834,0,0,1-.333,2.6A5.971,5.971,0,0,1,146.4-1.881a5.007,5.007,0,0,1-1.833,1.444A6.2,6.2,0,0,1,141.892.1a6.132,6.132,0,0,1-2.745-.561,5.124,5.124,0,0,1-1.833-1.482A5.914,5.914,0,0,1,136.3-4.085a10.082,10.082,0,0,1-.313-2.527V-13.49H138.6v6.878a8.173,8.173,0,0,0,.161,1.644,4.08,4.08,0,0,0,.551,1.4,3.006,3.006,0,0,0,1.016.979A2.978,2.978,0,0,0,141.873-2.223Zm11.172-6.422V0h-2.622V-13.49h2.033l7.03,8.854v-8.835h2.622V0H159.98ZM164.92,0V-13.49h4.9a7.324,7.324,0,0,1,2.9.532,5.948,5.948,0,0,1,2.08,1.444,5.979,5.979,0,0,1,1.254,2.137,8.038,8.038,0,0,1,.418,2.613,7.9,7.9,0,0,1-.465,2.783,5.942,5.942,0,0,1-1.34,2.128,6.031,6.031,0,0,1-2.1,1.368A7.412,7.412,0,0,1,169.822,0Zm8.911-6.764a5.741,5.741,0,0,0-.266-1.786,3.994,3.994,0,0,0-.779-1.406,3.467,3.467,0,0,0-1.264-.912,4.263,4.263,0,0,0-1.7-.323h-2.28V-2.3h2.28a4.105,4.105,0,0,0,1.719-.342,3.52,3.52,0,0,0,1.254-.94A4.183,4.183,0,0,0,173.565-5,5.676,5.676,0,0,0,173.831-6.764Zm8.056-6.726H184.2L189.335,0h-2.7l-1.254-3.363h-4.712L179.436,0h-2.7Zm3.021,8.284-1.862-5.3-1.938,5.3Zm14.668-5.985h-4.313V0h-2.6V-11.191h-4.313v-2.3h11.229ZM201.248,0V-13.49h2.622V0Zm11.191.1a6.129,6.129,0,0,1-2.688-.58,6.6,6.6,0,0,1-2.071-1.539,7,7,0,0,1-1.34-2.195,6.984,6.984,0,0,1-.475-2.527,6.78,6.78,0,0,1,.5-2.584,7.131,7.131,0,0,1,1.387-2.185,6.617,6.617,0,0,1,2.1-1.511,6.232,6.232,0,0,1,2.641-.561,5.923,5.923,0,0,1,2.669.6,6.668,6.668,0,0,1,2.062,1.568,7.217,7.217,0,0,1,1.33,2.2,6.935,6.935,0,0,1,.475,2.508,6.822,6.822,0,0,1-.494,2.575,6.989,6.989,0,0,1-1.368,2.166,6.578,6.578,0,0,1-2.09,1.5A6.232,6.232,0,0,1,212.439.1Zm-3.914-6.84a5.428,5.428,0,0,0,.266,1.691,4.514,4.514,0,0,0,.77,1.444A3.826,3.826,0,0,0,210.8-2.6a3.553,3.553,0,0,0,1.663.38,3.523,3.523,0,0,0,1.681-.389,3.829,3.829,0,0,0,1.235-1.036,4.616,4.616,0,0,0,.76-1.454,5.4,5.4,0,0,0,.257-1.644,5.257,5.257,0,0,0-.275-1.691,4.662,4.662,0,0,0-.779-1.444,3.719,3.719,0,0,0-1.235-1,3.585,3.585,0,0,0-1.643-.37,3.58,3.58,0,0,0-1.691.389,3.749,3.749,0,0,0-1.235,1.026,4.608,4.608,0,0,0-.751,1.444A5.4,5.4,0,0,0,208.525-6.745Zm15.143-1.9V0h-2.622V-13.49h2.033l7.03,8.854v-8.835h2.622V0H230.6Z" transform="translate(-0.266 255.551)" fill="#b10000"/></svg>