<svg xmlns="http://www.w3.org/2000/svg" width="74.871" height="69" viewBox="0 0 74.871 69"><path d="M81.218-242.355c0-.227,0-.68-.151-.755-.452-.68-.678-1.51-1.356-1.888-.075-.151-.075-.227-.3-.3-.075-.453,0-.982-.226-1.133a7.179,7.179,0,0,0-2.11-1.888,12.294,12.294,0,0,0-5.953-1.586c-1.884-.076-3.768.151-5.652.227a21.521,21.521,0,0,0-4.823.831c-2.638.453-4.974,1.133-7.536,1.813l-7.385,2.115c-.226.076-.377.076-.528.3v.227c.6-.151,1.281-.453,1.658.453,0-1.133.98-1.359,1.733-1.586,1.206-.3,2.411-.755,3.768-.982.226-.076.528-.227.6-.076.226.3.452.151.6,0a1,1,0,0,1,.452-.378c1.13-.227,2.411-.6,3.542-.831a6.439,6.439,0,0,1,1.733-.378c1.13-.151,2.336-.227,3.768-.529.151.076.151.076.151.3,0,0,0,.076.151.076a12.728,12.728,0,0,0-2.864.529.675.675,0,0,1,.3.6,3,3,0,0,0-1.507-.529c-.452,0-1.055.378-1.658.3-.678,0-.6.906-1.13,1.057-.528-.68-.6-.755-1.206-.6-.6.227-1.13.529-1.583.68v.227a4.591,4.591,0,0,1,.98-.227c-.3.227-.678.453-.678.6-.151.6-.6.378-1.055.378a1.122,1.122,0,0,1-.6.227,4.061,4.061,0,0,1-1.356,0,.789.789,0,0,0,.452-.227,14.214,14.214,0,0,0,1.356-.453c.075,0,.075-.151.151-.3-.075-.151-.226-.227-.3-.151a1.458,1.458,0,0,1-.98.453c-.829,0-1.281.529-1.884.831a1.869,1.869,0,0,1-.6-.076v.6a4.91,4.91,0,0,0-.829.151c.151-.151.226-.378.377-.453-.3,0-.678,0-.678.076-.151.6-.754.6-1.055.831a6.887,6.887,0,0,1-.98.755s-.3-.076-.377-.227c0-.076-.151-.076-.151-.076-.377.755-1.13.227-1.733.3-.452.151-.9-.227-1.13.453a5.318,5.318,0,0,1-.9.151c-.075.453-.678.982-.9.831l-.075-.378a6.79,6.79,0,0,0,.829-.529,3.921,3.921,0,0,1-1.055-.151,3.006,3.006,0,0,1,.98-.529l-.226-.076a24.472,24.472,0,0,0-3.014,1.133,3.849,3.849,0,0,1,.3,1.057,10.147,10.147,0,0,1,.829-1.057,2.6,2.6,0,0,1,1.356-.378c0,.076.075.076.075.3a1.466,1.466,0,0,1-.6.076c-.151.076-.226.3-.528.378-.151.3-.226.6-.377.6a7.68,7.68,0,0,1-1.658.68,1.747,1.747,0,0,1-.754.3c.151-.076,0-.076,0-.076.226-.227.3-.378.6-.453a2.656,2.656,0,0,0-2.261,1.208c.075-.076.075-.3.075-.3a1.764,1.764,0,0,0-.9-.151c.528-.529.678-.755.9-.755a4.543,4.543,0,0,0-1.658.453c-1.281.151-2.035,1.359-3.316,1.586a1.513,1.513,0,0,0-.6.3v.227l1.583-.227a2.391,2.391,0,0,1-.452.378c.377.076.452.076.6.227-.678.3-1.13.831-1.507.906-.151.151-.151.3-.226.3a1.143,1.143,0,0,0-1.432.68c0,.151-.151.151-.226.227a1.694,1.694,0,0,1-.528.076,2.992,2.992,0,0,1-2.336.6.673.673,0,0,1-.6.3c-.6.453-.754.831-.151,1.435a.074.074,0,0,0-.075.076c-.075-.076-.3-.076-.452-.076-.226-.076-.528-.378-.754-.378-.075,0-.151.378-.3.378a1.679,1.679,0,0,0-1.055.227,17.247,17.247,0,0,0-1.733,1.208,16.9,16.9,0,0,0-2.035.982l-.151-.076a13.764,13.764,0,0,1,1.206-.982,1.868,1.868,0,0,0-.678.076c-.151,0-.3.076-.6.3-.075.076-.075.151-.151.151a.47.47,0,0,1-.3-.453,10.05,10.05,0,0,1-.9.453,3.542,3.542,0,0,0,.678.227v.227a2.326,2.326,0,0,1-.6.151c-.3-.453-.678-.076-.9.151-.3.151-.528.529-.829.529a35,35,0,0,0-5.2,4.3,11.217,11.217,0,0,0-2.713,3.852,3.184,3.184,0,0,0-.528,2.115,10.358,10.358,0,0,0,.226,3.1,16.39,16.39,0,0,0,1.055,2.945,12.85,12.85,0,0,0,2.261,2.266c.226.227.678.227.754.378a2.692,2.692,0,0,0,1.356,1.208,6.291,6.291,0,0,0,1.206.906,14.722,14.722,0,0,0,1.959.906c-.075.076-.075.076-.075.151a3.882,3.882,0,0,0-.829.151c.9.227,1.959,0,2.562.378a11.784,11.784,0,0,1,2.261.906,21.012,21.012,0,0,1,2.788,1.057c.528.3,1.206.529,1.959.906a19.36,19.36,0,0,0,2.185,1.133,31.994,31.994,0,0,1,4.069,1.813c.754.3,1.507.906,2.411,1.208a13.222,13.222,0,0,0,3.24,1.737l.151.076a8.534,8.534,0,0,0,1.507.982l.226.3c.226.076.452.378.829.6a4.978,4.978,0,0,0-.3,1.133c.075,0,.075.076.151.076a4.787,4.787,0,0,0,.754-.906,2.6,2.6,0,0,0,.678.6c-.377.227-.754.755-.98.831a2.013,2.013,0,0,0-1.583.529v.151a20.157,20.157,0,0,0-2.261.378.391.391,0,0,0-.3.151c.075,0,.075.151.075.151a4.315,4.315,0,0,1,.9.076c.226,0,.6.151.754.151.151-.227.151-.529.226-.529a4.493,4.493,0,0,0,2.035-.755h.151A14.493,14.493,0,0,1,40.3-195c.151,0,.452,0,.528.076.151.076.151.3.226.529a.778.778,0,0,0,.3.076l-.98.6c.377.6.678.3.98.227.98-.378,1.281-.378,1.884.529a1.894,1.894,0,0,0,.528.6c.754.529.754,1.133.226,2.039a10.491,10.491,0,0,1-3.617,3.172c-.6.3-1.281.6-1.809.906-.829.3-1.658.529-2.336.755-1.13.3-2.185.378-3.24.755a12.554,12.554,0,0,0-1.356.378c0,.076-.151.227-.151.378-.151-.529-.6-.529-1.055-.6-.98-.151-2.185-.151-3.316-.3a2.754,2.754,0,0,1-1.356-.3.846.846,0,0,1-.151-1.359,7.113,7.113,0,0,1,.754-.755,4.386,4.386,0,0,1,1.432-.755c1.13-.6,2.411-.906,3.693-1.51.151-.151.377-.227.377-.3.075-.3.151-.3.528-.3h.528c0-.076.075-.378.075-.6-.075-.151-.226-.3-.377-.529-.678.453-1.206,1.057-2.261.982-.377-.076-1.356-.453-1.356.755a7.338,7.338,0,0,0-1.13-.755c.377-.151.829-.529,1.13-.6a6.834,6.834,0,0,0,1.055-.529c.377-.076.829-.227,1.432-.378a10.352,10.352,0,0,1,2.035-.831,5.38,5.38,0,0,0,1.13-.6.264.264,0,0,1-.075-.151c-.452.076-.829,0-1.206.076a10.653,10.653,0,0,0-1.809.982.452.452,0,0,0-.3.076,4.416,4.416,0,0,0-1.507.453,6.967,6.967,0,0,0-.754.227c-.3.151-.754.3-1.13.529a2.558,2.558,0,0,0-.754.076c.075-.151.075-.453.226-.529v-.151a2.849,2.849,0,0,0-.678-.6c-1.206.755-2.487,1.284-3.768,2.115a2.986,2.986,0,0,0-1.658,1.661c-.226.378-.075.906-.3,1.359a4.434,4.434,0,0,0,2.185,4.984c1.356.982,3.165.755,4.748,1.208a4.871,4.871,0,0,0,1.055,0A27.188,27.188,0,0,0,36-181.711c1.281-.3,2.11-.68,3.165-.982a40.43,40.43,0,0,0,5.426-2.719,3.252,3.252,0,0,0,1.884-2.945c-.075-.378.075-.906,0-1.284-.075-.906,0-1.964-.829-2.719a5.315,5.315,0,0,1-.9-2.039c-.377-.529-.226-.6.377-.906a2.19,2.19,0,0,0,1.884-.906c-.528-.151-.6-.151-1.055.378a2.775,2.775,0,0,1-2.562-.151v-.227c.377-.227.678-.529,1.13-.755-.9-.453-1.658.529-2.261-.378.226,0,.377-.076.528-.076a.074.074,0,0,0,.075-.076c-.3-.076-.6-.076-.829-.151a1.118,1.118,0,0,1-.678-.151,2.93,2.93,0,0,0-1.658-1.359,39.635,39.635,0,0,0-6.782-4.3,4.572,4.572,0,0,1-1.356-.755c-.151-.076-.452-.151-.754-.3,0,0-.151-.3-.226-.3-1.206-.529-2.411-1.284-3.617-1.812-1.055-.755-2.336-.831-3.24-1.51a35.588,35.588,0,0,0-3.994-1.737c-1.206-.68-2.336-.982-3.391-1.586-1.13-.453-2.11-.906-3.165-1.359a25.387,25.387,0,0,1-2.411-1.284c-1.432-.906-1.959-1.435-1.432-3.4a2.339,2.339,0,0,1,.151-.6l-.3-.076a14.928,14.928,0,0,0,.528-1.964c.98.076,1.432-.529,1.583-1.435.151-.076.528-.227.6-.378a.423.423,0,0,0,.377-.453c.452-.6.754-1.057,1.432-1.208.151-.076.226-.3.3-.529.3-.227.3-.378.452-.68.6-.3,1.206-.831,2.035-1.284l3.24-2.19c.377-.076.829-.378.6-.906a3.936,3.936,0,0,0,.9-.529c-.3.378-.377.529-.528.6,0,.227,0,.227.075.3.528-.755,1.583-.3,1.884-1.208-.226,0-.377-.151-.754-.151a6.621,6.621,0,0,1,.754-.378,21.26,21.26,0,0,1,3.165-1.661,28.117,28.117,0,0,1,4.522-2.266c.075-.076.3-.3.377-.3,1.809-.755,3.316-1.586,5.049-2.341,1.055-.529,2.411-.755,3.391-1.284a76.841,76.841,0,0,1,8.742-3.323c1.809-.68,3.768-.982,5.727-1.586a9.93,9.93,0,0,1,1.658-.6c1.884-.453,3.768-.982,5.727-1.359a3.012,3.012,0,0,0,.226-.3,5.5,5.5,0,0,0,.754-.68c-.075.227,0,.227,0,.378a1.54,1.54,0,0,0-.075.378,3.643,3.643,0,0,1,1.281,0,8.988,8.988,0,0,1,1.658-.378,9.675,9.675,0,0,0,3.843-.378c.151-.151.226-.151.3-.151,1.356,0,2.487.076,3.617.076a1.53,1.53,0,0,1,.377.076,9.523,9.523,0,0,1,2.11.453,5.316,5.316,0,0,0,.9.151,3.222,3.222,0,0,1-.754.227v.151a3.662,3.662,0,0,0,.9.076,2.391,2.391,0,0,0,.678.227c1.055.076,1.281.378,1.055,1.284-.226.831-.226.831.528,1.057-.377.529-.528,1.284-.98,1.737,0,.076-.151.227-.377.227-.075,0-.3-.151-.377-.151a.8.8,0,0,1,.3-.453l.452-.68a1.612,1.612,0,0,0,.377-.6,4.8,4.8,0,0,0-.678.151c-.678.6-.754,1.737-1.658,2.19,0,.151-.075.151-.075.3,0,.076-.075.151,0,.3a2.333,2.333,0,0,0,.528.151.578.578,0,0,1,.151-.378c-.075-.755.377-.453.678-.6l.075.151a7.856,7.856,0,0,1-1.658,1.888c0-.378-.226-.453-.3-.831a1.384,1.384,0,0,1-.9.6s0,.227.151.3c.075,0,.452,0,.528.076.075,0,.151.227.151.3.075.076.075.227.3.3-.3.076-.377.227-.754.3a.913.913,0,0,0-.377-.076,5.408,5.408,0,0,0,.829-.529,1.589,1.589,0,0,0-1.507.529,26.19,26.19,0,0,0-2.713,2.341,2.218,2.218,0,0,0-.6.6c.528.68-.377.529-.754.831a.821.821,0,0,0,1.356-.227,1.214,1.214,0,0,1,.98-.906.742.742,0,0,0,.528-1.133,3.249,3.249,0,0,0,1.281-.982.68.68,0,0,1,.754,0,4.486,4.486,0,0,1-.3.6c-.151.151,0,.151,0,.151a7,7,0,0,0,.754-.378c.377-.378.754-.982,1.13-1.435.754-.906,1.658-1.888,2.411-2.719,0,0,.151-.076.151-.151l.829-1.51a.807.807,0,0,1,.452-.151c.075,0,.151.151.075.151-.075.6.151,1.51-.528,2.039a3.734,3.734,0,0,0-.98,2.568c-.754-.227-1.055.076-1.055.831,0,.076,0,.378-.075.378-.452.453-.754.982-1.13,1.435a3.005,3.005,0,0,0-1.281,1.284c-.151.076-.151.453-.151.68.151.076.151.151.3.227.226,0,1.206-.6,1.206-.906-.226-.68.3-1.133.6-1.51a.859.859,0,0,1,.452-.227c.452.378.528-.076.678-.3.151-.3.377-.378.6-.529a2.651,2.651,0,0,1,.6-.755,23.7,23.7,0,0,0,1.884-2.417,1.266,1.266,0,0,0,.3-1.133A6.208,6.208,0,0,1,81.218-242.355Zm-16.127-6.268c-.151,0-.3.227-.3.378-.3.453-.754-.076-1.206.076a1.781,1.781,0,0,1-.151-.6,22.993,22.993,0,0,1,2.713-.378,1.787,1.787,0,0,1,.9-.227,2.045,2.045,0,0,1,.678,0A3.076,3.076,0,0,1,65.091-248.623Zm2.713.755c.226.076.6-.151,1.055-.151-.6-.6-1.206.227-1.733-.151a8.761,8.761,0,0,1,1.13-.453c.226.151.6.227.754.378C68.859-247.566,68.03-247.188,67.8-247.868Zm-3.843.529c-.6,0-1.055.378-1.733,0,.754-.227,1.206-.076,1.809-.227A.373.373,0,0,1,63.961-247.339Zm-4.748,1.133c0-.076-.151-.151-.226-.227a3.678,3.678,0,0,0-.6.755,1.537,1.537,0,0,0-.452-.529c-.377.151-.678.3-1.13.529a1.278,1.278,0,0,0-.151-.378l.98-.453c-.226-.076-.226-.227-.377-.453a5.175,5.175,0,0,1,.98.151.571.571,0,0,0,.3-.151c.377-.378.678-.453,1.055.076,0,.076.151.076.226.3A2.844,2.844,0,0,1,59.213-246.207Zm1.281-.3c0-.227,0-.227-.075-.3a3.285,3.285,0,0,0,1.13-.378.268.268,0,0,0,.151.227A8.737,8.737,0,0,0,60.494-246.509ZM54.24-245.3l-.075-.3a13.528,13.528,0,0,0,1.658-.453.823.823,0,0,1,.075.378A4.4,4.4,0,0,0,54.24-245.3Zm-16.956,4c.226,0,.377.227.6.6a3.112,3.112,0,0,0,.226-.6c0-.151-.377-.6-.452-.529-.754.453-1.658.755-2.336,1.133a8.2,8.2,0,0,0,1.281-.076C36.53-241.222,37.058-241.373,37.284-241.3Zm-2.939,2.341c0-.3-.226-.378-.226-.529a6.087,6.087,0,0,0-.9,1.057c-.226,0-.226-.3-.3-.3a.52.52,0,0,1,.377-.227.513.513,0,0,1,.226-.3l.226-.6a6.883,6.883,0,0,1,1.055.529A.734.734,0,0,0,34.345-238.957Zm-3.994,1.435s-.075-.076,0-.227a7.4,7.4,0,0,1-1.206.378c-.452.227-.9,0-1.356-.076l-.075.3a11.14,11.14,0,0,0,1.432.227C29.673-236.917,29.974-237.446,30.351-237.522ZM20.1-232.688c.754.378,1.432-.529,2.11-.68.9-.453,1.884-1.435,3.014-1.586a13.107,13.107,0,0,0,1.356-.831.5.5,0,0,0-.3-.378c.829,0,1.432.227,1.959-.378-.528-.3-1.206.6-1.658-.378a6.505,6.505,0,0,0-1.206.755c-.151.453-.3.6-.9.453a.391.391,0,0,0-.3.151,2.848,2.848,0,0,1-.9.68c-.075.227-.151.529-.377.6-.452.076-1.055.378-1.658.453-.075,0-.075,0-.226.076l.377.151a3.606,3.606,0,0,1-1.733.378,13.982,13.982,0,0,0-1.356.906,1.309,1.309,0,0,0,.829.453A3.192,3.192,0,0,0,20.1-232.688Zm47.175,1.964-.678.6v.227c.3-.151.528-.076.678-.151a4.886,4.886,0,0,0,1.356-1.208c.528-.378,1.206-.68,1.884-1.208.377-.529.829-.906,1.13-1.359,0-.076-.075-.076-.075-.151a6.1,6.1,0,0,0-.98.453,5.567,5.567,0,0,1-1.884,1.586c-.151,0-.151.151-.226.227A3.836,3.836,0,0,0,67.277-230.725Zm6.1-2.19c-.075.3-.377.453-.6.6.151.3.452.378.6.529-.151.453-.452.453-.678.3-.226,0-.377-.151-.452-.151a3.567,3.567,0,0,0-.9,0,12.46,12.46,0,0,0,.151,1.586l-.075.3a8.808,8.808,0,0,0,1.884-.831c.151,0,.151-.227.3-.529a2.109,2.109,0,0,0,.075-.755h.151C73.532-232.084,73.532-232.462,73.381-232.915Zm-4.522.3a1.1,1.1,0,0,0-.3-.151.569.569,0,0,0-.3.076c-.226.076-.377.378-.528.453l.075.151a1.237,1.237,0,0,0,.678-.151C68.558-232.235,68.859-232.462,68.859-232.613Zm-1.733.3a16.034,16.034,0,0,1-1.884,1.208,2.623,2.623,0,0,0,2.487-.529A1.332,1.332,0,0,1,67.126-232.311Zm4.446,2.19a1.807,1.807,0,0,0,.151-.68,4.063,4.063,0,0,0,.9-.3C72.175-230.574,71.8-230.423,71.572-230.121ZM15.2-228.912c.528-.982,1.432-1.208,2.035-1.661.151,0,.151,0,.151.076A13.7,13.7,0,0,1,15.2-228.912Zm47.476,0c-.452.68-1.206,1.208-1.583.831-.829.151-1.055.68-1.432,1.133,0,.3-.377.3-.678.6.528.3.754.3,1.13-.076a2.182,2.182,0,0,1,.829-.831c.151-.151.528-.227.6-.3a12.732,12.732,0,0,0,2.035-1.284c-.075-.453.075-.6.754-.6.226.076.377-.151.528-.378a1.932,1.932,0,0,0-.9-.378C63.433-229.214,63.283-228.837,62.68-228.912Zm7.611-1.208c-.6.227-.754.68-1.13.831.829.755,1.281.68,1.884-.151C70.593-229.365,70.291-229.441,70.291-230.121Zm-5.124,1.435c.151-.151.377-.453.6-.529.377-.076.452-.227.452-.831-.678.6-1.13.906-1.733,1.359C64.941-228.308,64.941-228.308,65.167-228.686Zm3.693,0c.075-.076-.3-.227-.6-.076l-1.583,1.208s0,.151.226.3a6.99,6.99,0,0,1,.754-.378c0,.076.075.076.151.151a2.521,2.521,0,0,1-1.281.755c-.075,0-.075-.076-.151-.076a1.288,1.288,0,0,0,.075-.529,1.781,1.781,0,0,1-.754-.227c-.151.151,0,.151,0,.227-.3.3-.6.6-.98,1.057a6.884,6.884,0,0,0-1.055.529c-.226.076-.3.227-.6.453a3.218,3.218,0,0,0-.9.453,1.207,1.207,0,0,0,.226.6c.226.378.226.378-.3.453a4.8,4.8,0,0,0-1.356.755c-.528.3-.98,1.057-1.507.3-.075-.151-.151-.151-.3,0-.6.151-1.055.378-.754,1.284a4.922,4.922,0,0,1-.6-.529c-.528.529-1.13.831-1.733,1.359-.3.151-.6.151-.452.831a1.764,1.764,0,0,0-.829-.151L54.014-220c-.3.3-.528.68-.9.831-.226.3-.528.3-.829.453-.678.151-1.356.076-1.432.982-.528-.378-1.206,0-1.583.755-.3.076-.829.151-.829.227-.075.378-.075.529-.528.453a3.972,3.972,0,0,1-.98-.076c-.3-.529-.6-.831-1.507-.378a7.463,7.463,0,0,1,.678-1.133c.226-.151.377-.227.452-.378,0,.3.151.378.3.831.151-.453.151-.6.226-.831a1.617,1.617,0,0,1,.528.3c.075-.076.075-.076.226-.076a7.842,7.842,0,0,1-.3-.755,1.869,1.869,0,0,0-.6.076c-.377.076-.377.227-.6.3-.377.151-.9.151-1.206.378a.373.373,0,0,1-.075-.227l.678-.453c.075-.076.226-.076.3-.151.151-.227.377-.453.452-.378.528.453,1.13-.151,1.583-.529.377-.227.9-.906,1.432-.831.754-.076,1.356-.982,2.487-.982-.377.227-.377.378-.528.453a13.764,13.764,0,0,0-1.206.982c-.528.076-1.055.3-1.432.3-.452.076-.754.378-.754,1.057.9-.453,1.583-.755,2.336-1.057.075.076.075.3.075.529a6.877,6.877,0,0,1,.98-.6c0-.151-.151-.378,0-.378.6-.453,1.055-.906,1.658-1.284.452-.076.452-.151.528-.6-.377.227-.678.227-.9.378-.075-.151-.075-.151-.151-.151l.377-.6a9.41,9.41,0,0,0,.9-.6c-.6.227-1.583-.076-1.733.906a1.022,1.022,0,0,1-.528-.755,22.3,22.3,0,0,0-1.959,1.208.074.074,0,0,1,.075.076c.6-.151,1.13-.529,1.658-.68l.151.076c-.678.453-1.356.755-2.035,1.208-.3.076-.528-.151-.98-.151a.264.264,0,0,1-.075.151c-.226.151-.754.151-.754.378-.6.831-1.281.68-2.035.906-.226.076-.452,0-.6.076-.9.453-1.733.982-2.562,1.359-1.583.68-3.165,1.51-4.748,2.115a25.6,25.6,0,0,1-4.22,1.586c-.9.453-2.185.68-3.316,1.133-.528.076-.754.68-.754,1.133a1.122,1.122,0,0,1,0,.982v.453c.151.453.151.982.3,1.51.075.227,0,.6.075.831a9.211,9.211,0,0,0,1.432.906c.6.3,1.356-.076,2.11-.227.829-.227,1.583-.68,2.411-.906,2.11-.906,4.522-1.813,6.707-2.794,2.035-.831,3.994-1.812,5.953-2.794.075-.227.151-.227.3-.3a5.944,5.944,0,0,0,2.185-1.359,1.781,1.781,0,0,0,.754-.227c.3-.227.3-.6.377-.755.151-.076.6.151.754,0a5.26,5.26,0,0,0,1.583-.831,5.675,5.675,0,0,0,.98-.453.074.074,0,0,0-.075-.076,1.962,1.962,0,0,0-.829.227c.678-.982,1.583-1.51,2.185-.906a15.936,15.936,0,0,1,1.507-.906c-.377-.378.075-.68.3-.906.452-.378.829-.6,1.432-.227-.151-.6.3-.755.829-1.057a7.45,7.45,0,0,1,1.356-.151l-.3-.529a1.7,1.7,0,0,0,1.206-1.435.9.9,0,0,1,.377.68,5.592,5.592,0,0,0,.9-.982c.075,0,.226.151.3.3a8.678,8.678,0,0,1,1.281-1.057c.377-.3,1.281-.227,1.507-.831v-.151c.226-.3.528-.6.528-.831a1.136,1.136,0,0,1,1.055-.68c.151,0,.3.227.678.378a5.361,5.361,0,0,1,.075-1.057C69.236-228.308,69.01-228.157,68.859-228.686ZM11.134-225.74s-.151,0-.151-.227a.773.773,0,0,0,.377-.453,1.536,1.536,0,0,1,.452-.68c.151-.151.3-.378.452-.378.377-.076.6-.076.9-.151.528-.453.829-.906,1.206-1.057a.749.749,0,0,1,.678-.076C13.7-227.628,12.415-226.722,11.134-225.74Zm51.847-1.888A4.293,4.293,0,0,0,61.1-226.42l-1.884.982c-1.356.982-2.713,1.586-4.069,2.417-.452.151-.754.453-1.055.529a1.836,1.836,0,0,0,.452.755,4.391,4.391,0,0,0,1.13-.831,2.846,2.846,0,0,1,.9-.755,4.947,4.947,0,0,1,1.809-1.057.621.621,0,0,0,.528-.453c.075-.076.226-.3.3-.3,1.206-.3,2.185-1.208,3.24-1.661.151-.529.6-.529.9-.68a2.052,2.052,0,0,0,.9-.453,1.54,1.54,0,0,0-.075-.378c-.075.076-.226,0-.6.076A4.472,4.472,0,0,0,62.981-227.628Zm-4.6,1.359c-.226.227-.226.453-.452.453-.151.151-.528.3-.678.227-.754-.151-.829-.151-1.13.453-.226.151-.452,0-.829.151-.528.3-.9.6-1.281.831v.227c-.151.151-.151.3-.151.68.678.378.829-.529,1.583-.529.528-.076,1.055-.68,1.583-1.057a2.78,2.78,0,0,1,2.035-.831A2.6,2.6,0,0,1,58.384-226.269Zm6.406,1.133a2.324,2.324,0,0,1-.754-.378c.075,0,.075-.151.075-.227a1.043,1.043,0,0,0,.678,0,1.093,1.093,0,0,1,.151.529C64.865-225.212,64.865-225.136,64.79-225.136Zm-20.046,7.175a1.487,1.487,0,0,1-.9.453A.612.612,0,0,1,44.744-217.962Zm.377,2.945c-.3,0-.377,0-.528-.151-.226,0-.075-.151-.075-.151a2.324,2.324,0,0,0,.754-.378A1.124,1.124,0,0,1,45.121-215.016ZM57.1-204.141c-.075.151-.151.151-.528.227.075-.076,0-.227,0-.378-.075-.151-.3-.227-.528-.529,0-.6.9-.151,1.13-.529a2.129,2.129,0,0,0-.075-.6,1.278,1.278,0,0,1,.6.453,12.1,12.1,0,0,0,0-1.661c-.075-1.737-.452-3.323-2.336-3.927l-1.281-.6a.762.762,0,0,1-.075.227.6.6,0,0,0,.377.6,2.093,2.093,0,0,1,1.281,2.341,3.211,3.211,0,0,1-.151,1.661c-.377.378-.452.906-.829,1.51.452.151.6.151.754.227-.678,1.208-1.206,1.586-1.884,1.435a2.673,2.673,0,0,1-.754,1.208,10,10,0,0,1-2.035,1.964c-1.206.68-2.411,1.284-3.693,1.888a1.635,1.635,0,0,1-.528.453c.075.151.075.151.3.3a.3.3,0,0,1,.3-.151,9.848,9.848,0,0,1,2.11-1.359c.3-.151.377-.378.528-.453,1.055-.6,2.185-1.208,3.09-1.813a.805.805,0,0,0,.377-.227,8.4,8.4,0,0,0,.754-.68,9.8,9.8,0,0,0,.9-1.057c.528-.529.98-.68,1.206-.151.3.151.151.453.3.68.9-.378,1.733-1.435,1.206-2.039C57.4-204.821,57.329-204.443,57.1-204.141Zm-30.445-2.341.151.151c-.377.378-.226.453.3.453.151.227.452.227.6.378,0,.076,0,.076-.075.151l-1.206-.3a1.54,1.54,0,0,0-.075-.378C26.357-206.18,26.583-206.331,26.658-206.482Zm29.089.831a.758.758,0,0,1-.226-.076c.151-.3.377-.378.377-.6.075,0,.151.076.151.227Zm-1.356.227a2.462,2.462,0,0,0-.3,1.057,2.669,2.669,0,0,0,.528-.076,2.321,2.321,0,0,1-.075-.982Zm-21.628,2.417a5.255,5.255,0,0,1,1.356.68,3.6,3.6,0,0,0-.9.378c-.3-.378-.452-.831-.678-.982C32.612-203.008,32.612-203.008,32.762-203.008ZM55.9-201.951q0,.113-.452,0a.452.452,0,0,0-.3.076s0,.3.075.3c0,.076.151.151.3.076a5.4,5.4,0,0,0,1.13-.831c-.151,0-.151-.076-.226-.076C56.274-202.329,56.124-202.1,55.9-201.951Zm-18.689,1.435c.075.227.3.453.377.68,0,.076-.075.076-.3.151a1.468,1.468,0,0,0-.6-.6A1.309,1.309,0,0,1,37.208-200.516Zm15.976.529c-.075.831-.678.529-1.055.453-.528,1.057-1.507,1.359-2.336,1.813l-1.055.453c-.3.151-.377.529-.678.906v.151a22.6,22.6,0,0,0,1.959-1.133,5.821,5.821,0,0,0,1.432-1.133c.226-.151.678-.227.9-.529.377-.076.754-.151.9-.378C53.561-199.534,53.637-199.912,53.185-199.987Zm-9.269,2.115c.678-.076,1.13-.453,1.733-.453C45.347-198.93,44.669-198.7,43.915-197.873Zm1.809,0a5.675,5.675,0,0,0-.98.453c.528,0,.754.076,1.356.076A5.147,5.147,0,0,0,45.724-197.873ZM35.023-195c0,.151-.075.227-.075.3.226.076.452.3.754.3a.567.567,0,0,1,.075-.378A1.994,1.994,0,0,0,35.023-195Zm-2.261.831a2.675,2.675,0,0,1-.678.3.444.444,0,0,1,.151.378c.377-.227.528-.378.678-.378Zm-2.713,1.208c.528.529.678.151,1.055-.378h.528a2.65,2.65,0,0,0-.377-.6c-.528.529-1.055.982-1.658.6C29.748-193.039,30.049-193.039,30.049-192.964Zm3.165,1.737.3.151a2.27,2.27,0,0,0,1.206-.378c.528-.151,1.206-.6,1.658-.227a3.647,3.647,0,0,1,.9-.755,23.3,23.3,0,0,0,2.864-.529,1.65,1.65,0,0,1-.075-.453,3.132,3.132,0,0,0-1.281.151c-.528,0-.829.3-1.206.3-.452.227-.9.453-1.281.68a3.935,3.935,0,0,1-1.206.453l-1.583.227C33.441-191.6,33.365-191.3,33.214-191.227Zm-4.748-.68a4.691,4.691,0,0,1,.3-1.057c-.528.151-1.206.076-1.281.906C27.789-191.831,28.165-191.6,28.467-191.907Zm-2.261.755a.636.636,0,0,0,.452-.151,5,5,0,0,1-.075,1.057C26.131-190.472,25.98-190.849,26.206-191.151Zm1.356.906s0,.227.075.3a3.863,3.863,0,0,0-.754.3.282.282,0,0,1-.226-.3C26.96-190.019,27.261-190.17,27.563-190.245Zm9.872,6.193c.151.076.377.378.452.378-.3.076-.754.076-1.281.151a3.067,3.067,0,0,1-.528-.151c-.6-.3-.98.151-1.055.755-.528.076-.98.227-1.281.227a1.488,1.488,0,0,1-.829-.151c.3-.151.528-.151.6-.378v-.151a9.187,9.187,0,0,0-1.959.453.074.074,0,0,1-.075.076c.151.076.377.076.528.151v.227c-.9,0-1.959.076-2.939.151.3-.6.678-.68,1.055-.453a1,1,0,0,0,.9-.151,2.264,2.264,0,0,1,1.055-.529,1.7,1.7,0,0,0-.075-.529,2.484,2.484,0,0,0,2.185.076c.3,0,.377-.227.452-.227a2.82,2.82,0,0,0,2.035-.453c1.206-.3,2.411-.68,3.617-.982A31.844,31.844,0,0,1,37.435-184.052Zm-8.742.68c-.226-.076-.6.076-.98.076a2.012,2.012,0,0,0-1.733-.076,1.189,1.189,0,0,1-.528-.529c-.075,0-.075-.151-.075-.151.075-.076.226-.227.3-.227a6.025,6.025,0,0,1,1.959.227,7.608,7.608,0,0,1,2.185.3C29.446-183.448,29.3-182.92,28.693-183.373Z" transform="translate(-6.347 249.922)" fill="#b10000"/><path d="M4.49,5.088h.223c.074-.223.223-.223.446-.149,0,.074.074.074.149,0,.372-.074.52-.446.669-.743s.223-.669.372-1.04c0-.074.074-.149.074-.223a1.056,1.056,0,0,0,.149-.446c.074-.223,0-.372.074-.52l.3-.52A3.472,3.472,0,0,1,7.314.7,10.331,10.331,0,0,0,8.131-.857c.149-.595.52-1.115.3-1.784a2.491,2.491,0,0,1,0-.743v-.149a4.382,4.382,0,0,0-.3-.595l-.223-.223A2.889,2.889,0,0,0,6.794-4.5a2.01,2.01,0,0,0-1.115.223,8.323,8.323,0,0,1-1.635.669.784.784,0,0,1-.892-.223,1.829,1.829,0,0,0-.818-.3.707.707,0,0,0-.743.3.669.669,0,0,0,0,.818A2.261,2.261,0,0,1,1.74-1.3c0,.223-.223.372-.223.52.074.3-.074.446-.223.669,0,.074-.074.074-.074.149,0,.3-.074.595-.074.892-.074.3-.223.595-.3.892,0,.149.074.372.074.595v.149c.149.52.669.743,1.115,1.04A4.214,4.214,0,0,1,3,4.2l.52.3c.074.074.3.074.372.149Z" transform="translate(43.837 58.761)" fill="#b10000"/></svg>