<svg xmlns="http://www.w3.org/2000/svg" width="317.889" height="446.252" viewBox="0 0 317.889 446.252"><g transform="translate(5.604)"><path d="M314.34-218.86c0-.93,0-2.79-.62-3.1-1.86-2.79-2.79-6.2-5.58-7.75-.31-.62-.31-.93-1.24-1.24-.31-1.86,0-4.03-.93-4.65-2.79-3.1-4.96-5.89-8.68-7.75-7.13-4.65-15.81-5.89-24.49-6.51-7.75-.31-15.5.62-23.25.93-6.2.62-13.64,1.24-19.84,3.41-10.85,1.86-20.46,4.65-31,7.44l-30.38,8.68c-.93.31-1.55.31-2.17,1.24v.93c2.48-.62,5.27-1.86,6.82,1.86,0-4.65,4.03-5.58,7.13-6.51,4.96-1.24,9.92-3.1,15.5-4.03.93-.31,2.17-.93,2.48-.31.93,1.24,1.86.62,2.48,0a4.132,4.132,0,0,1,1.86-1.55c4.65-.93,9.92-2.48,14.57-3.41a26.539,26.539,0,0,1,7.13-1.55c4.65-.62,9.61-.93,15.5-2.17.62.31.62.31.62,1.24,0,0,0,.31.62.31a52.457,52.457,0,0,0-11.78,2.17,2.771,2.771,0,0,1,1.24,2.48,12.359,12.359,0,0,0-6.2-2.17c-1.86,0-4.34,1.55-6.82,1.24-2.79,0-2.48,3.72-4.65,4.34-2.17-2.79-2.48-3.1-4.96-2.48-2.48.93-4.65,2.17-6.51,2.79v.93c1.24-.62,2.79-.62,4.03-.93-1.24.93-2.79,1.86-2.79,2.48-.62,2.48-2.48,1.55-4.34,1.55a4.62,4.62,0,0,1-2.48.93c-1.55.62-3.41,0-5.58,0a3.247,3.247,0,0,0,1.86-.93,58.514,58.514,0,0,0,5.58-1.86c.31,0,.31-.62.62-1.24-.31-.62-.93-.93-1.24-.62-1.55,1.24-2.48,1.86-4.03,1.86-3.41,0-5.27,2.17-7.75,3.41a7.7,7.7,0,0,1-2.48-.31v2.48a20.239,20.239,0,0,0-3.41.62c.62-.62.93-1.55,1.55-1.86-1.24,0-2.79,0-2.79.31-.62,2.48-3.1,2.48-4.34,3.41a28.313,28.313,0,0,1-4.03,3.1s-1.24-.31-1.55-.93c0-.31-.62-.31-.62-.31-1.55,3.1-4.65.93-7.13,1.24-1.86.62-3.72-.93-4.65,1.86-.31.31-2.17.31-3.72.62-.31,1.86-2.79,4.03-3.72,3.41l-.31-1.55a27.949,27.949,0,0,0,3.41-2.17,16.158,16.158,0,0,1-4.34-.62,12.373,12.373,0,0,1,4.03-2.17l-.93-.31a100.8,100.8,0,0,0-12.4,4.65c.93,1.55.93,3.41,1.24,4.34.93-.93,2.17-3.41,3.41-4.34a10.705,10.705,0,0,1,5.58-1.55c0,.31.31.31.31,1.24a6.043,6.043,0,0,1-2.48.31c-.62.31-.93,1.24-2.17,1.55-.62,1.24-.93,2.48-1.55,2.48-2.17,1.55-4.65,1.86-6.82,2.79a7.2,7.2,0,0,1-3.1,1.24c.62-.31,0-.31,0-.31.93-.93,1.24-1.55,2.48-1.86-4.34,0-6.82,1.86-9.3,4.96.31-.31.31-1.24.31-1.24a7.269,7.269,0,0,0-3.72-.62c2.17-2.17,2.79-3.1,3.72-3.1a18.721,18.721,0,0,0-6.82,1.86c-5.27.62-8.37,5.58-13.64,6.51a6.231,6.231,0,0,0-2.48,1.24v.93l6.51-.93a9.83,9.83,0,0,1-1.86,1.55c1.55.31,1.86.31,2.48.93-2.79,1.24-4.65,3.41-6.2,3.72-.62.62-.62,1.24-.93,1.24-2.48-.62-4.34,0-5.89,2.79,0,.62-.62.62-.93.93a6.982,6.982,0,0,1-2.17.31c-3.1,2.17-6.2,3.1-9.61,2.48a2.771,2.771,0,0,1-2.48,1.24c-2.48,1.86-3.1,3.41-.62,5.89a.3.3,0,0,0-.31.31c-.31-.31-1.24-.31-1.86-.31-.93-.31-2.17-1.55-3.1-1.55-.31,0-.62,1.55-1.24,1.55-1.55,0-3.1,0-4.34.93-2.79,1.24-4.96,3.72-7.13,4.96-2.79,1.55-5.89,2.17-8.37,4.03l-.62-.31a56.6,56.6,0,0,1,4.96-4.03,7.7,7.7,0,0,0-2.79.31c-.62,0-1.24.31-2.48,1.24-.31.31-.31.62-.62.62a1.928,1.928,0,0,1-1.24-1.86c-1.55.62-2.48,1.55-3.72,1.86a14.6,14.6,0,0,0,2.79.93v.93a9.583,9.583,0,0,1-2.48.62c-1.24-1.86-2.79-.31-3.72.62-1.24.62-2.17,2.17-3.41,2.17a143.889,143.889,0,0,0-21.39,17.67A46.043,46.043,0,0,0,8.68-134.85c-1.55,2.48-2.79,6.2-2.17,8.68a42.43,42.43,0,0,0,.93,12.71,67.181,67.181,0,0,0,4.34,12.09c2.17,3.72,6.2,6.2,9.3,9.3.93.93,2.79.93,3.1,1.55.93,2.17,3.1,3.72,5.58,4.96a25.875,25.875,0,0,0,4.96,3.72c2.48,1.86,5.89,2.48,8.06,3.72-.31.31-.31.31-.31.62a16,16,0,0,0-3.41.62c3.72.93,8.06,0,10.54,1.55,3.72.62,5.89,2.48,9.3,3.72a86.546,86.546,0,0,1,11.47,4.34c2.17,1.24,4.96,2.17,8.06,3.72a79.7,79.7,0,0,0,8.99,4.65,131.753,131.753,0,0,1,16.74,7.44c3.1,1.24,6.2,3.72,9.92,4.96,4.03,2.17,8.06,5.89,13.33,7.13l.62.31a35.12,35.12,0,0,0,6.2,4.03l.93,1.24c.93.31,1.86,1.55,3.41,2.48a20.4,20.4,0,0,0-1.24,4.65c.31,0,.31.31.62.31a19.66,19.66,0,0,0,3.1-3.72,10.7,10.7,0,0,0,2.79,2.48c-1.55.93-3.1,3.1-4.03,3.41-2.79,0-5.27.62-6.51,2.17v.62a83.092,83.092,0,0,0-9.3,1.55,1.611,1.611,0,0,0-1.24.62c.31,0,.31.62.31.62a17.791,17.791,0,0,1,3.72.31c.93,0,2.48.62,3.1.62.62-.93.62-2.17.93-2.17,2.79-.62,5.58-.93,8.37-3.1h.62a59.725,59.725,0,0,1,6.2-1.55c.62,0,1.86,0,2.17.31.62.31.62,1.24.93,2.17a3.206,3.206,0,0,0,1.24.31l-4.03,2.48c1.55,2.48,2.79,1.24,4.03.93,4.03-1.55,5.27-1.55,7.75,2.17a7.78,7.78,0,0,0,2.17,2.48c3.1,2.17,3.1,4.65.93,8.37-4.03,5.89-8.68,9.3-14.88,13.02-2.48,1.24-5.27,2.48-7.44,3.72-3.41,1.24-6.82,2.17-9.61,3.1-4.65,1.24-8.99,1.55-13.33,3.1-1.55.62-3.72.62-5.58,1.55,0,.31-.62.93-.62,1.55-.62-2.17-2.48-2.17-4.34-2.48-4.03-.62-8.99-.62-13.64-1.24a11.35,11.35,0,0,1-5.58-1.24c-2.17-.93-2.17-3.72-.62-5.58a29.227,29.227,0,0,1,3.1-3.1c2.17-1.24,3.72-2.79,5.89-3.1,4.65-2.48,9.92-3.72,15.19-6.2.62-.62,1.55-.93,1.55-1.24.31-1.24.62-1.24,2.17-1.24h2.17c0-.31.31-1.55.31-2.48-.31-.62-.93-1.24-1.55-2.17-2.79,1.86-4.96,4.34-9.3,4.03-1.55-.31-5.58-1.86-5.58,3.1-1.24-1.24-2.79-1.86-4.65-3.1,1.55-.62,3.41-2.17,4.65-2.48a28.149,28.149,0,0,0,4.34-2.17c1.55-.31,3.41-.93,5.89-1.55,2.17-1.55,5.27-2.17,8.37-3.41a22.144,22.144,0,0,0,4.65-2.48,1.082,1.082,0,0,1-.31-.62c-1.86.31-3.41,0-4.96.31a43.848,43.848,0,0,0-7.44,4.03,1.864,1.864,0,0,0-1.24.31,18.2,18.2,0,0,0-6.2,1.86,28.685,28.685,0,0,0-3.1.93c-1.24.62-3.1,1.24-4.65,2.17a10.546,10.546,0,0,0-3.1.31c.31-.62.31-1.86.93-2.17v-.62a11.711,11.711,0,0,0-2.79-2.48c-4.96,3.1-10.23,5.27-15.5,8.68a12.269,12.269,0,0,0-6.82,6.82c-.93,1.55-.31,3.72-1.24,5.58-2.79,8.06,2.79,17.36,8.99,20.46,5.58,4.03,13.02,3.1,19.53,4.96,1.55,0,3.41.31,4.34,0,10.23,0,19.84-.62,29.14-3.1,5.27-1.24,8.68-2.79,13.02-4.03,7.44-2.79,14.57-6.82,22.32-11.16,3.72-2.17,8.06-5.89,7.75-12.09-.31-1.55.31-3.72,0-5.27-.31-3.72,0-8.06-3.41-11.16a21.793,21.793,0,0,1-3.72-8.37c-1.55-2.17-.93-2.48,1.55-3.72,3.41-.31,5.89-.93,7.75-3.72-2.17-.62-2.48-.62-4.34,1.55-3.1,1.55-8.06,1.24-10.54-.62v-.93c1.55-.93,2.79-2.17,4.65-3.1-3.72-1.86-6.82,2.17-9.3-1.55.93,0,1.55-.31,2.17-.31a.3.3,0,0,0,.31-.31c-1.24-.31-2.48-.31-3.41-.62-.62,0-2.17,0-2.79-.62a12.047,12.047,0,0,0-6.82-5.58,163.092,163.092,0,0,0-27.9-17.67c-2.17-.93-4.34-1.86-5.58-3.1-.62-.31-1.86-.62-3.1-1.24,0,0-.62-1.24-.93-1.24-4.96-2.17-9.92-5.27-14.88-7.44-4.34-3.1-9.61-3.41-13.33-6.2-5.58-3.1-11.16-4.96-16.43-7.13-4.96-2.79-9.61-4.03-13.95-6.51-4.65-1.86-8.68-3.72-13.02-5.58-2.79-1.55-6.82-3.1-9.92-5.27-5.89-3.72-8.06-5.89-5.89-13.95a9.583,9.583,0,0,1,.62-2.48l-1.24-.31a61.175,61.175,0,0,0,2.17-8.06c4.03.31,5.89-2.17,6.51-5.89.62-.31,2.17-.93,2.48-1.55a1.736,1.736,0,0,0,1.55-1.86c1.86-2.48,3.1-4.34,5.89-4.96.62-.31.93-1.24,1.24-2.17,1.24-.93,1.24-1.55,1.86-2.79,2.48-1.24,4.96-3.41,8.37-5.27l13.33-8.99c1.55-.31,3.41-1.55,2.48-3.72a16.2,16.2,0,0,0,3.72-2.17c-1.24,1.55-1.55,2.17-2.17,2.48,0,.93,0,.93.31,1.24,2.17-3.1,6.51-1.24,7.75-4.96-.93,0-1.55-.62-3.1-.62a27.248,27.248,0,0,1,3.1-1.55,87.521,87.521,0,0,1,13.02-6.82c6.2-3.41,12.09-7.13,18.6-9.3.31-.31,1.24-1.24,1.55-1.24,7.44-3.1,13.64-6.51,20.77-9.61,4.34-2.17,9.92-3.1,13.95-5.27,11.78-5.58,23.87-9.61,35.96-13.64,7.44-2.79,15.5-4.03,23.56-6.51,1.86-.62,3.72-1.86,6.82-2.48,7.75-1.86,15.5-4.03,23.56-5.58.62-.62.62-.93.93-1.24.93-.93,1.86-1.24,3.1-2.79-.31.93,0,.93,0,1.55a6.306,6.306,0,0,0-.31,1.55,15.019,15.019,0,0,1,5.27,0,37.041,37.041,0,0,1,6.82-1.55c5.27.31,10.23.31,15.81-1.55.62-.62.93-.62,1.24-.62,5.58,0,10.23.31,14.88.31a6.306,6.306,0,0,1,1.55.31,39.252,39.252,0,0,1,8.68,1.86,21.924,21.924,0,0,0,3.72.62,13.28,13.28,0,0,1-3.1.93v.62a15.092,15.092,0,0,0,3.72.31,9.853,9.853,0,0,0,2.79.93c4.34.31,5.27,1.55,4.34,5.27-.93,3.41-.93,3.41,2.17,4.34-1.55,2.17-2.17,5.27-4.03,7.13,0,.31-.62.93-1.55.93-.31,0-1.24-.62-1.55-.62a3.285,3.285,0,0,1,1.24-1.86l1.86-2.79a6.617,6.617,0,0,0,1.55-2.48,19.764,19.764,0,0,0-2.79.62c-2.79,2.48-3.1,7.13-6.82,8.99,0,.62-.31.62-.31,1.24,0,.31-.31.62,0,1.24a9.611,9.611,0,0,0,2.17.62,2.368,2.368,0,0,1,.62-1.55c-.31-3.1,1.55-1.86,2.79-2.48l.31.62a32.273,32.273,0,0,1-6.82,7.75c0-1.55-.93-1.86-1.24-3.41-.62,1.24-1.86,1.86-3.72,2.48,0,0,0,.93.62,1.24.31,0,1.86,0,2.17.31.31,0,.62.93.62,1.24.31.31.31.93,1.24,1.24-1.24.31-1.55.93-3.1,1.24a3.761,3.761,0,0,0-1.55-.31,22.239,22.239,0,0,0,3.41-2.17,6.546,6.546,0,0,0-6.2,2.17c-4.03,2.79-7.44,6.2-11.16,9.61a9.112,9.112,0,0,0-2.48,2.48c2.17,2.79-1.55,2.17-3.1,3.41a3.381,3.381,0,0,0,5.58-.93c.93-2.17,1.55-3.1,4.03-3.72,2.17-.62,3.41-2.48,2.17-4.65a13.362,13.362,0,0,0,5.27-4.03,2.8,2.8,0,0,1,3.1,0,18.407,18.407,0,0,1-1.24,2.48c-.62.62,0,.62,0,.62a28.811,28.811,0,0,0,3.1-1.55c1.55-1.55,3.1-4.03,4.65-5.89,3.1-3.72,6.82-7.75,9.92-11.16,0,0,.62-.31.62-.62l3.41-6.2a3.324,3.324,0,0,1,1.86-.62c.31,0,.62.62.31.62-.31,2.48.62,6.2-2.17,8.37-3.1,2.79-3.41,6.2-4.03,10.54-3.1-.93-4.34.31-4.34,3.41,0,.31,0,1.55-.31,1.55-1.86,1.86-3.1,4.03-4.65,5.89a12.349,12.349,0,0,0-5.27,5.27c-.62.31-.62,1.86-.62,2.79.62.31.62.62,1.24.93.93,0,4.96-2.48,4.96-3.72-.93-2.79,1.24-4.65,2.48-6.2a3.536,3.536,0,0,1,1.86-.93c1.86,1.55,2.17-.31,2.79-1.24.62-1.24,1.55-1.55,2.48-2.17a10.885,10.885,0,0,1,2.48-3.1,97.325,97.325,0,0,0,7.75-9.92c.93-1.24,1.86-3.1,1.24-4.65C313.41-214.21,314.03-216.69,314.34-218.86ZM248-244.59c-.62,0-1.24.93-1.24,1.55-1.24,1.86-3.1-.31-4.96.31a7.3,7.3,0,0,1-.62-2.48c4.34-.62,8.06-1.55,11.16-1.55a7.364,7.364,0,0,1,3.72-.93c.62-.31,2.17,0,2.79,0C256.06-245.52,251.72-243.35,248-244.59Zm11.16,3.1c.93.31,2.48-.62,4.34-.62-2.48-2.48-4.96.93-7.13-.62a36.086,36.086,0,0,1,4.65-1.86c.93.62,2.48.93,3.1,1.55C263.5-240.25,260.09-238.7,259.16-241.49Zm-15.81,2.17c-2.48,0-4.34,1.55-7.13,0,3.1-.93,4.96-.31,7.44-.93A1.531,1.531,0,0,1,243.35-239.32Zm-19.53,4.65c0-.31-.62-.62-.93-.93a15.1,15.1,0,0,0-2.48,3.1,6.311,6.311,0,0,0-1.86-2.17c-1.55.62-2.79,1.24-4.65,2.17a5.238,5.238,0,0,0-.62-1.55l4.03-1.86c-.93-.31-.93-.93-1.55-1.86a21.334,21.334,0,0,1,4.03.62,2.35,2.35,0,0,0,1.24-.62c1.55-1.55,2.79-1.86,4.34.31,0,.31.62.31.93,1.24A11.7,11.7,0,0,1,223.82-234.67Zm5.27-1.24c0-.93,0-.93-.31-1.24a13.532,13.532,0,0,0,4.65-1.55,1.1,1.1,0,0,0,.62.93A36,36,0,0,0,229.09-235.91Zm-25.73,4.96-.31-1.24c2.17-.62,4.65-.93,6.82-1.86a3.371,3.371,0,0,1,.31,1.55A18.141,18.141,0,0,0,203.36-230.95Zm-69.75,16.43c.93,0,1.55.93,2.48,2.48a12.76,12.76,0,0,0,.93-2.48c0-.62-1.55-2.48-1.86-2.17-3.1,1.86-6.82,3.1-9.61,4.65a33.793,33.793,0,0,0,5.27-.31C130.51-214.21,132.68-214.83,133.61-214.52Zm-12.09,9.61c0-1.24-.93-1.55-.93-2.17a25,25,0,0,0-3.72,4.34c-.93,0-.93-1.24-1.24-1.24a2.138,2.138,0,0,1,1.55-.93,2.107,2.107,0,0,1,.93-1.24l.93-2.48c1.55.31,2.79,1.55,4.34,2.17A3.016,3.016,0,0,0,121.52-204.91Zm-16.43,5.89s-.31-.31,0-.93c-2.17.62-2.79,1.24-4.96,1.55-1.86.93-3.72,0-5.58-.31l-.31,1.24c2.17.31,4.03.93,5.89.93C102.3-196.54,103.54-198.71,105.09-199.02ZM62.93-179.18c3.1,1.55,5.89-2.17,8.68-2.79,3.72-1.86,7.75-5.89,12.4-6.51,1.86-.62,3.72-2.48,5.58-3.41a2.06,2.06,0,0,0-1.24-1.55c3.41,0,5.89.93,8.06-1.55-2.17-1.24-4.96,2.48-6.82-1.55-1.55.93-3.72,1.86-4.96,3.1-.62,1.86-1.24,2.48-3.72,1.86a1.611,1.611,0,0,0-1.24.62,11.712,11.712,0,0,1-3.72,2.79c-.31.93-.62,2.17-1.55,2.48-1.86.31-4.34,1.55-6.82,1.86-.31,0-.31,0-.93.31l1.55.62a14.863,14.863,0,0,1-7.13,1.55c-2.17.93-4.34,3.1-5.58,3.72a5.388,5.388,0,0,0,3.41,1.86C60.45-176.39,61.38-177.63,62.93-179.18Zm194.06,8.06-2.79,2.48v.93c1.24-.62,2.17-.31,2.79-.62a20.086,20.086,0,0,0,5.58-4.96c2.17-1.55,4.96-2.79,7.75-4.96,1.55-2.17,3.41-3.72,4.65-5.58,0-.31-.31-.31-.31-.62a25.1,25.1,0,0,0-4.03,1.86c-1.86,2.17-4.65,5.27-7.75,6.51-.62,0-.62.62-.93.93A15.771,15.771,0,0,0,256.99-171.12Zm25.11-8.99c-.31,1.24-1.55,1.86-2.48,2.48.62,1.24,1.86,1.55,2.48,2.17-.62,1.86-1.86,1.86-2.79,1.24-.93,0-1.55-.62-1.86-.62a14.708,14.708,0,0,0-3.72,0,51.029,51.029,0,0,0,.62,6.51l-.31,1.24a36.275,36.275,0,0,0,7.75-3.41c.62,0,.62-.93,1.24-2.17a8.64,8.64,0,0,0,.31-3.1h.62C282.72-176.7,282.72-178.25,282.1-180.11Zm-18.6,1.24a4.544,4.544,0,0,0-1.24-.62,2.343,2.343,0,0,0-1.24.31c-.93.31-1.55,1.55-2.17,1.86l.31.62a5.1,5.1,0,0,0,2.79-.62C262.26-177.32,263.5-178.25,263.5-178.87Zm-7.13,1.24a65.979,65.979,0,0,1-7.75,4.96c3.41,1.55,8.06-.31,10.23-2.17A5.47,5.47,0,0,1,256.37-177.63Zm18.29,8.99a7.4,7.4,0,0,0,.62-2.79c.62-.31,2.17-.31,3.72-1.24C277.14-170.5,275.59-169.88,274.66-168.64ZM42.78-163.68c2.17-4.03,5.89-4.96,8.37-6.82.62,0,.62,0,.62.31C48.98-168.02,46.81-165.85,42.78-163.68Zm195.3,0c-1.86,2.79-4.96,4.96-6.51,3.41-3.41.62-4.34,2.79-5.89,4.65,0,1.24-1.55,1.24-2.79,2.48,2.17,1.24,3.1,1.24,4.65-.31a8.966,8.966,0,0,1,3.41-3.41c.62-.62,2.17-.93,2.48-1.24a52.385,52.385,0,0,0,8.37-5.27c-.31-1.86.31-2.48,3.1-2.48.93.31,1.55-.62,2.17-1.55a7.957,7.957,0,0,0-3.72-1.55C241.18-164.92,240.56-163.37,238.08-163.68Zm31.31-4.96c-2.48.93-3.1,2.79-4.65,3.41,3.41,3.1,5.27,2.79,7.75-.62C270.63-165.54,269.39-165.85,269.39-168.64Zm-21.08,5.89c.62-.62,1.55-1.86,2.48-2.17,1.55-.31,1.86-.93,1.86-3.41-2.79,2.48-4.65,3.72-7.13,5.58C247.38-161.2,247.38-161.2,248.31-162.75Zm15.19,0c.31-.31-1.24-.93-2.48-.31l-6.51,4.96s0,.62.93,1.24c.93-.31,1.86-1.24,3.1-1.55,0,.31.31.31.62.62-1.86,1.55-3.1,2.79-5.27,3.1-.31,0-.31-.31-.62-.31a5.276,5.276,0,0,0,.31-2.17c-1.55-.31-2.17-.31-3.1-.93-.62.62,0,.62,0,.93-1.24,1.24-2.48,2.48-4.03,4.34a28.344,28.344,0,0,0-4.34,2.17c-.93.31-1.24.93-2.48,1.86a13.248,13.248,0,0,0-3.72,1.86,4.947,4.947,0,0,0,.93,2.48c.93,1.55.93,1.55-1.24,1.86-2.17.62-3.72,1.86-5.58,3.1-2.17,1.24-4.03,4.34-6.2,1.24-.31-.62-.62-.62-1.24,0-2.48.62-4.34,1.55-3.1,5.27a20.241,20.241,0,0,1-2.48-2.17c-2.17,2.17-4.65,3.41-7.13,5.58-1.24.62-2.48.62-1.86,3.41a7.268,7.268,0,0,0-3.41-.62l-2.17-.31c-1.24,1.24-2.17,2.79-3.72,3.41-.93,1.24-2.17,1.24-3.41,1.86-2.79.62-5.58.31-5.89,4.03-2.17-1.55-4.96,0-6.51,3.1-1.24.31-3.41.62-3.41.93-.31,1.55-.31,2.17-2.17,1.86a16.377,16.377,0,0,1-4.03-.31c-1.24-2.17-2.48-3.41-6.2-1.55a30.625,30.625,0,0,1,2.79-4.65c.93-.62,1.55-.93,1.86-1.55,0,1.24.62,1.55,1.24,3.41.62-1.86.62-2.48.93-3.41a6.653,6.653,0,0,1,2.17,1.24c.31-.31.31-.31.93-.31-.62-.93-.62-1.86-1.24-3.1a7.7,7.7,0,0,0-2.48.31c-1.55.31-1.55.93-2.48,1.24-1.55.62-3.72.62-4.96,1.55a1.531,1.531,0,0,1-.31-.93l2.79-1.86c.31-.31.93-.31,1.24-.62.62-.93,1.55-1.86,1.86-1.55,2.17,1.86,4.65-.62,6.51-2.17,1.55-.93,3.72-3.72,5.89-3.41,3.1-.31,5.58-4.03,10.23-4.03-1.55.93-1.55,1.55-2.17,1.86a56.6,56.6,0,0,0-4.96,4.03c-2.17.31-4.34,1.24-5.89,1.24-1.86.31-3.1,1.55-3.1,4.34,3.72-1.86,6.51-3.1,9.61-4.34.31.31.31,1.24.31,2.17a28.3,28.3,0,0,1,4.03-2.48c0-.62-.62-1.55,0-1.55,2.48-1.86,4.34-3.72,6.82-5.27,1.86-.31,1.86-.62,2.17-2.48-1.55.93-2.79.93-3.72,1.55-.31-.62-.31-.62-.62-.62l1.55-2.48a38.707,38.707,0,0,0,3.72-2.48c-2.48.93-6.51-.31-7.13,3.72a4.193,4.193,0,0,1-2.17-3.1,91.774,91.774,0,0,0-8.06,4.96.3.3,0,0,1,.31.31c2.48-.62,4.65-2.17,6.82-2.79l.62.31c-2.79,1.86-5.58,3.1-8.37,4.96-1.24.31-2.17-.62-4.03-.62a1.082,1.082,0,0,1-.31.62c-.93.62-3.1.62-3.1,1.55-2.48,3.41-5.27,2.79-8.37,3.72-.93.31-1.86,0-2.48.31-3.72,1.86-7.13,4.03-10.54,5.58-6.51,2.79-13.02,6.2-19.53,8.68a105.462,105.462,0,0,1-17.36,6.51c-3.72,1.86-8.99,2.79-13.64,4.65-2.17.31-3.1,2.79-3.1,4.65a4.6,4.6,0,0,1,0,4.03v1.86c.62,1.86.62,4.03,1.24,6.2.31.93,0,2.48.31,3.41a37.9,37.9,0,0,0,5.89,3.72c2.48,1.24,5.58-.31,8.68-.93,3.41-.93,6.51-2.79,9.92-3.72,8.68-3.72,18.6-7.44,27.59-11.47,8.37-3.41,16.43-7.44,24.49-11.47.31-.93.62-.93,1.24-1.24a24.458,24.458,0,0,0,8.99-5.58c1.55-.31,2.17-.31,3.1-.93,1.24-.93,1.24-2.48,1.55-3.1.62-.31,2.48.62,3.1,0a21.653,21.653,0,0,0,6.51-3.41c1.24-.62,2.79-.93,4.03-1.86a.3.3,0,0,0-.31-.31,8.082,8.082,0,0,0-3.41.93c2.79-4.03,6.51-6.2,8.99-3.72,2.17-1.24,4.03-2.79,6.2-3.72-1.55-1.55.31-2.79,1.24-3.72,1.86-1.55,3.41-2.48,5.89-.93-.62-2.48,1.24-3.1,3.41-4.34a30.715,30.715,0,0,1,5.58-.62l-1.24-2.17a6.965,6.965,0,0,0,4.96-5.89,3.674,3.674,0,0,1,1.55,2.79,22.971,22.971,0,0,0,3.72-4.03c.31,0,.93.62,1.24,1.24a35.683,35.683,0,0,1,5.27-4.34c1.55-1.24,5.27-.93,6.2-3.41v-.62c.93-1.24,2.17-2.48,2.17-3.41a4.676,4.676,0,0,1,4.34-2.79c.62,0,1.24.93,2.79,1.55a21.959,21.959,0,0,1,.31-4.34C265.05-161.2,264.12-160.58,263.5-162.75ZM26.04-150.66s-.62,0-.62-.93a3.175,3.175,0,0,0,1.55-1.86,6.3,6.3,0,0,1,1.86-2.79c.62-.62,1.24-1.55,1.86-1.55,1.55-.31,2.48-.31,3.72-.62,2.17-1.86,3.41-3.72,4.96-4.34a3.086,3.086,0,0,1,2.79-.31C36.58-158.41,31.31-154.69,26.04-150.66Zm213.28-7.75a17.664,17.664,0,0,0-7.75,4.96l-7.75,4.03c-5.58,4.03-11.16,6.51-16.74,9.92-1.86.62-3.1,1.86-4.34,2.17.62,2.17,1.55,2.48,1.86,3.1,2.17-.93,3.1-2.17,4.65-3.41.93-1.55,2.48-2.17,3.72-3.1a20.361,20.361,0,0,1,7.44-4.34,2.552,2.552,0,0,0,2.17-1.86c.31-.31.93-1.24,1.24-1.24,4.96-1.24,8.99-4.96,13.33-6.82.62-2.17,2.48-2.17,3.72-2.79a8.448,8.448,0,0,0,3.72-1.86,6.307,6.307,0,0,0-.31-1.55c-.31.31-.93,0-2.48.31A18.382,18.382,0,0,0,239.32-158.41Zm-18.91,5.58c-.93.93-.93,1.86-1.86,1.86-.62.62-2.17,1.24-2.79.93-3.1-.62-3.41-.62-4.65,1.86-.93.62-1.86,0-3.41.62-2.17,1.24-3.72,2.48-5.27,3.41v.93c-.62.62-.62,1.24-.62,2.79,2.79,1.55,3.41-2.17,6.51-2.17,2.17-.31,4.34-2.79,6.51-4.34,2.48-2.48,4.65-3.1,8.37-3.41A10.7,10.7,0,0,1,220.41-152.83Zm26.35,4.65a9.569,9.569,0,0,1-3.1-1.55c.31,0,.31-.62.31-.93a4.3,4.3,0,0,0,2.79,0,4.48,4.48,0,0,1,.62,2.17C247.07-148.49,247.07-148.18,246.76-148.18ZM164.3-118.73a6.12,6.12,0,0,1-3.72,1.86C161.2-119.04,162.75-119.35,164.3-118.73Zm1.55,12.09c-1.24,0-1.55,0-2.17-.62-.93,0-.31-.62-.31-.62a9.569,9.569,0,0,0,3.1-1.55A4.607,4.607,0,0,1,165.85-106.64ZM215.14-62c-.31.62-.62.62-2.17.93.31-.31,0-.93,0-1.55-.31-.62-1.24-.93-2.17-2.17,0-2.48,3.72-.62,4.65-2.17a8.724,8.724,0,0,0-.31-2.48,5.255,5.255,0,0,1,2.48,1.86c0-3.1.31-4.65,0-6.82-.31-7.13-1.86-13.64-9.61-16.12L202.74-93a3.123,3.123,0,0,1-.31.93,2.455,2.455,0,0,0,1.55,2.48c4.34,1.55,5.58,5.58,5.27,9.61,0,2.17.62,4.34-.62,6.82-1.55,1.55-1.86,3.72-3.41,6.2,1.86.62,2.48.62,3.1.93-2.79,4.96-4.96,6.51-7.75,5.89-.62,1.24-1.24,3.72-3.1,4.96a41.117,41.117,0,0,1-8.37,8.06c-4.96,2.79-9.92,5.27-15.19,7.75a6.723,6.723,0,0,1-2.17,1.86c.31.62.31.62,1.24,1.24a1.238,1.238,0,0,1,1.24-.62,40.523,40.523,0,0,1,8.68-5.58c1.24-.62,1.55-1.55,2.17-1.86,4.34-2.48,8.99-4.96,12.71-7.44a3.314,3.314,0,0,0,1.55-.93,34.559,34.559,0,0,0,3.1-2.79c1.55-1.86,2.79-2.79,3.72-4.34,2.17-2.17,4.03-2.79,4.96-.62,1.24.62.62,1.86,1.24,2.79,3.72-1.55,7.13-5.89,4.96-8.37C216.38-64.79,216.07-63.24,215.14-62ZM89.9-71.61l.62.62c-1.55,1.55-.93,1.86,1.24,1.86.62.93,1.86.93,2.48,1.55,0,.31,0,.31-.31.62L88.97-68.2a6.307,6.307,0,0,0-.31-1.55C88.66-70.37,89.59-70.99,89.9-71.61ZM209.56-68.2a3.123,3.123,0,0,1-.93-.31c.62-1.24,1.55-1.55,1.55-2.48.31,0,.62.31.62.93Zm-5.58.93a10.091,10.091,0,0,0-1.24,4.34,11,11,0,0,0,2.17-.31c-.31-1.86-.62-2.79-.31-4.03Zm-88.97,9.92a21.639,21.639,0,0,1,5.58,2.79,14.819,14.819,0,0,0-3.72,1.55c-1.24-1.55-1.86-3.41-2.79-4.03C114.39-57.35,114.39-57.35,115.01-57.35Zm95.17,4.34q0,.465-1.86,0a1.864,1.864,0,0,0-1.24.31s0,1.24.31,1.24c0,.31.62.62,1.24.31a22.212,22.212,0,0,0,4.65-3.41c-.62,0-.62-.31-.93-.31C211.73-54.56,211.11-53.63,210.18-53.01ZM133.3-47.12c.31.93,1.24,1.86,1.55,2.79,0,.31-.31.31-1.24.62a6.03,6.03,0,0,0-2.48-2.48A5.394,5.394,0,0,1,133.3-47.12Zm65.72,2.17c-.31,3.41-2.79,2.17-4.34,1.86-2.17,4.34-6.2,5.58-9.61,7.44l-4.34,1.86c-1.24.62-1.55,2.17-2.79,3.72v.62c3.1-1.86,5.58-2.79,8.06-4.65a23.934,23.934,0,0,0,5.89-4.65c.93-.62,2.79-.93,3.72-2.17,1.55-.31,3.1-.62,3.72-1.55C200.57-43.09,200.88-44.64,199.02-44.95Zm-38.13,8.68c2.79-.31,4.65-1.86,7.13-1.86C166.78-40.61,163.99-39.68,160.89-36.27Zm7.44,0c-1.55.31-2.48,1.24-4.03,1.86,2.17,0,3.1.31,5.58.31A21.137,21.137,0,0,0,168.33-36.27ZM124.31-24.49c0,.62-.31.93-.31,1.24.93.31,1.86,1.24,3.1,1.24a2.323,2.323,0,0,1,.31-1.55A8.214,8.214,0,0,0,124.31-24.49Zm-9.3,3.41c-.62.62-2.17.93-2.79,1.24a1.822,1.822,0,0,1,.62,1.55c1.55-.93,2.17-1.55,2.79-1.55Zm-11.16,4.96c2.17,2.17,2.79.62,4.34-1.55h2.17a10.875,10.875,0,0,0-1.55-2.48c-2.17,2.17-4.34,4.03-6.82,2.48C102.61-16.43,103.85-16.43,103.85-16.12Zm13.02,7.13,1.24.62c2.17-.31,4.03-.62,4.96-1.55,2.17-.62,4.96-2.48,6.82-.93a15,15,0,0,1,3.72-3.1,96.045,96.045,0,0,0,11.78-2.17,6.758,6.758,0,0,1-.31-1.86c-2.17,0-4.03,0-5.27.62-2.17,0-3.41,1.24-4.96,1.24-1.86.93-3.72,1.86-5.27,2.79a16.206,16.206,0,0,1-4.96,1.86l-6.51.93C117.8-10.54,117.49-9.3,116.87-8.99ZM97.34-11.78a19.222,19.222,0,0,1,1.24-4.34c-2.17.62-4.96.31-5.27,3.72C94.55-11.47,96.1-10.54,97.34-11.78Zm-9.3,3.1A2.621,2.621,0,0,0,89.9-9.3a20.466,20.466,0,0,1-.31,4.34C87.73-5.89,87.11-7.44,88.04-8.68Zm5.58,3.72s0,.93.31,1.24a15.913,15.913,0,0,0-3.1,1.24,1.157,1.157,0,0,1-.93-1.24C91.14-4.03,92.38-4.65,93.62-4.96Zm40.61,25.42c.62.31,1.55,1.55,1.86,1.55-1.24.31-3.1.31-5.27.62a12.636,12.636,0,0,1-2.17-.62c-2.48-1.24-4.03.62-4.34,3.1-2.17.31-4.03.93-5.27.93a6.132,6.132,0,0,1-3.41-.62c1.24-.62,2.17-.62,2.48-1.55v-.62c-2.48.62-5.58.62-8.06,1.86a.3.3,0,0,1-.31.31c.62.31,1.55.31,2.17.62v.93c-3.72,0-8.06.31-12.09.62,1.24-2.48,2.79-2.79,4.34-1.86a4.1,4.1,0,0,0,3.72-.62,9.323,9.323,0,0,1,4.34-2.17,6.982,6.982,0,0,0-.31-2.17c3.72,2.17,6.2.93,8.99.31,1.24,0,1.55-.93,1.86-.93,3.1.62,5.58-.31,8.37-1.86,4.96-1.24,9.92-2.79,14.88-4.03C142.91,16.74,138.88,17.67,134.23,20.46ZM98.27,23.25c-.93-.31-2.48.31-4.03.31-2.48-.93-5.27-1.55-7.13-.31a4.884,4.884,0,0,1-2.17-2.17c-.31,0-.31-.62-.31-.62.31-.31.93-.93,1.24-.93,2.17,0,5.58,0,8.06.93a31.359,31.359,0,0,1,8.99,1.24C101.37,22.94,100.75,25.11,98.27,23.25Z" transform="translate(-6.347 249.922)" fill="#b10000"/><path d="M9.3,17.769h.517c.172-.517.517-.517,1.035-.345,0,.172.172.172.345,0,.862-.172,1.207-1.035,1.552-1.724s.517-1.552.862-2.414c0-.172.172-.345.172-.517a2.451,2.451,0,0,0,.345-1.035c.172-.517,0-.862.172-1.207l.69-1.207A8.054,8.054,0,0,1,15.848,7.6c.517-1.207,1.552-2.241,1.9-3.621s1.207-2.586.69-4.138a5.78,5.78,0,0,1,0-1.724v-.345a10.166,10.166,0,0,0-.69-1.379l-.517-.517a6.7,6.7,0,0,0-2.586-.345,4.663,4.663,0,0,0-2.586.517A19.309,19.309,0,0,1,8.262-2.4a1.818,1.818,0,0,1-2.069-.517,4.242,4.242,0,0,0-1.9-.69,1.639,1.639,0,0,0-1.724.69,1.552,1.552,0,0,0,0,1.9c.862,1.207.517,2.586.345,3.966,0,.517-.517.862-.517,1.207.172.69-.172,1.035-.517,1.552,0,.172-.172.172-.172.345,0,.69-.172,1.379-.172,2.069-.172.69-.517,1.379-.69,2.069,0,.345.172.862.172,1.379v.345c.345,1.207,1.552,1.724,2.586,2.414A9.776,9.776,0,0,1,5.848,15.7l1.207.69c.172.172.69.172.862.345Z" transform="translate(180 238.67)" fill="#b10000"/></g><g transform="translate(0 422.492)"><path d="M4.191-19.8H.4v-3.3h11.22v3.3h-3.8V0H4.191Zm10.824-3.3h3.63V-13.7h3.894V-23.1h3.63V0h-3.63V-10.4H18.645V0h-3.63Zm15.51,0h9.9v3.3h-6.27V-13.7h4.983v3.3H34.155v7.1h6.27V0h-9.9ZM48.939.33a5.1,5.1,0,0,1-3.993-1.5,6.221,6.221,0,0,1-1.353-4.307V-6.8h3.432v1.584q0,2.244,1.881,2.244a1.768,1.768,0,0,0,1.4-.545,2.648,2.648,0,0,0,.478-1.766,4.893,4.893,0,0,0-.66-2.558,12.2,12.2,0,0,0-2.442-2.656,14.62,14.62,0,0,1-3.135-3.581,7.3,7.3,0,0,1-.891-3.613,6.022,6.022,0,0,1,1.386-4.241,5.208,5.208,0,0,1,4.026-1.5,5,5,0,0,1,3.943,1.5,6.271,6.271,0,0,1,1.337,4.306v.957H50.919v-1.188a2.654,2.654,0,0,0-.462-1.733A1.675,1.675,0,0,0,49.1-20.13q-1.815,0-1.815,2.211a4.361,4.361,0,0,0,.676,2.343,12.931,12.931,0,0,0,2.458,2.64,13.583,13.583,0,0,1,3.135,3.6,7.984,7.984,0,0,1,.858,3.8,6.191,6.191,0,0,1-1.4,4.356A5.275,5.275,0,0,1,48.939.33ZM60.852-23.1h4.917L69.531,0H65.9l-.66-4.587v.066H61.116L60.456,0H57.09Zm3.96,15.444L63.195-19.074h-.066L61.545-7.656ZM72.93-23.1h4.554L81.015-9.273h.066V-23.1h3.234V0H80.586L76.23-16.863h-.066V0H72.93Zm15.741,0h5.544a5.287,5.287,0,0,1,4.059,1.452,6.03,6.03,0,0,1,1.353,4.257V-5.709a6.03,6.03,0,0,1-1.353,4.257A5.287,5.287,0,0,1,94.215,0H88.671ZM94.149-3.3a1.754,1.754,0,0,0,1.369-.528A2.519,2.519,0,0,0,96-5.544V-17.556a2.519,2.519,0,0,0-.479-1.716,1.754,1.754,0,0,0-1.369-.528H92.3V-3.3Zm12.309-6.534L102.069-23.1h3.861l2.475,8.481h.066l2.475-8.481h3.531L110.088-9.834V0h-3.63ZM121.968.33a5.1,5.1,0,0,1-3.993-1.5,6.221,6.221,0,0,1-1.353-4.307V-6.8h3.432v1.584q0,2.244,1.881,2.244a1.768,1.768,0,0,0,1.4-.545,2.648,2.648,0,0,0,.479-1.766,4.893,4.893,0,0,0-.66-2.558,12.2,12.2,0,0,0-2.442-2.656,14.619,14.619,0,0,1-3.135-3.581,7.3,7.3,0,0,1-.891-3.613,6.022,6.022,0,0,1,1.386-4.241,5.208,5.208,0,0,1,4.026-1.5,5,5,0,0,1,3.943,1.5,6.271,6.271,0,0,1,1.337,4.306v.957h-3.432v-1.188a2.654,2.654,0,0,0-.462-1.733,1.675,1.675,0,0,0-1.353-.545q-1.815,0-1.815,2.211a4.361,4.361,0,0,0,.677,2.343,12.931,12.931,0,0,0,2.458,2.64,13.583,13.583,0,0,1,3.135,3.6,7.984,7.984,0,0,1,.858,3.8,6.191,6.191,0,0,1-1.4,4.356A5.275,5.275,0,0,1,121.968.33Zm9.207-23.43h9.6v3.3H134.8v6.435h4.686v3.3H134.8V0h-3.63ZM149.424.33a5.329,5.329,0,0,1-4.092-1.518,6.044,6.044,0,0,1-1.419-4.29V-17.622a6.044,6.044,0,0,1,1.419-4.29,5.329,5.329,0,0,1,4.092-1.518,5.329,5.329,0,0,1,4.092,1.518,6.044,6.044,0,0,1,1.419,4.29V-5.478a6.044,6.044,0,0,1-1.419,4.29A5.329,5.329,0,0,1,149.424.33Zm0-3.3q1.881,0,1.881-2.277V-17.853q0-2.277-1.881-2.277t-1.881,2.277V-5.247Q147.543-2.97,149.424-2.97ZM164.307.33a5.208,5.208,0,0,1-4.026-1.5,6.124,6.124,0,0,1-1.386-4.307V-23.1h3.63V-5.214A2.519,2.519,0,0,0,163-3.5a1.754,1.754,0,0,0,1.37.528,1.754,1.754,0,0,0,1.369-.528,2.519,2.519,0,0,0,.479-1.716V-23.1h3.5V-5.478a6.124,6.124,0,0,1-1.386,4.307A5.208,5.208,0,0,1,164.307.33Zm9.636-23.43H178.5l3.531,13.827h.066V-23.1h3.234V0H181.6l-4.356-16.863h-.066V0h-3.234Zm15.741,0h5.544a5.287,5.287,0,0,1,4.059,1.452,6.03,6.03,0,0,1,1.353,4.257V-5.709a6.03,6.03,0,0,1-1.353,4.257A5.287,5.287,0,0,1,195.228,0h-5.544Zm5.478,19.8a1.754,1.754,0,0,0,1.37-.528,2.519,2.519,0,0,0,.479-1.716V-17.556a2.519,2.519,0,0,0-.479-1.716,1.754,1.754,0,0,0-1.37-.528h-1.848V-3.3Zm12.309-19.8h4.917L216.15,0h-3.63l-.66-4.587v.066h-4.125L207.075,0h-3.366Zm3.96,15.444-1.617-11.418h-.066L208.164-7.656ZM220.869-19.8h-3.795v-3.3h11.22v3.3H224.5V0h-3.63Zm10.824-3.3h3.63V0h-3.63ZM244.926.33a5.329,5.329,0,0,1-4.092-1.518,6.044,6.044,0,0,1-1.419-4.29V-17.622a6.044,6.044,0,0,1,1.419-4.29,5.329,5.329,0,0,1,4.092-1.518,5.329,5.329,0,0,1,4.092,1.518,6.044,6.044,0,0,1,1.419,4.29V-5.478a6.044,6.044,0,0,1-1.419,4.29A5.329,5.329,0,0,1,244.926.33Zm0-3.3q1.881,0,1.881-2.277V-17.853q0-2.277-1.881-2.277t-1.881,2.277V-5.247Q243.045-2.97,244.926-2.97Zm9.6-20.13h4.554l3.531,13.827h.066V-23.1h3.234V0h-3.729l-4.356-16.863h-.066V0h-3.234ZM270.27-3.5h3.5V0h-3.5ZM283.173.33a5.329,5.329,0,0,1-4.092-1.518,6.044,6.044,0,0,1-1.419-4.29V-17.622a6.044,6.044,0,0,1,1.419-4.29,5.329,5.329,0,0,1,4.092-1.518,5.329,5.329,0,0,1,4.092,1.518,6.044,6.044,0,0,1,1.419,4.29V-5.478a6.044,6.044,0,0,1-1.419,4.29A5.329,5.329,0,0,1,283.173.33Zm0-3.3q1.881,0,1.881-2.277V-17.853q0-2.277-1.881-2.277t-1.881,2.277V-5.247Q281.292-2.97,283.173-2.97Zm9.6-20.13h5.379a5.554,5.554,0,0,1,4.092,1.3,5.5,5.5,0,0,1,1.287,4.01v1.419q0,3.6-2.376,4.554v.066a2.833,2.833,0,0,1,1.864,1.617,8.142,8.142,0,0,1,.545,3.267v4.059a15.528,15.528,0,0,0,.066,1.6,4.017,4.017,0,0,0,.33,1.2h-3.7A5.292,5.292,0,0,1,300-1.056a15.893,15.893,0,0,1-.066-1.782V-7.062a3.585,3.585,0,0,0-.512-2.211A2.164,2.164,0,0,0,297.66-9.9h-1.254V0h-3.63Zm4.95,9.9a2.179,2.179,0,0,0,1.633-.561,2.651,2.651,0,0,0,.544-1.881v-1.782a2.932,2.932,0,0,0-.445-1.815,1.683,1.683,0,0,0-1.4-.561h-1.65v6.6ZM312.873.33a5.208,5.208,0,0,1-4.026-1.5,6.124,6.124,0,0,1-1.386-4.307V-17.622a6.124,6.124,0,0,1,1.386-4.306,5.208,5.208,0,0,1,4.026-1.5,5.208,5.208,0,0,1,4.026,1.5,6.124,6.124,0,0,1,1.386,4.306v1.98h-3.432v-2.211q0-2.277-1.881-2.277t-1.881,2.277V-5.214q0,2.244,1.881,2.244t1.881-2.244V-9.735h-1.815v-3.3h5.247v7.557A6.124,6.124,0,0,1,316.9-1.172,5.208,5.208,0,0,1,312.873.33Z" transform="translate(-0.396 23.43)" fill="#b10000"/></g></svg>