<svg width="423" height="126" viewBox="0 0 423 126" fill="none" xmlns="http://www.w3.org/2000/svg">
<g clip-path="url(#clip0)" filter="url(#filter0_d)">
<path d="M113 15.375C113 15.0344 113 14.3534 112.781 14.2397C112.123 13.2181 111.794 11.9692 110.808 11.4018C110.699 11.1748 110.699 11.0612 110.37 10.9472C110.26 10.2662 110.37 9.47158 110.041 9.24428C109.055 8.10899 108.287 7.08735 106.972 6.40636C104.451 4.70343 101.382 4.24943 98.3151 4.02243C95.5751 3.90878 92.8353 4.24943 90.0953 4.36308C87.9033 4.59008 85.273 4.81768 83.081 5.61172C79.2451 6.29271 75.8475 7.31465 72.1211 8.33629L61.378 11.5152C61.0492 11.6288 60.8299 11.6288 60.6109 11.9698V12.3104C61.4878 12.0834 62.4741 11.6294 63.0222 12.9914C63.0222 11.2885 64.4468 10.9481 65.543 10.6075C67.2967 10.1529 69.0501 9.47219 71.0228 9.13154C71.3516 9.01789 71.7899 8.79089 71.8997 9.01789C72.2284 9.47249 72.5572 9.24489 72.7765 9.01789C72.934 8.7666 73.1631 8.5688 73.4341 8.45024C75.078 8.1096 76.9412 7.54104 78.5851 7.20161C79.3944 6.89347 80.2431 6.70235 81.1059 6.63396C82.7498 6.40697 84.5035 6.29332 86.5857 5.83932C86.805 5.95297 86.805 5.95297 86.805 6.29392C86.805 6.29392 86.805 6.40757 87.0243 6.40757C85.6098 6.50715 84.2119 6.77387 82.8596 7.20221C83.0047 7.30272 83.1214 7.43933 83.1982 7.5987C83.275 7.75806 83.3093 7.93472 83.2979 8.11142C82.6544 7.64808 81.8956 7.37303 81.1059 7.31678C80.4483 7.31678 79.5715 7.88442 78.6946 7.77138C77.7083 7.77138 77.8178 9.13366 77.0507 9.36066C76.2836 8.33902 76.1738 8.22537 75.297 8.45146C74.4201 8.79211 73.6531 9.2461 72.9955 9.4731V9.81375C73.4338 9.58675 73.9818 9.58675 74.4201 9.4731C73.9818 9.81374 73.4338 10.1541 73.4338 10.3823C73.2145 11.2915 72.5569 10.9499 71.8993 10.9499C71.6474 11.1489 71.3421 11.2675 71.0225 11.2906C70.4744 11.5176 69.8159 11.2906 69.0498 11.2906C69.3006 11.2538 69.532 11.1339 69.7074 10.9499C70.3761 10.7571 71.0346 10.5298 71.6801 10.269C71.7896 10.269 71.7896 10.042 71.8993 9.81435C71.7899 9.58735 71.5706 9.47371 71.4611 9.58736C70.913 10.042 70.5842 10.2683 70.0364 10.2683C68.8299 10.2683 68.1732 11.063 67.2964 11.517C66.9998 11.5288 66.7034 11.4904 66.4195 11.4033V12.3125C66.0115 12.3524 65.6077 12.4283 65.213 12.5395C65.4323 12.3125 65.5418 11.9719 65.7611 11.8585C65.3228 11.8585 64.7747 11.8585 64.7747 11.9722C64.5554 12.8814 63.6789 12.8814 63.2403 13.2208C62.8005 13.6417 62.3237 14.0217 61.8157 14.3561C61.8157 14.3561 61.3774 14.2425 61.2676 14.0155C61.2676 13.9018 61.0483 13.9018 61.0483 13.9018C60.5002 15.0371 59.4044 14.2425 58.5275 14.3564C57.87 14.5834 57.2124 14.0158 56.8836 15.0374C56.7741 15.1511 56.1165 15.1511 55.5685 15.2644C55.459 15.9454 54.5821 16.7403 54.2533 16.513L54.1438 15.9454C54.5648 15.7105 54.9681 15.4449 55.3504 15.1508C54.8309 15.1476 54.3144 15.0712 53.816 14.9238C54.2366 14.5708 54.72 14.3012 55.2406 14.1291L54.9118 14.0155C53.5967 14.3561 51.843 15.1508 50.5278 15.7184C50.8566 16.286 50.8566 16.967 50.9661 17.3077C51.2949 16.967 51.7332 16.0591 52.1726 15.7184C52.7638 15.3461 53.4477 15.1493 54.1453 15.1508C54.1453 15.2644 54.2548 15.2644 54.2548 15.6054C53.9741 15.706 53.675 15.7448 53.378 15.719C53.1587 15.8327 53.0492 16.1736 52.6109 16.2867C52.3916 16.7413 52.2821 17.1959 52.0628 17.1959C51.2958 17.7635 50.4189 17.8768 49.6516 18.2175C49.4323 18.4445 48.994 18.5581 48.5557 18.6721C48.775 18.5584 48.5557 18.5584 48.5557 18.5584C48.8845 18.2178 48.994 17.9908 49.4326 17.8775C47.8982 17.8775 47.0213 18.5584 46.1447 19.6937C46.2542 19.5801 46.2542 19.2391 46.2542 19.2391C45.8444 19.0452 45.3899 18.9668 44.9391 19.0121C45.7062 18.2175 45.9255 17.8768 46.2542 17.8768C45.4872 17.8768 44.6103 18.2175 43.843 18.5578C41.9798 18.7848 40.8839 20.6011 39.0207 20.9418C38.6977 21.0239 38.3977 21.1795 38.1438 21.3964V21.737L40.4453 21.3964C40.2504 21.6122 40.0295 21.8029 39.7878 21.964C40.3358 22.0777 40.4453 22.0777 40.6646 22.3047C39.6783 22.7593 39.0207 23.5533 38.4726 23.6669C38.2533 23.8939 38.2533 24.1215 38.1438 24.1215C37.267 23.8945 36.6094 24.1215 36.0626 25.1432C36.0626 25.3702 35.8433 25.3702 35.7338 25.4838C35.4859 25.5633 35.2268 25.6016 34.9667 25.5975C33.8709 26.3921 32.7747 26.7328 31.5691 26.5067C31.4766 26.6542 31.3465 26.7741 31.1923 26.8541C31.0381 26.934 30.8655 26.971 30.6922 26.9613C29.8154 27.6423 29.5964 28.2099 30.4729 29.1182C30.4582 29.118 30.4436 29.1209 30.43 29.1266C30.4164 29.1323 30.4041 29.1407 30.3938 29.1513C30.3836 29.162 30.3756 29.1746 30.3704 29.1885C30.3651 29.2023 30.3628 29.2171 30.3634 29.2319C30.254 29.1182 29.9252 29.1182 29.7059 29.1182C29.3771 29.0046 28.9388 28.5506 28.61 28.5506C28.5005 28.5506 28.3907 29.1182 28.1718 29.1182C27.6237 29.1182 27.0759 29.1182 26.6373 29.4589C25.651 29.9135 24.8836 30.8211 24.1166 31.2751C23.1302 31.8428 22.0353 32.0698 21.1575 32.7511L20.9382 32.6374C21.5958 31.9564 22.0341 31.7282 22.6919 31.1618C22.359 31.1368 22.0243 31.1753 21.7056 31.2754C21.4863 31.2754 21.2673 31.3891 20.8287 31.73C20.7192 31.8437 20.7192 31.957 20.6094 31.957C20.4757 31.9024 20.3619 31.8077 20.2835 31.6859C20.2051 31.5641 20.1659 31.421 20.1712 31.2761C19.6231 31.5031 19.2943 31.8437 18.856 31.957C19.1722 32.1045 19.5028 32.2186 19.8424 32.2977V32.6383C19.5618 32.7541 19.2668 32.8305 18.9655 32.8653C18.5272 32.1843 17.9792 32.7517 17.6504 33.0923C17.2121 33.3193 16.8833 33.887 16.4438 33.887C13.7205 35.7928 11.1878 37.9599 8.88152 40.3578C7.12781 41.947 5.81268 44.104 4.93612 46.1463C4.38805 47.0555 3.94977 48.4169 4.16906 49.3249C4.05176 50.8842 4.16253 52.4524 4.49785 53.9794C4.87074 55.5 5.38445 56.9822 6.03227 58.4066C6.79933 59.7689 8.22426 60.6772 9.3201 61.8122C9.64889 62.1528 10.3065 62.1528 10.4159 62.3798C10.7447 63.1745 11.5118 63.7421 12.3886 64.1961C13.0462 64.7638 13.4845 65.2178 14.1424 65.5584C15.0192 66.2394 16.2236 66.4676 16.9919 66.9207C16.8824 67.0343 16.8824 67.0343 16.8824 67.1477C16.4731 67.1779 16.0684 67.254 15.6759 67.3747C16.991 67.7153 18.5254 67.3747 19.4023 67.9423C20.7174 68.1693 21.4836 68.8515 22.6901 69.3046C24.0783 69.7351 25.4336 70.2663 26.7453 70.8939C27.5124 71.3485 28.499 71.6885 29.5949 72.2562C30.6167 72.8921 31.6783 73.4609 32.7732 73.9591C34.8077 74.7254 36.7855 75.6359 38.6916 76.6837C39.7875 77.1383 40.8836 78.046 42.1987 78.5C43.6234 79.2946 45.0483 80.6569 46.9115 81.1109L47.1308 81.2246C47.8979 81.7922 48.5557 82.3598 49.3228 82.7002L49.6516 83.1548C49.9804 83.2684 50.3091 83.7224 50.8581 84.064C50.6474 84.6128 50.5003 85.1842 50.4198 85.7669C50.5293 85.7669 50.5293 85.8806 50.6391 85.8806C51.0586 85.4733 51.4266 85.0158 51.735 84.5183C52.008 84.8773 52.3419 85.1851 52.7213 85.4275C52.1733 85.7681 51.6255 86.5628 51.2967 86.6761C50.3103 86.6761 49.4335 86.9031 48.9952 87.4708V87.6978C47.8892 87.8225 46.7914 88.012 45.7074 88.2654C45.622 88.2674 45.5382 88.2889 45.4622 88.3282C45.3863 88.3676 45.3203 88.4237 45.2691 88.4924C45.3786 88.4924 45.3786 88.7194 45.3786 88.7194C45.8198 88.7094 46.2607 88.7475 46.6937 88.8331C47.0225 88.8331 47.5706 89.0601 47.7896 89.0601C48.0089 88.7194 48.0089 88.2654 48.1184 88.2654C49.1047 88.0384 50.0911 87.9248 51.0774 87.1301H51.2967C51.8448 87.0165 52.6118 86.6755 53.4887 86.5625C53.708 86.5625 54.1463 86.5625 54.2557 86.6761C54.475 86.7898 54.475 87.1307 54.5845 87.4708C54.7213 87.5386 54.8705 87.5773 55.0228 87.5844L53.5982 88.4936C54.1463 89.4028 54.5845 88.9482 55.0228 88.8343C56.4474 88.2666 56.886 88.2666 57.7629 89.6289C57.9513 89.9833 58.2128 90.2933 58.5299 90.5381C59.6258 91.3328 59.6258 92.241 58.8587 93.6033C57.4341 95.7603 55.7899 97.0089 53.5979 98.3712C52.721 98.8258 51.7347 99.2804 50.9676 99.7335C49.7611 100.188 48.5563 100.528 47.57 100.869C45.9261 101.323 44.3916 101.436 42.8572 102.004C42.3091 102.231 41.5421 102.231 40.8845 102.572C40.8845 102.685 40.6652 102.912 40.6652 103.139C40.4459 102.345 39.7884 102.345 39.1308 102.23C37.7059 102.003 35.9525 102.003 34.3085 101.776C33.6227 101.8 32.9424 101.644 32.3358 101.321C31.5688 100.98 31.5688 99.9587 32.1166 99.2777C32.453 98.8722 32.8194 98.4927 33.2124 98.1424C33.9795 97.6878 34.5275 97.1207 35.2937 97.0071C36.9376 96.0979 38.8008 95.6448 40.6628 94.7365C40.8821 94.5095 41.2109 94.3959 41.2109 94.2819C41.3204 93.8273 41.4302 93.8273 41.9779 93.8273H42.745C42.745 93.7137 42.8545 93.2597 42.8545 92.9181C42.745 92.6911 42.5257 92.4635 42.3064 92.1235C41.3201 92.8044 40.5527 93.7127 39.0186 93.5991C38.4705 93.4854 37.0459 92.9181 37.0459 94.7344C36.6076 94.2798 36.0595 94.0534 35.402 93.5991C35.9501 93.3721 36.6085 92.8045 37.0459 92.6899C37.5796 92.4707 38.093 92.2048 38.5803 91.8952C39.1284 91.7816 39.7869 91.5546 40.6616 91.3276C41.4287 90.76 42.5248 90.533 43.6207 90.079C44.2032 89.8439 44.7553 89.5386 45.2646 89.1698C45.2047 89.1079 45.1663 89.0283 45.1551 88.9428C44.4975 89.0564 43.9485 88.9428 43.4014 89.0564C42.4786 89.4606 41.5976 89.955 40.7711 90.5324C40.6161 90.5157 40.4604 90.5561 40.3328 90.646C39.5668 90.7361 38.8238 90.9669 38.1408 91.327C37.9215 91.4406 37.4833 91.4406 37.045 91.6676C36.6067 91.8946 35.9491 92.1222 35.4011 92.4623C35.0322 92.4438 34.6626 92.4821 34.3052 92.5759C34.4147 92.3489 34.4147 91.8949 34.634 91.7813V91.5543C34.3559 91.2001 34.0228 90.8931 33.6477 90.6451C31.8939 91.7804 30.031 92.575 28.1678 93.8237C27.6188 94.0546 27.122 94.395 26.7076 94.8243C26.2932 95.2536 25.9696 95.7628 25.7566 96.3212C25.4278 96.8889 25.6471 97.6835 25.3183 98.3645C24.3352 101.311 26.3079 104.716 28.4996 105.852C30.4723 107.327 33.1029 106.987 35.4044 107.668C35.9525 107.668 36.6109 107.782 36.9388 107.668C40.5554 107.668 43.9531 107.441 47.2409 106.533C49.1041 106.078 50.3097 105.511 51.8439 105.057C54.4741 104.035 56.9949 102.559 59.735 100.97C61.0501 100.175 62.5845 98.8131 62.475 96.5428C62.3655 95.9751 62.5845 95.1805 62.475 94.6128C62.3655 93.2506 62.475 91.6613 61.2685 90.526C60.6232 89.607 60.1754 88.5631 59.9534 87.4608C59.4053 86.6661 59.6246 86.5516 60.5014 86.0985C61.708 85.9848 62.5827 85.7578 63.2415 84.7362C62.4744 84.5092 62.3646 84.5092 61.7071 85.3038C60.6112 85.8715 58.8575 85.7584 57.9806 85.0768V84.7368C58.5287 84.3962 58.967 83.9422 59.6246 83.6015C58.3094 82.9205 57.2133 84.3961 56.3367 83.0339C56.6655 83.0339 56.8848 82.9202 57.1038 82.9202C57.1185 82.9202 57.133 82.9172 57.1465 82.9114C57.16 82.9057 57.1722 82.8972 57.1824 82.8866C57.1926 82.876 57.2006 82.8635 57.2059 82.8497C57.2112 82.836 57.2137 82.8213 57.2133 82.8066C56.775 82.6929 56.3364 82.6929 56.0067 82.5796C55.7875 82.5796 55.2397 82.5796 55.0204 82.3526C54.5041 81.3885 53.642 80.6579 52.6091 80.3093C49.5506 77.8185 46.2454 75.6502 42.7456 73.8385C41.9786 73.4979 41.2112 73.1575 40.7729 72.7032C40.5536 72.5896 40.1153 72.4762 39.6771 72.2486C39.6771 72.2486 39.4578 71.794 39.3483 71.794C37.5946 70.9994 35.8412 69.8641 34.0874 69.0694C32.553 67.9341 30.6898 67.8208 29.3747 66.7989C27.402 65.6636 25.4293 64.9826 23.5661 64.1879C21.8124 63.1663 20.1684 62.7123 18.634 61.804C16.9901 61.123 15.5652 60.4417 14.0308 59.7607C13.0444 59.1931 11.6195 58.6254 10.5236 57.8308C8.44234 56.4685 7.67407 55.6739 8.44234 52.7223C8.47576 52.4109 8.54947 52.1053 8.66163 51.8131L8.22335 51.6994C8.55214 50.9048 8.77143 49.6562 8.99041 48.7479C10.415 48.8615 11.0717 47.9532 11.2919 46.5909C11.5112 46.4773 12.059 46.2503 12.1688 46.0233C12.3301 46.0033 12.4775 45.9211 12.5797 45.794C12.6819 45.667 12.7311 45.5051 12.7168 45.3423C13.3744 44.4331 13.8127 43.753 14.7981 43.526C15.0174 43.4124 15.1269 43.0714 15.2364 42.7314C15.6747 42.3907 15.6747 42.1637 15.894 41.7097C16.7708 41.2551 17.6477 40.4611 18.853 39.7798L23.5679 36.49C24.116 36.3764 24.7744 35.9224 24.4447 35.1277C24.9168 34.9238 25.3592 34.6564 25.7599 34.3331C25.3216 34.9007 25.2118 35.1277 24.9928 35.2423C24.9928 35.5829 24.9928 35.5829 25.1023 35.6969C25.8694 34.5616 27.4038 35.2423 27.8424 33.8806C27.5136 33.8806 27.2943 33.6536 26.7465 33.6536C27.0992 33.4408 27.4653 33.2512 27.8424 33.086C29.303 32.1231 30.8429 31.2875 32.4453 30.5884C34.6373 29.3398 36.7195 27.9775 39.021 27.1828C39.1305 27.0692 39.4593 26.7282 39.5691 26.7282C42.1993 25.5929 44.3913 24.3443 46.9121 23.209C48.4465 22.4144 50.4192 22.0737 51.8442 21.2791C56.0089 19.2358 60.2833 17.7599 64.5575 16.2842C67.1878 15.2626 70.0373 14.8086 72.8869 13.9003C73.5445 13.6733 74.202 13.2193 75.2982 12.9911C78.0382 12.3101 80.778 11.5152 83.6276 10.9478C83.7465 10.8033 83.8563 10.6515 83.9564 10.4932C84.2851 10.1526 84.6139 10.0386 85.0522 9.47158C84.9427 9.81223 85.0522 9.81223 85.0522 10.0392C84.9928 10.2232 84.956 10.4139 84.9427 10.6069C85.5586 10.4931 86.19 10.4931 86.8059 10.6069C87.5895 10.3396 88.397 10.1495 89.2172 10.0392C91.0804 10.1529 92.8338 10.1529 94.8068 9.47158C95.0261 9.24459 95.1356 9.24458 95.2451 9.24458C97.2178 9.24458 98.8617 9.35823 100.506 9.35823C100.692 9.37221 100.877 9.41041 101.054 9.47188C102.1 9.57824 103.129 9.80678 104.123 10.1529C104.342 10.2665 104.78 10.2665 105.438 10.3799C104.78 10.6069 104.561 10.7205 104.342 10.7205V10.9469C104.774 11.041 105.216 11.0792 105.657 11.0606C105.966 11.2242 106.299 11.3391 106.643 11.4012C108.178 11.5149 108.507 11.9689 108.178 13.3311C107.849 14.5798 107.849 14.5798 108.945 14.9204C108.397 15.7151 108.178 16.8504 107.52 17.5313C107.52 17.645 107.301 17.872 106.972 17.872C106.863 17.872 106.534 17.645 106.424 17.645C106.488 17.374 106.642 17.1334 106.862 16.964L107.52 15.9424C107.767 15.6836 107.954 15.3731 108.068 15.0332C107.734 15.0841 107.404 15.16 107.082 15.2602C106.095 16.1694 105.986 17.8711 104.67 18.5524C104.67 18.7794 104.561 18.7794 104.561 19.007C104.561 19.1206 104.451 19.234 104.561 19.4616C104.806 19.568 105.064 19.6442 105.328 19.6886C105.332 19.4792 105.409 19.278 105.547 19.1209C105.438 17.9856 106.095 18.4399 106.534 18.2117L106.643 18.4387C105.995 19.5081 105.181 20.4662 104.232 21.2767C104.232 20.709 103.903 20.5957 103.793 20.028C103.574 20.4826 103.136 20.709 102.478 20.9372C102.478 20.9372 102.478 21.2779 102.698 21.3918C102.807 21.3918 103.355 21.3918 103.465 21.5055C103.574 21.5055 103.684 21.8461 103.684 21.9601C103.793 22.0737 103.793 22.3007 104.122 22.4147C103.684 22.5283 103.574 22.7553 103.026 22.8693C102.854 22.7918 102.667 22.753 102.478 22.7556C103.026 22.5286 103.465 22.0746 103.685 21.961C103.282 21.8827 102.866 21.9152 102.48 22.055C102.094 22.1949 101.753 22.437 101.493 22.7556C100.068 23.7773 98.8626 25.0259 97.5475 26.2748C97.1993 26.5179 96.9015 26.8267 96.6706 27.184C97.4377 28.2057 96.1226 27.9787 95.5748 28.4327C95.7076 28.5837 95.8766 28.6981 96.0657 28.765C96.2549 28.8319 96.458 28.8491 96.6557 28.815C96.8533 28.7809 97.039 28.6965 97.1951 28.57C97.3512 28.4435 97.4725 28.2789 97.5475 28.092C97.8763 27.2974 98.0955 26.9567 98.9724 26.7297C99.7395 26.5027 100.179 25.8205 99.7395 25.0268C100.475 24.7014 101.116 24.1937 101.603 23.5512C101.764 23.4396 101.955 23.3798 102.151 23.3798C102.346 23.3798 102.537 23.4396 102.699 23.5512C102.575 23.8647 102.428 24.1686 102.26 24.4604C102.041 24.6874 102.26 24.6874 102.26 24.6874C102.637 24.5208 103.003 24.3313 103.356 24.1197C103.904 23.5521 104.452 22.6438 105 21.9628C106.096 20.6005 107.411 19.1249 108.507 17.8759C108.507 17.8759 108.726 17.7623 108.726 17.6489L109.933 15.3784C110.124 15.2365 110.353 15.1572 110.591 15.1514C110.7 15.1514 110.81 15.3784 110.7 15.3784C110.591 16.2876 110.919 17.6489 109.933 18.4436C108.837 19.4652 108.726 20.7139 108.508 22.3034C107.412 21.9628 106.974 22.4171 106.974 23.5521C106.974 23.6657 106.974 24.1197 106.864 24.1197C106.207 24.8007 105.768 25.5957 105.22 26.2767C104.453 26.7313 103.686 27.4119 103.357 28.2066C103.138 28.3202 103.138 28.8876 103.138 29.2282C103.357 29.3419 103.357 29.4552 103.576 29.5689C103.905 29.5689 105.33 28.6597 105.33 28.2066C105.001 27.1849 105.768 26.5037 106.207 25.936C106.386 25.7577 106.615 25.6388 106.864 25.5954C107.522 26.163 107.631 25.4817 107.85 25.1408C108.07 24.6862 108.399 24.5731 108.727 24.3461C108.948 23.9172 109.246 23.5325 109.604 23.2108C110.594 22.0601 111.509 20.8466 112.344 19.578C112.673 19.1234 113.002 18.4427 112.783 17.875C112.671 17.0777 112.891 16.1697 113 15.375ZM89.546 5.95267C89.3267 5.95267 89.1077 6.29332 89.1077 6.52031C88.6694 7.2013 88.0118 6.40666 87.354 6.63396C87.2295 6.34578 87.1554 6.03822 87.1347 5.72476C88.6691 5.49776 89.9843 5.15712 91.0801 5.15712C91.4796 4.92584 91.9342 4.80809 92.3952 4.81647C92.6145 4.70282 93.1623 4.81647 93.3816 4.81647C92.3955 5.61293 90.8611 6.40666 89.546 5.95267V5.95267ZM93.4914 7.08796C93.8202 7.20161 94.3682 6.86096 95.0258 6.86096C94.1489 5.95176 93.2721 7.20161 92.505 6.63396C93.0363 6.36816 93.5856 6.1406 94.1489 5.95297C94.4777 6.17997 95.0258 6.29362 95.2448 6.52062C95.0258 7.54195 93.8205 8.1096 93.4914 7.08796V7.08796ZM87.9018 7.8826C87.0249 7.8826 86.3673 8.45025 85.381 7.8826C86.4768 7.54196 87.1347 7.76895 88.0113 7.54195C88.012 7.66431 87.9737 7.78369 87.9021 7.8826H87.9018ZM80.997 9.58553C80.997 9.47188 80.7777 9.35854 80.6682 9.24489C80.3278 9.58318 80.033 9.96486 79.7914 10.3802C79.6352 10.0685 79.4103 9.7967 79.1338 9.58553C78.5857 9.81253 78.1474 10.0401 77.4899 10.3802C77.4467 10.1806 77.3728 9.98907 77.2706 9.81253L78.6952 9.13154C78.3664 9.01789 78.3664 8.79089 78.1471 8.45055C78.6283 8.47899 79.1055 8.55502 79.5718 8.67754C79.7375 8.64876 79.8905 8.56953 80.01 8.45055C80.5581 7.8829 80.9964 7.76956 81.5445 8.5642C81.5445 8.67785 81.7638 8.67785 81.8733 9.0188C81.6063 9.24405 81.3119 9.43438 80.9973 9.58523L80.997 9.58553ZM82.8602 9.13093C82.8602 8.79029 82.8602 8.79029 82.7507 8.67633C83.3291 8.59172 83.8867 8.3992 84.3946 8.10869C84.3982 8.17981 84.4204 8.24873 84.4589 8.30852C84.4974 8.36832 84.5508 8.41688 84.6139 8.44934C84.0132 8.63205 83.4271 8.86 82.8605 9.13124L82.8602 9.13093ZM73.7638 10.9469L73.6543 10.4923C74.4213 10.2653 75.2982 10.1517 76.0655 9.81132C76.1451 9.98954 76.1826 10.1838 76.175 10.379C75.3416 10.4049 74.5218 10.598 73.7638 10.9469V10.9469ZM49.1044 16.9643C49.4332 16.9643 49.6525 17.305 49.9813 17.8735C50.0908 17.5329 50.31 17.1925 50.31 16.9643C50.31 16.7361 49.762 16.0551 49.6525 16.1697C48.5566 16.8507 47.2412 17.305 46.2548 17.8726C46.8779 17.8851 47.501 17.8471 48.1181 17.759C48.0083 17.0777 48.7756 16.8507 49.1044 16.9643ZM44.8302 20.4835C44.8302 20.0289 44.5014 19.9159 44.5014 19.6889C44.0043 20.1667 43.5631 20.6999 43.1863 21.2782C42.8575 21.2782 42.8575 20.8236 42.748 20.8236C42.8087 20.7296 42.8893 20.6504 42.984 20.5915C43.0788 20.5326 43.1854 20.4955 43.2961 20.4829C43.3446 20.2951 43.4621 20.1327 43.6249 20.0283L43.9537 19.1191C44.5017 19.2328 44.94 19.6868 45.4881 19.9138C45.3449 19.9575 45.2125 20.0307 45.0991 20.1288C44.9858 20.2269 44.8941 20.3478 44.8299 20.4835H44.8302ZM39.0216 22.6405C39.0216 22.6405 38.9121 22.5268 39.0216 22.2998C38.2546 22.5268 38.0353 22.7544 37.2679 22.8675C36.6103 23.2081 35.9528 22.8675 35.2952 22.7538L35.1857 23.2084C35.9528 23.3221 36.6103 23.5491 37.267 23.5491C38.035 23.5484 38.4732 22.7538 39.0213 22.6402L39.0216 22.6405ZM24.116 29.9056C25.2118 30.4732 26.1972 29.1109 27.1848 28.8839C28.4999 28.203 29.9249 26.727 31.5688 26.5C32.2264 26.273 32.8839 25.5908 33.5415 25.2514C33.5215 25.1275 33.4709 25.0106 33.3943 24.9115C33.3178 24.8123 33.2177 24.734 33.1032 24.6837C34.3098 24.6837 35.1845 25.0244 35.9528 24.1161C35.1857 23.6615 34.1991 25.0253 33.5415 23.5484C32.9934 23.8891 32.2264 24.2294 31.7878 24.6837C31.5685 25.3647 31.3495 25.5929 30.4726 25.3647C30.3872 25.3668 30.3034 25.3882 30.2275 25.4276C30.1516 25.4669 30.0855 25.523 30.0344 25.5917C29.6689 26.0178 29.2216 26.3653 28.7192 26.6134C28.6097 26.954 28.4999 27.408 28.1712 27.5226C27.5136 27.6362 26.6367 28.0902 25.7599 28.2036C25.6504 28.2036 25.6504 28.2036 25.4311 28.3172L25.9792 28.5442C25.201 28.9467 24.3331 29.1421 23.4584 29.1118C22.6913 29.4525 21.924 30.2471 21.4857 30.4741C21.7877 30.8463 22.2188 31.0896 22.6922 31.1551C23.2391 30.9275 23.5679 30.4732 24.116 29.9056ZM92.7243 32.8587L91.738 33.7679V34.1085C92.1762 33.8815 92.505 33.9949 92.7243 33.8815C93.3819 33.5409 94.0395 32.8599 94.697 32.0652C95.4641 31.4976 96.4507 31.0436 97.4371 30.249C97.9851 29.4543 98.6436 28.8867 99.081 28.2057C99.081 28.092 98.9715 28.092 98.9715 27.9787C98.4771 28.1621 98.0002 28.39 97.5466 28.6597C96.889 29.4543 95.9027 30.5896 94.8065 31.0436C94.5872 31.0436 94.5872 31.2706 94.4777 31.3842C93.7988 31.7497 93.2019 32.2515 92.7243 32.8587V32.8587ZM101.602 29.5664C101.492 30.021 101.054 30.2474 100.725 30.4757C100.944 30.9303 101.382 31.0433 101.602 31.2703C101.382 31.9513 100.944 31.9513 100.615 31.7249C100.287 31.7249 100.067 31.4979 99.9578 31.4979C99.5213 31.4402 99.0792 31.4402 98.6427 31.4979C98.6665 32.2963 98.7397 33.0925 98.862 33.8818L98.7525 34.3364C99.7121 34.0314 100.632 33.6122 101.493 33.0878C101.712 33.0878 101.712 32.7471 101.931 32.2931C102.034 31.9241 102.071 31.5398 102.04 31.1579H102.26C101.821 30.8139 101.821 30.2462 101.602 29.5652V29.5664ZM95.0261 30.021C94.8927 29.9229 94.7448 29.8463 94.5878 29.7941C94.4339 29.7892 94.2819 29.8287 94.1495 29.9077C93.8208 30.0214 93.6015 30.4753 93.3825 30.5887L93.492 30.8157C93.8358 30.8388 94.1788 30.7599 94.4783 30.5887C94.5881 30.5857 95.0258 30.2462 95.0258 30.0192L95.0261 30.021ZM92.5053 30.4757C91.6357 31.1452 90.7201 31.7521 89.7653 32.2919C90.9718 32.8596 92.6148 32.1783 93.3819 31.4973C92.9794 31.2695 92.6691 30.9071 92.505 30.4732L92.5053 30.4757ZM98.9715 33.7679C99.1082 33.4443 99.1826 33.0976 99.1908 32.7462C99.4101 32.6326 99.9579 32.6326 100.506 32.2916C99.8484 33.0845 99.3003 33.3115 98.9715 33.7654V33.7679ZM16.9919 35.5817C17.759 34.1061 19.0732 33.7654 19.951 33.0842C20.1703 33.0842 20.1703 33.0842 20.1703 33.1978C19.1839 33.9924 18.4168 34.7871 16.9919 35.5817ZM86.0389 35.5817C85.3813 36.6034 84.2851 37.398 83.7374 36.8304C82.5308 37.0574 82.2029 37.852 81.6561 38.5333C81.6561 38.9879 81.108 38.9879 80.6697 39.4425C81.4368 39.8971 81.7656 39.8971 82.3136 39.3289C82.5949 38.8098 83.0121 38.378 83.5202 38.0802C83.7395 37.8532 84.2873 37.7396 84.397 37.6256C85.3834 37.171 86.2603 36.4903 87.3561 35.6957C87.2466 35.0147 87.4656 34.7865 88.4519 34.7865C88.7807 34.9001 89 34.5595 89.219 34.2188C88.8902 33.8782 88.3421 33.7642 87.9039 33.6512C87.1347 35.1277 86.9157 35.6954 86.0389 35.5817ZM97.1089 33.7654C96.232 34.1061 96.0131 34.7871 95.465 35.0141C96.6715 36.1494 97.3282 36.0357 98.205 34.7871C97.5466 34.9007 97.1083 34.7871 97.1083 33.7654H97.1089ZM89.6564 35.9224C89.8757 35.6954 90.2044 35.2414 90.5332 35.1277C91.0813 35.0141 91.1908 34.7871 91.1908 33.8791C90.2044 34.7883 89.5469 35.2414 88.67 35.9224C89.3267 36.49 89.3267 36.49 89.6555 35.9224H89.6564ZM95.0255 35.9224C95.135 35.8087 94.5872 35.5817 94.1486 35.8087L91.8472 37.625C91.8472 37.625 91.8472 37.852 92.1759 38.0796C92.5047 37.966 92.8335 37.625 93.2718 37.512C93.2718 37.6256 93.3813 37.6256 93.4911 37.739C92.8335 38.3066 92.3952 38.7606 91.6279 38.8742C91.5184 38.8742 91.5184 38.7606 91.4086 38.7606C91.4985 38.506 91.5357 38.2356 91.5181 37.966C90.97 37.8523 90.751 37.8523 90.4222 37.6253C90.2029 37.8523 90.4222 37.8523 90.4222 37.966C89.984 38.4206 89.5454 38.8752 88.9976 39.5552C88.4641 39.7747 87.9507 40.0406 87.4632 40.3499C87.1344 40.4635 87.0249 40.6905 86.5863 41.0309C86.1144 41.1855 85.6704 41.4154 85.2712 41.7119C85.2984 42.0389 85.4119 42.3527 85.6 42.6211C85.9288 43.1887 85.9288 43.1887 85.1617 43.3021C84.3946 43.5291 83.8466 43.9831 83.189 44.4373C82.4219 44.892 81.7641 46.0266 80.997 44.892C80.8875 44.665 80.7777 44.665 80.5587 44.892C79.6819 45.1189 79.0243 45.4596 79.4626 46.8219C79.1492 46.5815 78.8559 46.3157 78.5857 46.0272C77.8187 46.8219 76.9418 47.2759 76.0649 48.0705C75.6267 48.2975 75.1881 48.2975 75.4074 49.3192C75.0302 49.144 74.6155 49.066 74.2008 49.0922L73.4338 48.9785C72.9955 49.4331 72.6667 50.0001 72.1186 50.2271C71.7899 50.6817 71.3516 50.6817 70.9121 50.9081C69.9257 51.1351 68.9394 51.0218 68.8308 52.3838C68.0637 51.8161 67.0771 52.3838 66.5293 53.5191C66.091 53.6327 65.3228 53.7461 65.3228 53.8597C65.2133 54.4274 65.2133 54.6544 64.5557 54.541C64.2269 54.541 63.3492 54.541 63.1308 54.4274C62.6925 53.6327 62.2539 53.1787 60.9388 53.8597C61.3771 53.0651 61.4869 52.7244 61.9251 52.1568C62.2539 51.9298 62.4732 51.8161 62.5827 51.5891C62.5827 52.0437 62.802 52.1568 63.021 52.8378C63.2403 52.1568 63.2403 51.9286 63.3498 51.5891C63.6321 51.6899 63.8925 51.8442 64.1168 52.0437C64.2263 51.9301 64.2263 51.9301 64.4456 51.9301C64.2263 51.5894 64.2263 51.2491 64.0073 50.7948C64.0073 50.7948 63.2403 50.7948 63.1305 50.9084C62.5824 51.0221 62.5824 51.2491 62.2536 51.363C61.7056 51.59 60.9385 51.59 60.4999 51.9307C60.4281 51.8318 60.3898 51.7124 60.3904 51.59L61.3768 50.909C61.4863 50.7954 61.7056 50.7954 61.8151 50.6821C62.0343 50.3414 62.3631 50.0008 62.4726 50.1144C63.2397 50.7954 64.1165 49.8874 64.7741 49.3198C65.3222 48.9791 66.0892 47.9575 66.8554 48.0711C67.9512 47.9575 68.8281 46.5955 70.472 46.5955C69.9239 46.9361 69.9239 47.1631 69.7049 47.2765C69.0474 47.8441 68.6091 48.0711 67.9512 48.7524C67.1842 48.8661 66.4168 49.207 65.8699 49.207C65.2124 49.3207 64.7741 49.7747 64.7741 50.7963C66.0892 50.1153 67.0756 49.661 68.1717 49.207C68.2812 49.3207 68.2812 49.6616 68.2812 50.0017C68.8293 49.661 69.1581 49.3207 69.7059 49.0925C69.7059 48.8655 69.4866 48.5248 69.7059 48.5248C70.5827 47.8438 71.2403 47.1625 72.1171 46.5949C72.7747 46.4812 72.7747 46.3679 72.8842 45.6857C72.3361 46.0263 71.8978 46.0263 71.5691 46.2533C71.4596 46.0263 71.4596 46.0263 71.3498 46.0263L71.8978 45.1171C72.3535 44.8401 72.7926 44.5365 73.213 44.2079C72.3361 44.5486 70.9115 44.0943 70.6922 45.5702C70.4855 45.4536 70.3087 45.2904 70.1756 45.0934C70.0424 44.8963 69.9567 44.6709 69.9251 44.4349C68.9455 44.9911 67.9955 45.5984 67.0789 46.2542C67.0936 46.2543 67.1081 46.2573 67.1216 46.263C67.1351 46.2688 67.1473 46.2772 67.1575 46.2878C67.1677 46.2984 67.1757 46.311 67.181 46.3247C67.1863 46.3385 67.1888 46.3532 67.1884 46.3679C68.0653 46.1409 68.8323 45.5732 69.5997 45.3463L69.819 45.4599C68.8326 46.1409 67.8463 46.5952 66.8599 47.2762C66.4216 47.3898 66.0929 47.0492 65.4353 47.0492C65.4241 47.1347 65.3857 47.2144 65.3258 47.2762C64.997 47.5032 64.2299 47.5032 64.2299 47.8438C63.3531 49.0925 62.3667 48.8655 61.2709 49.2061C60.9421 49.3198 60.6133 49.2061 60.394 49.3198C59.0789 50.0008 57.8733 50.7954 56.6676 51.363C54.3661 52.3847 52.0647 53.6336 49.7629 54.5416C47.7902 55.4508 45.8175 56.3579 43.6255 56.9255C42.3103 57.6065 40.4471 57.9472 38.8032 58.6285C38.0362 58.7421 37.7074 59.6501 37.7074 60.3314C37.8156 60.5622 37.8717 60.8141 37.8717 61.0692C37.8717 61.3243 37.8156 61.5763 37.7074 61.807V62.488C37.9267 63.169 37.9267 63.9637 38.1457 64.7586C38.2552 65.0993 38.1457 65.6678 38.2552 66.0072C38.9127 66.4618 39.5703 67.0289 40.3364 67.3695C41.2133 67.8241 42.3091 67.2559 43.4053 67.0289C44.6118 66.6882 45.7068 66.0072 46.9124 65.6666C49.9813 64.3043 53.4881 62.942 56.6667 61.4664C59.6258 60.2178 62.4753 58.7418 65.3237 57.2662C65.4332 56.9255 65.543 56.9255 65.762 56.8116C66.9587 56.3749 68.0442 55.6771 68.9403 54.7683C69.4884 54.6547 69.7074 54.6547 70.0361 54.4277C70.4744 54.087 70.4744 53.5185 70.5842 53.2924C70.8035 53.1787 71.4611 53.5194 71.6801 53.2924C72.5569 53.0654 73.324 52.4977 73.9815 52.0437C74.4198 51.8167 74.9679 51.7031 75.4062 51.3627C75.4068 51.3479 75.4045 51.3332 75.3993 51.3193C75.394 51.3055 75.3861 51.2929 75.3758 51.2822C75.3655 51.2716 75.3532 51.2631 75.3396 51.2574C75.326 51.2518 75.3114 51.2489 75.2967 51.2491C74.874 51.2693 74.4614 51.3857 74.0901 51.5897C75.0765 50.1141 76.3916 49.3192 77.2685 50.2275C78.0355 49.7729 78.6931 49.2058 79.4605 48.8652C78.9124 48.2975 79.57 47.8435 79.8987 47.5029C80.5563 46.9352 81.1053 46.5937 81.98 47.1622C81.7607 46.253 82.4183 46.0269 83.1866 45.5729C83.8356 45.4351 84.4961 45.3591 85.1593 45.3459L84.721 44.5513C85.1912 44.4035 85.608 44.1203 85.9197 43.737C86.2314 43.3536 86.4243 42.8868 86.4747 42.3944C86.6355 42.5134 86.768 42.6668 86.8628 42.8434C86.9576 43.0201 87.0122 43.2156 87.0228 43.416C87.5181 42.9784 87.9596 42.4829 88.3379 41.9401C88.4474 41.9401 88.6667 42.1671 88.7762 42.3947C89.345 41.806 89.969 41.2738 90.6394 40.8054C91.1875 40.3508 92.5026 40.4647 92.8314 39.5568V39.3298C93.1602 38.8752 93.5985 38.4206 93.5985 38.0811C93.8177 37.4001 94.5848 37.0595 95.1329 37.0595C95.3522 37.0595 95.5712 37.4001 96.1192 37.6271C96.1048 37.0951 96.1415 36.5628 96.2287 36.0378C95.5739 36.49 95.2451 36.717 95.0258 35.9224H95.0255ZM11.0738 40.3496C11.0738 40.3496 10.8545 40.3496 10.8545 40.0089C11.1192 39.8631 11.3161 39.6185 11.4026 39.3279C11.5271 38.9345 11.7542 38.5818 12.0602 38.3063C12.2795 38.0793 12.4984 37.7387 12.7177 37.7387C13.2658 37.625 13.5946 37.625 14.0329 37.5117C14.7999 36.8307 15.2394 36.1494 15.7866 35.9224C15.9294 35.8242 16.0938 35.7625 16.2657 35.7427C16.4376 35.7229 16.6117 35.7456 16.7729 35.8087C14.8002 37.5117 12.937 38.8739 11.0738 40.3496ZM86.4774 37.5117C85.4189 37.8601 84.4727 38.4873 83.7374 39.3279L80.9973 40.8039C79.0246 42.2798 77.0519 43.1878 75.0789 44.4364C74.4213 44.6634 73.9831 45.1174 73.5445 45.2311C73.7638 46.0257 74.0925 46.1403 74.202 46.3664C74.9691 46.0257 75.2979 45.5717 75.846 45.1177C76.1747 44.5501 76.7228 44.3231 77.1611 43.9824C77.913 43.2677 78.8105 42.7254 79.7914 42.3932C79.9725 42.3702 80.1426 42.293 80.2794 42.1715C80.4162 42.05 80.5134 41.89 80.5584 41.7122C80.6679 41.5985 80.8872 41.2576 80.9967 41.2576C82.7504 40.803 84.175 39.4413 85.7095 38.76C85.9288 37.9654 86.5863 37.9654 87.0246 37.7384C87.5134 37.6271 87.966 37.3928 88.3397 37.0574C88.3264 36.8644 88.2896 36.6737 88.2302 36.4897C88.1207 36.6034 87.9015 36.4897 87.3534 36.6034C87.1347 36.717 86.8059 37.171 86.4771 37.5117H86.4774ZM79.7917 39.5565C79.4629 39.8971 79.4629 40.2374 79.1341 40.2374C78.9148 40.4644 78.367 40.692 78.1477 40.5781C77.0519 40.3511 76.9412 40.3511 76.5038 41.2591C76.175 41.4861 75.8463 41.2591 75.2973 41.4861C74.5302 41.9407 73.9821 42.3953 73.4341 42.7347V43.0754C73.2148 43.3024 73.2148 43.53 73.2148 44.097C74.2011 44.6647 74.4213 43.3024 75.5163 43.3024C76.2833 43.1887 77.0507 42.2807 77.8178 41.7131C78.6946 40.8039 79.4617 40.5778 80.7768 40.4644C80.3979 40.2223 80.0644 39.9149 79.7917 39.5565ZM89.1074 41.2594C88.7102 41.1401 88.3386 40.9476 88.0116 40.6917C88.121 40.6917 88.121 40.4647 88.121 40.3511C88.4401 40.4646 88.7883 40.4646 89.1074 40.3511C89.2451 40.5935 89.3205 40.8667 89.3267 41.1457C89.2172 41.1442 89.2172 41.2579 89.1077 41.2579L89.1074 41.2594ZM59.9546 52.0428C59.6106 52.4196 59.1444 52.661 58.6394 52.7238C58.8584 51.9289 59.4065 51.8155 59.9546 52.0428ZM60.5032 56.4697C60.065 56.4697 59.9552 56.4697 59.7362 56.2427C59.4074 56.2427 59.6267 56.0157 59.6267 56.0157C60.0238 55.8964 60.3954 55.7039 60.7225 55.4481C60.756 55.8032 60.6794 56.16 60.5032 56.4697V56.4697ZM77.9294 72.8169C77.8199 73.0439 77.7101 73.0439 77.1623 73.1575C77.2718 73.0439 77.1623 72.8169 77.1623 72.5899C77.0528 72.3629 76.724 72.2492 76.3952 71.7952C76.3952 70.886 77.7104 71.5682 78.0392 71.0006C78.045 70.6939 78.0082 70.3878 77.9297 70.0914C78.2839 70.2239 78.5896 70.4614 78.8065 70.7724C78.8065 69.6371 78.916 69.0694 78.8065 68.2748C78.697 65.6639 78.149 63.2799 75.4089 62.3717L73.5457 61.4625C73.5268 61.581 73.4899 61.6959 73.4362 61.8031C73.4197 61.9935 73.4639 62.1842 73.5624 62.3476C73.661 62.5111 73.8087 62.6388 73.9843 62.7123C75.5187 63.2799 75.957 64.7556 75.8475 66.2315C75.8475 67.0262 76.0668 67.8208 75.6282 68.7291C75.0801 69.2967 74.9706 70.0914 74.4216 70.9997C75.0792 71.2267 75.2985 71.2267 75.5175 71.3403C74.5311 73.1566 73.7638 73.7242 72.7774 73.4972C72.5581 73.9519 72.3391 74.8595 71.6816 75.3135C70.8394 76.4333 69.843 77.4271 68.7225 78.2651C66.9688 79.2867 65.2154 80.195 63.3534 81.103C63.149 81.3834 62.8867 81.6161 62.5845 81.7852C62.694 82.0122 62.694 82.0122 63.0228 82.2398C63.0642 82.1617 63.1283 82.0981 63.2067 82.0576C63.285 82.017 63.3737 82.0014 63.4611 82.0128C64.3921 81.2013 65.4239 80.5143 66.5305 79.9689C66.9688 79.7432 67.0789 79.4013 67.2976 79.2886C68.832 78.3794 70.4759 77.4723 71.792 76.564C72.0029 76.5044 72.1928 76.3863 72.34 76.2233C72.7255 75.9053 73.0915 75.5642 73.4359 75.2017C73.984 74.5207 74.4222 74.1801 74.751 73.6124C75.5181 72.8178 76.1756 72.5908 76.5047 73.3854C76.943 73.6124 76.724 74.0664 76.943 74.4071C78.2581 73.8394 79.4638 72.2501 78.6967 71.3418C78.367 71.7952 78.2575 72.3629 77.9285 72.8169H77.9294ZM33.651 69.2976L33.8703 69.5246C33.3222 70.0923 33.5415 70.2056 34.3085 70.2056C34.5278 70.5463 34.9661 70.5463 35.1854 70.7733C35.1854 70.8869 35.1854 70.8869 35.0759 71.0003L33.3222 70.5457C33.3089 70.3527 33.2721 70.1621 33.2127 69.978C33.2127 69.7519 33.5415 69.5249 33.651 69.2976ZM75.9558 70.5463C75.8408 70.5265 75.7297 70.4881 75.627 70.4326C75.8463 69.978 76.175 69.865 76.175 69.5234C76.2845 69.5234 76.3943 69.6371 76.3943 69.8641L75.9558 70.5463ZM73.9831 70.8869C73.7224 71.3778 73.5727 71.9205 73.5448 72.4762C73.8037 72.4648 74.0607 72.4268 74.3118 72.3626C74.2023 71.6816 74.0925 71.3409 74.2023 70.8869H73.9831ZM42.5284 74.5198C43.2325 74.7609 43.8972 75.1052 44.5011 75.5414C44.0386 75.6683 43.596 75.8594 43.186 76.1091C42.7477 75.5414 42.5284 74.8604 42.1997 74.6335C42.3091 74.5198 42.3091 74.5198 42.5284 74.5198ZM76.175 76.1091C76.175 76.2226 75.9559 76.2226 75.5175 76.1091C75.3625 76.0924 75.2068 76.1328 75.0792 76.2227C75.0792 76.2227 75.0792 76.6773 75.1887 76.6773C75.1887 76.791 75.408 76.9043 75.627 76.791C76.2271 76.449 76.7798 76.0292 77.2709 75.5423C77.0516 75.5423 77.0516 75.4287 76.9421 75.4287C76.7231 75.5414 76.5038 75.8821 76.175 76.1091ZM48.9946 78.266C49.1041 78.6067 49.4329 78.947 49.5427 79.2877C49.5427 79.4013 49.4332 79.4013 49.1044 79.5147C48.908 79.1312 48.6028 78.8148 48.2275 78.6055C48.4545 78.4356 48.7167 78.3196 48.9946 78.266V78.266ZM72.2293 79.0607C72.1198 80.3093 71.243 79.8553 70.6949 79.7416C69.9279 81.3309 68.5029 81.7849 67.2973 82.4662L65.7629 83.1472C65.3246 83.3742 65.2148 83.9419 64.7765 84.5095V84.7365C65.8724 84.0555 66.7492 83.7149 67.6261 83.0336C68.4052 82.5802 69.1077 82.0054 69.7074 81.3306C70.0361 81.1036 70.6937 80.99 71.0225 80.536C71.5706 80.4223 72.1183 80.309 72.3376 79.9683C72.7774 79.7432 72.8872 79.1743 72.2296 79.0607H72.2293ZM58.7489 82.2392C59.7353 82.1256 60.3928 81.5582 61.2697 81.5582C60.8314 80.6499 59.8451 80.9906 58.7489 82.2392ZM61.3792 82.2392C60.8311 82.3529 60.5023 82.6938 59.9546 82.9202C60.7216 82.9202 61.0504 83.0339 61.9273 83.0339C61.708 82.5799 61.489 82.4662 61.378 82.2392H61.3792ZM45.8148 86.5531C45.8148 86.7801 45.7053 86.8937 45.7053 87.0077C46.034 87.1213 46.3628 87.4623 46.8011 87.4623C46.7723 87.2661 46.8109 87.0658 46.9106 86.8946C46.3643 86.6667 46.1454 86.5531 45.8163 86.5531H45.8148ZM42.5269 87.8017C42.3076 88.0287 41.7599 88.1424 41.5406 88.2563C41.6187 88.3271 41.6793 88.4154 41.7174 88.514C41.7555 88.6125 41.77 88.7187 41.7599 88.824C42.3079 88.4833 42.5269 88.2563 42.7462 88.2563L42.5269 87.8017ZM38.5815 89.618C39.3486 90.4126 39.5679 89.845 40.1159 89.0504H40.883C40.7413 88.7242 40.557 88.4184 40.3349 88.1412C39.5679 88.9358 38.8005 89.6171 37.9237 89.0504C38.1445 89.5047 38.583 89.5047 38.583 89.6183L38.5815 89.618ZM43.186 92.2295L43.6243 92.4565C44.3913 92.3429 45.0489 92.2295 45.378 91.8889C46.1451 91.6619 47.1317 90.9797 47.7893 91.5482C48.1631 91.1003 48.6074 90.7169 49.1044 90.4129C50.4195 90.2993 51.7347 89.9583 53.2691 89.6183C53.202 89.3974 53.1651 89.1683 53.1596 88.9373C52.3925 88.9373 51.735 88.9373 51.2964 89.1643C50.5293 89.1643 50.0898 89.6189 49.5427 89.6189C48.8851 89.9596 48.2275 90.2999 47.6795 90.6405C47.1371 90.9648 46.5442 91.195 45.9258 91.3215L43.6243 91.6622C43.5148 91.6616 43.4053 92.1156 43.186 92.2295ZM36.2819 91.2076C36.3669 90.6627 36.514 90.1295 36.7201 89.6183C35.9531 89.8453 34.9664 89.732 34.8569 90.9806C35.2949 91.3203 35.843 91.6616 36.2819 91.2076ZM32.994 92.3429C33.1131 92.3503 33.2325 92.3341 33.3453 92.2951C33.4581 92.2562 33.5622 92.1953 33.6516 92.1159C33.6697 92.648 33.633 93.1806 33.5421 93.7052C32.8839 93.3645 32.6646 92.7969 32.994 92.3426V92.3429ZM34.9667 93.7052C34.9667 93.7052 34.9667 94.0458 35.0762 94.1598C34.6958 94.2714 34.3284 94.4238 33.9804 94.6144C33.8798 94.5919 33.7909 94.5333 33.7303 94.4496C33.6698 94.3659 33.6418 94.2628 33.6516 94.1598C34.0893 94.0455 34.5278 93.8185 34.9661 93.7049L34.9667 93.7052ZM49.3246 103.014C49.5439 103.128 49.8727 103.582 49.9822 103.582C49.5439 103.695 48.8863 103.695 48.119 103.809C47.8997 103.809 47.7902 103.695 47.3519 103.582C46.475 103.127 45.9273 103.809 45.8175 104.717C45.0504 104.83 44.3925 105.057 43.9543 105.057C43.5386 105.104 43.1187 105.025 42.7477 104.83C43.186 104.603 43.5148 104.603 43.6246 104.263V104.036C42.7477 104.263 41.6519 104.263 40.775 104.717C40.7755 104.732 40.773 104.746 40.7677 104.76C40.7624 104.774 40.7544 104.786 40.7442 104.797C40.734 104.807 40.7217 104.816 40.7082 104.822C40.6947 104.827 40.6802 104.83 40.6655 104.83C40.8848 104.944 41.2136 104.944 41.4326 105.057V105.398C40.1175 105.398 38.583 105.511 37.1584 105.625C37.5967 104.716 38.1448 104.603 38.6928 104.944C38.9137 105.018 39.1493 105.036 39.3787 104.996C39.6081 104.956 39.8243 104.86 40.008 104.717C40.439 104.318 40.9691 104.044 41.5424 103.922C41.5465 103.653 41.5096 103.385 41.4329 103.128C42.748 103.922 43.6249 103.468 44.6112 103.241C45.0495 103.241 45.1593 102.901 45.2688 102.901C46.3646 103.128 47.2415 102.787 48.2279 102.22C49.9816 101.765 51.735 101.198 53.4887 100.744C52.3922 101.652 50.9676 101.992 49.3234 103.014H49.3246ZM36.6112 104.036C36.2825 103.922 35.7344 104.149 35.1866 104.149C34.3098 103.809 33.3234 103.582 32.6658 104.036C32.3318 103.86 32.0628 103.582 31.8988 103.241C31.7893 103.241 31.7893 103.014 31.7893 103.014C31.8988 102.9 32.1181 102.673 32.2276 102.673C32.9946 102.673 34.2003 102.673 35.0771 103.014C36.1532 103.005 37.2245 103.158 38.2555 103.468C37.7062 103.922 37.4884 104.716 36.61 104.036H36.6112Z" fill="#B10000"/>
<path d="M71.1724 97.7632H71.3284C71.3802 97.6066 71.4843 97.6066 71.6406 97.6587C71.6406 97.7108 71.6924 97.7108 71.7446 97.6587C72.0046 97.6066 72.1087 97.345 72.2128 97.1362C72.3168 96.9274 72.3687 96.6658 72.4728 96.4046C72.4728 96.3525 72.5246 96.3 72.5246 96.2479C72.5824 96.1525 72.6179 96.0453 72.6287 95.9342C72.6806 95.7775 72.6287 95.673 72.6806 95.5684L72.8887 95.2026C72.954 95.0191 73.0409 94.8441 73.1475 94.6813C73.3035 94.3155 73.6157 94.0022 73.7206 93.5839C73.8256 93.1657 74.0847 92.8002 73.9288 92.3298C73.9028 92.1567 73.9028 91.9805 73.9288 91.8073V91.7028C73.87 91.5584 73.8004 91.4187 73.7206 91.2849L73.5647 91.1282C73.314 91.0423 73.049 91.0068 72.7847 91.0236C72.5151 90.9993 72.2442 91.0537 72.0046 91.1803C71.6406 91.3775 71.2566 91.5352 70.8593 91.6507C70.7521 91.6939 70.6341 91.7021 70.522 91.6739C70.4099 91.6458 70.3096 91.5828 70.2352 91.494C70.0638 91.3789 69.8671 91.3071 69.6621 91.2849C69.5646 91.2628 69.4626 91.271 69.3698 91.3083C69.277 91.3456 69.1976 91.4104 69.1421 91.494C69.0786 91.5764 69.0442 91.6777 69.0442 91.7819C69.0442 91.8861 69.0786 91.9874 69.1421 92.0698C69.4021 92.4356 69.298 92.8535 69.2462 93.2718C69.2462 93.4285 69.0902 93.533 69.0902 93.6376C69.1421 93.8467 69.0383 93.9513 68.9343 94.1079C68.9343 94.1601 68.8824 94.1601 68.8824 94.2125C68.8824 94.4216 68.8305 94.6304 68.8305 94.8395C68.7786 95.0487 68.6746 95.2575 68.6224 95.4666C68.6224 95.5712 68.6743 95.7278 68.6743 95.8845V95.9891C68.7783 96.3549 69.1424 96.5116 69.4543 96.7207C69.6975 96.8279 69.9252 96.9677 70.1312 97.1362L70.4952 97.3453C70.5471 97.3974 70.7034 97.3974 70.7553 97.4499L71.1724 97.7632Z" fill="#B10000"/>
</g>
<g filter="url(#filter1_d)">
<path d="M118.047 53.0312H113.481V49.6445H126.896V53.0312H122.347V78H118.047V53.0312ZM129.801 49.6445H134.101V61.5146H139.197V49.6445H143.497V78H139.197V64.9014H134.101V78H129.801V49.6445ZM148.395 49.6445H158.903V53.0312H152.694V61.5146H157.492V64.9014H152.694V74.6133H159.069V78H148.395V49.6445ZM168.35 72.2559C168.35 71.6471 168.383 71.0882 168.449 70.5791C168.527 70.0589 168.637 69.5 168.781 68.9023H172.118V70.2803C172.118 71.0439 172.162 71.7191 172.251 72.3057C172.351 72.8923 172.506 73.3903 172.716 73.7998C172.937 74.1982 173.225 74.5026 173.579 74.7129C173.944 74.9121 174.387 75.0117 174.907 75.0117C175.726 75.0117 176.352 74.7904 176.783 74.3477C177.215 73.8939 177.431 73.2354 177.431 72.3721C177.431 71.9294 177.397 71.5254 177.331 71.1602C177.276 70.7839 177.171 70.4131 177.016 70.0479C176.872 69.6826 176.673 69.3008 176.418 68.9023C176.163 68.4928 175.837 68.0391 175.438 67.541L170.956 62.2119C170.159 61.1937 169.545 60.1699 169.113 59.1406C168.682 58.1003 168.466 56.9935 168.466 55.8203C168.466 54.8796 168.61 54.0163 168.897 53.2305C169.196 52.4447 169.622 51.7695 170.176 51.2051C170.729 50.6296 171.41 50.1868 172.218 49.877C173.037 49.556 173.961 49.3955 174.99 49.3955C176.241 49.3955 177.281 49.5726 178.111 49.9268C178.952 50.2809 179.622 50.7458 180.12 51.3213C180.618 51.8968 180.967 52.5443 181.166 53.2637C181.376 53.972 181.481 54.6859 181.481 55.4053C181.481 56.014 181.432 56.5785 181.332 57.0986C181.243 57.6077 181.138 58.1722 181.017 58.792H177.696V57.4473C177.696 55.9421 177.48 54.791 177.049 53.9941C176.617 53.1862 175.914 52.7822 174.94 52.7822C174.132 52.7822 173.529 53.0091 173.131 53.4629C172.732 53.9056 172.533 54.5033 172.533 55.2559C172.533 55.6543 172.561 56.014 172.616 56.335C172.683 56.6559 172.771 56.9548 172.882 57.2314C173.004 57.4971 173.147 57.7572 173.313 58.0117C173.479 58.2663 173.668 58.5319 173.878 58.8086L178.875 64.8516C179.783 66.0358 180.48 67.1758 180.967 68.2715C181.454 69.3561 181.697 70.5072 181.697 71.7246C181.697 72.7318 181.537 73.6393 181.216 74.4473C180.906 75.2552 180.458 75.9414 179.871 76.5059C179.285 77.0703 178.576 77.5075 177.746 77.8174C176.916 78.1162 175.981 78.2656 174.94 78.2656C173.657 78.2656 172.589 78.0941 171.736 77.751C170.895 77.4079 170.22 76.9541 169.711 76.3896C169.213 75.8252 168.859 75.1833 168.648 74.4639C168.449 73.7445 168.35 73.0085 168.35 72.2559ZM188.438 49.6445H193.385L198.631 78H194.281L193.501 72.9199H188.321L187.574 78H183.208L188.438 49.6445ZM193.003 69.6826L191.011 55.5547H190.828L188.819 69.6826H193.003ZM201.387 49.6445H204.873L211.746 68.6201H211.846C211.812 68.1774 211.768 67.6849 211.713 67.1426C211.658 66.6003 211.608 65.986 211.563 65.2998C211.519 64.6025 211.48 63.8167 211.447 62.9424C211.414 62.068 211.397 61.083 211.397 59.9873V49.6445H215.249V78H211.729L204.89 59.5225H204.757C204.79 60.0205 204.834 60.5628 204.89 61.1494C204.945 61.7249 204.995 62.4056 205.039 63.1914C205.083 63.9772 205.122 64.8958 205.155 65.9473C205.188 66.9876 205.205 68.2272 205.205 69.666V78H201.387V49.6445ZM220.113 49.6445H224.579C225.254 49.6445 225.951 49.6667 226.671 49.7109C227.401 49.7441 228.11 49.8604 228.796 50.0596C229.493 50.2588 230.146 50.5687 230.755 50.9893C231.375 51.3988 231.917 51.9798 232.382 52.7324C232.847 53.474 233.212 54.4147 233.478 55.5547C233.754 56.6836 233.893 58.0671 233.893 59.7051V67.9395C233.893 69.5775 233.754 70.9665 233.478 72.1064C233.212 73.2464 232.847 74.1872 232.382 74.9287C231.917 75.6702 231.375 76.2513 230.755 76.6719C230.146 77.0814 229.493 77.3857 228.796 77.585C228.11 77.7842 227.401 77.9059 226.671 77.9502C225.951 77.9834 225.254 78 224.579 78H220.113V49.6445ZM225.509 74.9951C226.284 74.9951 226.92 74.8955 227.418 74.6963C227.927 74.4971 228.326 74.1484 228.613 73.6504C228.912 73.1413 229.117 72.4551 229.228 71.5918C229.338 70.7174 229.394 69.6162 229.394 68.2881V59.4893C229.394 58.1611 229.338 57.0654 229.228 56.2021C229.117 55.3278 228.912 54.6416 228.613 54.1436C228.326 53.6344 227.927 53.2803 227.418 53.0811C226.92 52.8818 226.284 52.7822 225.509 52.7822H224.413V74.9951H225.509ZM241.114 68.5537L235.403 49.6445H239.736L243.206 63.208H243.405L246.842 49.6445H251.158L245.414 68.5537V78H241.114V68.5537ZM260.953 49.6445H271.794V53.0312H265.253V61.5146H270.383V64.9014H265.253V78H260.953V49.6445ZM280.941 78.249C280.488 78.249 279.995 78.2103 279.464 78.1328C278.933 78.0664 278.407 77.917 277.887 77.6846C277.367 77.4521 276.863 77.1257 276.376 76.7051C275.9 76.2734 275.474 75.709 275.098 75.0117C274.732 74.3145 274.439 73.4567 274.218 72.4385C273.996 71.4092 273.886 70.1862 273.886 68.7695V58.7256C273.886 57.2979 273.996 56.0804 274.218 55.0732C274.45 54.055 274.755 53.2028 275.131 52.5166C275.507 51.8193 275.933 51.266 276.409 50.8564C276.896 50.4469 277.4 50.137 277.92 49.9268C278.451 49.7054 278.977 49.5615 279.497 49.4951C280.017 49.4287 280.499 49.3955 280.941 49.3955C281.362 49.3955 281.827 49.4287 282.336 49.4951C282.856 49.5505 283.371 49.6833 283.88 49.8936C284.4 50.0928 284.904 50.3971 285.391 50.8066C285.878 51.2051 286.309 51.7529 286.686 52.4502C287.062 53.1364 287.361 53.9941 287.582 55.0234C287.814 56.0417 287.931 57.2757 287.931 58.7256V68.7695C287.931 70.1751 287.814 71.387 287.582 72.4053C287.35 73.4124 287.045 74.2702 286.669 74.9785C286.293 75.6758 285.855 76.2402 285.357 76.6719C284.87 77.0924 284.367 77.4245 283.847 77.668C283.338 77.9004 282.828 78.0553 282.319 78.1328C281.81 78.2103 281.351 78.249 280.941 78.249ZM280.941 75.0117C281.362 75.0117 281.727 74.9398 282.037 74.7959C282.358 74.652 282.618 74.403 282.817 74.0488C283.028 73.6947 283.183 73.2298 283.282 72.6543C283.393 72.0677 283.448 71.3317 283.448 70.4463V57.5469C283.448 56.6393 283.393 55.8812 283.282 55.2725C283.183 54.6637 283.028 54.1768 282.817 53.8115C282.618 53.4352 282.358 53.1696 282.037 53.0146C281.727 52.8597 281.362 52.7822 280.941 52.7822C280.51 52.7822 280.133 52.8597 279.812 53.0146C279.492 53.1696 279.226 53.4352 279.016 53.8115C278.805 54.1768 278.645 54.6637 278.534 55.2725C278.435 55.8812 278.385 56.6393 278.385 57.5469V70.4463C278.385 71.3317 278.435 72.0677 278.534 72.6543C278.645 73.2298 278.805 73.6947 279.016 74.0488C279.226 74.403 279.492 74.652 279.812 74.7959C280.133 74.9398 280.51 75.0117 280.941 75.0117ZM291.898 49.6445H296.231V70.4297C296.231 71.3151 296.276 72.0511 296.364 72.6377C296.453 73.2243 296.591 73.6947 296.779 74.0488C296.979 74.3919 297.228 74.641 297.526 74.7959C297.836 74.9398 298.201 75.0117 298.622 75.0117C299.043 75.0117 299.408 74.9398 299.718 74.7959C300.039 74.641 300.299 74.3919 300.498 74.0488C300.708 73.6947 300.863 73.2243 300.963 72.6377C301.074 72.0511 301.129 71.3151 301.129 70.4297V49.6445H305.412V69.2842C305.412 70.6676 305.301 71.8519 305.08 72.8369C304.859 73.8219 304.565 74.6465 304.2 75.3105C303.835 75.9746 303.414 76.5003 302.938 76.8877C302.474 77.2751 301.987 77.5739 301.478 77.7842C300.979 77.9834 300.481 78.1107 299.983 78.166C299.485 78.2214 299.032 78.249 298.622 78.249C298.213 78.249 297.759 78.2214 297.261 78.166C296.774 78.1107 296.281 77.9834 295.783 77.7842C295.285 77.5739 294.804 77.2751 294.339 76.8877C293.874 76.5003 293.459 75.9746 293.094 75.3105C292.729 74.6465 292.435 73.8275 292.214 72.8535C292.004 71.8685 291.898 70.6787 291.898 69.2842V49.6445ZM310.16 49.6445H313.646L320.52 68.6201H320.619C320.586 68.1774 320.542 67.6849 320.486 67.1426C320.431 66.6003 320.381 65.986 320.337 65.2998C320.293 64.6025 320.254 63.8167 320.221 62.9424C320.188 62.068 320.171 61.083 320.171 59.9873V49.6445H324.022V78H320.503L313.663 59.5225H313.53C313.563 60.0205 313.608 60.5628 313.663 61.1494C313.718 61.7249 313.768 62.4056 313.812 63.1914C313.857 63.9772 313.896 64.8958 313.929 65.9473C313.962 66.9876 313.979 68.2272 313.979 69.666V78H310.16V49.6445ZM328.887 49.6445H333.353C334.028 49.6445 334.725 49.6667 335.444 49.7109C336.175 49.7441 336.883 49.8604 337.569 50.0596C338.267 50.2588 338.92 50.5687 339.528 50.9893C340.148 51.3988 340.69 51.9798 341.155 52.7324C341.62 53.474 341.985 54.4147 342.251 55.5547C342.528 56.6836 342.666 58.0671 342.666 59.7051V67.9395C342.666 69.5775 342.528 70.9665 342.251 72.1064C341.985 73.2464 341.62 74.1872 341.155 74.9287C340.69 75.6702 340.148 76.2513 339.528 76.6719C338.92 77.0814 338.267 77.3857 337.569 77.585C336.883 77.7842 336.175 77.9059 335.444 77.9502C334.725 77.9834 334.028 78 333.353 78H328.887V49.6445ZM334.282 74.9951C335.057 74.9951 335.693 74.8955 336.191 74.6963C336.701 74.4971 337.099 74.1484 337.387 73.6504C337.686 73.1413 337.89 72.4551 338.001 71.5918C338.112 70.7174 338.167 69.6162 338.167 68.2881V59.4893C338.167 58.1611 338.112 57.0654 338.001 56.2021C337.89 55.3278 337.686 54.6416 337.387 54.1436C337.099 53.6344 336.701 53.2803 336.191 53.0811C335.693 52.8818 335.057 52.7822 334.282 52.7822H333.187V74.9951H334.282ZM349.639 49.6445H354.586L359.832 78H355.482L354.702 72.9199H349.522L348.775 78H344.409L349.639 49.6445ZM354.204 69.6826L352.212 55.5547H352.029L350.021 69.6826H354.204ZM365.211 53.0312H360.646V49.6445H374.06V53.0312H369.511V78H365.211V53.0312ZM376.965 49.6445H381.265V78H376.965V49.6445ZM392.404 78.249C391.951 78.249 391.458 78.2103 390.927 78.1328C390.396 78.0664 389.87 77.917 389.35 77.6846C388.829 77.4521 388.326 77.1257 387.839 76.7051C387.363 76.2734 386.937 75.709 386.561 75.0117C386.195 74.3145 385.902 73.4567 385.681 72.4385C385.459 71.4092 385.349 70.1862 385.349 68.7695V58.7256C385.349 57.2979 385.459 56.0804 385.681 55.0732C385.913 54.055 386.217 53.2028 386.594 52.5166C386.97 51.8193 387.396 51.266 387.872 50.8564C388.359 50.4469 388.863 50.137 389.383 49.9268C389.914 49.7054 390.44 49.5615 390.96 49.4951C391.48 49.4287 391.962 49.3955 392.404 49.3955C392.825 49.3955 393.29 49.4287 393.799 49.4951C394.319 49.5505 394.834 49.6833 395.343 49.8936C395.863 50.0928 396.367 50.3971 396.854 50.8066C397.34 51.2051 397.772 51.7529 398.148 52.4502C398.525 53.1364 398.824 53.9941 399.045 55.0234C399.277 56.0417 399.394 57.2757 399.394 58.7256V68.7695C399.394 70.1751 399.277 71.387 399.045 72.4053C398.812 73.4124 398.508 74.2702 398.132 74.9785C397.756 75.6758 397.318 76.2402 396.82 76.6719C396.333 77.0924 395.83 77.4245 395.31 77.668C394.8 77.9004 394.291 78.0553 393.782 78.1328C393.273 78.2103 392.814 78.249 392.404 78.249ZM392.404 75.0117C392.825 75.0117 393.19 74.9398 393.5 74.7959C393.821 74.652 394.081 74.403 394.28 74.0488C394.491 73.6947 394.646 73.2298 394.745 72.6543C394.856 72.0677 394.911 71.3317 394.911 70.4463V57.5469C394.911 56.6393 394.856 55.8812 394.745 55.2725C394.646 54.6637 394.491 54.1768 394.28 53.8115C394.081 53.4352 393.821 53.1696 393.5 53.0146C393.19 52.8597 392.825 52.7822 392.404 52.7822C391.973 52.7822 391.596 52.8597 391.275 53.0146C390.954 53.1696 390.689 53.4352 390.479 53.8115C390.268 54.1768 390.108 54.6637 389.997 55.2725C389.897 55.8812 389.848 56.6393 389.848 57.5469V70.4463C389.848 71.3317 389.897 72.0677 389.997 72.6543C390.108 73.2298 390.268 73.6947 390.479 74.0488C390.689 74.403 390.954 74.652 391.275 74.7959C391.596 74.9398 391.973 75.0117 392.404 75.0117ZM403.461 49.6445H406.947L413.82 68.6201H413.92C413.887 68.1774 413.842 67.6849 413.787 67.1426C413.732 66.6003 413.682 65.986 413.638 65.2998C413.593 64.6025 413.555 63.8167 413.521 62.9424C413.488 62.068 413.472 61.083 413.472 59.9873V49.6445H417.323V78H413.804L406.964 59.5225H406.831C406.864 60.0205 406.909 60.5628 406.964 61.1494C407.019 61.7249 407.069 62.4056 407.113 63.1914C407.158 63.9772 407.196 64.8958 407.229 65.9473C407.263 66.9876 407.279 68.2272 407.279 69.666V78H403.461V49.6445Z" fill="white"/>
</g>
<defs>
<filter id="filter0_d" x="-2" y="0" width="127" height="138" filterUnits="userSpaceOnUse" color-interpolation-filters="sRGB">
<feFlood flood-opacity="0" result="BackgroundImageFix"/>
<feColorMatrix in="SourceAlpha" type="matrix" values="0 0 0 0 0 0 0 0 0 0 0 0 0 0 0 0 0 0 127 0"/>
<feOffset dx="4" dy="4"/>
<feGaussianBlur stdDeviation="4"/>
<feColorMatrix type="matrix" values="0 0 0 0 0 0 0 0 0 0 0 0 0 0 0 0 0 0 0.3 0"/>
<feBlend mode="normal" in2="BackgroundImageFix" result="effect1_dropShadow"/>
<feBlend mode="normal" in="SourceGraphic" in2="effect1_dropShadow" result="shape"/>
</filter>
<filter id="filter1_d" x="110.481" y="46.3955" width="311.842" height="36.8701" filterUnits="userSpaceOnUse" color-interpolation-filters="sRGB">
<feFlood flood-opacity="0" result="BackgroundImageFix"/>
<feColorMatrix in="SourceAlpha" type="matrix" values="0 0 0 0 0 0 0 0 0 0 0 0 0 0 0 0 0 0 127 0"/>
<feOffset dx="1" dy="1"/>
<feGaussianBlur stdDeviation="2"/>
<feColorMatrix type="matrix" values="0 0 0 0 0 0 0 0 0 0 0 0 0 0 0 0 0 0 0.2 0"/>
<feBlend mode="normal" in2="BackgroundImageFix" result="effect1_dropShadow"/>
<feBlend mode="normal" in="SourceGraphic" in2="effect1_dropShadow" result="shape"/>
</filter>
<clipPath id="clip0">
<rect width="111" height="122" fill="white" transform="translate(2 4)"/>
</clipPath>
</defs>
</svg>
