<svg xmlns="http://www.w3.org/2000/svg" xmlns:xlink="http://www.w3.org/1999/xlink" width="1920" height="608" viewBox="0 0 1920 608"><defs><clipPath id="a"><rect width="1920" height="608" fill="#fff" stroke="#707070" stroke-width="1"/></clipPath></defs><g clip-path="url(#a)"><g transform="translate(-96 55)" opacity="0.16"><path d="M798.34-160.953c0-2.664,0-7.991-1.594-8.879-4.783-7.991-7.175-17.758-14.349-22.2-.8-1.776-.8-2.664-3.189-3.552-.8-5.327,0-11.543-2.392-13.319-7.174-8.879-12.754-16.87-22.32-22.2-18.335-13.319-40.655-16.87-62.975-18.646-19.929-.888-39.858,1.776-59.787,2.664-15.943,1.776-35.075,3.552-51.018,9.767C552.817-231.986,528.1-223.995,501-216l-78.121,24.861c-2.391.888-3.986.888-5.58,3.552v2.664c6.377-1.776,13.552-5.327,17.537,5.327,0-13.319,10.363-15.982,18.335-18.646,12.754-3.552,25.509-8.879,39.858-11.543,2.391-.888,5.58-2.664,6.377-.888,2.391,3.552,4.783,1.776,6.377,0,.8-1.776,3.986-4.44,4.783-4.44,11.957-2.664,25.509-7.1,37.466-9.767,6.377-2.664,11.16-3.552,18.335-4.44,11.957-1.776,24.712-2.664,39.858-6.215,1.594.888,1.594.888,1.594,3.552,0,0,0,.888,1.594.888a122.616,122.616,0,0,0-30.292,6.215c1.594,1.776,3.189,2.664,3.189,7.1-6.377-4.44-11.957-6.215-15.943-6.215-4.783,0-11.16,4.44-17.537,3.552-7.174,0-6.377,10.655-11.957,12.431-5.58-7.991-6.377-8.879-12.755-7.1-6.377,2.664-11.957,6.215-16.74,7.991v2.664c3.189-1.776,7.174-1.776,10.363-2.664-3.189,2.664-7.174,5.327-7.174,7.1-1.594,7.1-6.377,4.439-11.16,4.439-1.594.888-3.189,2.664-6.377,2.664-3.986,1.776-8.769,0-14.349,0,3.189-.888,3.986-1.776,4.783-2.664,6.377-1.776,9.566-3.552,14.349-5.327.8,0,.8-1.776,1.594-3.552-.8-1.776-2.391-2.664-3.189-1.776-3.986,3.552-6.377,5.327-10.363,5.327-8.769,0-13.552,6.215-19.929,9.767a17.9,17.9,0,0,1-6.377-.888v7.1c-2.391,0-4.783.888-8.769,1.776,1.594-1.776,2.392-4.44,3.986-5.327-3.189,0-7.174,0-7.174.888-1.594,7.1-7.972,7.1-11.16,9.767-3.986,4.439-7.174,6.215-10.363,8.879,0,0-3.189-.888-3.986-2.664,0-.888-1.594-.888-1.594-.888-3.986,8.879-11.957,2.664-18.335,3.552-4.783,1.776-9.566-2.664-11.957,5.327-.8.888-5.58.888-9.566,1.776-.8,5.327-7.174,11.543-9.566,9.767l-.8-4.44c2.391-1.776,4.783-2.664,8.769-6.215-5.58,0-7.174-.888-11.16-1.776a30.977,30.977,0,0,1,10.363-6.215l-2.391-.888c-9.566,2.664-22.32,8.879-31.886,13.319,2.392,4.439,2.392,9.767,3.189,12.431,2.391-2.664,5.58-9.767,8.769-12.431s9.566-4.44,14.349-4.44c0,.888.8.888.8,3.552-1.594.888-3.986.888-6.377.888-1.594.888-2.392,3.552-5.58,4.439-1.594,3.552-2.391,7.1-3.986,7.1-5.58,4.439-11.957,5.327-17.537,7.991-1.594,1.776-4.783,2.664-7.972,3.552,1.594-.888,0-.888,0-.888,2.391-2.664,3.189-4.44,6.377-5.327-11.16,0-17.537,5.327-23.915,14.206.8-.888.8-3.552.8-3.552-3.189-1.776-5.58-1.776-9.566-1.776,5.58-6.215,7.174-8.879,9.566-8.879-5.58,0-11.957,2.664-17.537,5.327-13.552,1.776-21.523,15.982-35.075,18.646-1.594,0-5.58,2.664-6.377,3.552v2.664l16.74-2.664c-.8.888-3.189,3.552-4.783,4.44,3.986.888,4.783.888,6.377,2.664-7.174,3.552-11.957,9.767-15.943,10.655-1.594,1.776-1.594,3.552-2.391,3.552-6.377-1.776-11.16,0-15.146,7.991,0,1.776-1.594,1.776-2.391,2.664a16.24,16.24,0,0,1-5.58.888c-7.972,6.215-15.943,8.879-24.712,7.1a6.962,6.962,0,0,1-6.377,3.552c-6.377,5.327-7.972,9.767-1.594,16.87a.812.812,0,0,0-.8.888c-.8-.888-3.189-.888-4.783-.888-2.391-.888-5.58-4.439-7.972-4.439-.8,0-1.594,4.439-3.189,4.439-3.986,0-7.972,0-11.16,2.664C163.008-47.3,157.428-40.2,151.848-36.647c-7.174,4.439-15.146,6.215-21.523,11.543l-1.594-.888c4.783-5.327,7.972-7.1,12.754-11.543-2.391,0-5.58,0-7.174.888-1.594,0-3.189.888-6.377,3.552-.8.888-.8,1.776-1.594,1.776-2.391-.888-3.189-3.552-3.189-5.327-3.986,1.776-6.377,4.439-9.566,5.327,3.189,1.776,4.783,1.776,7.174,2.664v2.664c-2.391.888-4.783,1.776-6.377,1.776-3.189-5.327-7.174-.888-9.566,1.776-3.189,1.776-5.58,6.215-8.769,6.215a381.976,381.976,0,0,0-55,50.611c-12.754,12.431-22.32,29.3-28.7,45.283-3.986,7.1-7.174,17.758-5.58,24.861a135,135,0,0,0,2.391,36.4c3.189,13.319,7.174,25.749,11.16,34.628,5.58,10.655,15.943,17.758,23.915,26.637,2.391,2.664,7.174,2.664,7.972,4.44,2.391,6.215,7.972,10.655,14.349,14.207,4.783,4.439,7.972,7.991,12.754,10.655,6.377,5.327,15.146,7.1,20.726,10.655-.8.888-.8.888-.8,1.776-3.189,0-4.783.888-8.769,1.776,9.566,2.664,20.726,0,27.1,4.44,9.566,1.776,15.146,7.1,23.915,10.655a208.931,208.931,0,0,1,29.495,12.431c5.58,3.552,12.754,6.215,20.726,10.655,5.58,3.552,15.146,9.767,23.117,13.319a322.5,322.5,0,0,1,43.046,21.31c7.971,3.552,15.943,10.655,25.509,14.206,10.363,6.215,20.726,16.87,34.278,20.422l1.594.888c5.58,4.44,10.363,8.879,15.943,11.543l2.391,3.552c2.391.888,4.783,4.44,8.769,7.1-1.594,3.552-2.392,8.879-3.189,13.319.8,0,.8.888,1.594.888a55.327,55.327,0,0,0,7.972-10.655c2.391,3.552,3.986,4.44,7.174,7.1-3.986,2.664-7.972,8.879-10.363,9.767-7.174,0-13.552,1.776-16.74,6.215v1.776c-8.769.888-15.943,2.664-23.915,4.44a4.024,4.024,0,0,0-3.189,1.776c.8,0,.8,1.776.8,1.776a41.192,41.192,0,0,1,9.566.888c2.391,0,6.377,1.776,7.972,1.776,1.594-2.664,1.594-6.215,2.391-6.215,7.174-1.776,14.349-2.664,21.523-8.879h1.594c3.986-.888,9.566-3.552,15.943-4.44,1.594,0,4.783,0,5.58.888,1.594.888,1.594,3.552,2.392,6.215a7.606,7.606,0,0,0,3.189.888l-10.363,7.1c3.986,7.1,7.174,3.552,10.363,2.664,10.363-4.44,13.552-4.44,19.929,6.215a21.788,21.788,0,0,0,5.58,7.1c7.972,6.215,7.972,13.319,2.391,23.973-10.363,16.87-22.32,26.637-38.263,37.292-6.377,3.552-13.552,7.1-19.132,10.655-8.769,3.552-17.537,6.215-24.712,8.879-11.957,3.552-23.117,4.44-34.278,8.879-3.986,1.776-9.566,1.776-14.349,4.44,0,.888-1.594,2.664-1.594,4.44-1.594-6.215-6.377-6.215-11.16-7.1-10.363-1.776-23.117-1.776-35.075-3.552-4.783,0-10.363-.888-14.349-3.552-5.58-2.664-5.58-10.655-1.594-15.982,2.391-3.552,5.58-6.215,7.972-8.879,5.58-3.552,9.566-7.991,15.146-8.879,11.957-7.1,25.509-10.655,39.061-17.758,1.594-1.776,3.986-2.664,3.986-3.552.8-3.552,1.594-3.552,5.58-3.552h5.58c0-.888.8-4.44.8-7.1-.8-1.776-2.391-3.552-3.986-6.215C277,444.6,271.421,451.7,260.261,450.813c-3.986-.888-14.349-5.328-14.349,8.879-3.189-3.552-7.174-5.327-11.957-8.879,3.986-1.776,8.769-6.215,11.957-7.1,4.783-1.776,7.972-4.44,11.16-6.215,3.986-.888,8.769-2.664,15.146-4.439,5.58-4.44,13.552-6.215,21.523-9.767a55.3,55.3,0,0,0,11.957-7.1,3.218,3.218,0,0,1-.8-1.776c-4.783.888-8.769,0-12.754.888a109.625,109.625,0,0,0-19.132,11.543c-.8,0-2.392,0-3.189.888a43.35,43.35,0,0,0-15.943,5.327c-1.594.888-4.783.888-7.972,2.664s-7.972,3.552-11.957,6.215c-2.391,0-5.58,0-7.972.888.8-1.776.8-5.327,2.391-6.215v-1.776c-1.594-1.776-3.189-4.44-7.174-7.1-12.755,8.879-26.306,15.094-39.858,24.861-7.174,3.552-14.349,9.767-17.537,19.534-2.391,4.44-.8,10.655-3.189,15.982-7.174,23.086,7.174,49.723,23.117,58.6,14.349,11.543,33.48,8.879,50.221,14.206,3.986,0,8.769.888,11.16,0,26.306,0,51.018-1.776,74.932-8.879,13.552-3.552,22.32-7.991,33.48-11.543,19.132-7.991,37.466-19.534,57.4-31.965,9.566-6.215,20.726-16.87,19.929-34.628-.8-4.439.8-10.655,0-15.094-.8-10.655,0-23.086-8.769-31.965-4.783-7.1-8.769-17.758-9.566-23.973-3.986-6.215-2.391-7.1,3.986-10.655,8.769-.888,15.146-2.664,19.929-10.655-5.58-1.776-6.377-1.776-11.16,4.44-7.971,4.44-20.726,3.552-27.1-1.776v-2.664c3.986-2.664,7.174-6.215,11.957-8.879-9.566-5.327-17.537,6.215-23.915-4.44,2.391,0,3.986-.888,5.58-.888.8,0,.8-.888.8-.888-3.189-.888-6.377-.888-8.769-1.776-1.594,0-5.58,0-7.174-1.776a31.936,31.936,0,0,0-17.537-15.982,416.177,416.177,0,0,0-71.744-50.611c-5.58-2.664-11.16-5.327-14.349-8.879-1.594-.888-4.783-1.776-7.972-3.552,0,0-1.594-3.552-2.391-3.552-12.754-6.215-25.509-15.094-38.263-21.31-11.16-8.879-24.712-9.767-34.278-17.758-14.349-8.879-28.7-14.206-42.249-20.422-12.754-7.991-24.712-11.543-35.872-18.646-11.957-5.327-22.32-10.655-33.48-15.982-7.174-4.439-17.537-8.879-25.509-15.094-15.146-10.655-20.726-16.87-15.146-39.956a30.047,30.047,0,0,1,1.594-7.1l-3.189-.888c2.391-6.215,3.986-15.982,5.58-23.085,10.363.888,15.146-6.215,16.74-16.87,1.594-.888,5.58-2.664,6.377-4.439,2.391,0,3.986-2.664,3.986-5.327,4.783-7.1,7.972-12.431,15.146-14.207,1.594-.888,2.391-3.552,3.189-6.215,3.189-2.664,3.189-4.44,4.783-7.991,6.377-3.552,12.754-9.767,21.523-15.094L147.862,4.2c3.986-.888,8.769-4.44,6.377-10.655,3.189-1.776,5.58-2.664,9.566-6.215-3.189,4.44-3.986,6.215-5.58,7.1,0,2.664,0,2.664.8,3.551,5.58-8.879,16.74-3.551,19.929-14.206-2.391,0-3.986-1.776-7.972-1.776a67.44,67.44,0,0,1,7.972-4.44c11.957-7.991,21.523-14.206,33.48-19.534,15.943-9.767,31.089-20.422,47.829-26.637.8-.888,3.189-3.552,3.986-3.552,19.132-8.879,35.075-18.646,53.409-27.525,11.16-6.215,25.509-8.879,35.872-15.095,30.292-15.982,61.381-27.525,92.47-39.068,19.132-7.991,39.858-11.543,60.584-18.646,4.783-1.776,9.566-5.327,17.537-7.1,19.929-5.327,39.858-11.543,60.584-15.982,1.594-1.776,1.594-2.664,2.391-3.552,2.391-2.664,4.783-3.552,7.972-7.991-.8,2.664,0,2.664,0,4.439,0,.888-.8,1.776-.8,4.44a34.735,34.735,0,0,1,13.552,0,87.1,87.1,0,0,1,17.537-4.44c13.552.888,26.306.888,40.655-4.439,1.594-1.776,2.391-1.776,3.189-1.776,14.349,0,26.306.888,38.263.888,2.391,0,3.189.888,3.986.888,8.769.888,14.349,2.664,22.32,5.327,1.594.888,4.783.888,9.566,1.776-4.783,1.776-6.377,2.664-7.971,2.664v1.776a34.957,34.957,0,0,0,9.566.888c2.391,1.776,4.783,1.776,7.174,2.664,11.16.888,13.552,4.44,11.16,15.094-2.391,9.767-2.391,9.767,5.58,12.431-3.986,6.215-5.58,15.094-10.363,20.422,0,.888-1.594,2.664-3.986,2.664-.8,0-3.189-1.776-3.986-1.776,0-.888,1.594-4.439,3.189-5.327l4.783-7.991a19.261,19.261,0,0,0,3.986-7.1c-3.189.888-5.58.888-7.174,1.776-7.174,7.1-7.972,20.422-17.537,25.749,0,1.776-.8,1.776-.8,3.552,0,.888-.8,1.776,0,3.552.8,0,3.189,1.776,5.58,1.776a7.2,7.2,0,0,1,1.594-4.439c-.8-8.879,3.986-5.327,7.174-7.1l.8,1.776c-4.783,7.991-10.363,15.982-17.537,22.2,0-4.439-2.391-5.327-3.189-9.767-1.594,3.552-4.783,5.327-9.566,7.1,0,0,0,2.664,1.594,3.552.8,0,4.783,0,5.58.888.8,0,1.594,2.664,1.594,3.552.8.888.8,2.664,3.189,3.552-3.189.888-3.986,2.664-7.972,3.552a8.865,8.865,0,0,0-3.986-.888c3.986-1.776,7.175-5.327,8.769-6.215-6.377-.888-11.957.888-15.943,6.215-10.363,7.991-19.132,17.758-28.7,27.525-1.594.888-3.986,3.552-6.377,7.1,5.58,7.991-3.986,6.215-7.971,9.767,3.986,5.327,11.957,3.552,14.349-2.664s3.986-8.879,10.363-10.655c5.58-1.776,8.769-7.1,5.58-13.319,5.58-2.664,9.566-6.215,13.552-11.543,3.189-1.776,5.58-1.776,7.972,0a55.31,55.31,0,0,1-3.189,7.1c-1.594,1.776,0,1.776,0,1.776,3.189-1.776,5.58-2.664,7.972-4.439,3.986-4.44,7.971-11.543,11.957-16.87,7.971-10.655,17.537-22.2,25.509-31.965,0,0,1.594-.888,1.594-1.776l8.769-17.758a8,8,0,0,1,4.783-1.776c.8,0,1.594,1.776.8,1.776-.8,7.1,1.594,17.758-5.58,23.973-7.972,7.991-8.769,17.758-10.363,30.189-7.972-2.664-11.16.888-11.16,9.767,0,.888,0,4.44-.8,4.44-4.783,5.327-7.971,11.543-11.957,16.87-5.58,3.552-11.16,8.879-13.552,15.094-1.594.888-1.594,5.327-1.594,7.991,1.594.888,1.594,1.776,3.189,2.664,2.391,0,12.754-7.1,12.754-10.655-2.391-7.991,3.189-13.319,6.377-17.758.8-.888,3.189-2.664,4.783-2.664,4.783,4.44,5.58-.888,7.174-3.552,1.594-3.552,3.986-4.44,6.377-6.215,1.594-3.552,3.189-5.327,6.377-8.879A276.968,276.968,0,0,0,793.557-128.1c2.391-3.552,4.783-8.879,3.189-13.319C795.948-147.635,797.543-154.738,798.34-160.953Zm-170.591-73.7c-1.594,0-3.189,2.664-3.189,4.439-3.189,5.327-7.971-.888-12.755.888a22.851,22.851,0,0,1-1.594-7.1c11.16-1.776,20.726-4.44,28.7-4.44a17.431,17.431,0,0,1,9.566-2.664c1.594-.888,5.58,0,7.174,0C648.475-237.313,637.315-231.1,627.749-234.649Zm28.7,8.879c2.391.888,6.377-1.776,11.16-1.776-6.377-7.1-12.754,2.664-18.335-1.776a87.564,87.564,0,0,1,11.957-5.327c2.391,1.776,6.377,2.664,7.972,4.439C667.607-222.219,658.838-217.779,656.447-225.77Zm-40.655,6.215c-6.377,0-11.16,4.439-18.334,0,7.971-2.664,12.754-.888,19.132-2.664A4.745,4.745,0,0,1,615.792-219.555Zm-50.221,13.318c0-.888-1.594-1.776-2.391-2.664a42.7,42.7,0,0,0-6.377,8.879c-1.594-2.664-2.391-4.439-4.783-6.215-3.986,1.776-7.174,3.552-11.957,6.215a16.06,16.06,0,0,0-1.594-4.439l10.363-5.328c-2.392-.888-2.392-2.664-3.986-5.327,3.189,0,6.377.888,10.363,1.776a5.826,5.826,0,0,0,3.189-1.776c3.986-4.439,7.174-5.327,11.16.888,0,.888,1.594.888,2.391,3.552C570.354-209.788,569.557-208.012,565.571-206.236Zm13.552-3.552c0-2.664,0-2.664-.8-3.552a32.473,32.473,0,0,0,11.957-4.44,3.234,3.234,0,0,0,1.594,2.664C588.689-214.228,584.7-212.452,579.123-209.788Zm-66.164,14.206-.8-3.552c5.58-1.776,11.957-2.664,17.537-5.327a10.621,10.621,0,0,1,.8,4.439C524.916-200.021,518.539-198.245,512.959-195.582ZM333.6-148.523c2.391,0,3.986,2.664,6.377,7.1.8-2.664,2.391-5.327,2.391-7.1s-3.986-7.1-4.783-6.215c-7.972,5.327-17.537,8.879-24.712,13.319a78.129,78.129,0,0,0,13.552-.888C325.628-147.635,331.208-149.411,333.6-148.523ZM302.51-121c0-3.552-2.391-4.44-2.391-6.215-3.189,3.552-7.174,7.991-9.566,12.431-2.391,0-2.391-3.552-3.189-3.552.8-.888.8-1.776,3.986-2.664.8-2.664,1.594-2.664,2.391-3.552l2.391-7.1c3.986.888,7.174,4.439,11.16,6.215C304.9-124.549,304.1-123.661,302.51-121Zm-42.249,16.87s-.8-.888,0-2.664c-5.58,1.776-7.174,3.552-12.754,4.44-4.783,2.664-9.566,0-14.349-.888l-.8,3.552c5.58.888,10.363,2.664,15.146,2.664C253.087-97.024,256.275-103.239,260.261-104.127ZM151.848-47.3c7.972,4.439,15.146-6.215,22.32-7.991,9.566-5.327,19.929-16.87,31.886-18.646,4.783-1.776,9.566-7.1,14.349-9.767,0-1.776-1.594-3.552-3.189-4.44,8.769,0,15.146,2.664,20.726-4.439-5.58-3.552-12.754,7.1-17.537-4.44-3.986,2.664-9.566,5.327-12.754,8.879-1.594,5.327-3.189,7.1-9.566,5.327a4.024,4.024,0,0,0-3.189,1.776c-1.594,2.664-6.377,6.215-9.566,7.991-.8,2.664-1.594,6.215-3.986,7.1-4.783.888-11.16,4.44-17.537,5.327-.8,0-.8,0-2.391.888l3.986,1.776c-5.58,3.552-12.754,4.439-18.335,4.439-5.58,2.664-11.16,8.879-14.349,10.655,2.391,3.552,5.58,4.44,8.769,5.327C145.471-39.31,147.862-42.862,151.848-47.3ZM650.867-24.216l-7.174,7.1v2.664c3.189-1.776,5.58-.888,7.174-1.776,4.783-2.664,9.566-7.991,14.349-14.206,5.58-4.439,12.754-7.991,19.929-14.207,3.986-6.215,8.769-10.655,11.957-15.982,0-.888-.8-.888-.8-1.776-4.783,1.776-7.174,3.552-10.363,5.327-4.783,6.215-11.957,15.094-19.929,18.646-1.594,0-1.594,1.776-2.391,2.664C658.041-32.207,654.852-29.543,650.867-24.216Zm64.569-25.749c-.8,3.552-3.986,5.327-6.377,7.1,1.594,3.552,4.783,4.44,6.377,6.215-1.594,5.327-4.783,5.327-7.174,3.552-2.391,0-3.986-1.776-4.783-1.776-3.986-.888-7.174,0-9.566,0a162.356,162.356,0,0,0,1.594,18.646l-.8,3.552a88.8,88.8,0,0,0,19.929-9.767c1.594,0,1.594-2.664,3.189-6.215.8-2.664.8-4.44.8-8.879h1.594C717.03-40.2,717.03-44.638,715.436-49.965Zm-47.829,3.552s-2.391-1.776-3.188-1.776a5.53,5.53,0,0,0-3.189.888c-2.391.888-3.986,4.439-5.58,5.327l.8,1.776c1.594,0,4.783,0,7.174-1.776C664.418-41.974,667.607-44.638,667.607-46.414Zm-18.335,3.552a168.591,168.591,0,0,1-19.929,14.207c8.769,4.439,20.726-.888,26.306-6.215C652.461-36.647,650.867-39.31,649.272-42.862ZM696.3-17.113A23.242,23.242,0,0,0,697.9-25.1c1.594-.888,5.58-.888,9.566-3.552C702.682-22.44,698.7-20.664,696.3-17.113ZM100.033-2.906c5.58-11.543,15.146-14.207,21.523-19.534,1.594,0,1.594,0,1.594.888C115.976-15.337,110.4-9.122,100.033-2.906Zm502.207,0C597.457,5.085,589.486,11.3,585.5,6.861c-8.769,1.776-11.16,7.991-15.146,13.319,0,3.552-3.986,3.552-7.174,7.1,5.58,3.552,7.971,3.552,11.957-.888,2.391-4.439,3.986-6.215,8.769-9.767,1.594-1.776,5.58-2.664,6.377-3.552,7.174-3.552,13.552-8.879,21.523-15.094-.8-5.327.8-7.1,7.972-7.1,2.392.888,3.986-1.776,5.58-4.44-2.391-2.664-6.377-3.552-9.566-4.439C610.212-6.458,608.617-2.018,602.24-2.906Zm80.513-14.207c-6.377,2.664-7.972,7.991-11.957,9.767,8.769,8.879,13.552,7.991,19.929-1.776C685.941-8.234,682.753-9.122,682.753-17.113ZM628.546-.243c1.594-1.776,3.986-5.327,6.377-6.215,3.986-.888,4.783-2.664,4.783-9.767-7.174,7.1-11.957,10.655-18.335,15.982C626.155,4.2,626.155,4.2,628.546-.243Zm39.06,0c.8-.888-3.188-2.664-6.377-.888l-16.74,14.206s0,1.776,2.391,3.552c2.391-.888,4.783-3.552,7.971-4.44,0,.888.8.888,1.594,1.776-4.783,4.44-7.971,7.991-13.551,8.879-.8,0-.8-.888-1.594-.888a16.7,16.7,0,0,0,.8-6.215c-3.986-.888-5.58-.888-7.971-2.664-1.594,1.776,0,1.776,0,2.664-3.189,3.552-6.377,7.1-10.363,12.431a70.226,70.226,0,0,0-11.16,6.215c-2.391.888-3.189,2.664-6.377,5.327a32.739,32.739,0,0,0-9.566,5.327c0,.888.8,5.327,2.391,7.1,2.391,4.44,2.391,4.44-3.189,5.327-5.58,1.776-9.566,5.327-14.349,8.879-5.58,3.552-10.363,12.431-15.943,3.552-.8-1.776-1.594-1.776-3.189,0-6.377,1.776-11.16,4.44-7.972,15.094a54.3,54.3,0,0,1-6.377-6.215C542.454,85,536.076,88.548,529.7,94.763c-3.189,1.776-6.377,1.776-4.783,9.767a17.012,17.012,0,0,0-8.769-1.776l-5.58-.888c-3.189,3.552-5.58,7.991-9.566,9.767-2.392,3.552-5.58,3.552-8.769,5.327-7.174,1.776-14.349.888-15.146,11.543-5.58-4.439-12.754,0-16.74,8.879-3.189.888-8.769,1.776-8.769,2.664-.8,4.44-.8,6.215-5.58,5.328-2.392,0-8.769,0-10.363-.888-3.189-6.215-6.377-9.767-15.943-4.44,3.189-6.215,3.986-8.879,7.174-13.319,2.391-1.776,3.986-2.664,4.783-4.439,0,3.552,1.594,4.439,3.189,9.767,1.594-5.327,1.594-7.1,2.392-9.767a16.806,16.806,0,0,1,5.58,3.552c.8-.888.8-.888,2.392-.888-1.594-2.664-1.594-5.327-3.189-8.879,0,0-5.58,0-6.377.888-3.986.888-3.986,2.664-6.377,3.552-3.986,1.776-9.566,1.776-12.754,4.44a4.745,4.745,0,0,1-.8-2.664l7.174-5.327c.8-.888,2.391-.888,3.189-1.776,1.594-2.664,3.986-5.328,4.783-4.44,5.58,5.327,11.957-1.776,16.74-6.215,3.986-2.664,9.566-10.655,15.146-9.767,7.972-.888,14.349-11.543,26.306-11.543-3.986,2.664-3.986,4.439-5.58,5.327-4.783,4.439-7.972,6.215-12.754,11.543-5.58.888-11.16,3.552-15.146,3.552-4.783.888-7.972,4.44-7.972,12.431,9.566-5.327,16.74-8.879,24.712-12.431.8.888.8,3.552.8,6.215,3.986-2.664,6.377-5.327,10.363-7.1,0-1.776-1.594-4.439,0-4.439,6.377-5.327,11.16-10.655,17.537-15.094,4.783-.888,4.783-1.776,5.58-7.1-3.986,2.664-7.174,2.664-9.566,4.44-.8-1.776-.8-1.776-1.594-1.776l3.986-7.1c3.189-1.776,7.174-5.327,9.566-7.1-6.377,2.664-16.74-.888-18.335,10.655-3.986-2.664-4.783-5.327-5.58-8.879-7.972,5.327-14.349,8.879-20.726,14.207.8,0,.8.888.8.888,6.377-1.776,11.957-6.215,17.537-7.991l1.594.888c-7.174,5.327-14.349,8.879-21.523,14.206-3.189.888-5.58-1.776-10.363-1.776a3.217,3.217,0,0,1-.8,1.776c-2.391,1.776-7.972,1.776-7.972,4.439-6.377,9.767-13.552,7.991-21.523,10.655-2.392.888-4.783,0-6.377.888-9.566,5.327-18.335,11.543-27.1,15.982-16.74,7.991-33.48,17.758-50.221,24.861-14.349,7.1-28.7,14.206-44.641,18.646-9.566,5.327-23.117,7.991-35.075,13.319-5.58.888-7.972,7.991-7.972,13.319,1.594,4.44,1.594,7.1,0,11.543v5.328c1.594,5.327,1.594,11.543,3.189,17.758.8,2.664,0,7.1.8,9.767,4.783,3.552,9.566,7.991,15.146,10.655,6.377,3.552,14.349-.888,22.32-2.664,8.769-2.664,16.74-7.991,25.509-10.655,22.32-10.655,47.829-21.31,70.947-32.852,21.523-9.767,42.249-21.31,62.975-32.852.8-2.664,1.594-2.664,3.189-3.552a62.3,62.3,0,0,0,23.117-15.982c3.986-.888,5.58-.888,7.972-2.664,3.189-2.664,3.189-7.1,3.986-8.879,1.594-.888,6.377,1.776,7.972,0,6.377-1.776,11.957-6.215,16.74-9.767,3.189-1.776,7.174-2.664,10.363-5.327a.812.812,0,0,0-.8-.888,19.149,19.149,0,0,0-8.769,2.664c7.174-11.543,16.74-17.758,23.117-10.655,5.58-3.552,10.363-7.991,15.943-10.655-3.986-4.44.8-7.991,3.189-10.655,4.783-4.439,8.769-7.1,15.146-2.664-1.594-7.1,3.189-8.879,8.769-12.431,4.783-.888,8.769-1.776,14.349-1.776l-3.189-6.215a19.517,19.517,0,0,0,12.754-16.87,10.935,10.935,0,0,1,3.986,7.991c3.189-2.664,7.174-7.991,9.566-11.543.8,0,2.392,1.776,3.189,3.552a94.691,94.691,0,0,1,13.552-12.431c3.986-3.552,13.552-2.664,15.943-9.767V26.395c2.391-3.552,5.58-7.1,5.58-9.767,1.594-5.327,7.174-7.991,11.16-7.991,1.594,0,3.189,2.664,7.174,4.44a69.922,69.922,0,0,1,.8-12.431C671.593,4.2,669.2,5.973,667.607-.243ZM56.987,34.386s-1.594,0-1.594-2.664a8.9,8.9,0,0,0,3.986-5.327c.8-3.552,3.189-6.215,4.783-7.991s3.189-4.44,4.783-4.44c3.986-.888,6.377-.888,9.566-1.776C84.09,6.861,87.279,1.533,91.265-.243c3.189-1.776,4.783-1.776,7.174-.888C84.09,12.188,70.539,22.843,56.987,34.386Zm548.442-22.2c-8.769,3.552-15.146,7.991-19.929,14.206L565.571,37.937c-14.349,11.543-28.7,18.646-43.046,28.413-4.783,1.776-7.972,5.327-11.16,6.215,1.594,6.215,3.986,7.1,4.783,8.879,5.58-2.664,7.971-6.215,11.957-9.767,2.391-4.439,6.377-6.215,9.566-8.879,5.58-6.215,12.754-9.767,19.132-12.431,1.594,0,4.783-1.776,5.58-5.327.8-.888,2.391-3.552,3.189-3.552,12.754-3.552,23.117-14.206,34.278-19.534,1.594-6.215,6.377-6.215,9.566-7.991,3.189-.888,7.174-2.664,9.566-5.327,0-2.664-.8-3.552-.8-4.439-.8.888-2.391,0-6.377.888C610.212,5.973,607.82,9.524,605.429,12.188ZM556.8,28.17c-2.391,2.664-2.391,5.327-4.783,5.327-1.594,1.776-5.58,3.552-7.174,2.664-7.971-1.776-8.769-1.776-11.957,5.327-2.392,1.776-4.783,0-8.769,1.776-5.58,3.552-9.566,7.1-13.552,9.767V55.7c-1.594,1.776-1.594,3.552-1.594,7.991,7.174,4.439,8.769-6.215,16.74-6.215,5.58-.888,11.16-7.991,16.74-12.431,6.377-7.1,11.957-8.879,21.523-9.767C561.585,33.5,558.4,30.834,556.8,28.17ZM624.56,41.489a23.683,23.683,0,0,1-7.971-4.439c.8,0,.8-1.776.8-2.664a10,10,0,0,0,7.174,0,13.929,13.929,0,0,1,1.594,6.215C625.358,40.6,625.358,41.489,624.56,41.489ZM412.518,125.84c-2.391,2.664-6.377,5.327-9.566,5.327C404.546,124.952,408.532,124.064,412.518,125.84Zm3.986,34.628c-3.189,0-3.986,0-5.58-1.776-2.391,0-.8-1.776-.8-1.776a23.684,23.684,0,0,0,7.971-4.44C418.1,156.029,418.1,156.917,416.5,160.468ZM543.251,288.326c-.8,1.776-1.594,1.776-5.58,2.664.8-.888,0-2.664,0-4.44-.8-1.776-3.189-2.664-5.58-6.215,0-7.1,9.566-1.776,11.957-6.215a27.7,27.7,0,0,0-.8-7.1c3.189.888,4.783,3.552,6.377,5.327,0-8.879.8-13.319,0-19.534-.8-20.422-4.783-39.068-24.712-46.171l-13.552-7.1a9.644,9.644,0,0,1-.8,2.664c0,3.552,1.594,6.215,3.986,7.1,11.16,4.439,14.349,15.982,13.552,27.525,0,6.215,1.594,12.431-1.594,19.534-3.986,4.44-4.783,10.655-8.769,17.758,4.783,1.776,6.377,1.776,7.971,2.664-7.174,14.206-12.754,18.646-19.929,16.87-1.594,3.552-3.189,10.655-7.972,14.207a111.85,111.85,0,0,1-21.523,23.085c-12.754,7.991-25.509,15.094-39.06,22.2-1.594,1.776-2.392,3.552-5.58,5.327.8,1.776.8,1.776,3.189,3.552a3.08,3.08,0,0,1,3.189-1.776c7.972-7.1,15.146-12.431,22.32-15.982,3.189-1.776,3.986-4.44,5.58-5.327,11.16-7.1,23.117-14.206,32.683-21.31a8.456,8.456,0,0,0,3.986-2.664,93.16,93.16,0,0,0,7.972-7.991c3.986-5.327,7.174-7.991,9.566-12.431,5.58-6.215,10.363-7.991,12.755-1.776,3.189,1.776,1.594,5.327,3.189,7.991,9.566-4.44,18.335-16.87,12.755-23.973C546.439,280.335,545.642,284.775,543.251,288.326ZM221.2,260.8l1.594,1.776c-3.986,4.44-2.391,5.327,3.189,5.327,1.594,2.664,4.783,2.664,6.377,4.44,0,.888,0,.888-.8,1.776l-12.754-3.552c0-2.664-.8-3.552-.8-4.44C218.012,264.353,220.4,262.577,221.2,260.8Zm307.7,9.767a7.5,7.5,0,0,1-2.391-.888c1.594-3.552,3.986-4.44,3.986-7.1.8,0,1.594.888,1.594,2.664Zm-14.349,2.664c-1.594,3.552-3.189,7.991-3.189,12.431,3.189,0,4.783-.888,5.58-.888-.8-5.327-1.594-7.991-.8-11.543ZM285.77,301.645a53.444,53.444,0,0,1,14.349,7.991c-4.783,1.776-7.174,2.664-9.566,4.44-3.189-4.44-4.783-9.767-7.174-11.543C284.176,301.645,284.176,301.645,285.77,301.645ZM530.5,314.076q0,1.332-4.783,0c-.8,0-2.391,0-3.189.888,0,0,0,3.552.8,3.552,0,.888,1.594,1.776,3.189.888a57.861,57.861,0,0,0,11.957-9.767c-1.594,0-1.594-.888-2.391-.888C534.482,309.636,532.888,312.3,530.5,314.076ZM332.8,330.946c.8,2.664,3.189,5.327,3.986,7.991,0,.888-.8.888-3.189,1.776a16.615,16.615,0,0,0-6.377-7.1A13.12,13.12,0,0,1,332.8,330.946Zm169,6.215c-.8,9.767-7.174,6.215-11.16,5.327-5.58,12.431-15.943,15.982-24.712,21.31l-11.16,5.327c-3.189,1.776-3.986,6.215-7.174,10.655v1.776c7.972-5.327,14.349-7.991,20.726-13.319,3.986-2.664,10.363-7.1,15.146-13.319,2.392-1.776,7.174-2.664,9.566-6.215,3.986-.888,7.972-1.776,9.566-4.44C505.785,342.489,506.582,338.049,501.8,337.161Zm-98.05,24.861c7.174-.888,11.957-5.327,18.335-5.327C418.895,349.592,411.72,352.256,403.749,362.023Zm19.132,0c-3.986.888-6.377,3.552-10.363,5.327,5.58,0,7.972.888,14.349.888C425.272,364.686,423.678,363.8,422.881,362.023Zm-113.2,33.74c0,1.776-.8,2.664-.8,3.552,2.391.888,4.783,3.552,7.972,3.552,0-1.776,0-3.552.8-4.44C313.671,396.651,312.076,395.763,309.685,395.763ZM285.77,405.53c-1.594,1.776-5.58,2.664-7.174,3.552a5.5,5.5,0,0,1,1.594,4.44c3.986-2.664,5.58-4.44,7.174-4.44Zm-28.7,14.207c5.58,6.215,7.174,1.776,11.16-4.44h5.58c-.8-1.776-2.391-5.327-3.986-7.1-5.58,6.215-11.16,11.543-17.537,7.1C253.884,418.848,257.073,418.848,257.073,419.736Zm33.48,20.422,3.189,1.776c5.58-.888,10.363-1.776,12.754-4.44,5.58-1.776,12.754-7.1,17.537-2.664,3.189-4.44,7.174-7.1,9.566-8.879,9.566-.888,19.132-3.552,30.292-6.215,0-.888-.8-1.776-.8-5.327-5.58,0-10.363,0-13.552,1.776-5.58,0-8.769,3.552-12.754,3.552-4.783,2.664-9.566,5.327-13.552,7.991a39.122,39.122,0,0,1-12.754,5.327l-16.74,2.664C292.944,435.719,292.147,439.27,290.553,440.158Zm-50.221-7.991c.8-6.215,2.392-9.767,3.189-12.431-5.58,1.776-12.754.888-13.552,10.655C233.158,433.055,237.144,435.719,240.332,432.167Zm-23.915,8.879c1.594,0,2.391,0,4.783-1.776,0,3.552,0,8.879-.8,12.431C215.621,449.037,214.026,444.6,216.418,441.046ZM230.766,451.7s0,2.664.8,3.552a38.643,38.643,0,0,0-7.972,3.552,3.322,3.322,0,0,1-2.391-3.552C224.389,454.365,227.578,452.589,230.766,451.7Zm104.427,72.808c1.594.888,3.986,4.44,4.783,4.44-3.189.888-7.971.888-13.552,1.776-1.594,0-2.391-.888-5.58-1.776-6.377-3.552-10.363,1.776-11.16,8.879-5.58.888-10.363,2.664-13.552,2.664s-6.377,0-8.769-1.776c3.189-1.776,5.58-1.776,6.377-4.439V532.5c-6.377,1.776-14.349,1.776-20.726,5.327,0,0,0,.888-.8.888,1.594.888,3.986.888,5.58,1.776v2.664c-9.566,0-20.726.888-31.089,1.776,3.189-7.1,7.174-7.991,11.16-5.327,3.189.888,6.377.888,9.566-1.776,3.986-4.44,8.769-5.327,11.16-6.215a22.14,22.14,0,0,0-.8-6.215c9.566,6.215,15.943,2.664,23.117.888,3.189,0,3.986-2.664,4.783-2.664,7.972,1.776,14.349-.888,21.523-5.327,12.754-3.552,25.509-7.991,38.263-11.543C357.514,513.854,347.151,516.518,335.194,524.509Zm-92.47,7.991c-2.392-.888-6.377.888-10.363.888-6.377-2.664-13.552-4.44-18.335-.888-2.391-1.776-3.986-2.664-5.58-6.215-.8,0-.8-1.776-.8-1.776.8-.888,2.391-2.664,3.189-2.664,5.58,0,14.349,0,20.726,2.664a72.961,72.961,0,0,1,23.117,3.552C250.7,531.612,249.1,537.828,242.724,532.5Z" transform="translate(-6.347 249.922)" fill="#383838"/><path d="M9.3,17.769h.517c.172-.517.517-.517,1.035-.345,0,.172.172.172.345,0,.862-.172,1.207-1.035,1.552-1.724s.517-1.552.862-2.414c0-.172.172-.345.172-.517a2.451,2.451,0,0,0,.345-1.035c.172-.517,0-.862.172-1.207l.69-1.207A8.054,8.054,0,0,1,15.848,7.6c.517-1.207,1.552-2.241,1.9-3.621s1.207-2.586.69-4.138a5.78,5.78,0,0,1,0-1.724v-.345a10.166,10.166,0,0,0-.69-1.379l-.517-.517a6.7,6.7,0,0,0-2.586-.345,4.663,4.663,0,0,0-2.586.517A19.309,19.309,0,0,1,8.262-2.4a1.818,1.818,0,0,1-2.069-.517,4.242,4.242,0,0,0-1.9-.69,1.639,1.639,0,0,0-1.724.69,1.552,1.552,0,0,0,0,1.9c.862,1.207.517,2.586.345,3.966,0,.517-.517.862-.517,1.207.172.69-.172,1.035-.517,1.552,0,.172-.172.172-.172.345,0,.69-.172,1.379-.172,2.069-.172.69-.517,1.379-.69,2.069,0,.345.172.862.172,1.379v.345c.345,1.207,1.552,1.724,2.586,2.414A9.776,9.776,0,0,1,5.848,15.7l1.207.69c.172.172.69.172.862.345Z" transform="translate(481.574 712.459)" fill="#383838"/></g><g transform="translate(1185 -247)" opacity="0.16"><path d="M798.34-160.953c0-2.664,0-7.991-1.594-8.879-4.783-7.991-7.175-17.758-14.349-22.2-.8-1.776-.8-2.664-3.189-3.552-.8-5.327,0-11.543-2.392-13.319-7.174-8.879-12.754-16.87-22.32-22.2-18.335-13.319-40.655-16.87-62.975-18.646-19.929-.888-39.858,1.776-59.787,2.664-15.943,1.776-35.075,3.552-51.018,9.767C552.817-231.986,528.1-223.995,501-216l-78.121,24.861c-2.391.888-3.986.888-5.58,3.552v2.664c6.377-1.776,13.552-5.327,17.537,5.327,0-13.319,10.363-15.982,18.335-18.646,12.754-3.552,25.509-8.879,39.858-11.543,2.391-.888,5.58-2.664,6.377-.888,2.391,3.552,4.783,1.776,6.377,0,.8-1.776,3.986-4.44,4.783-4.44,11.957-2.664,25.509-7.1,37.466-9.767,6.377-2.664,11.16-3.552,18.335-4.44,11.957-1.776,24.712-2.664,39.858-6.215,1.594.888,1.594.888,1.594,3.552,0,0,0,.888,1.594.888a122.616,122.616,0,0,0-30.292,6.215c1.594,1.776,3.189,2.664,3.189,7.1-6.377-4.44-11.957-6.215-15.943-6.215-4.783,0-11.16,4.44-17.537,3.552-7.174,0-6.377,10.655-11.957,12.431-5.58-7.991-6.377-8.879-12.755-7.1-6.377,2.664-11.957,6.215-16.74,7.991v2.664c3.189-1.776,7.174-1.776,10.363-2.664-3.189,2.664-7.174,5.327-7.174,7.1-1.594,7.1-6.377,4.439-11.16,4.439-1.594.888-3.189,2.664-6.377,2.664-3.986,1.776-8.769,0-14.349,0,3.189-.888,3.986-1.776,4.783-2.664,6.377-1.776,9.566-3.552,14.349-5.327.8,0,.8-1.776,1.594-3.552-.8-1.776-2.391-2.664-3.189-1.776-3.986,3.552-6.377,5.327-10.363,5.327-8.769,0-13.552,6.215-19.929,9.767a17.9,17.9,0,0,1-6.377-.888v7.1c-2.391,0-4.783.888-8.769,1.776,1.594-1.776,2.392-4.44,3.986-5.327-3.189,0-7.174,0-7.174.888-1.594,7.1-7.972,7.1-11.16,9.767-3.986,4.439-7.174,6.215-10.363,8.879,0,0-3.189-.888-3.986-2.664,0-.888-1.594-.888-1.594-.888-3.986,8.879-11.957,2.664-18.335,3.552-4.783,1.776-9.566-2.664-11.957,5.327-.8.888-5.58.888-9.566,1.776-.8,5.327-7.174,11.543-9.566,9.767l-.8-4.44c2.391-1.776,4.783-2.664,8.769-6.215-5.58,0-7.174-.888-11.16-1.776a30.977,30.977,0,0,1,10.363-6.215l-2.391-.888c-9.566,2.664-22.32,8.879-31.886,13.319,2.392,4.439,2.392,9.767,3.189,12.431,2.391-2.664,5.58-9.767,8.769-12.431s9.566-4.44,14.349-4.44c0,.888.8.888.8,3.552-1.594.888-3.986.888-6.377.888-1.594.888-2.392,3.552-5.58,4.439-1.594,3.552-2.391,7.1-3.986,7.1-5.58,4.439-11.957,5.327-17.537,7.991-1.594,1.776-4.783,2.664-7.972,3.552,1.594-.888,0-.888,0-.888,2.391-2.664,3.189-4.44,6.377-5.327-11.16,0-17.537,5.327-23.915,14.206.8-.888.8-3.552.8-3.552-3.189-1.776-5.58-1.776-9.566-1.776,5.58-6.215,7.174-8.879,9.566-8.879-5.58,0-11.957,2.664-17.537,5.327-13.552,1.776-21.523,15.982-35.075,18.646-1.594,0-5.58,2.664-6.377,3.552v2.664l16.74-2.664c-.8.888-3.189,3.552-4.783,4.44,3.986.888,4.783.888,6.377,2.664-7.174,3.552-11.957,9.767-15.943,10.655-1.594,1.776-1.594,3.552-2.391,3.552-6.377-1.776-11.16,0-15.146,7.991,0,1.776-1.594,1.776-2.391,2.664a16.24,16.24,0,0,1-5.58.888c-7.972,6.215-15.943,8.879-24.712,7.1a6.962,6.962,0,0,1-6.377,3.552c-6.377,5.327-7.972,9.767-1.594,16.87a.812.812,0,0,0-.8.888c-.8-.888-3.189-.888-4.783-.888-2.391-.888-5.58-4.439-7.972-4.439-.8,0-1.594,4.439-3.189,4.439-3.986,0-7.972,0-11.16,2.664C163.008-47.3,157.428-40.2,151.848-36.647c-7.174,4.439-15.146,6.215-21.523,11.543l-1.594-.888c4.783-5.327,7.972-7.1,12.754-11.543-2.391,0-5.58,0-7.174.888-1.594,0-3.189.888-6.377,3.552-.8.888-.8,1.776-1.594,1.776-2.391-.888-3.189-3.552-3.189-5.327-3.986,1.776-6.377,4.439-9.566,5.327,3.189,1.776,4.783,1.776,7.174,2.664v2.664c-2.391.888-4.783,1.776-6.377,1.776-3.189-5.327-7.174-.888-9.566,1.776-3.189,1.776-5.58,6.215-8.769,6.215a381.976,381.976,0,0,0-55,50.611c-12.754,12.431-22.32,29.3-28.7,45.283-3.986,7.1-7.174,17.758-5.58,24.861a135,135,0,0,0,2.391,36.4c3.189,13.319,7.174,25.749,11.16,34.628,5.58,10.655,15.943,17.758,23.915,26.637,2.391,2.664,7.174,2.664,7.972,4.44,2.391,6.215,7.972,10.655,14.349,14.207,4.783,4.439,7.972,7.991,12.754,10.655,6.377,5.327,15.146,7.1,20.726,10.655-.8.888-.8.888-.8,1.776-3.189,0-4.783.888-8.769,1.776,9.566,2.664,20.726,0,27.1,4.44,9.566,1.776,15.146,7.1,23.915,10.655a208.931,208.931,0,0,1,29.495,12.431c5.58,3.552,12.754,6.215,20.726,10.655,5.58,3.552,15.146,9.767,23.117,13.319a322.5,322.5,0,0,1,43.046,21.31c7.971,3.552,15.943,10.655,25.509,14.206,10.363,6.215,20.726,16.87,34.278,20.422l1.594.888c5.58,4.44,10.363,8.879,15.943,11.543l2.391,3.552c2.391.888,4.783,4.44,8.769,7.1-1.594,3.552-2.392,8.879-3.189,13.319.8,0,.8.888,1.594.888a55.327,55.327,0,0,0,7.972-10.655c2.391,3.552,3.986,4.44,7.174,7.1-3.986,2.664-7.972,8.879-10.363,9.767-7.174,0-13.552,1.776-16.74,6.215v1.776c-8.769.888-15.943,2.664-23.915,4.44a4.024,4.024,0,0,0-3.189,1.776c.8,0,.8,1.776.8,1.776a41.192,41.192,0,0,1,9.566.888c2.391,0,6.377,1.776,7.972,1.776,1.594-2.664,1.594-6.215,2.391-6.215,7.174-1.776,14.349-2.664,21.523-8.879h1.594c3.986-.888,9.566-3.552,15.943-4.44,1.594,0,4.783,0,5.58.888,1.594.888,1.594,3.552,2.392,6.215a7.606,7.606,0,0,0,3.189.888l-10.363,7.1c3.986,7.1,7.174,3.552,10.363,2.664,10.363-4.44,13.552-4.44,19.929,6.215a21.788,21.788,0,0,0,5.58,7.1c7.972,6.215,7.972,13.319,2.391,23.973-10.363,16.87-22.32,26.637-38.263,37.292-6.377,3.552-13.552,7.1-19.132,10.655-8.769,3.552-17.537,6.215-24.712,8.879-11.957,3.552-23.117,4.44-34.278,8.879-3.986,1.776-9.566,1.776-14.349,4.44,0,.888-1.594,2.664-1.594,4.44-1.594-6.215-6.377-6.215-11.16-7.1-10.363-1.776-23.117-1.776-35.075-3.552-4.783,0-10.363-.888-14.349-3.552-5.58-2.664-5.58-10.655-1.594-15.982,2.391-3.552,5.58-6.215,7.972-8.879,5.58-3.552,9.566-7.991,15.146-8.879,11.957-7.1,25.509-10.655,39.061-17.758,1.594-1.776,3.986-2.664,3.986-3.552.8-3.552,1.594-3.552,5.58-3.552h5.58c0-.888.8-4.44.8-7.1-.8-1.776-2.391-3.552-3.986-6.215C277,444.6,271.421,451.7,260.261,450.813c-3.986-.888-14.349-5.328-14.349,8.879-3.189-3.552-7.174-5.327-11.957-8.879,3.986-1.776,8.769-6.215,11.957-7.1,4.783-1.776,7.972-4.44,11.16-6.215,3.986-.888,8.769-2.664,15.146-4.439,5.58-4.44,13.552-6.215,21.523-9.767a55.3,55.3,0,0,0,11.957-7.1,3.218,3.218,0,0,1-.8-1.776c-4.783.888-8.769,0-12.754.888a109.625,109.625,0,0,0-19.132,11.543c-.8,0-2.392,0-3.189.888a43.35,43.35,0,0,0-15.943,5.327c-1.594.888-4.783.888-7.972,2.664s-7.972,3.552-11.957,6.215c-2.391,0-5.58,0-7.972.888.8-1.776.8-5.327,2.391-6.215v-1.776c-1.594-1.776-3.189-4.44-7.174-7.1-12.755,8.879-26.306,15.094-39.858,24.861-7.174,3.552-14.349,9.767-17.537,19.534-2.391,4.44-.8,10.655-3.189,15.982-7.174,23.086,7.174,49.723,23.117,58.6,14.349,11.543,33.48,8.879,50.221,14.206,3.986,0,8.769.888,11.16,0,26.306,0,51.018-1.776,74.932-8.879,13.552-3.552,22.32-7.991,33.48-11.543,19.132-7.991,37.466-19.534,57.4-31.965,9.566-6.215,20.726-16.87,19.929-34.628-.8-4.439.8-10.655,0-15.094-.8-10.655,0-23.086-8.769-31.965-4.783-7.1-8.769-17.758-9.566-23.973-3.986-6.215-2.391-7.1,3.986-10.655,8.769-.888,15.146-2.664,19.929-10.655-5.58-1.776-6.377-1.776-11.16,4.44-7.971,4.44-20.726,3.552-27.1-1.776v-2.664c3.986-2.664,7.174-6.215,11.957-8.879-9.566-5.327-17.537,6.215-23.915-4.44,2.391,0,3.986-.888,5.58-.888.8,0,.8-.888.8-.888-3.189-.888-6.377-.888-8.769-1.776-1.594,0-5.58,0-7.174-1.776a31.936,31.936,0,0,0-17.537-15.982,416.177,416.177,0,0,0-71.744-50.611c-5.58-2.664-11.16-5.327-14.349-8.879-1.594-.888-4.783-1.776-7.972-3.552,0,0-1.594-3.552-2.391-3.552-12.754-6.215-25.509-15.094-38.263-21.31-11.16-8.879-24.712-9.767-34.278-17.758-14.349-8.879-28.7-14.206-42.249-20.422-12.754-7.991-24.712-11.543-35.872-18.646-11.957-5.327-22.32-10.655-33.48-15.982-7.174-4.439-17.537-8.879-25.509-15.094-15.146-10.655-20.726-16.87-15.146-39.956a30.047,30.047,0,0,1,1.594-7.1l-3.189-.888c2.391-6.215,3.986-15.982,5.58-23.085,10.363.888,15.146-6.215,16.74-16.87,1.594-.888,5.58-2.664,6.377-4.439,2.391,0,3.986-2.664,3.986-5.327,4.783-7.1,7.972-12.431,15.146-14.207,1.594-.888,2.391-3.552,3.189-6.215,3.189-2.664,3.189-4.44,4.783-7.991,6.377-3.552,12.754-9.767,21.523-15.094L147.862,4.2c3.986-.888,8.769-4.44,6.377-10.655,3.189-1.776,5.58-2.664,9.566-6.215-3.189,4.44-3.986,6.215-5.58,7.1,0,2.664,0,2.664.8,3.551,5.58-8.879,16.74-3.551,19.929-14.206-2.391,0-3.986-1.776-7.972-1.776a67.44,67.44,0,0,1,7.972-4.44c11.957-7.991,21.523-14.206,33.48-19.534,15.943-9.767,31.089-20.422,47.829-26.637.8-.888,3.189-3.552,3.986-3.552,19.132-8.879,35.075-18.646,53.409-27.525,11.16-6.215,25.509-8.879,35.872-15.095,30.292-15.982,61.381-27.525,92.47-39.068,19.132-7.991,39.858-11.543,60.584-18.646,4.783-1.776,9.566-5.327,17.537-7.1,19.929-5.327,39.858-11.543,60.584-15.982,1.594-1.776,1.594-2.664,2.391-3.552,2.391-2.664,4.783-3.552,7.972-7.991-.8,2.664,0,2.664,0,4.439,0,.888-.8,1.776-.8,4.44a34.735,34.735,0,0,1,13.552,0,87.1,87.1,0,0,1,17.537-4.44c13.552.888,26.306.888,40.655-4.439,1.594-1.776,2.391-1.776,3.189-1.776,14.349,0,26.306.888,38.263.888,2.391,0,3.189.888,3.986.888,8.769.888,14.349,2.664,22.32,5.327,1.594.888,4.783.888,9.566,1.776-4.783,1.776-6.377,2.664-7.971,2.664v1.776a34.957,34.957,0,0,0,9.566.888c2.391,1.776,4.783,1.776,7.174,2.664,11.16.888,13.552,4.44,11.16,15.094-2.391,9.767-2.391,9.767,5.58,12.431-3.986,6.215-5.58,15.094-10.363,20.422,0,.888-1.594,2.664-3.986,2.664-.8,0-3.189-1.776-3.986-1.776,0-.888,1.594-4.439,3.189-5.327l4.783-7.991a19.261,19.261,0,0,0,3.986-7.1c-3.189.888-5.58.888-7.174,1.776-7.174,7.1-7.972,20.422-17.537,25.749,0,1.776-.8,1.776-.8,3.552,0,.888-.8,1.776,0,3.552.8,0,3.189,1.776,5.58,1.776a7.2,7.2,0,0,1,1.594-4.439c-.8-8.879,3.986-5.327,7.174-7.1l.8,1.776c-4.783,7.991-10.363,15.982-17.537,22.2,0-4.439-2.391-5.327-3.189-9.767-1.594,3.552-4.783,5.327-9.566,7.1,0,0,0,2.664,1.594,3.552.8,0,4.783,0,5.58.888.8,0,1.594,2.664,1.594,3.552.8.888.8,2.664,3.189,3.552-3.189.888-3.986,2.664-7.972,3.552a8.865,8.865,0,0,0-3.986-.888c3.986-1.776,7.175-5.327,8.769-6.215-6.377-.888-11.957.888-15.943,6.215-10.363,7.991-19.132,17.758-28.7,27.525-1.594.888-3.986,3.552-6.377,7.1,5.58,7.991-3.986,6.215-7.971,9.767,3.986,5.327,11.957,3.552,14.349-2.664s3.986-8.879,10.363-10.655c5.58-1.776,8.769-7.1,5.58-13.319,5.58-2.664,9.566-6.215,13.552-11.543,3.189-1.776,5.58-1.776,7.972,0a55.31,55.31,0,0,1-3.189,7.1c-1.594,1.776,0,1.776,0,1.776,3.189-1.776,5.58-2.664,7.972-4.439,3.986-4.44,7.971-11.543,11.957-16.87,7.971-10.655,17.537-22.2,25.509-31.965,0,0,1.594-.888,1.594-1.776l8.769-17.758a8,8,0,0,1,4.783-1.776c.8,0,1.594,1.776.8,1.776-.8,7.1,1.594,17.758-5.58,23.973-7.972,7.991-8.769,17.758-10.363,30.189-7.972-2.664-11.16.888-11.16,9.767,0,.888,0,4.44-.8,4.44-4.783,5.327-7.971,11.543-11.957,16.87-5.58,3.552-11.16,8.879-13.552,15.094-1.594.888-1.594,5.327-1.594,7.991,1.594.888,1.594,1.776,3.189,2.664,2.391,0,12.754-7.1,12.754-10.655-2.391-7.991,3.189-13.319,6.377-17.758.8-.888,3.189-2.664,4.783-2.664,4.783,4.44,5.58-.888,7.174-3.552,1.594-3.552,3.986-4.44,6.377-6.215,1.594-3.552,3.189-5.327,6.377-8.879A276.968,276.968,0,0,0,793.557-128.1c2.391-3.552,4.783-8.879,3.189-13.319C795.948-147.635,797.543-154.738,798.34-160.953Zm-170.591-73.7c-1.594,0-3.189,2.664-3.189,4.439-3.189,5.327-7.971-.888-12.755.888a22.851,22.851,0,0,1-1.594-7.1c11.16-1.776,20.726-4.44,28.7-4.44a17.431,17.431,0,0,1,9.566-2.664c1.594-.888,5.58,0,7.174,0C648.475-237.313,637.315-231.1,627.749-234.649Zm28.7,8.879c2.391.888,6.377-1.776,11.16-1.776-6.377-7.1-12.754,2.664-18.335-1.776a87.564,87.564,0,0,1,11.957-5.327c2.391,1.776,6.377,2.664,7.972,4.439C667.607-222.219,658.838-217.779,656.447-225.77Zm-40.655,6.215c-6.377,0-11.16,4.439-18.334,0,7.971-2.664,12.754-.888,19.132-2.664A4.745,4.745,0,0,1,615.792-219.555Zm-50.221,13.318c0-.888-1.594-1.776-2.391-2.664a42.7,42.7,0,0,0-6.377,8.879c-1.594-2.664-2.391-4.439-4.783-6.215-3.986,1.776-7.174,3.552-11.957,6.215a16.06,16.06,0,0,0-1.594-4.439l10.363-5.328c-2.392-.888-2.392-2.664-3.986-5.327,3.189,0,6.377.888,10.363,1.776a5.826,5.826,0,0,0,3.189-1.776c3.986-4.439,7.174-5.327,11.16.888,0,.888,1.594.888,2.391,3.552C570.354-209.788,569.557-208.012,565.571-206.236Zm13.552-3.552c0-2.664,0-2.664-.8-3.552a32.473,32.473,0,0,0,11.957-4.44,3.234,3.234,0,0,0,1.594,2.664C588.689-214.228,584.7-212.452,579.123-209.788Zm-66.164,14.206-.8-3.552c5.58-1.776,11.957-2.664,17.537-5.327a10.621,10.621,0,0,1,.8,4.439C524.916-200.021,518.539-198.245,512.959-195.582ZM333.6-148.523c2.391,0,3.986,2.664,6.377,7.1.8-2.664,2.391-5.327,2.391-7.1s-3.986-7.1-4.783-6.215c-7.972,5.327-17.537,8.879-24.712,13.319a78.129,78.129,0,0,0,13.552-.888C325.628-147.635,331.208-149.411,333.6-148.523ZM302.51-121c0-3.552-2.391-4.44-2.391-6.215-3.189,3.552-7.174,7.991-9.566,12.431-2.391,0-2.391-3.552-3.189-3.552.8-.888.8-1.776,3.986-2.664.8-2.664,1.594-2.664,2.391-3.552l2.391-7.1c3.986.888,7.174,4.439,11.16,6.215C304.9-124.549,304.1-123.661,302.51-121Zm-42.249,16.87s-.8-.888,0-2.664c-5.58,1.776-7.174,3.552-12.754,4.44-4.783,2.664-9.566,0-14.349-.888l-.8,3.552c5.58.888,10.363,2.664,15.146,2.664C253.087-97.024,256.275-103.239,260.261-104.127ZM151.848-47.3c7.972,4.439,15.146-6.215,22.32-7.991,9.566-5.327,19.929-16.87,31.886-18.646,4.783-1.776,9.566-7.1,14.349-9.767,0-1.776-1.594-3.552-3.189-4.44,8.769,0,15.146,2.664,20.726-4.439-5.58-3.552-12.754,7.1-17.537-4.44-3.986,2.664-9.566,5.327-12.754,8.879-1.594,5.327-3.189,7.1-9.566,5.327a4.024,4.024,0,0,0-3.189,1.776c-1.594,2.664-6.377,6.215-9.566,7.991-.8,2.664-1.594,6.215-3.986,7.1-4.783.888-11.16,4.44-17.537,5.327-.8,0-.8,0-2.391.888l3.986,1.776c-5.58,3.552-12.754,4.439-18.335,4.439-5.58,2.664-11.16,8.879-14.349,10.655,2.391,3.552,5.58,4.44,8.769,5.327C145.471-39.31,147.862-42.862,151.848-47.3ZM650.867-24.216l-7.174,7.1v2.664c3.189-1.776,5.58-.888,7.174-1.776,4.783-2.664,9.566-7.991,14.349-14.206,5.58-4.439,12.754-7.991,19.929-14.207,3.986-6.215,8.769-10.655,11.957-15.982,0-.888-.8-.888-.8-1.776-4.783,1.776-7.174,3.552-10.363,5.327-4.783,6.215-11.957,15.094-19.929,18.646-1.594,0-1.594,1.776-2.391,2.664C658.041-32.207,654.852-29.543,650.867-24.216Zm64.569-25.749c-.8,3.552-3.986,5.327-6.377,7.1,1.594,3.552,4.783,4.44,6.377,6.215-1.594,5.327-4.783,5.327-7.174,3.552-2.391,0-3.986-1.776-4.783-1.776-3.986-.888-7.174,0-9.566,0a162.356,162.356,0,0,0,1.594,18.646l-.8,3.552a88.8,88.8,0,0,0,19.929-9.767c1.594,0,1.594-2.664,3.189-6.215.8-2.664.8-4.44.8-8.879h1.594C717.03-40.2,717.03-44.638,715.436-49.965Zm-47.829,3.552s-2.391-1.776-3.188-1.776a5.53,5.53,0,0,0-3.189.888c-2.391.888-3.986,4.439-5.58,5.327l.8,1.776c1.594,0,4.783,0,7.174-1.776C664.418-41.974,667.607-44.638,667.607-46.414Zm-18.335,3.552a168.591,168.591,0,0,1-19.929,14.207c8.769,4.439,20.726-.888,26.306-6.215C652.461-36.647,650.867-39.31,649.272-42.862ZM696.3-17.113A23.242,23.242,0,0,0,697.9-25.1c1.594-.888,5.58-.888,9.566-3.552C702.682-22.44,698.7-20.664,696.3-17.113ZM100.033-2.906c5.58-11.543,15.146-14.207,21.523-19.534,1.594,0,1.594,0,1.594.888C115.976-15.337,110.4-9.122,100.033-2.906Zm502.207,0C597.457,5.085,589.486,11.3,585.5,6.861c-8.769,1.776-11.16,7.991-15.146,13.319,0,3.552-3.986,3.552-7.174,7.1,5.58,3.552,7.971,3.552,11.957-.888,2.391-4.439,3.986-6.215,8.769-9.767,1.594-1.776,5.58-2.664,6.377-3.552,7.174-3.552,13.552-8.879,21.523-15.094-.8-5.327.8-7.1,7.972-7.1,2.392.888,3.986-1.776,5.58-4.44-2.391-2.664-6.377-3.552-9.566-4.439C610.212-6.458,608.617-2.018,602.24-2.906Zm80.513-14.207c-6.377,2.664-7.972,7.991-11.957,9.767,8.769,8.879,13.552,7.991,19.929-1.776C685.941-8.234,682.753-9.122,682.753-17.113ZM628.546-.243c1.594-1.776,3.986-5.327,6.377-6.215,3.986-.888,4.783-2.664,4.783-9.767-7.174,7.1-11.957,10.655-18.335,15.982C626.155,4.2,626.155,4.2,628.546-.243Zm39.06,0c.8-.888-3.188-2.664-6.377-.888l-16.74,14.206s0,1.776,2.391,3.552c2.391-.888,4.783-3.552,7.971-4.44,0,.888.8.888,1.594,1.776-4.783,4.44-7.971,7.991-13.551,8.879-.8,0-.8-.888-1.594-.888a16.7,16.7,0,0,0,.8-6.215c-3.986-.888-5.58-.888-7.971-2.664-1.594,1.776,0,1.776,0,2.664-3.189,3.552-6.377,7.1-10.363,12.431a70.226,70.226,0,0,0-11.16,6.215c-2.391.888-3.189,2.664-6.377,5.327a32.739,32.739,0,0,0-9.566,5.327c0,.888.8,5.327,2.391,7.1,2.391,4.44,2.391,4.44-3.189,5.327-5.58,1.776-9.566,5.327-14.349,8.879-5.58,3.552-10.363,12.431-15.943,3.552-.8-1.776-1.594-1.776-3.189,0-6.377,1.776-11.16,4.44-7.972,15.094a54.3,54.3,0,0,1-6.377-6.215C542.454,85,536.076,88.548,529.7,94.763c-3.189,1.776-6.377,1.776-4.783,9.767a17.012,17.012,0,0,0-8.769-1.776l-5.58-.888c-3.189,3.552-5.58,7.991-9.566,9.767-2.392,3.552-5.58,3.552-8.769,5.327-7.174,1.776-14.349.888-15.146,11.543-5.58-4.439-12.754,0-16.74,8.879-3.189.888-8.769,1.776-8.769,2.664-.8,4.44-.8,6.215-5.58,5.328-2.392,0-8.769,0-10.363-.888-3.189-6.215-6.377-9.767-15.943-4.44,3.189-6.215,3.986-8.879,7.174-13.319,2.391-1.776,3.986-2.664,4.783-4.439,0,3.552,1.594,4.439,3.189,9.767,1.594-5.327,1.594-7.1,2.392-9.767a16.806,16.806,0,0,1,5.58,3.552c.8-.888.8-.888,2.392-.888-1.594-2.664-1.594-5.327-3.189-8.879,0,0-5.58,0-6.377.888-3.986.888-3.986,2.664-6.377,3.552-3.986,1.776-9.566,1.776-12.754,4.44a4.745,4.745,0,0,1-.8-2.664l7.174-5.327c.8-.888,2.391-.888,3.189-1.776,1.594-2.664,3.986-5.328,4.783-4.44,5.58,5.327,11.957-1.776,16.74-6.215,3.986-2.664,9.566-10.655,15.146-9.767,7.972-.888,14.349-11.543,26.306-11.543-3.986,2.664-3.986,4.439-5.58,5.327-4.783,4.439-7.972,6.215-12.754,11.543-5.58.888-11.16,3.552-15.146,3.552-4.783.888-7.972,4.44-7.972,12.431,9.566-5.327,16.74-8.879,24.712-12.431.8.888.8,3.552.8,6.215,3.986-2.664,6.377-5.327,10.363-7.1,0-1.776-1.594-4.439,0-4.439,6.377-5.327,11.16-10.655,17.537-15.094,4.783-.888,4.783-1.776,5.58-7.1-3.986,2.664-7.174,2.664-9.566,4.44-.8-1.776-.8-1.776-1.594-1.776l3.986-7.1c3.189-1.776,7.174-5.327,9.566-7.1-6.377,2.664-16.74-.888-18.335,10.655-3.986-2.664-4.783-5.327-5.58-8.879-7.972,5.327-14.349,8.879-20.726,14.207.8,0,.8.888.8.888,6.377-1.776,11.957-6.215,17.537-7.991l1.594.888c-7.174,5.327-14.349,8.879-21.523,14.206-3.189.888-5.58-1.776-10.363-1.776a3.217,3.217,0,0,1-.8,1.776c-2.391,1.776-7.972,1.776-7.972,4.439-6.377,9.767-13.552,7.991-21.523,10.655-2.392.888-4.783,0-6.377.888-9.566,5.327-18.335,11.543-27.1,15.982-16.74,7.991-33.48,17.758-50.221,24.861-14.349,7.1-28.7,14.206-44.641,18.646-9.566,5.327-23.117,7.991-35.075,13.319-5.58.888-7.972,7.991-7.972,13.319,1.594,4.44,1.594,7.1,0,11.543v5.328c1.594,5.327,1.594,11.543,3.189,17.758.8,2.664,0,7.1.8,9.767,4.783,3.552,9.566,7.991,15.146,10.655,6.377,3.552,14.349-.888,22.32-2.664,8.769-2.664,16.74-7.991,25.509-10.655,22.32-10.655,47.829-21.31,70.947-32.852,21.523-9.767,42.249-21.31,62.975-32.852.8-2.664,1.594-2.664,3.189-3.552a62.3,62.3,0,0,0,23.117-15.982c3.986-.888,5.58-.888,7.972-2.664,3.189-2.664,3.189-7.1,3.986-8.879,1.594-.888,6.377,1.776,7.972,0,6.377-1.776,11.957-6.215,16.74-9.767,3.189-1.776,7.174-2.664,10.363-5.327a.812.812,0,0,0-.8-.888,19.149,19.149,0,0,0-8.769,2.664c7.174-11.543,16.74-17.758,23.117-10.655,5.58-3.552,10.363-7.991,15.943-10.655-3.986-4.44.8-7.991,3.189-10.655,4.783-4.439,8.769-7.1,15.146-2.664-1.594-7.1,3.189-8.879,8.769-12.431,4.783-.888,8.769-1.776,14.349-1.776l-3.189-6.215a19.517,19.517,0,0,0,12.754-16.87,10.935,10.935,0,0,1,3.986,7.991c3.189-2.664,7.174-7.991,9.566-11.543.8,0,2.392,1.776,3.189,3.552a94.691,94.691,0,0,1,13.552-12.431c3.986-3.552,13.552-2.664,15.943-9.767V26.395c2.391-3.552,5.58-7.1,5.58-9.767,1.594-5.327,7.174-7.991,11.16-7.991,1.594,0,3.189,2.664,7.174,4.44a69.922,69.922,0,0,1,.8-12.431C671.593,4.2,669.2,5.973,667.607-.243ZM56.987,34.386s-1.594,0-1.594-2.664a8.9,8.9,0,0,0,3.986-5.327c.8-3.552,3.189-6.215,4.783-7.991s3.189-4.44,4.783-4.44c3.986-.888,6.377-.888,9.566-1.776C84.09,6.861,87.279,1.533,91.265-.243c3.189-1.776,4.783-1.776,7.174-.888C84.09,12.188,70.539,22.843,56.987,34.386Zm548.442-22.2c-8.769,3.552-15.146,7.991-19.929,14.206L565.571,37.937c-14.349,11.543-28.7,18.646-43.046,28.413-4.783,1.776-7.972,5.327-11.16,6.215,1.594,6.215,3.986,7.1,4.783,8.879,5.58-2.664,7.971-6.215,11.957-9.767,2.391-4.439,6.377-6.215,9.566-8.879,5.58-6.215,12.754-9.767,19.132-12.431,1.594,0,4.783-1.776,5.58-5.327.8-.888,2.391-3.552,3.189-3.552,12.754-3.552,23.117-14.206,34.278-19.534,1.594-6.215,6.377-6.215,9.566-7.991,3.189-.888,7.174-2.664,9.566-5.327,0-2.664-.8-3.552-.8-4.439-.8.888-2.391,0-6.377.888C610.212,5.973,607.82,9.524,605.429,12.188ZM556.8,28.17c-2.391,2.664-2.391,5.327-4.783,5.327-1.594,1.776-5.58,3.552-7.174,2.664-7.971-1.776-8.769-1.776-11.957,5.327-2.392,1.776-4.783,0-8.769,1.776-5.58,3.552-9.566,7.1-13.552,9.767V55.7c-1.594,1.776-1.594,3.552-1.594,7.991,7.174,4.439,8.769-6.215,16.74-6.215,5.58-.888,11.16-7.991,16.74-12.431,6.377-7.1,11.957-8.879,21.523-9.767C561.585,33.5,558.4,30.834,556.8,28.17ZM624.56,41.489a23.683,23.683,0,0,1-7.971-4.439c.8,0,.8-1.776.8-2.664a10,10,0,0,0,7.174,0,13.929,13.929,0,0,1,1.594,6.215C625.358,40.6,625.358,41.489,624.56,41.489ZM412.518,125.84c-2.391,2.664-6.377,5.327-9.566,5.327C404.546,124.952,408.532,124.064,412.518,125.84Zm3.986,34.628c-3.189,0-3.986,0-5.58-1.776-2.391,0-.8-1.776-.8-1.776a23.684,23.684,0,0,0,7.971-4.44C418.1,156.029,418.1,156.917,416.5,160.468ZM543.251,288.326c-.8,1.776-1.594,1.776-5.58,2.664.8-.888,0-2.664,0-4.44-.8-1.776-3.189-2.664-5.58-6.215,0-7.1,9.566-1.776,11.957-6.215a27.7,27.7,0,0,0-.8-7.1c3.189.888,4.783,3.552,6.377,5.327,0-8.879.8-13.319,0-19.534-.8-20.422-4.783-39.068-24.712-46.171l-13.552-7.1a9.644,9.644,0,0,1-.8,2.664c0,3.552,1.594,6.215,3.986,7.1,11.16,4.439,14.349,15.982,13.552,27.525,0,6.215,1.594,12.431-1.594,19.534-3.986,4.44-4.783,10.655-8.769,17.758,4.783,1.776,6.377,1.776,7.971,2.664-7.174,14.206-12.754,18.646-19.929,16.87-1.594,3.552-3.189,10.655-7.972,14.207a111.85,111.85,0,0,1-21.523,23.085c-12.754,7.991-25.509,15.094-39.06,22.2-1.594,1.776-2.392,3.552-5.58,5.327.8,1.776.8,1.776,3.189,3.552a3.08,3.08,0,0,1,3.189-1.776c7.972-7.1,15.146-12.431,22.32-15.982,3.189-1.776,3.986-4.44,5.58-5.327,11.16-7.1,23.117-14.206,32.683-21.31a8.456,8.456,0,0,0,3.986-2.664,93.16,93.16,0,0,0,7.972-7.991c3.986-5.327,7.174-7.991,9.566-12.431,5.58-6.215,10.363-7.991,12.755-1.776,3.189,1.776,1.594,5.327,3.189,7.991,9.566-4.44,18.335-16.87,12.755-23.973C546.439,280.335,545.642,284.775,543.251,288.326ZM221.2,260.8l1.594,1.776c-3.986,4.44-2.391,5.327,3.189,5.327,1.594,2.664,4.783,2.664,6.377,4.44,0,.888,0,.888-.8,1.776l-12.754-3.552c0-2.664-.8-3.552-.8-4.44C218.012,264.353,220.4,262.577,221.2,260.8Zm307.7,9.767a7.5,7.5,0,0,1-2.391-.888c1.594-3.552,3.986-4.44,3.986-7.1.8,0,1.594.888,1.594,2.664Zm-14.349,2.664c-1.594,3.552-3.189,7.991-3.189,12.431,3.189,0,4.783-.888,5.58-.888-.8-5.327-1.594-7.991-.8-11.543ZM285.77,301.645a53.444,53.444,0,0,1,14.349,7.991c-4.783,1.776-7.174,2.664-9.566,4.44-3.189-4.44-4.783-9.767-7.174-11.543C284.176,301.645,284.176,301.645,285.77,301.645ZM530.5,314.076q0,1.332-4.783,0c-.8,0-2.391,0-3.189.888,0,0,0,3.552.8,3.552,0,.888,1.594,1.776,3.189.888a57.861,57.861,0,0,0,11.957-9.767c-1.594,0-1.594-.888-2.391-.888C534.482,309.636,532.888,312.3,530.5,314.076ZM332.8,330.946c.8,2.664,3.189,5.327,3.986,7.991,0,.888-.8.888-3.189,1.776a16.615,16.615,0,0,0-6.377-7.1A13.12,13.12,0,0,1,332.8,330.946Zm169,6.215c-.8,9.767-7.174,6.215-11.16,5.327-5.58,12.431-15.943,15.982-24.712,21.31l-11.16,5.327c-3.189,1.776-3.986,6.215-7.174,10.655v1.776c7.972-5.327,14.349-7.991,20.726-13.319,3.986-2.664,10.363-7.1,15.146-13.319,2.392-1.776,7.174-2.664,9.566-6.215,3.986-.888,7.972-1.776,9.566-4.44C505.785,342.489,506.582,338.049,501.8,337.161Zm-98.05,24.861c7.174-.888,11.957-5.327,18.335-5.327C418.895,349.592,411.72,352.256,403.749,362.023Zm19.132,0c-3.986.888-6.377,3.552-10.363,5.327,5.58,0,7.972.888,14.349.888C425.272,364.686,423.678,363.8,422.881,362.023Zm-113.2,33.74c0,1.776-.8,2.664-.8,3.552,2.391.888,4.783,3.552,7.972,3.552,0-1.776,0-3.552.8-4.44C313.671,396.651,312.076,395.763,309.685,395.763ZM285.77,405.53c-1.594,1.776-5.58,2.664-7.174,3.552a5.5,5.5,0,0,1,1.594,4.44c3.986-2.664,5.58-4.44,7.174-4.44Zm-28.7,14.207c5.58,6.215,7.174,1.776,11.16-4.44h5.58c-.8-1.776-2.391-5.327-3.986-7.1-5.58,6.215-11.16,11.543-17.537,7.1C253.884,418.848,257.073,418.848,257.073,419.736Zm33.48,20.422,3.189,1.776c5.58-.888,10.363-1.776,12.754-4.44,5.58-1.776,12.754-7.1,17.537-2.664,3.189-4.44,7.174-7.1,9.566-8.879,9.566-.888,19.132-3.552,30.292-6.215,0-.888-.8-1.776-.8-5.327-5.58,0-10.363,0-13.552,1.776-5.58,0-8.769,3.552-12.754,3.552-4.783,2.664-9.566,5.327-13.552,7.991a39.122,39.122,0,0,1-12.754,5.327l-16.74,2.664C292.944,435.719,292.147,439.27,290.553,440.158Zm-50.221-7.991c.8-6.215,2.392-9.767,3.189-12.431-5.58,1.776-12.754.888-13.552,10.655C233.158,433.055,237.144,435.719,240.332,432.167Zm-23.915,8.879c1.594,0,2.391,0,4.783-1.776,0,3.552,0,8.879-.8,12.431C215.621,449.037,214.026,444.6,216.418,441.046ZM230.766,451.7s0,2.664.8,3.552a38.643,38.643,0,0,0-7.972,3.552,3.322,3.322,0,0,1-2.391-3.552C224.389,454.365,227.578,452.589,230.766,451.7Zm104.427,72.808c1.594.888,3.986,4.44,4.783,4.44-3.189.888-7.971.888-13.552,1.776-1.594,0-2.391-.888-5.58-1.776-6.377-3.552-10.363,1.776-11.16,8.879-5.58.888-10.363,2.664-13.552,2.664s-6.377,0-8.769-1.776c3.189-1.776,5.58-1.776,6.377-4.439V532.5c-6.377,1.776-14.349,1.776-20.726,5.327,0,0,0,.888-.8.888,1.594.888,3.986.888,5.58,1.776v2.664c-9.566,0-20.726.888-31.089,1.776,3.189-7.1,7.174-7.991,11.16-5.327,3.189.888,6.377.888,9.566-1.776,3.986-4.44,8.769-5.327,11.16-6.215a22.14,22.14,0,0,0-.8-6.215c9.566,6.215,15.943,2.664,23.117.888,3.189,0,3.986-2.664,4.783-2.664,7.972,1.776,14.349-.888,21.523-5.327,12.754-3.552,25.509-7.991,38.263-11.543C357.514,513.854,347.151,516.518,335.194,524.509Zm-92.47,7.991c-2.392-.888-6.377.888-10.363.888-6.377-2.664-13.552-4.44-18.335-.888-2.391-1.776-3.986-2.664-5.58-6.215-.8,0-.8-1.776-.8-1.776.8-.888,2.391-2.664,3.189-2.664,5.58,0,14.349,0,20.726,2.664a72.961,72.961,0,0,1,23.117,3.552C250.7,531.612,249.1,537.828,242.724,532.5Z" transform="translate(-6.347 249.922)" fill="#383838"/><path d="M9.3,17.769h.517c.172-.517.517-.517,1.035-.345,0,.172.172.172.345,0,.862-.172,1.207-1.035,1.552-1.724s.517-1.552.862-2.414c0-.172.172-.345.172-.517a2.451,2.451,0,0,0,.345-1.035c.172-.517,0-.862.172-1.207l.69-1.207A8.054,8.054,0,0,1,15.848,7.6c.517-1.207,1.552-2.241,1.9-3.621s1.207-2.586.69-4.138a5.78,5.78,0,0,1,0-1.724v-.345a10.166,10.166,0,0,0-.69-1.379l-.517-.517a6.7,6.7,0,0,0-2.586-.345,4.663,4.663,0,0,0-2.586.517A19.309,19.309,0,0,1,8.262-2.4a1.818,1.818,0,0,1-2.069-.517,4.242,4.242,0,0,0-1.9-.69,1.639,1.639,0,0,0-1.724.69,1.552,1.552,0,0,0,0,1.9c.862,1.207.517,2.586.345,3.966,0,.517-.517.862-.517,1.207.172.69-.172,1.035-.517,1.552,0,.172-.172.172-.172.345,0,.69-.172,1.379-.172,2.069-.172.69-.517,1.379-.69,2.069,0,.345.172.862.172,1.379v.345c.345,1.207,1.552,1.724,2.586,2.414A9.776,9.776,0,0,1,5.848,15.7l1.207.69c.172.172.69.172.862.345Z" transform="translate(481.574 712.459)" fill="#383838"/></g></g></svg>