<svg width="259" height="78" viewBox="0 0 259 78" fill="none" xmlns="http://www.w3.org/2000/svg">
<g filter="url(#filter0_d)">
<path d="M12.783 38C11.4071 38 10.1394 37.8924 8.97995 37.6773C7.83595 37.4776 6.8079 37.2471 5.89579 36.9859C4.98368 36.7247 4.19525 36.4789 3.53049 36.2484C2.88119 36.0179 2.37103 35.8873 2 35.8566L2.39422 27.3521H5.59433L6.56827 33.0679C6.83109 33.3598 7.17892 33.6364 7.61179 33.8976C8.04465 34.1588 8.53936 34.3892 9.0959 34.589C9.65244 34.7734 10.2554 34.9193 10.9047 35.0269C11.554 35.1344 12.2264 35.1882 12.9221 35.1882C15.2565 35.1882 16.9725 34.6812 18.0701 33.6671C19.1832 32.6376 19.7397 31.2318 19.7397 29.4494C19.7397 28.5122 19.5542 27.6901 19.1832 26.9834C18.8276 26.2766 18.302 25.6312 17.6063 25.0474C16.9261 24.4635 16.099 23.9181 15.1251 23.411C14.1511 22.8886 13.0613 22.3508 11.8554 21.7977C10.8969 21.3675 9.86887 20.8528 8.77125 20.2535C7.68909 19.6543 6.68422 18.9245 5.75665 18.064C4.82908 17.1882 4.05611 16.1741 3.43773 15.0218C2.81935 13.8694 2.51016 12.525 2.51016 10.9885C2.51016 9.66709 2.7807 8.46095 3.32178 7.37004C3.87833 6.26376 4.6513 5.31114 5.64071 4.51216C6.64557 3.71319 7.84368 3.09859 9.23503 2.66837C10.6418 2.22279 12.2033 2 13.9193 2C14.986 2 15.9986 2.07682 16.957 2.23047C17.9155 2.38412 18.789 2.56082 19.5774 2.76056C20.3813 2.94494 21.0847 3.137 21.6876 3.33675C22.2906 3.52113 22.7698 3.64405 23.1254 3.70551L22.8239 11.5186H19.7397L18.6035 6.10243C18.4643 5.94878 18.2324 5.79513 17.9078 5.64149C17.5986 5.47247 17.2276 5.3265 16.7947 5.20359C16.3773 5.08067 15.9058 4.98079 15.3802 4.90397C14.8546 4.81178 14.3135 4.76569 13.7569 4.76569C11.639 4.76569 10.0853 5.17286 9.0959 5.9872C8.12195 6.80154 7.63498 8.03841 7.63498 9.69782C7.63498 10.589 7.80503 11.3726 8.14514 12.0487C8.50071 12.7093 9.01087 13.3239 9.67563 13.8924C10.3404 14.4456 11.1675 14.991 12.1569 15.5288C13.1463 16.0666 14.2748 16.6504 15.5425 17.2804C16.6865 17.8489 17.8382 18.4635 18.9977 19.1242C20.1726 19.7695 21.2239 20.507 22.1514 21.3367C23.0945 22.1665 23.8597 23.1191 24.4472 24.1946C25.0501 25.2548 25.3515 26.4917 25.3515 27.9053C25.3515 29.1191 25.081 30.3329 24.5399 31.5467C23.9988 32.7452 23.2027 33.8284 22.1514 34.7964C21.1002 35.749 19.7861 36.525 18.2093 37.1242C16.6479 37.7081 14.8391 38 12.783 38Z" fill="#004290"/>
<path d="M45.387 37.8387C43.0063 37.8387 40.9501 37.5314 39.2187 36.9168C37.5027 36.3022 36.0881 35.3649 34.9751 34.105C33.862 32.8451 33.0426 31.2625 32.517 29.3572C31.9914 27.4366 31.7286 25.178 31.7286 22.5813V5.57234L28.3429 4.92702V2.39181H40.9811V4.92702L37.178 5.5493V23.1114C37.178 25.4161 37.3945 27.3367 37.8273 28.8732C38.2757 30.4097 38.8863 31.6389 39.6593 32.5608C40.4323 33.4827 41.3444 34.1357 42.3956 34.5198C43.4623 34.8886 44.614 35.073 45.8508 35.073C48.5871 35.073 50.6664 34.0819 52.0887 32.0999C53.5264 30.1178 54.2453 27.2138 54.2453 23.388V5.57234L50.5582 4.92702V2.39181H61.5035V4.92702L58.0947 5.5493V23.1805C58.0947 25.7311 57.7623 27.9283 57.0976 29.7721C56.4483 31.6159 55.5516 33.137 54.4076 34.3355C53.2791 35.5339 51.9418 36.4174 50.3959 36.9859C48.8499 37.5544 47.1803 37.8387 45.387 37.8387Z" fill="#004290"/>
<path d="M64.6572 37.4699V34.9347L68.553 34.3124V5.5493L64.75 4.92702V2.39181H71.1966C71.9232 2.39181 72.588 2.37644 73.1909 2.34571C73.8093 2.29962 74.3967 2.2612 74.9533 2.23047C75.5253 2.18438 76.0818 2.14597 76.6229 2.11524C77.1794 2.06914 77.7592 2.04609 78.3621 2.04609C80.5109 2.04609 82.3429 2.22279 83.8579 2.57618C85.3729 2.91421 86.6097 3.42125 87.5682 4.09731C88.5267 4.77337 89.2223 5.60307 89.6552 6.58643C90.1035 7.56978 90.3277 8.6991 90.3277 9.97439C90.3277 11.0807 90.1731 12.1178 89.8639 13.0858C89.5702 14.0538 89.1296 14.9219 88.5421 15.6901C87.9701 16.4584 87.2513 17.1191 86.3855 17.6722C85.5353 18.21 84.5536 18.5941 83.4405 18.8246C84.8628 18.7939 86.1536 18.9706 87.3131 19.3547C88.4726 19.7234 89.462 20.2689 90.2813 20.991C91.1007 21.6978 91.7345 22.5583 92.1828 23.5723C92.6312 24.5711 92.8553 25.6927 92.8553 26.9373C92.8553 28.3201 92.6234 29.6645 92.1596 30.9706C91.7113 32.2766 90.9306 33.4289 89.8175 34.4277C88.7199 35.4264 87.2513 36.233 85.4116 36.8476C83.5719 37.4469 81.2684 37.7465 78.5012 37.7465C77.9137 37.7465 77.3649 37.7311 76.8548 37.7004C76.3446 37.6697 75.8035 37.6389 75.2315 37.6082C74.675 37.5775 74.0566 37.5467 73.3764 37.516C72.6962 37.4853 71.8923 37.4699 70.9647 37.4699H64.6572ZM73.8402 5.04225V17.7414C74.1339 17.7721 74.4817 17.7951 74.8837 17.8105C75.2856 17.8259 75.6953 17.8335 76.1127 17.8335C76.5301 17.8335 76.9398 17.8335 77.3417 17.8335C77.7437 17.8335 78.0915 17.8335 78.3853 17.8335C80.7042 17.8335 82.3893 17.2804 83.4405 16.1741C84.5072 15.0525 85.0406 13.347 85.0406 11.0576C85.0406 9.99744 84.9169 9.07555 84.6695 8.29193C84.4376 7.50832 84.0434 6.85531 83.4869 6.33291C82.9303 5.8105 82.1883 5.41869 81.2607 5.15749C80.3332 4.89629 79.1814 4.76569 77.8055 4.76569C76.677 4.76569 75.8113 4.8041 75.2083 4.88092C74.6054 4.95775 74.1494 5.01152 73.8402 5.04225ZM73.8402 20.8067V34.589C74.0102 34.6965 74.2653 34.7811 74.6054 34.8425C74.9455 34.8886 75.3243 34.927 75.7417 34.9577C76.1591 34.9731 76.592 34.9885 77.0403 35.0038C77.5041 35.0038 77.9292 35.0038 78.3157 35.0038C79.9235 35.0038 81.2839 34.8425 82.397 34.5198C83.5255 34.1818 84.4454 33.7055 85.1565 33.0909C85.8676 32.4763 86.3778 31.7234 86.687 30.8323C87.0116 29.9411 87.174 28.9347 87.174 27.8131C87.174 26.5685 87.0194 25.5006 86.7102 24.6095C86.4165 23.7183 85.9372 22.9885 85.2725 22.42C84.6077 21.8515 83.7574 21.4366 82.7216 21.1754C81.6859 20.8988 80.4259 20.7606 78.9418 20.7606C78.5399 20.7606 78.0993 20.7606 77.62 20.7606C77.1562 20.7606 76.6924 20.7606 76.2287 20.7606C75.7649 20.7606 75.3243 20.7682 74.9069 20.7836C74.4895 20.7836 74.1339 20.7913 73.8402 20.8067Z" fill="#004290"/>
<path d="M108.276 38C106.9 38 105.633 37.8924 104.473 37.6773C103.329 37.4776 102.301 37.2471 101.389 36.9859C100.477 36.7247 99.6884 36.4789 99.0237 36.2484C98.3744 36.0179 97.8642 35.8873 97.4932 35.8566L97.8874 27.3521H101.087L102.061 33.0679C102.324 33.3598 102.672 33.6364 103.105 33.8976C103.538 34.1588 104.033 34.3892 104.589 34.589C105.146 34.7734 105.749 34.9193 106.398 35.0269C107.047 35.1344 107.72 35.1882 108.415 35.1882C110.75 35.1882 112.466 34.6812 113.563 33.6671C114.676 32.6376 115.233 31.2318 115.233 29.4494C115.233 28.5122 115.047 27.6901 114.676 26.9834C114.321 26.2766 113.795 25.6312 113.1 25.0474C112.419 24.4635 111.592 23.9181 110.618 23.411C109.644 22.8886 108.554 22.3508 107.349 21.7977C106.39 21.3675 105.362 20.8528 104.264 20.2535C103.182 19.6543 102.177 18.9245 101.25 18.064C100.322 17.1882 99.5493 16.1741 98.9309 15.0218C98.3125 13.8694 98.0033 12.525 98.0033 10.9885C98.0033 9.66709 98.2739 8.46095 98.815 7.37004C99.3715 6.26376 100.144 5.31114 101.134 4.51216C102.139 3.71319 103.337 3.09859 104.728 2.66837C106.135 2.22279 107.696 2 109.412 2C110.479 2 111.492 2.07682 112.45 2.23047C113.409 2.38412 114.282 2.56082 115.071 2.76056C115.874 2.94494 116.578 3.137 117.181 3.33675C117.784 3.52113 118.263 3.64405 118.619 3.70551L118.317 11.5186H115.233L114.097 6.10243C113.958 5.94878 113.726 5.79513 113.401 5.64149C113.092 5.47247 112.721 5.3265 112.288 5.20359C111.87 5.08067 111.399 4.98079 110.873 4.90397C110.348 4.81178 109.807 4.76569 109.25 4.76569C107.132 4.76569 105.578 5.17286 104.589 5.9872C103.615 6.80154 103.128 8.03841 103.128 9.69782C103.128 10.589 103.298 11.3726 103.638 12.0487C103.994 12.7093 104.504 13.3239 105.169 13.8924C105.834 14.4456 106.661 14.991 107.65 15.5288C108.639 16.0666 109.768 16.6504 111.036 17.2804C112.18 17.8489 113.331 18.4635 114.491 19.1242C115.666 19.7695 116.717 20.507 117.645 21.3367C118.588 22.1665 119.353 23.1191 119.94 24.1946C120.543 25.2548 120.845 26.4917 120.845 27.9053C120.845 29.1191 120.574 30.3329 120.033 31.5467C119.492 32.7452 118.696 33.8284 117.645 34.7964C116.593 35.749 115.279 36.525 113.702 37.1242C112.141 37.7081 110.332 38 108.276 38Z" fill="#004290"/>
<path d="M130.19 37.4699V34.9347L136.15 34.2894V5.15749L128.497 5.38796L126.781 14.7222H123.419L124.184 2.39181H153.588L154.168 14.7222H150.805L149.251 5.38796L141.622 5.15749V34.2894L148.046 34.9347V37.4699H130.19Z" fill="#004290"/>
<path d="M154.214 37.4699L154.191 34.9347L157.182 34.2894L168.939 2.09219H174.203L185.659 34.3124L188.627 34.9347V37.4699H176.058V34.9347L179.838 34.2894L177.658 27.5826H163.837L161.658 34.2894L165.577 34.9347V37.4699H154.214ZM169.774 9.39821L164.811 24.6556H176.684L171.745 9.39821L170.771 5.66453L169.774 9.39821Z" fill="#004290"/>
<path d="M205.74 38C203.128 38 200.801 37.5621 198.76 36.6863C196.735 35.8105 195.027 34.5813 193.636 32.9987C192.244 31.4008 191.185 29.4878 190.459 27.2599C189.732 25.032 189.369 22.5583 189.369 19.8387C189.369 17.2266 189.817 14.8374 190.714 12.6709C191.61 10.4891 192.839 8.60691 194.401 7.02433C195.962 5.44174 197.786 4.21255 199.874 3.33675C201.976 2.46095 204.225 2.02305 206.622 2.02305C207.642 2.02305 208.655 2.08451 209.659 2.20743C210.68 2.31498 211.63 2.45327 212.512 2.62228C213.408 2.77593 214.22 2.93726 214.947 3.10627C215.673 3.27529 216.253 3.39821 216.686 3.47503L216.268 11.6108H212.906L211.561 6.28681C211.159 5.84123 210.471 5.48015 209.497 5.20359C208.523 4.92702 207.178 4.78873 205.462 4.78873C204.024 4.78873 202.703 5.10371 201.497 5.73367C200.291 6.36364 199.247 7.29321 198.366 8.52241C197.5 9.73624 196.82 11.242 196.326 13.0397C195.846 14.822 195.607 16.8809 195.607 19.2164C195.607 21.2292 195.8 23.1959 196.186 25.1165C196.573 27.0371 197.176 28.7503 197.995 30.2561C198.83 31.7465 199.897 32.9526 201.195 33.8745C202.509 34.7811 204.086 35.2343 205.926 35.2343C206.776 35.2343 207.51 35.1959 208.129 35.1191C208.763 35.0269 209.312 34.9117 209.775 34.7734C210.239 34.6197 210.633 34.4353 210.958 34.2202C211.283 33.9898 211.569 33.7362 211.816 33.4597L213.973 28.9193L216.964 29.3803L215.828 36.1793C215.194 36.21 214.575 36.3252 213.973 36.525C213.385 36.7093 212.713 36.9168 211.955 37.1472C211.213 37.3624 210.347 37.5544 209.358 37.7234C208.368 37.9078 207.163 38 205.74 38Z" fill="#004290"/>
<path d="M253 37.4699H246.136C245.75 37.4699 245.286 37.1472 244.745 36.5019C244.204 35.8412 243.624 34.9962 243.005 33.9667C242.387 32.9373 241.73 31.7849 241.034 30.5096C240.354 29.219 239.658 27.9437 238.947 26.6837C238.236 25.4238 237.533 24.233 236.837 23.1114C236.141 21.9898 235.477 21.0832 234.843 20.3918L230.251 25.6927V34.3124L234.611 35.0269V37.4699H221.045V34.9347L224.941 34.2894V5.5493L221.138 4.92702V2.39181H233.962V4.92702L230.251 5.5493V21.6825L243.585 5.57234L239.805 4.92702L239.782 2.39181H251.446V4.92702L247.945 5.5493L237.997 16.8195C238.739 17.4494 239.527 18.3175 240.362 19.4238C241.212 20.5147 242.062 21.7055 242.913 22.9962C243.778 24.2714 244.629 25.5775 245.464 26.9142C246.298 28.2356 247.071 29.4417 247.782 30.5327C248.494 31.6236 249.127 32.5224 249.684 33.2292C250.24 33.936 250.666 34.3047 250.959 34.3355L253 34.9347V37.4699Z" fill="#004290"/>
<line x1="2" y1="52.5" x2="253" y2="52.5" stroke="#004290" stroke-width="7"/>
<line x1="2" y1="68.5" x2="253" y2="68.5" stroke="#004290" stroke-width="7"/>
</g>
<defs>
<filter id="filter0_d" x="0" y="0" width="259" height="78" filterUnits="userSpaceOnUse" color-interpolation-filters="sRGB">
<feFlood flood-opacity="0" result="BackgroundImageFix"/>
<feColorMatrix in="SourceAlpha" type="matrix" values="0 0 0 0 0 0 0 0 0 0 0 0 0 0 0 0 0 0 127 0"/>
<feOffset dx="2" dy="2"/>
<feGaussianBlur stdDeviation="2"/>
<feColorMatrix type="matrix" values="0 0 0 0 0 0 0 0 0 0 0 0 0 0 0 0 0 0 0.3 0"/>
<feBlend mode="normal" in2="BackgroundImageFix" result="effect1_dropShadow"/>
<feBlend mode="normal" in="SourceGraphic" in2="effect1_dropShadow" result="shape"/>
</filter>
</defs>
</svg>
