<svg width="114" height="124" viewBox="0 0 114 124" fill="none" xmlns="http://www.w3.org/2000/svg">
<g filter="url(#filter0_d)">
<path d="M57 28.5L19 47.5L57 66.5L95 47.5L57 28.5Z" stroke="#004290" stroke-width="7" stroke-linecap="round" stroke-linejoin="round"/>
<path d="M19 66.5L57 85.5L95 66.5" stroke="#004290" stroke-width="7" stroke-linecap="round" stroke-linejoin="round"/>
</g>
<g filter="url(#filter1_d)">
<path d="M22.08 116.18C20.72 116.18 19.68 115.76 18.96 114.92C18.2533 114.08 17.86 112.927 17.78 111.46L19.78 110.92C19.8467 111.96 20.0467 112.8 20.38 113.44C20.7267 114.08 21.2933 114.4 22.08 114.4C22.6667 114.4 23.1067 114.24 23.4 113.92C23.7067 113.587 23.86 113.113 23.86 112.5C23.86 111.833 23.72 111.28 23.44 110.84C23.16 110.4 22.7133 109.913 22.1 109.38L19.38 106.98C18.8333 106.5 18.4333 105.987 18.18 105.44C17.94 104.88 17.82 104.2 17.82 103.4C17.82 102.213 18.16 101.293 18.84 100.64C19.52 99.9867 20.4467 99.66 21.62 99.66C22.9 99.66 23.8667 100 24.52 100.68C25.1733 101.36 25.5667 102.413 25.7 103.84L23.78 104.36C23.7133 103.413 23.5267 102.687 23.22 102.18C22.9267 101.66 22.3933 101.4 21.62 101.4C21.0467 101.4 20.6067 101.553 20.3 101.86C19.9933 102.153 19.84 102.593 19.84 103.18C19.84 103.66 19.92 104.067 20.08 104.4C20.24 104.72 20.5133 105.047 20.9 105.38L23.64 107.78C24.3467 108.407 24.9067 109.087 25.32 109.82C25.7467 110.553 25.96 111.387 25.96 112.32C25.96 113.507 25.6 114.447 24.88 115.14C24.16 115.833 23.2267 116.18 22.08 116.18ZM31.8931 116.18C30.7598 116.18 29.8731 115.953 29.2331 115.5C28.6065 115.047 28.1731 114.413 27.9331 113.6C27.6931 112.787 27.5731 111.767 27.5731 110.54V99.8H29.7331V110.64C29.7331 111.867 29.8731 112.8 30.1531 113.44C30.4465 114.08 31.0265 114.4 31.8931 114.4C32.7598 114.4 33.3331 114.08 33.6131 113.44C33.9065 112.8 34.0531 111.867 34.0531 110.64V99.8H36.1931V110.54C36.1931 111.767 36.0731 112.787 35.8331 113.6C35.5931 114.413 35.1598 115.047 34.5331 115.5C33.9065 115.953 33.0265 116.18 31.8931 116.18ZM38.5725 99.8H42.2925C43.7592 99.8 44.8458 100.133 45.5525 100.8C46.2592 101.453 46.6125 102.473 46.6125 103.86C46.6125 105.927 45.8392 107.067 44.2925 107.28C45.2525 107.507 45.9525 107.96 46.3925 108.64C46.8325 109.307 47.0525 110.22 47.0525 111.38C47.0525 112.833 46.7058 113.967 46.0125 114.78C45.3325 115.593 44.2925 116 42.8925 116H38.5725V99.8ZM42.1725 106.56C43.1058 106.56 43.7525 106.36 44.1125 105.96C44.4725 105.547 44.6525 104.847 44.6525 103.86C44.6525 103.14 44.5392 102.613 44.3125 102.28C44.0992 101.933 43.7725 101.713 43.3325 101.62C42.8925 101.527 42.2392 101.48 41.3725 101.48H40.8325V106.56H42.1725ZM42.3525 114.38C43.0192 114.38 43.5325 114.28 43.8925 114.08C44.2658 113.867 44.5258 113.547 44.6725 113.12C44.8192 112.693 44.8925 112.113 44.8925 111.38C44.8925 110.34 44.6792 109.567 44.2525 109.06C43.8258 108.54 43.1325 108.28 42.1725 108.28H40.8325V114.38H42.3525ZM52.8808 116.18C51.5208 116.18 50.4808 115.76 49.7608 114.92C49.0541 114.08 48.6608 112.927 48.5808 111.46L50.5808 110.92C50.6474 111.96 50.8474 112.8 51.1808 113.44C51.5274 114.08 52.0941 114.4 52.8808 114.4C53.4674 114.4 53.9074 114.24 54.2008 113.92C54.5074 113.587 54.6608 113.113 54.6608 112.5C54.6608 111.833 54.5208 111.28 54.2408 110.84C53.9608 110.4 53.5141 109.913 52.9008 109.38L50.1808 106.98C49.6341 106.5 49.2341 105.987 48.9808 105.44C48.7408 104.88 48.6208 104.2 48.6208 103.4C48.6208 102.213 48.9608 101.293 49.6408 100.64C50.3208 99.9867 51.2474 99.66 52.4208 99.66C53.7008 99.66 54.6674 100 55.3208 100.68C55.9741 101.36 56.3674 102.413 56.5008 103.84L54.5808 104.36C54.5141 103.413 54.3274 102.687 54.0208 102.18C53.7274 101.66 53.1941 101.4 52.4208 101.4C51.8474 101.4 51.4074 101.553 51.1008 101.86C50.7941 102.153 50.6408 102.593 50.6408 103.18C50.6408 103.66 50.7208 104.067 50.8808 104.4C51.0408 104.72 51.3141 105.047 51.7008 105.38L54.4408 107.78C55.1474 108.407 55.7074 109.087 56.1208 109.82C56.5474 110.553 56.7608 111.387 56.7608 112.32C56.7608 113.507 56.4008 114.447 55.6808 115.14C54.9608 115.833 54.0274 116.18 52.8808 116.18ZM60.2939 101.48H57.5539V99.8H65.2139V101.48H62.5539V116H60.2939V101.48ZM69.2966 99.8H71.4766L74.9366 116H72.7966L72.0566 111.92H68.7566L67.9766 116H65.8566L69.2966 99.8ZM71.7566 110.3L70.3966 103L69.0566 110.3H71.7566ZM80.5622 116.18C78.9622 116.18 77.8355 115.707 77.1822 114.76C76.5289 113.8 76.2022 112.48 76.2022 110.8V105.08C76.2022 103.307 76.5222 101.96 77.1622 101.04C77.8022 100.12 78.9355 99.66 80.5622 99.66C82.0155 99.66 83.0555 100.053 83.6822 100.84C84.3222 101.627 84.6422 102.787 84.6422 104.32V105.6H82.5022V104.46C82.5022 103.713 82.4689 103.14 82.4022 102.74C82.3355 102.34 82.1622 102.02 81.8822 101.78C81.6155 101.54 81.1822 101.42 80.5822 101.42C79.9689 101.42 79.5089 101.553 79.2022 101.82C78.9089 102.073 78.7155 102.433 78.6222 102.9C78.5289 103.353 78.4822 103.967 78.4822 104.74V111.16C78.4822 111.987 78.5489 112.633 78.6822 113.1C78.8155 113.567 79.0289 113.9 79.3222 114.1C79.6289 114.3 80.0489 114.4 80.5822 114.4C81.1555 114.4 81.5822 114.273 81.8622 114.02C82.1422 113.767 82.3155 113.42 82.3822 112.98C82.4622 112.54 82.5022 111.94 82.5022 111.18V109.98H84.6422V111.18C84.6422 112.793 84.3355 114.033 83.7222 114.9C83.1222 115.753 82.0689 116.18 80.5622 116.18ZM86.7952 99.8H89.0552V107.44L92.7752 99.8H94.8752L91.6752 106.94L95.3952 116H93.1952L90.0952 108.4L89.0552 110.28V116H86.7952V99.8Z" fill="#004290"/>
</g>
<defs>
<filter id="filter0_d" x="-4" y="-4" width="130" height="130" filterUnits="userSpaceOnUse" color-interpolation-filters="sRGB">
<feFlood flood-opacity="0" result="BackgroundImageFix"/>
<feColorMatrix in="SourceAlpha" type="matrix" values="0 0 0 0 0 0 0 0 0 0 0 0 0 0 0 0 0 0 127 0"/>
<feOffset dx="4" dy="4"/>
<feGaussianBlur stdDeviation="4"/>
<feColorMatrix type="matrix" values="0 0 0 0 0 0 0 0 0 0 0 0 0 0 0 0 0 0 0.3 0"/>
<feBlend mode="normal" in2="BackgroundImageFix" result="effect1_dropShadow"/>
<feBlend mode="normal" in="SourceGraphic" in2="effect1_dropShadow" result="shape"/>
</filter>
<filter id="filter1_d" x="14.78" y="96.66" width="85.6152" height="24.52" filterUnits="userSpaceOnUse" color-interpolation-filters="sRGB">
<feFlood flood-opacity="0" result="BackgroundImageFix"/>
<feColorMatrix in="SourceAlpha" type="matrix" values="0 0 0 0 0 0 0 0 0 0 0 0 0 0 0 0 0 0 127 0"/>
<feOffset dx="1" dy="1"/>
<feGaussianBlur stdDeviation="2"/>
<feColorMatrix type="matrix" values="0 0 0 0 0 0 0 0 0 0 0 0 0 0 0 0 0 0 0.2 0"/>
<feBlend mode="normal" in2="BackgroundImageFix" result="effect1_dropShadow"/>
<feBlend mode="normal" in="SourceGraphic" in2="effect1_dropShadow" result="shape"/>
</filter>
</defs>
</svg>
