<svg width="336" height="48" viewBox="0 0 336 48" fill="none" xmlns="http://www.w3.org/2000/svg">
<path d="M14.4346 48C12.5928 48 10.8958 47.8566 9.34368 47.5698C7.81227 47.3035 6.43607 46.9962 5.21508 46.6479C3.99409 46.2996 2.93865 45.9718 2.04878 45.6645C1.1796 45.3572 0.496674 45.1831 0 45.1421L0.527716 33.8028H4.81153L6.1153 41.4238C6.46711 41.8131 6.93274 42.1818 7.5122 42.5301C8.09165 42.8784 8.75388 43.1857 9.49889 43.452C10.2439 43.6978 11.051 43.8924 11.9202 44.0359C12.7894 44.1793 13.6896 44.251 14.6208 44.251C17.7458 44.251 20.0429 43.5749 21.5122 42.2228C23.0022 40.8502 23.7472 38.9757 23.7472 36.5992C23.7472 35.3496 23.4989 34.2535 23.0022 33.3111C22.5262 32.3688 21.8226 31.5083 20.8914 30.7298C19.9808 29.9513 18.8736 29.2241 17.5698 28.548C16.2661 27.8515 14.8071 27.1344 13.1929 26.3969C11.9098 25.8233 10.5336 25.137 9.0643 24.338C7.61567 23.5391 6.27051 22.5659 5.02882 21.4187C3.78714 20.251 2.7524 18.8988 1.92461 17.3624C1.09682 15.8259 0.682927 14.0333 0.682927 11.9846C0.682927 10.2228 1.04508 8.6146 1.7694 7.16005C2.51441 5.68502 3.54915 4.41485 4.87361 3.34955C6.21877 2.28425 7.82262 1.46479 9.68514 0.891165C11.5684 0.297055 13.6585 0 15.9557 0C17.3836 0 18.7391 0.102433 20.0222 0.307298C21.3052 0.512164 22.4745 0.747759 23.5299 1.01408C24.6061 1.25992 25.5477 1.51601 26.3548 1.78233C27.1619 2.02817 27.8034 2.19206 28.2794 2.27401L27.8758 12.6914H23.7472L22.2262 5.46991C22.0399 5.26504 21.7295 5.06018 21.2949 4.85531C20.881 4.62996 20.3843 4.43534 19.8049 4.27145C19.2461 4.10755 18.6149 3.97439 17.9113 3.87196C17.2077 3.74904 16.4834 3.68758 15.7384 3.68758C12.9032 3.68758 10.8234 4.23047 9.49889 5.31626C8.19512 6.40205 7.54324 8.05122 7.54324 10.2638C7.54324 11.452 7.77088 12.4968 8.22616 13.3982C8.70214 14.2791 9.38507 15.0986 10.2749 15.8566C11.1648 16.5941 12.272 17.3214 13.5965 18.0384C14.9209 18.7554 16.4316 19.5339 18.1286 20.3739C19.66 21.1319 21.2018 21.9513 22.7539 22.8323C24.3267 23.6927 25.7339 24.6761 26.9756 25.7823C28.238 26.8886 29.2624 28.1588 30.0488 29.5928C30.8559 31.0064 31.2594 32.6556 31.2594 34.5403C31.2594 36.1588 30.8973 37.7772 30.1729 39.3956C29.4486 40.9936 28.3829 42.4379 26.9756 43.7286C25.5684 44.9987 23.8093 46.0333 21.6984 46.8323C19.6083 47.6108 17.187 48 14.4346 48Z" fill="#004290"/>
<path d="M58.0798 47.7849C54.8928 47.7849 52.1404 47.3752 49.8226 46.5557C47.5255 45.7362 45.6319 44.4866 44.1419 42.8067C42.6519 41.1268 41.5551 39.0166 40.8514 36.4763C40.1478 33.9155 39.796 30.904 39.796 27.4417V4.76312L35.2639 3.90269V0.522407H52.1818V3.90269L47.0909 4.73239V28.1485C47.0909 31.2215 47.3806 33.7823 47.9601 35.831C48.5602 37.8796 49.3777 39.5186 50.4124 40.7478C51.4472 41.977 52.6681 42.8476 54.0754 43.3598C55.5033 43.8515 57.0451 44.0973 58.7007 44.0973C62.3636 44.0973 65.1471 42.7759 67.051 40.1332C68.9756 37.4904 69.9379 33.6184 69.9379 28.5173V4.76312L65.0022 3.90269V0.522407H79.6541V3.90269L75.0909 4.73239V28.2407C75.0909 31.6415 74.646 34.5711 73.7561 37.0294C72.8869 39.4878 71.6866 41.516 70.1552 43.114C68.6445 44.7119 66.8544 45.8899 64.7849 46.6479C62.7154 47.4059 60.4804 47.7849 58.0798 47.7849Z" fill="#004290"/>
<path d="M83.8758 47.2932V43.9129L89.0909 43.0832V4.73239L84 3.90269V0.522407H92.6297C93.6024 0.522407 94.4922 0.501921 95.2993 0.460948C96.1271 0.399488 96.9135 0.348271 97.6585 0.307298C98.4242 0.245839 99.1693 0.194622 99.8936 0.153649C100.639 0.0921895 101.415 0.0614597 102.222 0.0614597C105.098 0.0614597 107.551 0.297055 109.579 0.768246C111.607 1.21895 113.262 1.89501 114.545 2.79641C115.829 3.69782 116.76 4.8041 117.339 6.11524C117.939 7.42638 118.239 8.93214 118.239 10.6325C118.239 12.1076 118.033 13.4904 117.619 14.781C117.225 16.0717 116.636 17.2292 115.849 18.2535C115.084 19.2778 114.121 20.1588 112.962 20.8963C111.824 21.6133 110.51 22.1255 109.02 22.4328C110.924 22.3918 112.652 22.6274 114.204 23.1396C115.756 23.6312 117.081 24.3585 118.177 25.3214C119.274 26.2638 120.123 27.411 120.723 28.7631C121.323 30.0948 121.623 31.5903 121.623 33.2497C121.623 35.0935 121.313 36.886 120.692 38.6274C120.092 40.3688 119.047 41.9053 117.557 43.2369C116.087 44.5685 114.121 45.644 111.659 46.4635C109.196 47.2625 106.112 47.662 102.408 47.662C101.622 47.662 100.887 47.6415 100.204 47.6005C99.5211 47.5595 98.7967 47.5186 98.031 47.4776C97.286 47.4366 96.4582 47.3956 95.5477 47.3547C94.6371 47.3137 93.561 47.2932 92.3193 47.2932H83.8758ZM96.1685 4.05634V20.9885C96.5617 21.0294 97.0274 21.0602 97.5654 21.0807C98.1035 21.1012 98.6519 21.1114 99.2106 21.1114C99.7694 21.1114 100.318 21.1114 100.856 21.1114C101.394 21.1114 101.86 21.1114 102.253 21.1114C105.357 21.1114 107.613 20.3739 109.02 18.8988C110.448 17.4033 111.162 15.1293 111.162 12.0768C111.162 10.6633 110.996 9.43406 110.665 8.38925C110.355 7.34443 109.827 6.47375 109.082 5.77721C108.337 5.08067 107.344 4.55826 106.102 4.20999C104.86 3.86172 103.319 3.68758 101.477 3.68758C99.966 3.68758 98.8071 3.7388 98 3.84123C97.1929 3.94366 96.5824 4.01536 96.1685 4.05634ZM96.1685 25.0755V43.452C96.3962 43.5954 96.7376 43.7081 97.1929 43.79C97.6482 43.8515 98.1552 43.9027 98.714 43.9437C99.2727 43.9641 99.8522 43.9846 100.452 44.0051C101.073 44.0051 101.642 44.0051 102.16 44.0051C104.312 44.0051 106.133 43.79 107.623 43.3598C109.134 42.9091 110.365 42.274 111.317 41.4545C112.269 40.6351 112.952 39.6312 113.366 38.443C113.8 37.2548 114.018 35.9129 114.018 34.4174C114.018 32.758 113.811 31.3342 113.397 30.146C113.004 28.9577 112.362 27.9846 111.472 27.2266C110.582 26.4686 109.444 25.9155 108.058 25.5672C106.671 25.1985 104.984 25.0141 102.998 25.0141C102.46 25.0141 101.87 25.0141 101.228 25.0141C100.608 25.0141 99.9867 25.0141 99.3659 25.0141C98.745 25.0141 98.1552 25.0243 97.5965 25.0448C97.0377 25.0448 96.5617 25.0551 96.1685 25.0755Z" fill="#004290"/>
<path d="M142.266 48C140.424 48 138.727 47.8566 137.175 47.5698C135.644 47.3035 134.268 46.9962 133.047 46.6479C131.826 46.2996 130.77 45.9718 129.88 45.6645C129.011 45.3572 128.328 45.1831 127.831 45.1421L128.359 33.8028H132.643L133.947 41.4238C134.299 41.8131 134.764 42.1818 135.344 42.5301C135.923 42.8784 136.585 43.1857 137.33 43.452C138.075 43.6978 138.882 43.8924 139.752 44.0359C140.621 44.1793 141.521 44.251 142.452 44.251C145.577 44.251 147.874 43.5749 149.344 42.2228C150.834 40.8502 151.579 38.9757 151.579 36.5992C151.579 35.3496 151.33 34.2535 150.834 33.3111C150.358 32.3688 149.654 31.5083 148.723 30.7298C147.812 29.9513 146.705 29.2241 145.401 28.548C144.098 27.8515 142.639 27.1344 141.024 26.3969C139.741 25.8233 138.365 25.137 136.896 24.338C135.447 23.5391 134.102 22.5659 132.86 21.4187C131.619 20.251 130.584 18.8988 129.756 17.3624C128.928 15.8259 128.514 14.0333 128.514 11.9846C128.514 10.2228 128.877 8.6146 129.601 7.16005C130.346 5.68502 131.381 4.41485 132.705 3.34955C134.05 2.28425 135.654 1.46479 137.517 0.891165C139.4 0.297055 141.49 0 143.787 0C145.215 0 146.571 0.102433 147.854 0.307298C149.137 0.512164 150.306 0.747759 151.361 1.01408C152.438 1.25992 153.379 1.51601 154.186 1.78233C154.993 2.02817 155.635 2.19206 156.111 2.27401L155.707 12.6914H151.579L150.058 5.46991C149.871 5.26504 149.561 5.06018 149.126 4.85531C148.712 4.62996 148.216 4.43534 147.636 4.27145C147.078 4.10755 146.446 3.97439 145.743 3.87196C145.039 3.74904 144.315 3.68758 143.57 3.68758C140.735 3.68758 138.655 4.23047 137.33 5.31626C136.027 6.40205 135.375 8.05122 135.375 10.2638C135.375 11.452 135.602 12.4968 136.058 13.3982C136.534 14.2791 137.217 15.0986 138.106 15.8566C138.996 16.5941 140.103 17.3214 141.428 18.0384C142.752 18.7554 144.263 19.5339 145.96 20.3739C147.492 21.1319 149.033 21.9513 150.585 22.8323C152.158 23.6927 153.565 24.6761 154.807 25.7823C156.069 26.8886 157.094 28.1588 157.88 29.5928C158.687 31.0064 159.091 32.6556 159.091 34.5403C159.091 36.1588 158.729 37.7772 158.004 39.3956C157.28 40.9936 156.214 42.4379 154.807 43.7286C153.4 44.9987 151.641 46.0333 149.53 46.8323C147.44 47.6108 145.018 48 142.266 48Z" fill="#004290"/>
<path d="M171.601 47.2932V43.9129L179.579 43.0525V4.20999L169.335 4.51729L167.038 16.9629H162.537L163.561 0.522407H202.922L203.698 16.9629H199.197L197.118 4.51729L186.905 4.20999V43.0525L195.503 43.9129V47.2932H171.601Z" fill="#004290"/>
<path d="M203.761 47.2932L203.729 43.9129L207.734 43.0525L223.472 0.122919H230.519L245.854 43.0832L249.827 43.9129V47.2932H233.002V43.9129L238.062 43.0525L235.144 34.1101H216.643L213.725 43.0525L218.971 43.9129V47.2932H203.761ZM224.59 9.86428L217.947 30.2074H233.84L227.228 9.86428L225.925 4.88604L224.59 9.86428Z" fill="#004290"/>
<path d="M272.736 48C269.239 48 266.124 47.4161 263.392 46.2484C260.681 45.0807 258.395 43.4417 256.532 41.3316C254.67 39.201 253.252 36.6504 252.279 33.6799C251.307 30.7093 250.82 27.411 250.82 23.7849C250.82 20.3022 251.421 17.1165 252.621 14.2279C253.821 11.3188 255.466 8.80922 257.557 6.6991C259.647 4.58899 262.089 2.95006 264.882 1.78233C267.697 0.614597 270.708 0.0307298 273.916 0.0307298C275.282 0.0307298 276.637 0.112676 277.982 0.276569C279.348 0.419974 280.621 0.604353 281.8 0.829706C283.001 1.03457 284.087 1.24968 285.06 1.47503C286.033 1.70038 286.809 1.86428 287.388 1.96671L286.829 12.8143H282.328L280.528 5.71575C279.99 5.12164 279.069 4.6402 277.765 4.27145C276.461 3.90269 274.661 3.71831 272.364 3.71831C270.439 3.71831 268.67 4.13828 267.055 4.97823C265.441 5.81818 264.044 7.05762 262.865 8.69654C261.706 10.315 260.795 12.3227 260.133 14.7196C259.492 17.096 259.171 19.8412 259.171 22.9552C259.171 25.6389 259.429 28.2612 259.947 30.822C260.464 33.3828 261.271 35.6671 262.368 37.6748C263.486 39.662 264.914 41.2702 266.652 42.4994C268.411 43.7081 270.522 44.3124 272.984 44.3124C274.123 44.3124 275.106 44.2612 275.933 44.1588C276.782 44.0359 277.517 43.8822 278.137 43.6978C278.758 43.493 279.286 43.2471 279.721 42.9603C280.155 42.653 280.538 42.315 280.869 41.9462L283.756 35.8924L287.761 36.507L286.239 45.5723C285.391 45.6133 284.563 45.767 283.756 46.0333C282.97 46.2791 282.069 46.5557 281.055 46.863C280.062 47.1498 278.903 47.4059 277.579 47.6312C276.254 47.8771 274.64 48 272.736 48Z" fill="#004290"/>
<path d="M336 47.2932H326.812C326.294 47.2932 325.673 46.863 324.949 46.0026C324.225 45.1216 323.449 43.9949 322.621 42.6223C321.793 41.2497 320.914 39.7132 319.982 38.0128C319.072 36.2919 318.14 34.5915 317.188 32.9117C316.237 31.2318 315.295 29.644 314.364 28.1485C313.432 26.653 312.543 25.4443 311.694 24.5224L305.548 31.5903V43.0832L311.384 44.0359V47.2932H293.224V43.9129L298.439 43.0525V4.73239L293.348 3.90269V0.522407H310.514V3.90269L305.548 4.73239V26.2433L323.397 4.76312L318.337 3.90269L318.306 0.522407H333.92V3.90269L329.233 4.73239L315.916 19.7593C316.909 20.5992 317.965 21.7567 319.082 23.2318C320.22 24.6863 321.358 26.274 322.497 27.9949C323.656 29.6953 324.794 31.4366 325.911 33.2189C327.029 34.9808 328.064 36.589 329.016 38.0435C329.967 39.4981 330.816 40.6965 331.561 41.6389C332.306 42.5813 332.875 43.073 333.268 43.114L336 43.9129V47.2932Z" fill="#004290"/>
</svg>
