<svg width="346" height="110" viewBox="0 0 346 110" fill="none" xmlns="http://www.w3.org/2000/svg">
  <g filter="url(#filter0_d)">
    <path
      d="M102 14.3095C102 14.0008 102 13.3836 101.803 13.2806C101.211 12.3547 100.915 11.2228 100.027 10.7086C99.9287 10.5029 99.9287 10.3999 99.6328 10.2966C99.5342 9.67946 99.6328 8.95928 99.3369 8.75328C98.4491 7.72437 97.7585 6.79847 96.5749 6.18129C94.3062 4.63793 91.5442 4.22647 88.7836 4.02074C86.3175 3.91774 83.8517 4.22647 81.3857 4.32947C79.4129 4.5352 77.0456 4.74147 75.0728 5.46111C71.6205 6.07828 68.5626 7.00447 65.2089 7.93037L55.5401 10.8114C55.2442 10.9144 55.0468 10.9144 54.8497 11.2234V11.5321C55.6389 11.3264 56.5266 10.9149 57.0199 12.1493C57.0199 10.6059 58.302 10.2975 59.2886 9.98874C60.8669 9.57674 62.445 8.95983 64.2204 8.6511C64.5163 8.5481 64.9108 8.34237 65.0096 8.5481C65.3055 8.9601 65.6014 8.75383 65.7988 8.5481C65.9405 8.32036 66.1467 8.14109 66.3906 8.03365C67.8701 7.72492 69.547 7.20964 71.0265 6.90201C71.7549 6.62275 72.5187 6.44954 73.2952 6.38756C74.7748 6.18183 76.3531 6.07884 78.2271 5.66738C78.4245 5.77038 78.4245 5.77038 78.4245 6.07939C78.4245 6.07939 78.4245 6.18239 78.6218 6.18239C77.3488 6.27263 76.0907 6.51436 74.8736 6.90256C75.0042 6.99365 75.1092 7.11746 75.1783 7.26189C75.2474 7.40632 75.2784 7.56643 75.268 7.72657C74.6889 7.30665 74.006 7.05737 73.2952 7.00639C72.7034 7.00639 71.9143 7.52084 71.1251 7.41839C70.2374 7.41839 70.3359 8.65303 69.6456 8.85875C68.9552 7.93285 68.8564 7.82985 68.0672 8.03475C67.278 8.34348 66.5877 8.75492 65.9959 8.96065V9.26938C66.3903 9.06365 66.8836 9.06365 67.278 8.96065C66.8836 9.26938 66.3903 9.57783 66.3903 9.78466C66.193 10.6087 65.6011 10.2991 65.0093 10.2991C64.7826 10.4794 64.5078 10.5869 64.2202 10.6078C63.7269 10.8136 63.1343 10.6078 62.4447 10.6078C62.6705 10.5745 62.8788 10.4658 63.0365 10.2991C63.6384 10.1244 64.231 9.91837 64.812 9.68193C64.9105 9.68193 64.9105 9.47621 65.0093 9.26993C64.9108 9.0642 64.7134 8.9612 64.6149 9.06421C64.1216 9.47621 63.8257 9.68138 63.3327 9.68138C62.2468 9.68138 61.6558 10.4016 60.8666 10.813C60.5997 10.8237 60.333 10.7889 60.0775 10.71V11.534C59.7102 11.5701 59.3469 11.639 58.9916 11.7397C59.1889 11.534 59.2875 11.2253 59.4849 11.1226C59.0904 11.1226 58.5971 11.1226 58.5971 11.2256C58.3998 12.0496 57.6109 12.0496 57.2161 12.3572C56.8204 12.7387 56.3912 13.083 55.934 13.3861C55.934 13.3861 55.5395 13.2831 55.4407 13.0774C55.4407 12.9744 55.2434 12.9744 55.2434 12.9744C54.7501 14.0033 53.7638 13.2831 52.9747 13.3864C52.3828 13.5921 51.791 13.0777 51.4951 14.0036C51.3966 14.1066 50.8048 14.1066 50.3115 14.2093C50.213 14.8265 49.4238 15.5469 49.1279 15.3409L49.0293 14.8265C49.4082 14.6136 49.7712 14.3729 50.1152 14.1063C49.6477 14.1034 49.1828 14.0341 48.7342 13.9006C49.1128 13.5807 49.5479 13.3363 50.0164 13.1804L49.7205 13.0774C48.5369 13.3861 46.9585 14.1063 45.7749 14.6207C46.0708 15.1352 46.0708 15.7524 46.1694 16.0611C46.4653 15.7524 46.8597 14.9295 47.2553 14.6207C47.7873 14.2833 48.4028 14.105 49.0307 14.1063C49.0307 14.2093 49.1292 14.2093 49.1292 14.5183C48.8765 14.6095 48.6074 14.6447 48.3401 14.6213C48.1427 14.7243 48.0442 15.0333 47.6497 15.1357C47.4523 15.5477 47.3538 15.9597 47.1564 15.9597C46.4661 16.4742 45.6769 16.5769 44.9863 16.8857C44.7889 17.0914 44.3945 17.1944 44 17.2977C44.1974 17.1947 44 17.1947 44 17.1947C44.2959 16.8859 44.3945 16.6802 44.7892 16.5775C43.4082 16.5775 42.619 17.1947 41.8301 18.2236C41.9287 18.1206 41.9287 17.8116 41.9287 17.8116C41.5598 17.6358 41.1507 17.5647 40.7451 17.6058C41.4354 16.8857 41.6328 16.5769 41.9287 16.5769C41.2383 16.5769 40.4492 16.8857 39.7585 17.1941C38.0816 17.3998 37.0954 19.0459 35.4185 19.3546C35.1277 19.4291 34.8578 19.5701 34.6293 19.7666V20.0754L36.7006 19.7666C36.5252 19.9623 36.3264 20.1351 36.1088 20.2811C36.6021 20.3841 36.7006 20.3841 36.898 20.5898C36.0103 21.0018 35.4185 21.7215 34.9252 21.8245C34.7279 22.0302 34.7279 22.2365 34.6293 22.2365C33.8401 22.0307 33.2483 22.2365 32.7561 23.1624C32.7561 23.3681 32.5588 23.3681 32.4602 23.4711C32.2372 23.5431 32.004 23.5779 31.7699 23.5741C30.7836 24.2943 29.7971 24.603 28.712 24.3981C28.6288 24.5318 28.5117 24.6405 28.3729 24.7129C28.2342 24.7854 28.0787 24.8189 27.9228 24.8101C27.1337 25.4273 26.9366 25.9417 27.7255 26.7649C27.7122 26.7647 27.6991 26.7673 27.6868 26.7725C27.6746 26.7777 27.6635 26.7853 27.6543 26.7949C27.645 26.8046 27.6379 26.816 27.6332 26.8286C27.6285 26.8411 27.6263 26.8545 27.6269 26.8679C27.5284 26.7649 27.2325 26.7649 27.0351 26.7649C26.7392 26.6619 26.3448 26.2505 26.0489 26.2505C25.9503 26.2505 25.8515 26.7649 25.6544 26.7649C25.1611 26.7649 24.6681 26.7649 24.2734 27.0736C23.3857 27.4856 22.6951 28.3083 22.0047 28.7197C21.117 29.2342 20.1316 29.4399 19.3416 30.0574L19.1442 29.9544C19.736 29.3372 20.1305 29.1304 20.7226 28.617C20.4229 28.5943 20.1217 28.6293 19.8348 28.72C19.6375 28.72 19.4404 28.823 19.0457 29.132C18.9471 29.235 18.9471 29.3377 18.8483 29.3377C18.7279 29.2882 18.6255 29.2024 18.555 29.092C18.4844 28.9816 18.4491 28.8519 18.4539 28.7206C17.9606 28.9263 17.6647 29.235 17.2702 29.3377C17.5548 29.4713 17.8523 29.5748 18.1579 29.6465V29.9552C17.9055 30.0601 17.6399 30.1293 17.3688 30.1609C16.9743 29.5437 16.4811 30.0579 16.1851 30.3666C15.7907 30.5724 15.4948 31.0868 15.0993 31.0868C12.6482 32.814 10.3688 34.7781 8.29315 36.9513C6.71481 38.3916 5.53118 40.3464 4.74228 42.1974C4.24902 43.0214 3.85457 44.2552 4.05193 45.0781C3.94635 46.4913 4.04605 47.9125 4.34783 49.2965C4.68343 50.6746 5.14578 52.0179 5.72882 53.3088C6.41917 54.5435 7.70161 55.3667 8.68787 56.3953C8.98378 56.704 9.57559 56.704 9.67414 56.9097C9.97004 57.6299 10.6604 58.1444 11.4496 58.5558C12.0414 59.0703 12.4358 59.4817 13.0279 59.7905C13.8171 60.4076 14.9011 60.6145 15.5925 61.0251C15.494 61.1281 15.494 61.1281 15.494 61.2308C15.1256 61.2582 14.7613 61.3272 14.4081 61.4365C15.5917 61.7453 16.9727 61.4366 17.7619 61.951C18.9455 62.1567 19.635 62.775 20.7209 63.1856C21.9703 63.5758 23.1901 64.0572 24.3706 64.626C25.061 65.038 25.949 65.3462 26.9352 65.8606C27.8548 66.4369 28.8103 66.9525 29.7957 67.404C31.6268 68.0985 33.4068 68.9236 35.1223 69.8733C36.1086 70.2853 37.0951 71.1079 38.2787 71.5193C39.5609 72.2395 40.8433 73.4742 42.5202 73.8856L42.7176 73.9886C43.4079 74.5031 44 75.0175 44.6904 75.326L44.9863 75.738C45.2822 75.841 45.5781 76.2524 46.0722 76.562C45.8825 77.0594 45.7501 77.5772 45.6777 78.1053C45.7763 78.1053 45.7763 78.2083 45.8751 78.2083C46.2526 77.8392 46.5838 77.4246 46.8614 76.9737C47.107 77.2991 47.4076 77.578 47.7491 77.7977C47.2558 78.1064 46.7628 78.8266 46.4669 78.9293C45.5792 78.9293 44.79 79.1351 44.3956 79.6495V79.8552C43.4001 79.9683 42.4121 80.14 41.4365 80.3697C41.3596 80.3715 41.2842 80.391 41.2159 80.4266C41.1475 80.4623 41.0881 80.5132 41.042 80.5754C41.1406 80.5754 41.1406 80.7812 41.1406 80.7812C41.5377 80.7721 41.9345 80.8066 42.3242 80.8841C42.6201 80.8841 43.1134 81.0899 43.3105 81.0899C43.5078 80.7812 43.5078 80.3697 43.6064 80.3697C44.4941 80.164 45.3818 80.061 46.2695 79.3408H46.4669C46.9602 79.2378 47.6505 78.9288 48.4397 78.8263C48.6371 78.8263 49.0315 78.8263 49.1301 78.9293C49.3274 79.0323 49.3274 79.3413 49.426 79.6495C49.549 79.711 49.6833 79.746 49.8204 79.7525L48.5382 80.5765C49.0315 81.4005 49.426 80.9885 49.8204 80.8852C51.1026 80.3708 51.4973 80.3708 52.2865 81.6054C52.4561 81.9266 52.6914 82.2075 52.9768 82.4294C53.9631 83.1496 53.9631 83.9728 53.2727 85.2074C51.9906 87.1622 50.5108 88.2939 48.538 89.5285C47.7488 89.9405 46.8611 90.3525 46.1707 90.7631C45.0848 91.1751 44.0006 91.4833 43.1129 91.792C41.6333 92.204 40.2523 92.3065 38.8713 92.821C38.3781 93.0267 37.6877 93.0267 37.0959 93.3354C37.0959 93.4384 36.8986 93.6441 36.8986 93.8499C36.7012 93.1297 36.1094 93.1297 35.5176 93.0258C34.2351 92.8201 32.6571 92.8201 31.1775 92.6138C30.5602 92.6364 29.948 92.4943 29.4021 92.2018C28.7117 91.8931 28.7117 90.9672 29.2047 90.35C29.5076 89.9826 29.8373 89.6386 30.191 89.3211C30.8813 88.9091 31.3746 88.3952 32.0642 88.2922C33.5437 87.4682 35.2206 87.0576 36.8964 86.2344C37.0937 86.0287 37.3896 85.9257 37.3896 85.8224C37.4882 85.4104 37.587 85.4104 38.08 85.4104H38.7704C38.7704 85.3074 38.8689 84.896 38.8689 84.5864C38.7704 84.3807 38.573 84.1744 38.3756 83.8662C37.4879 84.4834 36.7973 85.3066 35.4166 85.2036C34.9233 85.1006 33.6411 84.5864 33.6411 86.2325C33.2467 85.8205 32.7534 85.6153 32.1616 85.2036C32.6549 84.9979 33.2475 84.4834 33.6411 84.3796C34.1214 84.1809 34.5835 83.9399 35.0221 83.6594C35.5154 83.5564 36.108 83.3507 36.8953 83.1449C37.5857 82.6305 38.5722 82.4248 39.5584 82.0133C40.0828 81.8002 40.5796 81.5236 41.038 81.1893C40.9841 81.1333 40.9495 81.0611 40.9394 80.9836C40.3476 81.0866 39.8535 80.9836 39.3611 81.0866C38.5306 81.4529 37.7377 81.9009 36.9938 82.4242C36.8544 82.4091 36.7142 82.4457 36.5994 82.5272C35.91 82.6089 35.2412 82.8181 34.6266 83.1444C34.4292 83.2474 34.0348 83.2474 33.6403 83.4531C33.2459 83.6588 32.6541 83.8651 32.1608 84.1733C31.8288 84.1565 31.4962 84.1913 31.1745 84.2763C31.2731 84.0706 31.2731 83.6591 31.4704 83.5561V83.3504C31.2201 83.0294 30.9204 82.7511 30.5827 82.5264C29.0044 83.5553 27.3278 84.2755 25.6509 85.4071C25.1567 85.6164 24.7097 85.9249 24.3367 86.314C23.9637 86.703 23.6725 87.1646 23.4807 87.6707C23.1848 88.1851 23.3822 88.9053 23.0863 89.5225C22.2015 92.1928 23.977 95.2787 25.9495 96.3081C27.7249 97.6455 30.0925 97.3371 32.1638 97.9542C32.6571 97.9542 33.2497 98.0572 33.5448 97.9542C36.7997 97.9542 39.8576 97.7485 42.8167 96.9253C44.4936 96.5133 45.5786 95.9994 46.9594 95.5877C49.3266 94.6618 51.5953 93.3241 54.0614 91.8838C55.245 91.1636 56.626 89.929 56.5274 87.8714C56.4289 87.357 56.626 86.6368 56.5274 86.1223C56.4289 84.8877 56.5274 83.4473 55.4415 82.4184C54.8608 81.5855 54.4577 80.6395 54.2579 79.6404C53.7646 78.9203 53.962 78.8164 54.7512 78.4058C55.8371 78.3028 56.6243 78.0971 57.2172 77.1712C56.5269 76.9655 56.4281 76.9655 55.8363 77.6856C54.85 78.2001 53.2716 78.0976 52.4825 77.4799V77.1717C52.9757 76.863 53.3702 76.4516 53.962 76.1428C52.7784 75.5257 51.7918 76.863 51.0029 75.6284C51.2989 75.6284 51.4962 75.5254 51.6933 75.5254C51.7065 75.5253 51.7196 75.5226 51.7317 75.5174C51.7439 75.5122 51.7549 75.5045 51.7641 75.4949C51.7733 75.4853 51.7805 75.474 51.7852 75.4615C51.79 75.449 51.7922 75.4357 51.7918 75.4224C51.3974 75.3194 51.0027 75.3194 50.706 75.2166C50.5086 75.2166 50.0156 75.2167 49.8182 75.0109C49.3536 74.1372 48.5777 73.4751 47.6481 73.1591C44.8954 70.9017 41.9208 68.9366 38.7709 67.2947C38.0805 66.9859 37.3899 66.6775 36.9955 66.2658C36.7981 66.1628 36.4037 66.06 36.0092 65.8538C36.0092 65.8538 35.8118 65.4418 35.7133 65.4418C34.135 64.7216 32.5569 63.6927 30.9785 62.9725C29.5976 61.9436 27.9207 61.8409 26.737 60.9147C24.9616 59.8858 23.1862 59.2686 21.5093 58.5484C19.9309 57.6225 18.4514 57.2111 17.0704 56.3879C15.5909 55.7707 14.3085 55.1532 12.9275 54.5361C12.0398 54.0216 10.7573 53.5072 9.77105 52.787C7.89789 51.5523 7.20644 50.8322 7.89789 48.1572C7.92796 47.875 7.99431 47.598 8.09525 47.3332L7.7008 47.2302C7.9967 46.51 8.19406 45.3783 8.39115 44.5552C9.67332 44.6582 10.2643 43.835 10.4625 42.6004C10.6599 42.4974 11.1528 42.2916 11.2517 42.0859C11.3969 42.0678 11.5295 41.9933 11.6215 41.8781C11.7135 41.763 11.7578 41.6162 11.7449 41.4687C12.3367 40.6447 12.7312 40.0284 13.6181 39.8226C13.8155 39.7196 13.914 39.4106 14.0125 39.1025C14.407 38.7937 14.407 38.588 14.6044 38.1766C15.3935 37.7645 16.1827 37.0449 17.2675 36.4275L21.5109 33.4459C22.0042 33.3429 22.5968 32.9315 22.3001 32.2113C22.725 32.0264 23.1231 31.7842 23.4837 31.4911C23.0893 32.0056 22.9904 32.2113 22.7933 32.3151C22.7933 32.6239 22.7933 32.6239 22.8919 32.7271C23.5823 31.6982 24.9632 32.3151 25.358 31.081C25.0621 31.081 24.8647 30.8753 24.3717 30.8753C24.6891 30.6825 25.0186 30.5106 25.358 30.3609C26.6725 29.4882 28.0585 28.7309 29.5006 28.0973C31.4734 26.9657 33.3474 25.7311 35.4188 25.0109C35.5173 24.9079 35.8132 24.5989 35.912 24.5989C38.2793 23.57 40.2521 22.4383 42.5208 21.4094C43.9017 20.6893 45.6772 20.3805 46.9596 19.6603C50.7079 17.8085 54.5549 16.4709 58.4017 15.1335C60.7689 14.2076 63.3335 13.7962 65.8981 12.973C66.4899 12.7673 67.0818 12.3558 68.0683 12.149C70.5344 11.5318 73.0002 10.8114 75.5648 10.2972C75.6718 10.1662 75.7706 10.0286 75.8607 9.88519C76.1566 9.57646 76.4525 9.47319 76.8469 8.95928C76.7484 9.26801 76.8469 9.26801 76.8469 9.47373C76.7935 9.64051 76.7604 9.81328 76.7484 9.98819C77.3027 9.88509 77.8709 9.88509 78.4253 9.98819C79.1305 9.74593 79.8573 9.57364 80.5954 9.47373C82.2723 9.57674 83.8504 9.57674 85.6261 8.95928C85.8235 8.75355 85.922 8.75355 86.0205 8.75355C87.796 8.75355 89.2755 8.85655 90.755 8.85655C90.9232 8.86922 91.089 8.90384 91.2483 8.95955C92.1895 9.05594 93.1165 9.26307 94.0103 9.57674C94.2076 9.67974 94.6021 9.67973 95.1939 9.78246C94.6021 9.98819 94.4047 10.0912 94.2076 10.0912V10.2964C94.5962 10.3816 94.994 10.4162 95.3913 10.3994C95.6698 10.5477 95.9692 10.6518 96.279 10.7081C97.66 10.8111 97.9559 11.2225 97.66 12.4572C97.3641 13.5888 97.3641 13.5888 98.3503 13.8975C97.857 14.6177 97.66 15.6466 97.0682 16.2638C97.0682 16.3668 96.8708 16.5725 96.5749 16.5725C96.4763 16.5725 96.1804 16.3668 96.0816 16.3668C96.1388 16.1212 96.2782 15.9032 96.4761 15.7496L97.0679 14.8237C97.2904 14.5892 97.4588 14.3078 97.5611 13.9997C97.2606 14.0459 96.9639 14.1147 96.6734 14.2054C95.7857 15.0294 95.6872 16.5717 94.5033 17.1892C94.5033 17.3949 94.4047 17.3949 94.4047 17.6012C94.4047 17.7042 94.3062 17.8069 94.4047 18.0132C94.6258 18.1096 94.8576 18.1787 95.0951 18.2189C95.0984 18.0291 95.1683 17.8468 95.2924 17.7044C95.1939 16.6755 95.7857 17.0873 96.1802 16.8804L96.2787 17.0862C95.6958 18.0553 94.9631 18.9236 94.1086 19.6582C94.1086 19.1437 93.8126 19.041 93.7141 18.5265C93.5167 18.9385 93.1223 19.1437 92.5305 19.3505C92.5305 19.3505 92.5305 19.6593 92.7278 19.7625C92.8264 19.7625 93.3196 19.7625 93.4182 19.8655C93.5167 19.8655 93.6155 20.1743 93.6155 20.2775C93.7141 20.3805 93.7141 20.5863 94.01 20.6895C93.6155 20.7925 93.5167 20.9983 93.0237 21.1015C92.8687 21.0313 92.7003 20.9961 92.5305 20.9985C93.0237 20.7928 93.4182 20.3814 93.6164 20.2784C93.2539 20.2074 92.8792 20.2368 92.532 20.3636C92.1847 20.4904 91.8777 20.7098 91.6436 20.9985C90.3614 21.9244 89.2763 23.0561 88.0927 24.188C87.7793 24.4083 87.5113 24.6881 87.3035 25.012C87.9939 25.9379 86.8103 25.7322 86.3173 26.1436C86.4368 26.2805 86.5889 26.3842 86.7591 26.4448C86.9294 26.5055 87.1122 26.5211 87.2901 26.4901C87.468 26.4592 87.6351 26.3828 87.7756 26.2681C87.9161 26.1534 88.0252 26.0043 88.0927 25.8349C88.3886 25.1147 88.586 24.806 89.3751 24.6003C90.0655 24.3945 90.461 23.7762 90.0655 23.0569C90.7274 22.762 91.3044 22.3018 91.7424 21.7195C91.8874 21.6184 92.0594 21.5642 92.2355 21.5642C92.4117 21.5642 92.5836 21.6184 92.7286 21.7195C92.6175 22.0037 92.4856 22.2791 92.3342 22.5435C92.1368 22.7493 92.3342 22.7493 92.3342 22.7493C92.673 22.5983 93.0024 22.4265 93.3205 22.2348C93.8137 21.7204 94.3067 20.8972 94.8 20.28C95.7863 19.0454 96.9701 17.708 97.9564 16.5761C97.9564 16.5761 98.1538 16.4731 98.1538 16.3704L99.2397 14.3126C99.4113 14.184 99.618 14.1121 99.8315 14.1068C99.93 14.1068 100.029 14.3126 99.93 14.3126C99.8315 15.1366 100.127 16.3704 99.2397 17.0906C98.2534 18.0165 98.1538 19.1481 97.9572 20.5887C96.971 20.28 96.5762 20.6917 96.5762 21.7204C96.5762 21.8234 96.5762 22.2348 96.4777 22.2348C95.8859 22.852 95.4914 23.5724 94.9982 24.1896C94.3078 24.6016 93.6172 25.2185 93.3213 25.9387C93.1239 26.0417 93.1239 26.5559 93.1239 26.8646C93.3213 26.9676 93.3213 27.0703 93.5184 27.1733C93.8143 27.1733 95.0967 26.3493 95.0967 25.9387C94.8008 25.0128 95.4912 24.3954 95.8859 23.8809C96.0474 23.7193 96.2539 23.6116 96.4777 23.5722C97.0695 24.0866 97.1681 23.4692 97.3654 23.1602C97.5628 22.7482 97.8587 22.6457 98.1546 22.44C98.3536 22.0513 98.621 21.7026 98.9438 21.4111C99.8346 20.3682 100.658 19.2684 101.41 18.1186C101.706 17.7066 102.002 17.0897 101.804 16.5753C101.704 15.8526 101.901 15.0297 102 14.3095ZM80.8913 5.77011C80.694 5.77011 80.4969 6.07883 80.4969 6.28456C80.1024 6.90174 79.5106 6.18156 78.9185 6.38756C78.8065 6.12638 78.7398 5.84764 78.7212 5.56356C80.1022 5.35783 81.2858 5.0491 82.272 5.0491C82.6316 4.8395 83.0408 4.73278 83.4557 4.74038C83.653 4.63738 84.146 4.74038 84.3434 4.74038C83.4559 5.46221 82.075 6.18156 80.8913 5.77011ZM84.4422 6.79901C84.7381 6.90201 85.2314 6.59329 85.8232 6.59329C85.034 5.76929 84.2448 6.90201 83.5545 6.38756C84.0326 6.14667 84.527 5.94043 85.034 5.77038C85.3299 5.97611 85.8232 6.07911 86.0203 6.28484C85.8232 7.21047 84.7384 7.72492 84.4422 6.79901ZM79.4115 7.5192C78.6224 7.5192 78.0305 8.03365 77.1428 7.5192C78.1291 7.21047 78.7212 7.41619 79.5101 7.21047C79.5107 7.32135 79.4763 7.42955 79.4118 7.5192H79.4115ZM73.1972 9.06255C73.1972 8.95955 72.9999 8.85683 72.9013 8.75383C72.5949 9.06042 72.3296 9.40634 72.1122 9.78274C71.9716 9.50025 71.7692 9.25393 71.5203 9.06255C71.0271 9.26828 70.6326 9.47456 70.0408 9.78274C70.002 9.60187 69.9354 9.42828 69.8435 9.26828L71.1256 8.6511C70.8297 8.5481 70.8297 8.34238 70.6324 8.03392C71.0654 8.0597 71.4949 8.1286 71.9145 8.23965C72.0637 8.21356 72.2014 8.14175 72.309 8.03392C72.8022 7.51947 73.1967 7.41674 73.69 8.13692C73.69 8.23992 73.8873 8.23992 73.9859 8.54893C73.7456 8.75307 73.4807 8.92557 73.1975 9.06228L73.1972 9.06255ZM74.8741 8.65055C74.8741 8.34182 74.8741 8.34182 74.7756 8.23855C75.2961 8.16187 75.7979 7.98739 76.2551 7.7241C76.2583 7.78855 76.2783 7.85101 76.3129 7.90521C76.3476 7.9594 76.3957 8.00341 76.4525 8.03282C75.9118 8.19842 75.3843 8.405 74.8744 8.65083L74.8741 8.65055ZM66.6873 10.2964L66.5888 9.88436C67.2791 9.67864 68.0683 9.57564 68.7589 9.26718C68.8305 9.4287 68.8642 9.60476 68.8575 9.78164C68.1074 9.80511 67.3695 9.98012 66.6873 10.2964ZM44.4938 15.7499C44.7897 15.7499 44.9871 16.0586 45.283 16.5739C45.3815 16.2652 45.5789 15.9567 45.5789 15.7499C45.5789 15.5431 45.0856 14.9259 44.9871 15.0297C44.0008 15.6469 42.8169 16.0586 41.9292 16.5731C42.49 16.5844 43.0508 16.55 43.6061 16.4701C43.5073 15.8526 44.1979 15.6469 44.4938 15.7499ZM40.6471 18.9393C40.6471 18.5273 40.3512 18.4249 40.3512 18.2192C39.9037 18.6522 39.5066 19.1354 39.1675 19.6595C38.8716 19.6595 38.8716 19.2475 38.7731 19.2475C38.8276 19.1624 38.9002 19.0905 38.9855 19.0372C39.0708 18.9838 39.1667 18.9502 39.2663 18.9388C39.31 18.7686 39.4157 18.6214 39.5622 18.5268L39.8582 17.7028C40.3514 17.8058 40.7459 18.2172 41.2391 18.423C41.1103 18.4626 40.9911 18.529 40.8891 18.6179C40.7871 18.7068 40.7045 18.8163 40.6468 18.9393H40.6471ZM35.4193 20.8942C35.4193 20.8942 35.3208 20.7912 35.4193 20.5854C34.7289 20.7912 34.5316 20.9974 33.841 21.0999C33.2491 21.4086 32.6573 21.0999 32.0655 20.9969L31.967 21.4089C32.6573 21.5119 33.2491 21.7176 33.8401 21.7176C34.5313 21.7171 34.9258 20.9969 35.419 20.8939L35.4193 20.8942ZM22.0042 27.4785C22.9904 27.993 23.8773 26.7583 24.7661 26.5526C25.9498 25.9354 27.2322 24.5978 28.7117 24.3921C29.3035 24.1863 29.8954 23.5681 30.4872 23.2604C30.4692 23.1481 30.4236 23.0422 30.3547 22.9524C30.2858 22.8625 30.1957 22.7915 30.0927 22.746C31.1786 22.746 31.9659 23.0547 32.6573 22.2315C31.967 21.8195 31.079 23.0555 30.4872 21.7171C29.9939 22.0258 29.3035 22.3342 28.9088 22.746C28.7115 23.3632 28.5144 23.57 27.7252 23.3631C27.6483 23.365 27.5729 23.3845 27.5046 23.4201C27.4363 23.4557 27.3768 23.5066 27.3308 23.5689C27.0019 23.955 26.5993 24.27 26.1471 24.4948C26.0486 24.8035 25.9498 25.215 25.6539 25.3188C25.0621 25.4218 24.2729 25.8332 23.4837 25.936C23.3852 25.936 23.3852 25.936 23.1878 26.039L23.6811 26.2447C22.9807 26.6095 22.1996 26.7866 21.4124 26.7591C20.722 27.0679 20.0314 27.7881 19.6369 27.9938C19.9087 28.3311 20.2967 28.5516 20.7228 28.611C21.215 28.4047 21.5109 27.993 22.0042 27.4785ZM83.7518 30.1549L82.8641 30.9789V31.2876C83.2586 31.0819 83.5545 31.1846 83.7518 31.0819C84.3437 30.7731 84.9355 30.156 85.5273 29.4358C86.2176 28.9213 87.1056 28.5099 87.9933 27.7897C88.4866 27.0695 89.0792 26.5551 89.4729 25.9379C89.4729 25.8349 89.3743 25.8349 89.3743 25.7322C88.9294 25.8984 88.5001 26.105 88.0919 26.3493C87.5001 27.0695 86.6124 28.0984 85.6258 28.5099C85.4285 28.5099 85.4285 28.7156 85.3299 28.8186C84.7189 29.1498 84.1817 29.6046 83.7518 30.1549ZM91.7416 27.1711C91.643 27.5832 91.2483 27.7883 90.9524 27.9952C91.1498 28.4072 91.5442 28.5096 91.7416 28.7153C91.5442 29.3325 91.1498 29.3325 90.8539 29.1273C90.558 29.1273 90.3606 28.9216 90.262 28.9216C89.8692 28.8694 89.4713 28.8694 89.0784 28.9216C89.0998 29.6452 89.1657 30.3668 89.2758 31.0821L89.1772 31.4941C90.0409 31.2177 90.8688 30.8378 91.6433 30.3625C91.8407 30.3625 91.8407 30.0538 92.0378 29.6423C92.1302 29.3079 92.1635 28.9596 92.1363 28.6134H92.3337C91.9389 28.3017 91.9389 27.7872 91.7416 27.17V27.1711ZM85.8235 27.5832C85.7034 27.4942 85.5703 27.4248 85.429 27.3774C85.2905 27.3731 85.1537 27.4088 85.0346 27.4804C84.7387 27.5834 84.5413 27.9949 84.3442 28.0976L84.4427 28.3033C84.7522 28.3243 85.0609 28.2528 85.3305 28.0976C85.4293 28.0949 85.8232 27.7872 85.8232 27.5815L85.8235 27.5832ZM83.5548 27.9952C82.7721 28.602 81.948 29.152 81.0887 29.6412C82.1746 30.1557 83.6533 29.5382 84.3437 28.9211C83.9814 28.7146 83.7022 28.3862 83.5545 27.993L83.5548 27.9952ZM89.3743 30.9789C89.4974 30.6856 89.5643 30.3714 89.5717 30.053C89.7691 29.95 90.262 29.95 90.7553 29.641C90.1635 30.3595 89.6702 30.5652 89.3743 30.9767V30.9789ZM15.5925 32.6228C16.2829 31.2854 17.4657 30.9767 18.2557 30.3592C18.453 30.3592 18.453 30.3592 18.453 30.4622C17.5653 31.1824 16.875 31.9026 15.5925 32.6228ZM77.7349 32.6228C77.1431 33.5487 76.1566 34.2688 75.6636 33.7544C74.5777 33.9601 74.2826 34.6803 73.7904 35.2978C73.7904 35.7098 73.2971 35.7098 72.9027 36.1218C73.593 36.5338 73.889 36.5338 74.3822 36.0188C74.6353 35.5484 75.0109 35.157 75.4681 34.8871C75.6655 34.6814 76.1585 34.5784 76.2573 34.4751C77.145 34.0631 77.9342 33.4462 78.9204 32.726C78.8219 32.1089 79.019 31.902 79.9067 31.902C80.2026 32.005 80.4 31.6963 80.5971 31.3876C80.3011 31.0789 79.8079 30.9756 79.4134 30.8731C78.7212 32.2113 78.5241 32.7258 77.7349 32.6228ZM87.698 30.9767C86.9088 31.2854 86.7117 31.9026 86.2185 32.1083C87.3043 33.1372 87.8953 33.0342 88.6845 31.9026C88.0919 32.0056 87.6974 31.9026 87.6974 30.9767H87.698ZM80.9907 32.9315C81.1881 32.7258 81.484 32.3143 81.7799 32.2113C82.2731 32.1083 82.3717 31.9026 82.3717 31.0797C81.484 31.9037 80.8921 32.3143 80.103 32.9315C80.694 33.4459 80.694 33.4459 80.9899 32.9315H80.9907ZM85.8229 32.9315C85.9215 32.8285 85.4285 32.6228 85.0337 32.8285L82.9624 34.4746C82.9624 34.4746 82.9624 34.6803 83.2583 34.8866C83.5542 34.7836 83.8501 34.4746 84.2446 34.3721C84.2446 34.4751 84.3431 34.4751 84.4419 34.5779C83.8501 35.0923 83.4557 35.5038 82.765 35.6068C82.6665 35.6068 82.6665 35.5038 82.5677 35.5038C82.6486 35.273 82.6821 35.0279 82.6662 34.7836C82.173 34.6806 81.9759 34.6806 81.68 34.4748C81.4826 34.6806 81.68 34.6806 81.68 34.7836C81.2855 35.1956 80.8908 35.6076 80.3978 36.2239C79.9176 36.4229 79.4555 36.6638 79.0168 36.9441C78.7209 37.0471 78.6224 37.2528 78.2276 37.5613C77.8029 37.7014 77.4033 37.9098 77.044 38.1785C77.0685 38.4749 77.1707 38.7593 77.3399 39.0025C77.6358 39.5169 77.6358 39.5169 76.9455 39.6197C76.2551 39.8254 75.7618 40.2368 75.17 40.6486C74.4797 41.0606 73.8876 42.0889 73.1972 41.0606C73.0987 40.8548 72.9999 40.8548 72.8028 41.0606C72.0136 41.2663 71.4218 41.575 71.8163 42.8097C71.5342 42.5918 71.2703 42.3509 71.0271 42.0895C70.3367 42.8097 69.5476 43.2211 68.7584 43.9413C68.3639 44.147 67.9692 44.147 68.1666 45.0729C67.8271 44.9142 67.4539 44.8435 67.0807 44.8672L66.3903 44.7642C65.9959 45.1762 65.7 45.6901 65.2067 45.8958C64.9108 46.3078 64.5163 46.3078 64.1208 46.513C63.2331 46.7187 62.3454 46.616 62.2476 47.8504C61.5573 47.3359 60.6693 47.8504 60.1763 48.8793C59.7818 48.9823 59.0904 49.085 59.0904 49.188C58.9919 49.7025 58.9919 49.9082 58.4 49.8055C58.1041 49.8055 57.3142 49.8055 57.1176 49.7025C56.7232 48.9823 56.3284 48.5708 55.1448 49.188C55.5393 48.4678 55.6381 48.1591 56.0325 47.6446C56.3284 47.4389 56.5258 47.3359 56.6243 47.1302C56.6243 47.5422 56.8217 47.6446 57.0188 48.2618C57.2162 47.6446 57.2162 47.4378 57.3147 47.1302C57.5688 47.2215 57.8032 47.3614 58.0051 47.5422C58.1036 47.4392 58.1036 47.4392 58.301 47.4392C58.1036 47.1305 58.1036 46.822 57.9065 46.4103C57.9065 46.4103 57.2161 46.4103 57.1173 46.5133C56.6241 46.6163 56.6241 46.822 56.3282 46.9253C55.8349 47.131 55.1445 47.131 54.7498 47.4397C54.6852 47.3501 54.6507 47.2419 54.6513 47.131L55.539 46.5138C55.6375 46.4108 55.8349 46.4108 55.9334 46.3081C56.1308 45.9994 56.4267 45.6907 56.5252 45.7937C57.2156 46.4108 58.0048 45.5879 58.5966 45.0735C59.0899 44.7647 59.7802 43.8388 60.4698 43.9418C61.456 43.8388 62.2452 42.6045 63.7247 42.6045C63.2315 42.9132 63.2315 43.1189 63.0344 43.2217C62.4426 43.7361 62.0481 43.9418 61.456 44.5593C60.7657 44.6623 60.075 44.9713 59.5829 44.9713C58.991 45.0743 58.5966 45.4857 58.5966 46.4117C59.7802 45.7945 60.6679 45.3827 61.6545 44.9713C61.753 45.0743 61.753 45.3833 61.753 45.6915C62.2463 45.3827 62.5422 45.0743 63.0352 44.8675C63.0352 44.6617 62.8378 44.353 63.0352 44.353C63.8244 43.7358 64.4162 43.1184 65.2053 42.6039C65.7971 42.5009 65.7971 42.3982 65.8957 41.7799C65.4024 42.0886 65.008 42.0886 64.7121 42.2944C64.6135 42.0886 64.6135 42.0887 64.5147 42.0887L65.008 41.2646C65.4181 41.0136 65.8133 40.7384 66.1916 40.4406C65.4024 40.7494 64.1203 40.3376 63.9229 41.6753C63.7369 41.5696 63.5777 41.4217 63.4579 41.2431C63.3381 41.0645 63.261 40.8603 63.2325 40.6464C62.3509 41.1504 61.4958 41.7008 60.6709 42.2952C60.6841 42.2952 60.6972 42.2979 60.7094 42.3032C60.7215 42.3084 60.7325 42.316 60.7417 42.3256C60.7509 42.3352 60.7581 42.3466 60.7628 42.3591C60.7676 42.3715 60.7699 42.3848 60.7695 42.3982C61.5586 42.1925 62.249 41.678 62.9396 41.4723L63.137 41.5753C62.2493 42.1925 61.3615 42.6042 60.4738 43.2214C60.0794 43.3244 59.7835 43.0157 59.1917 43.0157C59.1816 43.0932 59.147 43.1654 59.0931 43.2214C58.7972 43.4271 58.1069 43.4271 58.1069 43.7358C57.3177 44.8675 56.43 44.6617 55.4437 44.9705C55.1478 45.0735 54.8519 44.9705 54.6545 45.0735C53.4709 45.6906 52.3858 46.4108 51.3008 46.9253C49.2294 47.8512 47.1581 48.9831 45.0865 49.806C43.311 50.63 41.5356 51.4521 39.5628 51.9665C38.3792 52.5837 36.7023 52.8924 35.2227 53.5099C34.5324 53.6129 34.2365 54.4358 34.2365 55.0533C34.3339 55.2624 34.3844 55.4907 34.3844 55.7219C34.3844 55.9531 34.3339 56.1815 34.2365 56.3906V57.0078C34.4338 57.625 34.4338 58.3452 34.6309 59.0656C34.7295 59.3743 34.6309 59.8896 34.7295 60.1972C35.3213 60.6092 35.9131 61.1232 36.6026 61.4319C37.3918 61.8439 38.3781 61.3289 39.3646 61.1231C40.4505 60.8144 41.436 60.1972 42.521 59.8885C45.283 58.6539 48.4391 57.4193 51.2999 56.0819C53.9631 54.9503 56.5277 53.6126 59.0912 52.2753C59.1898 51.9665 59.2886 51.9665 59.4857 51.8633C60.5628 51.4675 61.5397 50.8351 62.3462 50.0115C62.8394 49.9085 63.0365 49.9085 63.3324 49.7027C63.7269 49.394 63.7269 48.8787 63.8257 48.6738C64.0231 48.5708 64.6149 48.8795 64.812 48.6738C65.6011 48.4681 66.2915 47.9536 66.8833 47.5422C67.2778 47.3365 67.771 47.2335 68.1655 46.925C68.1661 46.9116 68.164 46.8982 68.1593 46.8857C68.1546 46.8731 68.1474 46.8617 68.1381 46.852C68.1289 46.8424 68.1178 46.8347 68.1056 46.8296C68.0934 46.8244 68.0802 46.8218 68.0669 46.822C67.6865 46.8403 67.3152 46.9459 66.981 47.1307C67.8688 45.7934 69.0524 45.0729 69.8416 45.8961C70.5319 45.4841 71.1237 44.9702 71.8144 44.6615C71.3211 44.147 71.9129 43.7356 72.2088 43.4268C72.8006 42.9124 73.2947 42.6028 74.082 43.1181C73.8846 42.2941 74.4764 42.0892 75.1679 41.6777C75.752 41.5528 76.3464 41.484 76.9433 41.472L76.5489 40.7518C76.972 40.6179 77.3471 40.3613 77.6276 40.0138C77.9082 39.6664 78.0819 39.2433 78.1272 38.797C78.2719 38.9049 78.3912 39.0439 78.4765 39.204C78.5618 39.3641 78.6109 39.5413 78.6205 39.7229C79.0662 39.3263 79.4636 38.8773 79.8041 38.3853C79.9026 38.3853 80.1 38.591 80.1985 38.7973C80.7105 38.2638 81.272 37.7814 81.8754 37.3569C82.3687 36.9449 83.5523 37.0482 83.8482 36.2253V36.0196C84.1441 35.6076 84.5386 35.1956 84.5386 34.8879C84.7359 34.2708 85.4263 33.962 85.9196 33.962C86.1169 33.962 86.314 34.2708 86.8073 34.4765C86.7943 33.9943 86.8273 33.5119 86.9058 33.0361C86.3165 33.4459 86.0205 33.6517 85.8232 32.9315H85.8229ZM10.2662 36.9438C10.2662 36.9438 10.0689 36.9438 10.0689 36.6351C10.3071 36.503 10.4843 36.2813 10.5621 36.0179C10.6742 35.6614 10.8785 35.3417 11.1539 35.092C11.3513 34.8863 11.5484 34.5776 11.7457 34.5776C12.239 34.4746 12.5349 34.4746 12.9294 34.3718C13.6197 33.7547 14.0153 33.1372 14.5077 32.9315C14.6362 32.8425 14.7843 32.7866 14.939 32.7687C15.0937 32.7507 15.2504 32.7713 15.3954 32.8285C13.62 34.3718 11.9431 35.6065 10.2662 36.9438ZM78.1296 34.3718C77.177 34.6876 76.3254 35.2561 75.6636 36.0179L73.1975 37.3556C71.4221 38.6932 69.6466 39.5161 67.8709 40.6477C67.2791 40.8535 66.8847 41.2649 66.4899 41.3679C66.6873 42.0881 66.9832 42.1919 67.0818 42.3968C67.7721 42.0881 68.068 41.6767 68.5613 41.2652C68.8572 40.7507 69.3505 40.545 69.7449 40.2363C70.4217 39.5885 71.2293 39.097 72.1122 38.7959C72.2752 38.7751 72.4282 38.7051 72.5514 38.595C72.6745 38.4849 72.762 38.3399 72.8025 38.1787C72.9011 38.0757 73.0984 37.7667 73.197 37.7667C74.7753 37.3547 76.0575 36.1207 77.4385 35.5032C77.6358 34.783 78.2276 34.783 78.6221 34.5773C79.062 34.4765 79.4693 34.2641 79.8057 33.9601C79.7937 33.7852 79.7606 33.6124 79.7072 33.4457C79.6086 33.5487 79.4113 33.4457 78.918 33.5487C78.7212 33.6517 78.4253 34.0631 78.1294 34.3718H78.1296ZM72.1124 36.225C71.8165 36.5338 71.8165 36.8422 71.5206 36.8422C71.3233 37.0479 70.8303 37.2542 70.6329 37.1509C69.6466 36.9452 69.547 36.9452 69.1534 37.7681C68.8575 37.9738 68.5616 37.7681 68.0675 37.9738C67.3771 38.3858 66.8839 38.7979 66.3906 39.1055V39.4142C66.1932 39.6199 66.1932 39.8262 66.1932 40.3401C67.0809 40.8546 67.2791 39.6199 68.2646 39.6199C68.9549 39.5169 69.6456 38.694 70.3359 38.1796C71.1251 37.3556 71.8154 37.1507 72.9991 37.0479C72.658 36.8285 72.3579 36.5499 72.1124 36.225ZM80.4966 37.7684C80.1392 37.6603 79.8047 37.4858 79.5104 37.2539C79.6089 37.2539 79.6089 37.0482 79.6089 36.9452C79.8961 37.0481 80.2094 37.0481 80.4966 36.9452C80.6206 37.1649 80.6884 37.4125 80.694 37.6654C80.5954 37.664 80.5954 37.767 80.4969 37.767L80.4966 37.7684ZM54.259 47.5414C53.9494 47.8828 53.5299 48.1016 53.0754 48.1585C53.2725 47.4381 53.7657 47.3354 54.259 47.5414ZM54.7528 51.5534C54.3584 51.5534 54.2595 51.5534 54.0624 51.3477C53.7665 51.3477 53.9639 51.142 53.9639 51.142C54.3213 51.0339 54.6558 50.8594 54.9502 50.6275C54.9803 50.9494 54.9114 51.2728 54.7528 51.5534ZM70.4364 66.3688C70.3378 66.5745 70.239 66.5745 69.746 66.6775C69.8445 66.5745 69.746 66.3688 69.746 66.163C69.6475 65.9573 69.3515 65.8543 69.0556 65.4429C69.0556 64.6189 70.2393 65.2371 70.5352 64.7227C70.5405 64.4447 70.5073 64.1673 70.4366 63.8987C70.7554 64.0188 71.0306 64.234 71.2258 64.5159C71.2258 63.4869 71.3243 62.9725 71.2258 62.2523C71.1273 59.886 70.634 57.7255 68.1679 56.9023L66.491 56.0783C66.4741 56.1857 66.4408 56.2899 66.3925 56.387C66.3776 56.5596 66.4174 56.7324 66.5061 56.8806C66.5948 57.0287 66.7278 57.1444 66.8858 57.2111C68.2667 57.7255 68.6612 59.0629 68.5626 60.4005C68.5626 61.1207 68.76 61.8409 68.3653 62.664C67.872 63.1785 67.7735 63.8987 67.2794 64.7219C67.8712 64.9276 68.0686 64.9276 68.2657 65.0306C67.3779 66.6767 66.6873 67.1911 65.7996 66.9854C65.6022 67.3974 65.4051 68.22 64.8133 68.6315C64.0553 69.6463 63.1587 70.547 62.1502 71.3065C60.5718 72.2324 58.9938 73.0556 57.318 73.8785C57.134 74.1326 56.898 74.3435 56.626 74.4967C56.7245 74.7025 56.7245 74.7025 57.0204 74.9087C57.0577 74.8379 57.1154 74.7803 57.1859 74.7436C57.2564 74.7068 57.3362 74.6927 57.4149 74.703C58.2528 73.9675 59.1814 73.3449 60.1774 72.8507C60.5718 72.646 60.6709 72.3362 60.8677 72.234C62.2487 71.41 63.7283 70.5879 64.9127 69.7648C65.1025 69.7107 65.2734 69.6037 65.406 69.456C65.7529 69.1678 66.0822 68.8586 66.3922 68.5301C66.8855 67.9129 67.2799 67.6042 67.5758 67.0898C68.2662 66.3696 68.858 66.1639 69.1542 66.884C69.5486 67.0898 69.3515 67.5012 69.5486 67.8099C70.7323 67.2955 71.8173 65.8551 71.127 65.032C70.8303 65.4429 70.7317 65.9573 70.4355 66.3688H70.4364ZM30.5857 63.1793L30.7831 63.385C30.2898 63.8995 30.4872 64.0022 31.1775 64.0022C31.3749 64.311 31.7693 64.311 31.9667 64.5167C31.9667 64.6197 31.9667 64.6197 31.8682 64.7224L30.2898 64.3104C30.2778 64.1355 30.2447 63.9627 30.1913 63.7959C30.1913 63.591 30.4872 63.3853 30.5857 63.1793ZM68.6601 64.3109C68.5566 64.293 68.4567 64.2582 68.3642 64.2079C68.5616 63.7959 68.8575 63.6935 68.8575 63.3839C68.956 63.3839 69.0548 63.4869 69.0548 63.6927L68.6601 64.3109ZM66.8847 64.6197C66.65 65.0646 66.5154 65.5564 66.4902 66.06C66.7232 66.0497 66.9546 66.0152 67.1806 65.957C67.082 65.3399 66.9832 65.0311 67.082 64.6197H66.8847ZM38.5754 67.9121C39.2091 68.1307 39.8073 68.4427 40.3509 68.838C39.9346 68.953 39.5363 69.1262 39.1673 69.3525C38.7728 68.838 38.5754 68.2208 38.2795 68.0151C38.3781 67.9121 38.3781 67.9121 38.5754 67.9121ZM68.8575 69.3525C68.8575 69.4554 68.6602 69.4554 68.2657 69.3525C68.1262 69.3374 67.986 69.374 67.8712 69.4555C67.8712 69.4555 67.8712 69.8675 67.9697 69.8675C67.9697 69.9705 68.1671 70.0732 68.3642 69.9705C68.9043 69.6605 69.4017 69.2801 69.8437 68.8389C69.6464 68.8389 69.6464 68.7359 69.5478 68.7359C69.3507 68.838 69.1534 69.1468 68.8575 69.3525ZM44.395 71.3073C44.4936 71.616 44.7895 71.9245 44.8883 72.2332C44.8883 72.3362 44.7897 72.3362 44.4938 72.4389C44.317 72.0914 44.0424 71.8046 43.7047 71.6149C43.9089 71.461 44.1449 71.3558 44.395 71.3073ZM65.3063 72.0275C65.2078 73.1591 64.4186 72.7477 63.9253 72.6447C63.235 74.085 61.9525 74.4965 60.8675 75.1139L59.4865 75.7311C59.092 75.9368 58.9932 76.4513 58.5988 76.9657V77.1715C59.585 76.5543 60.3742 76.2456 61.1634 75.6281C61.8646 75.2172 62.4968 74.6963 63.0365 74.0847C63.3324 73.879 63.9243 73.776 64.2202 73.3646C64.7134 73.2616 65.2064 73.1588 65.4038 72.8501C65.7996 72.646 65.8984 72.1305 65.3066 72.0275H65.3063ZM53.1739 74.9082C54.0616 74.8052 54.6534 74.291 55.4426 74.291C55.0482 73.4678 54.1604 73.7766 53.1739 74.9082ZM55.5412 74.9082C55.0479 75.0112 54.752 75.3202 54.259 75.5254C54.9494 75.5254 55.2453 75.6284 56.0344 75.6284C55.8371 75.2169 55.64 75.1139 55.5401 74.9082H55.5412ZM41.5331 78.8178C41.5331 79.0235 41.4346 79.1265 41.4346 79.2298C41.7305 79.3328 42.0264 79.6418 42.4209 79.6418C42.3949 79.464 42.4297 79.2825 42.5194 79.1274C42.0278 78.9208 41.8307 78.8178 41.5345 78.8178H41.5331ZM38.5741 79.9494C38.3767 80.1552 37.8837 80.2582 37.6864 80.3615C37.7567 80.4256 37.8112 80.5056 37.8455 80.5949C37.8798 80.6843 37.8929 80.7805 37.8837 80.8759C38.377 80.5672 38.5741 80.3615 38.7714 80.3615L38.5741 79.9494ZM35.0232 81.5955C35.7136 82.3157 35.9109 81.8013 36.4042 81.0811H37.0946C36.9671 80.7855 36.8012 80.5084 36.6013 80.2571C35.9109 80.9773 35.2203 81.5947 34.4311 81.0811C34.6299 81.4928 35.0246 81.4928 35.0246 81.5958L35.0232 81.5955ZM39.1673 83.9624L39.5617 84.1681C40.2521 84.0651 40.8439 83.9624 41.1401 83.6536C41.8304 83.4479 42.7184 82.8296 43.3102 83.3449C43.6467 82.939 44.0465 82.5914 44.4938 82.316C45.6775 82.213 46.8611 81.904 48.2421 81.5958C48.1817 81.3956 48.1485 81.1879 48.1435 80.9786C47.4532 80.9786 46.8613 80.9786 46.4666 81.1844C45.7763 81.1844 45.3807 81.5964 44.8883 81.5964C44.2965 81.9051 43.7047 82.2135 43.2114 82.5223C42.7232 82.8161 42.1897 83.0248 41.633 83.1395L39.5617 83.4482C39.4632 83.4476 39.3646 83.8591 39.1673 83.9624ZM32.9535 83.0362C33.0301 82.5424 33.1624 82.0591 33.348 81.5958C32.6576 81.8015 31.7696 81.6988 31.6711 82.8305C32.0652 83.1384 32.5585 83.4476 32.9535 83.0362ZM29.9944 84.0651C30.1016 84.0718 30.209 84.0571 30.3106 84.0218C30.4121 83.9865 30.5058 83.9313 30.5863 83.8594C30.6026 84.3416 30.5696 84.8243 30.4877 85.2997C29.8954 84.991 29.698 84.4765 29.9944 84.0648V84.0651ZM31.7699 85.2997C31.7699 85.2997 31.7699 85.6084 31.8684 85.7117C31.526 85.8129 31.1954 85.951 30.8822 86.1237C30.7917 86.1034 30.7116 86.0503 30.6571 85.9744C30.6026 85.8985 30.5774 85.8051 30.5863 85.7117C30.9802 85.6082 31.3749 85.4024 31.7693 85.2994L31.7699 85.2997ZM44.692 93.7361C44.8894 93.8391 45.1853 94.2506 45.2838 94.2506C44.8894 94.3536 44.2976 94.3536 43.6069 94.4563C43.4096 94.4563 43.311 94.3533 42.9166 94.2506C42.1274 93.8386 41.6344 94.4563 41.5356 95.2795C40.8452 95.3825 40.2532 95.5882 39.8587 95.5882C39.4846 95.63 39.1066 95.5584 38.7728 95.3825C39.1673 95.1768 39.4632 95.1768 39.562 94.868V94.6623C38.7728 94.868 37.7865 94.8681 36.9974 95.2795C36.9978 95.2929 36.9955 95.3062 36.9907 95.3186C36.986 95.3311 36.9788 95.3425 36.9696 95.3521C36.9604 95.3617 36.9494 95.3693 36.9373 95.3745C36.9251 95.3798 36.912 95.3825 36.8988 95.3825C37.0962 95.4855 37.3921 95.4855 37.5892 95.5882V95.8967C36.4056 95.8967 35.0246 95.9997 33.7424 96.1024C34.1369 95.2784 34.6301 95.1765 35.1234 95.4852C35.3222 95.5522 35.5342 95.5684 35.7407 95.5325C35.9472 95.4966 36.1417 95.4097 36.307 95.2795C36.695 94.9182 37.172 94.6694 37.688 94.5593C37.6917 94.3156 37.6585 94.0727 37.5895 93.8391C38.7731 94.5593 39.5622 94.1479 40.45 93.9421C40.8444 93.9421 40.9432 93.6334 41.0418 93.6334C42.028 93.8391 42.8172 93.5304 43.7049 93.0162C45.2833 92.6042 46.8613 92.0903 48.4397 91.6789C47.4529 92.5015 46.1707 92.81 44.6909 93.7361H44.692ZM33.25 94.662C32.9541 94.5591 32.4608 94.7651 31.9678 94.7651C31.1786 94.4563 30.2909 94.2506 29.6991 94.662C29.3985 94.5033 29.1564 94.2507 29.0087 93.9419C28.9102 93.9419 28.9102 93.7361 28.9102 93.7361C29.0087 93.6331 29.2061 93.4274 29.3046 93.4274C29.995 93.4274 31.0801 93.4274 31.8692 93.7361C32.8377 93.7282 33.8019 93.8671 34.7298 94.1481C34.2354 94.5591 34.0394 95.2787 33.2489 94.662H33.25Z"
      fill="#B10000" />
    <path
      d="M71.1724 87.7637H71.3284C71.3802 87.607 71.4843 87.607 71.6406 87.6591C71.6406 87.7113 71.6924 87.7113 71.7446 87.6591C72.0046 87.607 72.1087 87.3455 72.2128 87.1367C72.3168 86.9278 72.3687 86.6663 72.4728 86.405C72.4728 86.3529 72.5246 86.3005 72.5246 86.2484C72.5824 86.153 72.6179 86.0458 72.6287 85.9347C72.6806 85.778 72.6287 85.6734 72.6806 85.5689L72.8887 85.2031C72.954 85.0196 73.0409 84.8446 73.1475 84.6818C73.3035 84.316 73.6157 84.0026 73.7206 83.5844C73.8256 83.1662 74.0847 82.8007 73.9288 82.3303C73.9028 82.1571 73.9028 81.981 73.9288 81.8078V81.7032C73.87 81.5588 73.8004 81.4191 73.7206 81.2853L73.5647 81.1286C73.314 81.0428 73.049 81.0072 72.7847 81.0241C72.5151 80.9998 72.2442 81.0542 72.0046 81.1808C71.6406 81.378 71.2566 81.5356 70.8593 81.6511C70.7521 81.6944 70.6341 81.7025 70.522 81.6744C70.4099 81.6462 70.3096 81.5833 70.2352 81.4944C70.0638 81.3793 69.8671 81.3076 69.6621 81.2853C69.5646 81.2632 69.4626 81.2714 69.3698 81.3087C69.277 81.3461 69.1976 81.4108 69.1421 81.4944C69.0786 81.5769 69.0442 81.6781 69.0442 81.7823C69.0442 81.8866 69.0786 81.9878 69.1421 82.0703C69.4021 82.4361 69.298 82.854 69.2462 83.2722C69.2462 83.4289 69.0902 83.5335 69.0902 83.638C69.1421 83.8472 69.0383 83.9517 68.9343 84.1084C68.9343 84.1605 68.8824 84.1605 68.8824 84.213C68.8824 84.4221 68.8305 84.6309 68.8305 84.84C68.7786 85.0491 68.6746 85.2579 68.6224 85.4671C68.6224 85.5716 68.6743 85.7283 68.6743 85.885V85.9895C68.7783 86.3553 69.1424 86.512 69.4543 86.7211C69.6975 86.8284 69.9252 86.9682 70.1312 87.1367L70.4952 87.3458C70.5471 87.3979 70.7034 87.3979 70.7553 87.4503L71.1724 87.7637Z"
      fill="#B10000" />
  </g>
  <path
    d="M110.859 45.9062H107.368V43.3164H117.626V45.9062H114.147V65H110.859V45.9062ZM119.848 43.3164H123.136V52.3936H127.033V43.3164H130.321V65H127.033V54.9834H123.136V65H119.848V43.3164ZM134.066 43.3164H142.103V45.9062H137.354V52.3936H141.023V54.9834H137.354V62.4102H142.229V65H134.066V43.3164ZM149.326 60.6074C149.326 60.1419 149.352 59.7145 149.402 59.3252C149.462 58.9274 149.546 58.5 149.656 58.043H152.208V59.0967C152.208 59.6807 152.242 60.1969 152.31 60.6455C152.386 61.0941 152.504 61.4749 152.665 61.7881C152.834 62.0928 153.054 62.3255 153.325 62.4863C153.604 62.6387 153.943 62.7148 154.341 62.7148C154.967 62.7148 155.445 62.5456 155.775 62.207C156.105 61.86 156.271 61.3564 156.271 60.6963C156.271 60.3577 156.245 60.0488 156.194 59.7695C156.152 59.4818 156.072 59.1982 155.953 58.9189C155.843 58.6396 155.691 58.3477 155.496 58.043C155.301 57.7298 155.052 57.3828 154.747 57.002L151.319 52.9268C150.71 52.1481 150.24 51.3652 149.91 50.5781C149.58 49.7826 149.415 48.9362 149.415 48.0391C149.415 47.3197 149.525 46.6595 149.745 46.0586C149.974 45.4577 150.299 44.9414 150.723 44.5098C151.146 44.0697 151.666 43.7311 152.284 43.4941C152.91 43.2487 153.617 43.126 154.404 43.126C155.361 43.126 156.156 43.2614 156.791 43.5322C157.434 43.8031 157.946 44.1585 158.327 44.5986C158.708 45.0387 158.975 45.5339 159.127 46.084C159.288 46.6257 159.368 47.1715 159.368 47.7217C159.368 48.1872 159.33 48.6188 159.254 49.0166C159.186 49.4059 159.106 49.8376 159.013 50.3115H156.474V49.2832C156.474 48.1322 156.309 47.252 155.979 46.6426C155.648 46.0247 155.111 45.7158 154.366 45.7158C153.748 45.7158 153.287 45.8893 152.982 46.2363C152.678 46.5749 152.525 47.0319 152.525 47.6074C152.525 47.9121 152.547 48.1872 152.589 48.4326C152.64 48.6781 152.707 48.9066 152.792 49.1182C152.885 49.3213 152.995 49.5202 153.122 49.7148C153.249 49.9095 153.393 50.1126 153.554 50.3242L157.375 54.9453C158.069 55.8509 158.602 56.7227 158.975 57.5605C159.347 58.39 159.533 59.2702 159.533 60.2012C159.533 60.9714 159.41 61.6654 159.165 62.2832C158.928 62.901 158.585 63.4258 158.137 63.8574C157.688 64.2891 157.146 64.6234 156.512 64.8604C155.877 65.0889 155.162 65.2031 154.366 65.2031C153.384 65.2031 152.568 65.0719 151.916 64.8096C151.273 64.5472 150.757 64.2002 150.367 63.7686C149.986 63.3369 149.715 62.846 149.555 62.2959C149.402 61.7458 149.326 61.1829 149.326 60.6074ZM164.688 43.3164H168.471L172.482 65H169.156L168.56 61.1152H164.599L164.027 65H160.688L164.688 43.3164ZM168.179 58.6396L166.655 47.8359H166.516L164.979 58.6396H168.179ZM174.59 43.3164H177.256L182.512 57.8271H182.588C182.562 57.4886 182.529 57.112 182.486 56.6973C182.444 56.2826 182.406 55.8128 182.372 55.2881C182.338 54.7549 182.309 54.154 182.283 53.4854C182.258 52.8167 182.245 52.0635 182.245 51.2256V43.3164H185.19V65H182.499L177.269 50.8701H177.167C177.192 51.251 177.226 51.6657 177.269 52.1143C177.311 52.5544 177.349 53.0749 177.383 53.6758C177.417 54.2767 177.446 54.9792 177.472 55.7832C177.497 56.5788 177.51 57.5267 177.51 58.627V65H174.59V43.3164ZM188.91 43.3164H192.325C192.841 43.3164 193.375 43.3333 193.925 43.3672C194.483 43.3926 195.025 43.4814 195.55 43.6338C196.083 43.7861 196.582 44.0231 197.048 44.3447C197.522 44.6579 197.937 45.1022 198.292 45.6777C198.647 46.2448 198.927 46.9642 199.13 47.8359C199.341 48.6992 199.447 49.7572 199.447 51.0098V57.3066C199.447 58.5592 199.341 59.6214 199.13 60.4932C198.927 61.3649 198.647 62.0843 198.292 62.6514C197.937 63.2184 197.522 63.6628 197.048 63.9844C196.582 64.2975 196.083 64.5303 195.55 64.6826C195.025 64.835 194.483 64.9281 193.925 64.9619C193.375 64.9873 192.841 65 192.325 65H188.91V43.3164ZM193.036 62.7021C193.629 62.7021 194.115 62.626 194.496 62.4736C194.885 62.3213 195.19 62.0547 195.41 61.6738C195.639 61.2845 195.795 60.7598 195.88 60.0996C195.965 59.431 196.007 58.5889 196.007 57.5732V50.8447C196.007 49.8291 195.965 48.9912 195.88 48.3311C195.795 47.6624 195.639 47.1377 195.41 46.7568C195.19 46.3675 194.885 46.0967 194.496 45.9443C194.115 45.792 193.629 45.7158 193.036 45.7158H192.198V62.7021H193.036ZM204.97 57.7764L200.603 43.3164H203.916L206.569 53.6885H206.722L209.35 43.3164H212.65L208.258 57.7764V65H204.97V57.7764ZM220.141 43.3164H228.431V45.9062H223.429V52.3936H227.352V54.9834H223.429V65H220.141V43.3164ZM235.426 65.1904C235.079 65.1904 234.702 65.1608 234.296 65.1016C233.89 65.0508 233.488 64.9365 233.09 64.7588C232.692 64.5811 232.307 64.3314 231.935 64.0098C231.571 63.6797 231.245 63.248 230.957 62.7148C230.678 62.1816 230.453 61.5257 230.284 60.7471C230.115 59.96 230.03 59.0247 230.03 57.9414V50.2607C230.03 49.1689 230.115 48.238 230.284 47.4678C230.462 46.6891 230.695 46.0374 230.982 45.5127C231.27 44.9795 231.596 44.5563 231.96 44.2432C232.332 43.93 232.717 43.693 233.115 43.5322C233.521 43.363 233.924 43.2529 234.321 43.2021C234.719 43.1514 235.087 43.126 235.426 43.126C235.747 43.126 236.103 43.1514 236.492 43.2021C236.89 43.2445 237.284 43.346 237.673 43.5068C238.071 43.6592 238.456 43.8919 238.828 44.2051C239.201 44.5098 239.531 44.9287 239.818 45.4619C240.106 45.9867 240.335 46.6426 240.504 47.4297C240.682 48.2083 240.771 49.152 240.771 50.2607V57.9414C240.771 59.0163 240.682 59.943 240.504 60.7217C240.326 61.4919 240.093 62.1478 239.806 62.6895C239.518 63.2227 239.184 63.6543 238.803 63.9844C238.43 64.306 238.045 64.5599 237.647 64.7461C237.258 64.9238 236.869 65.0423 236.479 65.1016C236.09 65.1608 235.739 65.1904 235.426 65.1904ZM235.426 62.7148C235.747 62.7148 236.027 62.6598 236.264 62.5498C236.509 62.4398 236.708 62.2493 236.86 61.9785C237.021 61.7077 237.14 61.3522 237.216 60.9121C237.3 60.4635 237.343 59.9007 237.343 59.2236V49.3594C237.343 48.6654 237.3 48.0856 237.216 47.6201C237.14 47.1546 237.021 46.7822 236.86 46.5029C236.708 46.2152 236.509 46.012 236.264 45.8936C236.027 45.7751 235.747 45.7158 235.426 45.7158C235.096 45.7158 234.808 45.7751 234.562 45.8936C234.317 46.012 234.114 46.2152 233.953 46.5029C233.792 46.7822 233.67 47.1546 233.585 47.6201C233.509 48.0856 233.471 48.6654 233.471 49.3594V59.2236C233.471 59.9007 233.509 60.4635 233.585 60.9121C233.67 61.3522 233.792 61.7077 233.953 61.9785C234.114 62.2493 234.317 62.4398 234.562 62.5498C234.808 62.6598 235.096 62.7148 235.426 62.7148ZM243.805 43.3164H247.118V59.2109C247.118 59.888 247.152 60.4508 247.22 60.8994C247.287 61.348 247.393 61.7077 247.537 61.9785C247.689 62.2409 247.88 62.4313 248.108 62.5498C248.345 62.6598 248.625 62.7148 248.946 62.7148C249.268 62.7148 249.547 62.6598 249.784 62.5498C250.03 62.4313 250.229 62.2409 250.381 61.9785C250.542 61.7077 250.66 61.348 250.736 60.8994C250.821 60.4508 250.863 59.888 250.863 59.2109V43.3164H254.139V58.335C254.139 59.3929 254.054 60.2985 253.885 61.0518C253.715 61.805 253.491 62.4355 253.212 62.9434C252.933 63.4512 252.611 63.8532 252.247 64.1494C251.892 64.4456 251.519 64.6742 251.13 64.835C250.749 64.9873 250.368 65.0846 249.987 65.127C249.606 65.1693 249.259 65.1904 248.946 65.1904C248.633 65.1904 248.286 65.1693 247.905 65.127C247.533 65.0846 247.156 64.9873 246.775 64.835C246.395 64.6742 246.026 64.4456 245.671 64.1494C245.315 63.8532 244.998 63.4512 244.719 62.9434C244.439 62.4355 244.215 61.8092 244.046 61.0645C243.885 60.3112 243.805 59.4014 243.805 58.335V43.3164ZM257.77 43.3164H260.436L265.691 57.8271H265.768C265.742 57.4886 265.708 57.112 265.666 56.6973C265.624 56.2826 265.586 55.8128 265.552 55.2881C265.518 54.7549 265.488 54.154 265.463 53.4854C265.438 52.8167 265.425 52.0635 265.425 51.2256V43.3164H268.37V65H265.679L260.448 50.8701H260.347C260.372 51.251 260.406 51.6657 260.448 52.1143C260.491 52.5544 260.529 53.0749 260.562 53.6758C260.596 54.2767 260.626 54.9792 260.651 55.7832C260.677 56.5788 260.689 57.5267 260.689 58.627V65H257.77V43.3164ZM272.09 43.3164H275.505C276.021 43.3164 276.554 43.3333 277.104 43.3672C277.663 43.3926 278.205 43.4814 278.729 43.6338C279.263 43.7861 279.762 44.0231 280.228 44.3447C280.701 44.6579 281.116 45.1022 281.472 45.6777C281.827 46.2448 282.106 46.9642 282.31 47.8359C282.521 48.6992 282.627 49.7572 282.627 51.0098V57.3066C282.627 58.5592 282.521 59.6214 282.31 60.4932C282.106 61.3649 281.827 62.0843 281.472 62.6514C281.116 63.2184 280.701 63.6628 280.228 63.9844C279.762 64.2975 279.263 64.5303 278.729 64.6826C278.205 64.835 277.663 64.9281 277.104 64.9619C276.554 64.9873 276.021 65 275.505 65H272.09V43.3164ZM276.216 62.7021C276.808 62.7021 277.295 62.626 277.676 62.4736C278.065 62.3213 278.37 62.0547 278.59 61.6738C278.818 61.2845 278.975 60.7598 279.06 60.0996C279.144 59.431 279.187 58.5889 279.187 57.5732V50.8447C279.187 49.8291 279.144 48.9912 279.06 48.3311C278.975 47.6624 278.818 47.1377 278.59 46.7568C278.37 46.3675 278.065 46.0967 277.676 45.9443C277.295 45.792 276.808 45.7158 276.216 45.7158H275.378V62.7021H276.216ZM287.959 43.3164H291.742L295.754 65H292.428L291.831 61.1152H287.87L287.299 65H283.96L287.959 43.3164ZM291.45 58.6396L289.927 47.8359H289.787L288.251 58.6396H291.45ZM299.867 45.9062H296.376V43.3164H306.634V45.9062H303.155V65H299.867V45.9062ZM308.855 43.3164H312.144V65H308.855V43.3164ZM320.662 65.1904C320.315 65.1904 319.938 65.1608 319.532 65.1016C319.126 65.0508 318.724 64.9365 318.326 64.7588C317.928 64.5811 317.543 64.3314 317.171 64.0098C316.807 63.6797 316.481 63.248 316.193 62.7148C315.914 62.1816 315.69 61.5257 315.521 60.7471C315.351 59.96 315.267 59.0247 315.267 57.9414V50.2607C315.267 49.1689 315.351 48.238 315.521 47.4678C315.698 46.6891 315.931 46.0374 316.219 45.5127C316.507 44.9795 316.832 44.5563 317.196 44.2432C317.569 43.93 317.954 43.693 318.352 43.5322C318.758 43.363 319.16 43.2529 319.558 43.2021C319.955 43.1514 320.324 43.126 320.662 43.126C320.984 43.126 321.339 43.1514 321.729 43.2021C322.126 43.2445 322.52 43.346 322.909 43.5068C323.307 43.6592 323.692 43.8919 324.064 44.2051C324.437 44.5098 324.767 44.9287 325.055 45.4619C325.342 45.9867 325.571 46.6426 325.74 47.4297C325.918 48.2083 326.007 49.152 326.007 50.2607V57.9414C326.007 59.0163 325.918 59.943 325.74 60.7217C325.562 61.4919 325.33 62.1478 325.042 62.6895C324.754 63.2227 324.42 63.6543 324.039 63.9844C323.667 64.306 323.282 64.5599 322.884 64.7461C322.494 64.9238 322.105 65.0423 321.716 65.1016C321.326 65.1608 320.975 65.1904 320.662 65.1904ZM320.662 62.7148C320.984 62.7148 321.263 62.6598 321.5 62.5498C321.745 62.4398 321.944 62.2493 322.097 61.9785C322.257 61.7077 322.376 61.3522 322.452 60.9121C322.537 60.4635 322.579 59.9007 322.579 59.2236V49.3594C322.579 48.6654 322.537 48.0856 322.452 47.6201C322.376 47.1546 322.257 46.7822 322.097 46.5029C321.944 46.2152 321.745 46.012 321.5 45.8936C321.263 45.7751 320.984 45.7158 320.662 45.7158C320.332 45.7158 320.044 45.7751 319.799 45.8936C319.553 46.012 319.35 46.2152 319.189 46.5029C319.029 46.7822 318.906 47.1546 318.821 47.6201C318.745 48.0856 318.707 48.6654 318.707 49.3594V59.2236C318.707 59.9007 318.745 60.4635 318.821 60.9121C318.906 61.3522 319.029 61.7077 319.189 61.9785C319.35 62.2493 319.553 62.4398 319.799 62.5498C320.044 62.6598 320.332 62.7148 320.662 62.7148ZM329.117 43.3164H331.783L337.039 57.8271H337.115C337.09 57.4886 337.056 57.112 337.014 56.6973C336.971 56.2826 336.933 55.8128 336.899 55.2881C336.866 54.7549 336.836 54.154 336.811 53.4854C336.785 52.8167 336.772 52.0635 336.772 51.2256V43.3164H339.718V65H337.026L331.796 50.8701H331.694C331.72 51.251 331.754 51.6657 331.796 52.1143C331.838 52.5544 331.876 53.0749 331.91 53.6758C331.944 54.2767 331.974 54.9792 331.999 55.7832C332.024 56.5788 332.037 57.5267 332.037 58.627V65H329.117V43.3164Z"
    fill="#B10000" />
  <defs>
    <filter id="filter0_d" x="0" y="-4" width="119" height="114" filterUnits="userSpaceOnUse"
      color-interpolation-filters="sRGB">
      <feFlood flood-opacity="0" result="BackgroundImageFix" />
      <feColorMatrix in="SourceAlpha" type="matrix" values="0 0 0 0 0 0 0 0 0 0 0 0 0 0 0 0 0 0 127 0" />
      <feOffset dx="4" dy="4" />
      <feGaussianBlur stdDeviation="4" />
      <feColorMatrix type="matrix" values="0 0 0 0 0 0 0 0 0 0 0 0 0 0 0 0 0 0 0.3 0" />
      <feBlend mode="normal" in2="BackgroundImageFix" result="effect1_dropShadow" />
      <feBlend mode="normal" in="SourceGraphic" in2="effect1_dropShadow" result="shape" />
    </filter>
  </defs>
</svg>
