<svg width="393" height="120" viewBox="0 0 393 120" fill="none" xmlns="http://www.w3.org/2000/svg">
<g filter="url(#filter0_d)">
<path d="M113 15.3755C113 15.0348 113 14.3538 112.781 14.2402C112.123 13.2186 111.794 11.9696 110.808 11.4023C110.699 11.1753 110.699 11.0616 110.37 10.9477C110.26 10.2667 110.37 9.47204 110.041 9.24474C109.055 8.10945 108.287 7.08781 106.972 6.40682C104.451 4.70389 101.382 4.24989 98.3151 4.02289C95.5751 3.90924 92.8353 4.24989 90.0953 4.36354C87.9033 4.59054 85.273 4.81814 83.081 5.61218C79.2451 6.29317 75.8475 7.31511 72.1211 8.33675L61.378 11.5156C61.0492 11.6293 60.8299 11.6293 60.6109 11.9702V12.3109C61.4878 12.0839 62.4741 11.6299 63.0222 12.9919C63.0222 11.2889 64.4468 10.9486 65.543 10.6079C67.2967 10.1533 69.0501 9.47264 71.0228 9.132C71.3516 9.01835 71.7899 8.79135 71.8997 9.01835C72.2284 9.47295 72.5572 9.24534 72.7765 9.01835C72.934 8.76706 73.1631 8.56925 73.4341 8.4507C75.078 8.11005 76.9412 7.5415 78.5851 7.20207C79.3944 6.89393 80.2431 6.7028 81.1059 6.63442C82.7498 6.40742 84.5035 6.29378 86.5857 5.83978C86.805 5.95343 86.805 5.95343 86.805 6.29438C86.805 6.29438 86.805 6.40803 87.0243 6.40803C85.6098 6.50761 84.2119 6.77433 82.8596 7.20267C83.0047 7.30318 83.1214 7.43979 83.1982 7.59915C83.275 7.75852 83.3093 7.93518 83.2979 8.11187C82.6544 7.64854 81.8956 7.37348 81.1059 7.31723C80.4483 7.31723 79.5715 7.88488 78.6946 7.77183C77.7083 7.77183 77.8178 9.13412 77.0507 9.36112C76.2836 8.33948 76.1738 8.22583 75.297 8.45192C74.4201 8.79257 73.6531 9.24656 72.9955 9.47355V9.8142C73.4338 9.58721 73.9818 9.5872 74.4201 9.47355C73.9818 9.8142 73.4338 10.1545 73.4338 10.3828C73.2145 11.292 72.5569 10.9504 71.8993 10.9504C71.6474 11.1493 71.3421 11.268 71.0225 11.291C70.4744 11.518 69.8159 11.291 69.0498 11.291C69.3006 11.2542 69.532 11.1344 69.7074 10.9504C70.3761 10.7576 71.0346 10.5303 71.6801 10.2694C71.7896 10.2694 71.7896 10.0424 71.8993 9.81481C71.7899 9.58781 71.5706 9.47416 71.4611 9.58781C70.913 10.0424 70.5842 10.2688 70.0364 10.2688C68.8299 10.2688 68.1732 11.0634 67.2964 11.5174C66.9998 11.5292 66.7034 11.4908 66.4195 11.4038V12.313C66.0115 12.3528 65.6077 12.4288 65.213 12.54C65.4323 12.313 65.5418 11.9723 65.7611 11.859C65.3228 11.859 64.7747 11.859 64.7747 11.9726C64.5554 12.8818 63.6789 12.8819 63.2403 13.2213C62.8005 13.6422 62.3237 14.0222 61.8157 14.3566C61.8157 14.3566 61.3774 14.2429 61.2676 14.0159C61.2676 13.9023 61.0483 13.9023 61.0483 13.9023C60.5002 15.0376 59.4044 14.2429 58.5275 14.3569C57.87 14.5839 57.2124 14.0162 56.8836 15.0379C56.7741 15.1515 56.1165 15.1515 55.5685 15.2649C55.459 15.9459 54.5821 16.7408 54.2533 16.5135L54.1438 15.9459C54.5648 15.711 54.9681 15.4454 55.3504 15.1512C54.8309 15.148 54.3144 15.0716 53.816 14.9242C54.2366 14.5713 54.72 14.3016 55.2406 14.1296L54.9118 14.0159C53.5967 14.3566 51.843 15.1512 50.5278 15.7189C50.8566 16.2865 50.8566 16.9675 50.9661 17.3081C51.2949 16.9675 51.7332 16.0595 52.1726 15.7189C52.7638 15.3466 53.4477 15.1498 54.1453 15.1512C54.1453 15.2649 54.2548 15.2649 54.2548 15.6058C53.9741 15.7065 53.675 15.7452 53.378 15.7195C53.1587 15.8331 53.0492 16.1741 52.6109 16.2871C52.3916 16.7417 52.2821 17.1963 52.0628 17.1963C51.2958 17.764 50.4189 17.8773 49.6516 18.218C49.4323 18.445 48.994 18.5586 48.5557 18.6726C48.775 18.5589 48.5557 18.5589 48.5557 18.5589C48.8845 18.2183 48.994 17.9913 49.4326 17.8779C47.8982 17.8779 47.0213 18.5589 46.1447 19.6942C46.2542 19.5805 46.2542 19.2396 46.2542 19.2396C45.8444 19.0457 45.3899 18.9672 44.9391 19.0126C45.7062 18.218 45.9255 17.8773 46.2542 17.8773C45.4872 17.8773 44.6103 18.218 43.843 18.5583C41.9798 18.7853 40.8839 20.6016 39.0207 20.9422C38.6977 21.0244 38.3977 21.1799 38.1438 21.3968V21.7375L40.4453 21.3968C40.2504 21.6127 40.0295 21.8033 39.7878 21.9645C40.3358 22.0781 40.4453 22.0781 40.6646 22.3051C39.6783 22.7597 39.0207 23.5537 38.4726 23.6674C38.2533 23.8944 38.2533 24.122 38.1438 24.122C37.267 23.895 36.6094 24.122 36.0626 25.1436C36.0626 25.3706 35.8433 25.3706 35.7338 25.4843C35.4859 25.5637 35.2268 25.6021 34.9667 25.5979C33.8709 26.3926 32.7747 26.7332 31.5691 26.5071C31.4766 26.6546 31.3465 26.7746 31.1923 26.8545C31.0381 26.9345 30.8655 26.9715 30.6922 26.9617C29.8154 27.6427 29.5964 28.2104 30.4729 29.1187C30.4582 29.1185 30.4436 29.1213 30.43 29.127C30.4164 29.1327 30.4041 29.1411 30.3938 29.1518C30.3836 29.1624 30.3756 29.1751 30.3704 29.1889C30.3651 29.2028 30.3628 29.2175 30.3634 29.2323C30.254 29.1187 29.9252 29.1187 29.7059 29.1187C29.3771 29.005 28.9388 28.551 28.61 28.551C28.5005 28.551 28.3907 29.1187 28.1718 29.1187C27.6237 29.1187 27.0759 29.1187 26.6373 29.4593C25.651 29.9139 24.8836 30.8216 24.1166 31.2756C23.1302 31.8432 22.0353 32.0702 21.1575 32.7515L20.9382 32.6379C21.5958 31.9569 22.0341 31.7287 22.6919 31.1623C22.359 31.1372 22.0243 31.1758 21.7056 31.2759C21.4863 31.2759 21.2673 31.3896 20.8287 31.7305C20.7192 31.8442 20.7192 31.9575 20.6094 31.9575C20.4757 31.9028 20.3619 31.8082 20.2835 31.6864C20.2051 31.5646 20.1659 31.4215 20.1712 31.2765C19.6231 31.5035 19.2943 31.8442 18.856 31.9575C19.1722 32.1049 19.5028 32.2191 19.8424 32.2982V32.6388C19.5618 32.7545 19.2668 32.8309 18.9655 32.8658C18.5272 32.1848 17.9792 32.7521 17.6504 33.0928C17.2121 33.3198 16.8833 33.8874 16.4438 33.8874C13.7205 35.7932 11.1878 37.9603 8.88152 40.3582C7.12781 41.9475 5.81268 44.1044 4.93612 46.1468C4.38805 47.056 3.94977 48.4174 4.16906 49.3254C4.05176 50.8847 4.16253 52.4528 4.49785 53.9799C4.87074 55.5005 5.38445 56.9827 6.03227 58.4071C6.79933 59.7694 8.22426 60.6777 9.3201 61.8126C9.64889 62.1533 10.3065 62.1533 10.4159 62.3803C10.7447 63.1749 11.5118 63.7426 12.3886 64.1966C13.0462 64.7642 13.4845 65.2182 14.1424 65.5589C15.0192 66.2399 16.2236 66.4681 16.9919 66.9212C16.8824 67.0348 16.8824 67.0348 16.8824 67.1481C16.4731 67.1784 16.0684 67.2545 15.6759 67.3751C16.991 67.7158 18.5254 67.3751 19.4023 67.9428C20.7174 68.1698 21.4836 68.852 22.6901 69.3051C24.0783 69.7356 25.4336 70.2667 26.7453 70.8944C27.5124 71.349 28.499 71.689 29.5949 72.2566C30.6167 72.8925 31.6783 73.4614 32.7732 73.9596C34.8077 74.7259 36.7855 75.6363 38.6916 76.6842C39.7875 77.1388 40.8836 78.0464 42.1987 78.5004C43.6234 79.2951 45.0483 80.6574 46.9115 81.1114L47.1308 81.225C47.8979 81.7927 48.5557 82.3603 49.3228 82.7006L49.6516 83.1552C49.9804 83.2689 50.3091 83.7229 50.8581 84.0645C50.6474 84.6133 50.5003 85.1847 50.4198 85.7674C50.5293 85.7674 50.5293 85.881 50.6391 85.881C51.0586 85.4738 51.4266 85.0162 51.735 84.5187C52.008 84.8778 52.3419 85.1855 52.7213 85.4279C52.1733 85.7686 51.6255 86.5632 51.2967 86.6766C50.3103 86.6766 49.4335 86.9036 48.9952 87.4712V87.6982C47.8892 87.8229 46.7914 88.0125 45.7074 88.2659C45.622 88.2679 45.5382 88.2894 45.4622 88.3287C45.3863 88.368 45.3203 88.4242 45.2691 88.4929C45.3786 88.4929 45.3786 88.7199 45.3786 88.7199C45.8198 88.7099 46.2607 88.748 46.6937 88.8335C47.0225 88.8335 47.5706 89.0605 47.7896 89.0605C48.0089 88.7199 48.0089 88.2659 48.1184 88.2659C49.1047 88.0389 50.0911 87.9252 51.0774 87.1306H51.2967C51.8448 87.0169 52.6118 86.676 53.4887 86.5629C53.708 86.5629 54.1463 86.5629 54.2557 86.6766C54.475 86.7902 54.475 87.1312 54.5845 87.4712C54.7213 87.539 54.8705 87.5777 55.0228 87.5849L53.5982 88.4941C54.1463 89.4033 54.5845 88.9487 55.0228 88.8347C56.4474 88.2671 56.886 88.2671 57.7629 89.6294C57.9513 89.9838 58.2128 90.2937 58.5299 90.5386C59.6258 91.3332 59.6258 92.2415 58.8587 93.6038C57.4341 95.7607 55.7899 97.0094 53.5979 98.3716C52.721 98.8262 51.7347 99.2808 50.9676 99.7339C49.7611 100.189 48.5563 100.529 47.57 100.869C45.9261 101.324 44.3916 101.437 42.8572 102.005C42.3091 102.232 41.5421 102.232 40.8845 102.572C40.8845 102.686 40.6652 102.913 40.6652 103.14C40.4459 102.345 39.7884 102.345 39.1308 102.231C37.7059 102.004 35.9525 102.004 34.3085 101.776C33.6227 101.801 32.9424 101.644 32.3358 101.321C31.5688 100.981 31.5688 99.9591 32.1166 99.2781C32.453 98.8727 32.8194 98.4932 33.2124 98.1428C33.9795 97.6882 34.5275 97.1212 35.2937 97.0075C36.9376 96.0983 38.8008 95.6453 40.6628 94.737C40.8821 94.51 41.2109 94.3963 41.2109 94.2824C41.3204 93.8278 41.4302 93.8278 41.9779 93.8278H42.745C42.745 93.7141 42.8545 93.2601 42.8545 92.9186C42.745 92.6916 42.5257 92.464 42.3064 92.1239C41.3201 92.8049 40.5527 93.7132 39.0186 93.5996C38.4705 93.4859 37.0459 92.9186 37.0459 94.7348C36.6076 94.2802 36.0595 94.0539 35.402 93.5996C35.9501 93.3726 36.6085 92.8049 37.0459 92.6904C37.5796 92.4712 38.093 92.2052 38.5803 91.8957C39.1284 91.7821 39.7869 91.5551 40.6616 91.3281C41.4287 90.7604 42.5248 90.5334 43.6207 90.0794C44.2032 89.8443 44.7553 89.539 45.2646 89.1702C45.2047 89.1084 45.1663 89.0288 45.1551 88.9432C44.4975 89.0569 43.9485 88.9432 43.4014 89.0569C42.4786 89.4611 41.5976 89.9554 40.7711 90.5328C40.6161 90.5161 40.4604 90.5565 40.3328 90.6465C39.5668 90.7366 38.8238 90.9674 38.1408 91.3275C37.9215 91.4411 37.4833 91.4411 37.045 91.6681C36.6067 91.8951 35.9491 92.1227 35.4011 92.4627C35.0322 92.4443 34.6626 92.4826 34.3052 92.5764C34.4147 92.3494 34.4147 91.8954 34.634 91.7818V91.5548C34.3559 91.2005 34.0228 90.8935 33.6477 90.6456C31.8939 91.7808 30.031 92.5755 28.1678 93.8241C27.6188 94.0551 27.122 94.3955 26.7076 94.8248C26.2932 95.254 25.9696 95.7633 25.7566 96.3217C25.4278 96.8893 25.6471 97.684 25.3183 98.365C24.3352 101.311 26.3079 104.716 28.4996 105.852C30.4723 107.328 33.1029 106.988 35.4044 107.669C35.9525 107.669 36.6109 107.782 36.9388 107.669C40.5554 107.669 43.9531 107.442 47.2409 106.533C49.1041 106.079 50.3097 105.512 51.8439 105.057C54.4741 104.036 56.9949 102.56 59.735 100.97C61.0501 100.176 62.5845 98.8135 62.475 96.5432C62.3655 95.9756 62.5845 95.1809 62.475 94.6133C62.3655 93.251 62.475 91.6617 61.2685 90.5264C60.6232 89.6074 60.1754 88.5636 59.9534 87.4612C59.4053 86.6666 59.6246 86.552 60.5014 86.0989C61.708 85.9853 62.5827 85.7583 63.2415 84.7367C62.4744 84.5097 62.3646 84.5097 61.7071 85.3043C60.6112 85.8719 58.8575 85.7589 57.9806 85.0773V84.7373C58.5287 84.3966 58.967 83.9426 59.6246 83.602C58.3094 82.921 57.2133 84.3966 56.3367 83.0343C56.6655 83.0343 56.8848 82.9207 57.1038 82.9207C57.1185 82.9206 57.133 82.9177 57.1465 82.9119C57.16 82.9061 57.1722 82.8977 57.1824 82.8871C57.1926 82.8765 57.2006 82.8639 57.2059 82.8502C57.2112 82.8364 57.2137 82.8218 57.2133 82.807C56.775 82.6934 56.3364 82.6934 56.0067 82.58C55.7875 82.58 55.2397 82.58 55.0204 82.353C54.5041 81.3889 53.642 80.6584 52.6091 80.3097C49.5506 77.8189 46.2454 75.6506 42.7456 73.839C41.9786 73.4983 41.2112 73.158 40.7729 72.7037C40.5536 72.59 40.1153 72.4767 39.6771 72.2491C39.6771 72.2491 39.4578 71.7945 39.3483 71.7945C37.5946 70.9998 35.8412 69.8645 34.0874 69.0699C32.553 67.9346 30.6898 67.8213 29.3747 66.7993C27.402 65.664 25.4293 64.983 23.5661 64.1884C21.8124 63.1668 20.1684 62.7128 18.634 61.8045C16.9901 61.1235 15.5652 60.4422 14.0308 59.7612C13.0444 59.1935 11.6195 58.6259 10.5236 57.8313C8.44234 56.469 7.67407 55.6743 8.44234 52.7228C8.47576 52.4114 8.54947 52.1057 8.66163 51.8136L8.22335 51.6999C8.55214 50.9053 8.77143 49.6566 8.99041 48.7483C10.415 48.862 11.0717 47.9537 11.2919 46.5914C11.5112 46.4778 12.059 46.2508 12.1688 46.0238C12.3301 46.0037 12.4775 45.9215 12.5797 45.7945C12.6819 45.6675 12.7311 45.5055 12.7168 45.3428C13.3744 44.4336 13.8127 43.7535 14.7981 43.5265C15.0174 43.4128 15.1269 43.0719 15.2364 42.7318C15.6747 42.3912 15.6747 42.1642 15.894 41.7102C16.7708 41.2556 17.6477 40.4616 18.853 39.7803L23.5679 36.4905C24.116 36.3768 24.7744 35.9228 24.4447 35.1282C24.9168 34.9242 25.3592 34.6569 25.7599 34.3335C25.3216 34.9012 25.2118 35.1282 24.9928 35.2427C24.9928 35.5834 24.9928 35.5834 25.1023 35.6973C25.8694 34.5621 27.4038 35.2427 27.8424 33.8811C27.5136 33.8811 27.2943 33.6541 26.7465 33.6541C27.0992 33.4413 27.4653 33.2517 27.8424 33.0864C29.303 32.1235 30.8429 31.2879 32.4453 30.5889C34.6373 29.3402 36.7195 27.9779 39.021 27.1833C39.1305 27.0696 39.4593 26.7287 39.5691 26.7287C42.1993 25.5934 44.3913 24.3448 46.9121 23.2095C48.4465 22.4148 50.4192 22.0742 51.8442 21.2795C56.0089 19.2363 60.2833 17.7603 64.5575 16.2847C67.1878 15.263 70.0373 14.8091 72.8869 13.9008C73.5445 13.6738 74.202 13.2198 75.2982 12.9916C78.0382 12.3106 80.778 11.5156 83.6276 10.9483C83.7465 10.8038 83.8563 10.6519 83.9564 10.4937C84.2851 10.153 84.6139 10.0391 85.0522 9.47204C84.9427 9.81269 85.0522 9.81269 85.0522 10.0397C84.9928 10.2237 84.956 10.4143 84.9427 10.6073C85.5586 10.4936 86.19 10.4936 86.8059 10.6073C87.5895 10.34 88.397 10.1499 89.2172 10.0397C91.0804 10.1533 92.8338 10.1533 94.8068 9.47204C95.0261 9.24504 95.1356 9.24504 95.2451 9.24504C97.2178 9.24504 98.8617 9.35869 100.506 9.35869C100.692 9.37267 100.877 9.41087 101.054 9.47234C102.1 9.5787 103.129 9.80724 104.123 10.1533C104.342 10.267 104.78 10.267 105.438 10.3803C104.78 10.6073 104.561 10.721 104.342 10.721V10.9474C104.774 11.0415 105.216 11.0796 105.657 11.061C105.966 11.2247 106.299 11.3396 106.643 11.4017C108.178 11.5153 108.507 11.9693 108.178 13.3316C107.849 14.5802 107.849 14.5802 108.945 14.9209C108.397 15.7155 108.178 16.8508 107.52 17.5318C107.52 17.6455 107.301 17.8725 106.972 17.8725C106.863 17.8725 106.534 17.6455 106.424 17.6455C106.488 17.3745 106.642 17.1339 106.862 16.9645L107.52 15.9428C107.767 15.6841 107.954 15.3736 108.068 15.0336C107.734 15.0846 107.404 15.1605 107.082 15.2606C106.095 16.1698 105.986 17.8715 104.67 18.5528C104.67 18.7798 104.561 18.7798 104.561 19.0074C104.561 19.1211 104.451 19.2344 104.561 19.462C104.806 19.5685 105.064 19.6447 105.328 19.689C105.332 19.4797 105.409 19.2784 105.547 19.1214C105.438 17.9861 106.095 18.4404 106.534 18.2122L106.643 18.4392C105.995 19.5085 105.181 20.4666 104.232 21.2771C104.232 20.7095 103.903 20.5961 103.793 20.0285C103.574 20.4831 103.136 20.7095 102.478 20.9377C102.478 20.9377 102.478 21.2783 102.698 21.3923C102.807 21.3923 103.355 21.3923 103.465 21.5059C103.574 21.5059 103.684 21.8466 103.684 21.9605C103.793 22.0742 103.793 22.3012 104.122 22.4151C103.684 22.5288 103.574 22.7558 103.026 22.8697C102.854 22.7922 102.667 22.7534 102.478 22.7561C103.026 22.5291 103.465 22.0751 103.685 21.9614C103.282 21.8831 102.866 21.9156 102.48 22.0555C102.094 22.1954 101.753 22.4374 101.493 22.7561C100.068 23.7777 98.8626 25.0264 97.5475 26.2753C97.1993 26.5184 96.9015 26.8272 96.6706 27.1845C97.4377 28.2061 96.1226 27.9791 95.5748 28.4331C95.7076 28.5842 95.8766 28.6986 96.0657 28.7655C96.2549 28.8324 96.458 28.8496 96.6557 28.8155C96.8533 28.7813 97.039 28.697 97.1951 28.5705C97.3512 28.4439 97.4725 28.2794 97.5475 28.0925C97.8763 27.2978 98.0955 26.9572 98.9724 26.7302C99.7395 26.5032 100.179 25.821 99.7395 25.0273C100.475 24.7019 101.116 24.1941 101.603 23.5516C101.764 23.44 101.955 23.3802 102.151 23.3802C102.346 23.3802 102.537 23.44 102.699 23.5516C102.575 23.8652 102.428 24.1691 102.26 24.4608C102.041 24.6878 102.26 24.6878 102.26 24.6878C102.637 24.5213 103.003 24.3317 103.356 24.1202C103.904 23.5525 104.452 22.6443 105 21.9633C106.096 20.601 107.411 19.1253 108.507 17.8764C108.507 17.8764 108.726 17.7627 108.726 17.6494L109.933 15.3788C110.124 15.2369 110.353 15.1577 110.591 15.1518C110.7 15.1518 110.81 15.3788 110.7 15.3788C110.591 16.288 110.919 17.6494 109.933 18.444C108.837 19.4657 108.726 20.7143 108.508 22.3039C107.412 21.9633 106.974 22.4176 106.974 23.5525C106.974 23.6662 106.974 24.1202 106.864 24.1202C106.207 24.8012 105.768 25.5961 105.22 26.2771C104.453 26.7317 103.686 27.4124 103.357 28.207C103.138 28.3207 103.138 28.888 103.138 29.2287C103.357 29.3423 103.357 29.4557 103.576 29.5693C103.905 29.5693 105.33 28.6601 105.33 28.207C105.001 27.1854 105.768 26.5041 106.207 25.9365C106.386 25.7582 106.615 25.6393 106.864 25.5958C107.522 26.1635 107.631 25.4822 107.85 25.1412C108.07 24.6866 108.399 24.5736 108.727 24.3466C108.948 23.9177 109.246 23.533 109.604 23.2113C110.594 22.0605 111.509 20.8471 112.344 19.5784C112.673 19.1238 113.002 18.4431 112.783 17.8755C112.671 17.0781 112.891 16.1701 113 15.3755ZM89.546 5.95313C89.3267 5.95313 89.1077 6.29377 89.1077 6.52077C88.6694 7.20176 88.0118 6.40712 87.354 6.63442C87.2295 6.34623 87.1554 6.03868 87.1347 5.72522C88.6691 5.49822 89.9843 5.15757 91.0801 5.15757C91.4796 4.92629 91.9342 4.80855 92.3952 4.81693C92.6145 4.70328 93.1623 4.81693 93.3816 4.81693C92.3955 5.61339 90.8611 6.40712 89.546 5.95313V5.95313ZM93.4914 7.08842C93.8202 7.20207 94.3682 6.86142 95.0258 6.86142C94.1489 5.95222 93.2721 7.20207 92.505 6.63442C93.0363 6.36862 93.5856 6.14105 94.1489 5.95343C94.4777 6.18043 95.0258 6.29408 95.2448 6.52108C95.0258 7.54241 93.8205 8.11006 93.4914 7.08842V7.08842ZM87.9018 7.88306C87.0249 7.88306 86.3673 8.45071 85.381 7.88306C86.4768 7.54241 87.1347 7.76941 88.0113 7.54241C88.012 7.66476 87.9737 7.78414 87.9021 7.88306H87.9018ZM80.997 9.58599C80.997 9.47234 80.7777 9.359 80.6682 9.24535C80.3278 9.58364 80.033 9.96532 79.7914 10.3806C79.6352 10.0689 79.4103 9.79716 79.1338 9.58599C78.5857 9.81299 78.1474 10.0406 77.4899 10.3806C77.4467 10.1811 77.3728 9.98953 77.2706 9.81299L78.6952 9.132C78.3664 9.01835 78.3664 8.79135 78.1471 8.45101C78.6283 8.47945 79.1055 8.55548 79.5718 8.678C79.7375 8.64922 79.8905 8.56999 80.01 8.45101C80.5581 7.88336 80.9964 7.77001 81.5445 8.56466C81.5445 8.67831 81.7638 8.67831 81.8733 9.01926C81.6063 9.24451 81.3119 9.43484 80.9973 9.58569L80.997 9.58599ZM82.8602 9.13139C82.8602 8.79074 82.8602 8.79074 82.7507 8.67679C83.3291 8.59218 83.8867 8.39966 84.3946 8.10915C84.3982 8.18027 84.4204 8.24919 84.4589 8.30898C84.4974 8.36878 84.5508 8.41734 84.6139 8.4498C84.0132 8.63251 83.4271 8.86046 82.8605 9.1317L82.8602 9.13139ZM73.7638 10.9474L73.6543 10.4928C74.4213 10.2658 75.2982 10.1521 76.0655 9.81178C76.1451 9.98999 76.1826 10.1843 76.175 10.3794C75.3416 10.4053 74.5218 10.5984 73.7638 10.9474V10.9474ZM49.1044 16.9648C49.4332 16.9648 49.6525 17.3054 49.9813 17.874C50.0908 17.5333 50.31 17.193 50.31 16.9648C50.31 16.7366 49.762 16.0556 49.6525 16.1701C48.5566 16.8511 47.2412 17.3054 46.2548 17.8731C46.8779 17.8856 47.501 17.8476 48.1181 17.7594C48.0083 17.0781 48.7756 16.8511 49.1044 16.9648ZM44.8302 20.484C44.8302 20.0294 44.5014 19.9163 44.5014 19.6893C44.0043 20.1671 43.5631 20.7003 43.1863 21.2786C42.8575 21.2786 42.8575 20.824 42.748 20.824C42.8087 20.7301 42.8893 20.6508 42.984 20.5919C43.0788 20.533 43.1854 20.4959 43.2961 20.4834C43.3446 20.2956 43.4621 20.1331 43.6249 20.0288L43.9537 19.1196C44.5017 19.2332 44.94 19.6872 45.4881 19.9142C45.3449 19.9579 45.2125 20.0312 45.0991 20.1293C44.9858 20.2274 44.8941 20.3482 44.8299 20.484H44.8302ZM39.0216 22.6409C39.0216 22.6409 38.9121 22.5273 39.0216 22.3003C38.2546 22.5273 38.0353 22.7549 37.2679 22.8679C36.6103 23.2086 35.9528 22.8679 35.2952 22.7543L35.1857 23.2089C35.9528 23.3225 36.6103 23.5495 37.267 23.5495C38.035 23.5489 38.4732 22.7543 39.0213 22.6406L39.0216 22.6409ZM24.116 29.906C25.2118 30.4737 26.1972 29.1114 27.1848 28.8844C28.4999 28.2034 29.9249 26.7275 31.5688 26.5005C32.2264 26.2735 32.8839 25.5913 33.5415 25.2518C33.5215 25.128 33.4709 25.0111 33.3943 24.9119C33.3178 24.8128 33.2177 24.7345 33.1032 24.6842C34.3098 24.6842 35.1845 25.0248 35.9528 24.1165C35.1857 23.6619 34.1991 25.0257 33.5415 23.5489C32.9934 23.8896 32.2264 24.2299 31.7878 24.6842C31.5685 25.3652 31.3495 25.5934 30.4726 25.3652C30.3872 25.3672 30.3034 25.3887 30.2275 25.428C30.1516 25.4673 30.0855 25.5235 30.0344 25.5922C29.6689 26.0183 29.2216 26.3657 28.7192 26.6138C28.6097 26.9545 28.4999 27.4085 28.1712 27.523C27.5136 27.6367 26.6367 28.0907 25.7599 28.204C25.6504 28.204 25.6504 28.204 25.4311 28.3177L25.9792 28.5447C25.201 28.9471 24.3331 29.1426 23.4584 29.1123C22.6913 29.453 21.924 30.2476 21.4857 30.4746C21.7877 30.8468 22.2188 31.0901 22.6922 31.1556C23.2391 30.928 23.5679 30.4737 24.116 29.906ZM92.7243 32.8591L91.738 33.7683V34.109C92.1762 33.882 92.505 33.9953 92.7243 33.882C93.3819 33.5413 94.0395 32.8603 94.697 32.0657C95.4641 31.4981 96.4507 31.0441 97.4371 30.2494C97.9851 29.4548 98.6436 28.8871 99.081 28.2061C99.081 28.0925 98.9715 28.0925 98.9715 27.9791C98.4771 28.1626 98.0002 28.3905 97.5466 28.6601C96.889 29.4548 95.9027 30.5901 94.8065 31.0441C94.5872 31.0441 94.5872 31.2711 94.4777 31.3847C93.7988 31.7501 93.2019 32.252 92.7243 32.8591V32.8591ZM101.602 29.5669C101.492 30.0215 101.054 30.2479 100.725 30.4761C100.944 30.9307 101.382 31.0438 101.602 31.2708C101.382 31.9517 100.944 31.9517 100.615 31.7254C100.287 31.7254 100.067 31.4984 99.9578 31.4984C99.5213 31.4407 99.0792 31.4407 98.6427 31.4984C98.6665 32.2968 98.7397 33.093 98.862 33.8823L98.7525 34.3369C99.7121 34.0318 100.632 33.6126 101.493 33.0882C101.712 33.0882 101.712 32.7476 101.931 32.2936C102.034 31.9246 102.071 31.5403 102.04 31.1583H102.26C101.821 30.8143 101.821 30.2467 101.602 29.5657V29.5669ZM95.0261 30.0215C94.8927 29.9234 94.7448 29.8468 94.5878 29.7945C94.4339 29.7897 94.2819 29.8291 94.1495 29.9082C93.8208 30.0218 93.6015 30.4758 93.3825 30.5892L93.492 30.8162C93.8358 30.8393 94.1788 30.7603 94.4783 30.5892C94.5881 30.5861 95.0258 30.2467 95.0258 30.0197L95.0261 30.0215ZM92.5053 30.4761C91.6357 31.1456 90.7201 31.7526 89.7653 32.2924C90.9718 32.86 92.6148 32.1787 93.3819 31.4977C92.9794 31.2699 92.6691 30.9076 92.505 30.4737L92.5053 30.4761ZM98.9715 33.7683C99.1082 33.4448 99.1826 33.0981 99.1908 32.7467C99.4101 32.633 99.9579 32.633 100.506 32.2921C99.8484 33.0849 99.3003 33.3119 98.9715 33.7659V33.7683ZM16.9919 35.5822C17.759 34.1066 19.0732 33.7659 19.951 33.0846C20.1703 33.0846 20.1703 33.0846 20.1703 33.1983C19.1839 33.9929 18.4168 34.7875 16.9919 35.5822ZM86.0389 35.5822C85.3813 36.6038 84.2851 37.3985 83.7374 36.8308C82.5308 37.0578 82.2029 37.8525 81.6561 38.5338C81.6561 38.9884 81.108 38.9884 80.6697 39.443C81.4368 39.8976 81.7656 39.8976 82.3136 39.3293C82.5949 38.8103 83.0121 38.3785 83.5202 38.0807C83.7395 37.8537 84.2873 37.74 84.397 37.6261C85.3834 37.1715 86.2603 36.4908 87.3561 35.6961C87.2466 35.0151 87.4656 34.7869 88.4519 34.7869C88.7807 34.9006 89 34.5599 89.219 34.2193C88.8902 33.8786 88.3421 33.7647 87.9039 33.6516C87.1347 35.1282 86.9157 35.6958 86.0389 35.5822ZM97.1089 33.7659C96.232 34.1066 96.0131 34.7875 95.465 35.0145C96.6715 36.1498 97.3282 36.0362 98.205 34.7875C97.5466 34.9012 97.1083 34.7875 97.1083 33.7659H97.1089ZM89.6564 35.9228C89.8757 35.6958 90.2044 35.2418 90.5332 35.1282C91.0813 35.0145 91.1908 34.7875 91.1908 33.8796C90.2044 34.7888 89.5469 35.2418 88.67 35.9228C89.3267 36.4905 89.3267 36.4905 89.6555 35.9228H89.6564ZM95.0255 35.9228C95.135 35.8092 94.5872 35.5822 94.1486 35.8092L91.8472 37.6255C91.8472 37.6255 91.8472 37.8525 92.1759 38.0801C92.5047 37.9664 92.8335 37.6255 93.2718 37.5124C93.2718 37.6261 93.3813 37.6261 93.4911 37.7394C92.8335 38.3071 92.3952 38.7611 91.6279 38.8747C91.5184 38.8747 91.5184 38.7611 91.4086 38.7611C91.4985 38.5064 91.5357 38.236 91.5181 37.9664C90.97 37.8528 90.751 37.8528 90.4222 37.6258C90.2029 37.8528 90.4222 37.8528 90.4222 37.9664C89.984 38.421 89.5454 38.8756 88.9976 39.5557C88.4641 39.7752 87.9507 40.0411 87.4632 40.3503C87.1344 40.464 87.0249 40.691 86.5863 41.0313C86.1144 41.186 85.6704 41.4159 85.2712 41.7123C85.2984 42.0394 85.4119 42.3532 85.6 42.6215C85.9288 43.1892 85.9288 43.1892 85.1617 43.3025C84.3946 43.5295 83.8466 43.9835 83.189 44.4378C82.4219 44.8924 81.7641 46.0271 80.997 44.8924C80.8875 44.6654 80.7777 44.6654 80.5587 44.8924C79.6819 45.1194 79.0243 45.4601 79.4626 46.8223C79.1492 46.5819 78.8559 46.3162 78.5857 46.0277C77.8187 46.8223 76.9418 47.2763 76.0649 48.071C75.6267 48.298 75.1881 48.298 75.4074 49.3196C75.0302 49.1444 74.6155 49.0664 74.2008 49.0926L73.4338 48.979C72.9955 49.4336 72.6667 50.0006 72.1186 50.2276C71.7899 50.6822 71.3516 50.6822 70.9121 50.9086C69.9257 51.1356 68.9394 51.0222 68.8308 52.3842C68.0637 51.8166 67.0771 52.3842 66.5293 53.5195C66.091 53.6332 65.3228 53.7465 65.3228 53.8602C65.2133 54.4278 65.2133 54.6548 64.5557 54.5415C64.2269 54.5415 63.3492 54.5415 63.1308 54.4278C62.6925 53.6332 62.2539 53.1792 60.9388 53.8602C61.3771 53.0655 61.4869 52.7249 61.9251 52.1572C62.2539 51.9302 62.4732 51.8166 62.5827 51.5896C62.5827 52.0442 62.802 52.1572 63.021 52.8382C63.2403 52.1572 63.2403 51.929 63.3498 51.5896C63.6321 51.6903 63.8925 51.8447 64.1168 52.0442C64.2263 51.9305 64.2263 51.9305 64.4456 51.9305C64.2263 51.5899 64.2263 51.2495 64.0073 50.7952C64.0073 50.7952 63.2403 50.7952 63.1305 50.9089C62.5824 51.0225 62.5824 51.2495 62.2536 51.3635C61.7056 51.5905 60.9385 51.5905 60.4999 51.9311C60.4281 51.8323 60.3898 51.7129 60.3904 51.5905L61.3768 50.9095C61.4863 50.7959 61.7056 50.7959 61.8151 50.6825C62.0343 50.3419 62.3631 50.0012 62.4726 50.1149C63.2397 50.7959 64.1165 49.8879 64.7741 49.3202C65.3222 48.9796 66.0892 47.9579 66.8554 48.0716C67.9512 47.9579 68.8281 46.5959 70.472 46.5959C69.9239 46.9366 69.9239 47.1636 69.7049 47.2769C69.0474 47.8446 68.6091 48.0716 67.9512 48.7529C67.1842 48.8665 66.4168 49.2075 65.8699 49.2075C65.2124 49.3211 64.7741 49.7751 64.7741 50.7968C66.0892 50.1158 67.0756 49.6615 68.1717 49.2075C68.2812 49.3211 68.2812 49.6621 68.2812 50.0021C68.8293 49.6615 69.1581 49.3211 69.7059 49.0929C69.7059 48.8659 69.4866 48.5253 69.7059 48.5253C70.5827 47.8443 71.2403 47.163 72.1171 46.5953C72.7747 46.4817 72.7747 46.3683 72.8842 45.6861C72.3361 46.0268 71.8978 46.0268 71.5691 46.2538C71.4596 46.0268 71.4596 46.0268 71.3498 46.0268L71.8978 45.1176C72.3535 44.8405 72.7926 44.537 73.213 44.2084C72.3361 44.549 70.9115 44.0947 70.6922 45.5707C70.4855 45.4541 70.3087 45.2908 70.1756 45.0938C70.0424 44.8968 69.9567 44.6714 69.9251 44.4354C68.9455 44.9916 67.9955 45.5989 67.0789 46.2547C67.0936 46.2547 67.1081 46.2577 67.1216 46.2635C67.1351 46.2693 67.1473 46.2777 67.1575 46.2883C67.1677 46.2989 67.1757 46.3114 67.181 46.3252C67.1863 46.3389 67.1888 46.3536 67.1884 46.3683C68.0653 46.1414 68.8323 45.5737 69.5997 45.3467L69.819 45.4604C68.8326 46.1414 67.8463 46.5956 66.8599 47.2766C66.4216 47.3903 66.0929 47.0496 65.4353 47.0496C65.4241 47.1352 65.3857 47.2148 65.3258 47.2766C64.997 47.5036 64.2299 47.5036 64.2299 47.8443C63.3531 49.0929 62.3667 48.8659 61.2709 49.2066C60.9421 49.3202 60.6133 49.2066 60.394 49.3202C59.0789 50.0012 57.8733 50.7959 56.6676 51.3635C54.3661 52.3851 52.0647 53.6341 49.7629 54.5421C47.7902 55.4513 45.8175 56.3584 43.6255 56.926C42.3103 57.607 40.4471 57.9476 38.8032 58.6289C38.0362 58.7426 37.7074 59.6506 37.7074 60.3319C37.8156 60.5626 37.8717 60.8146 37.8717 61.0697C37.8717 61.3248 37.8156 61.5767 37.7074 61.8075V62.4885C37.9267 63.1695 37.9267 63.9641 38.1457 64.7591C38.2552 65.0997 38.1457 65.6683 38.2552 66.0077C38.9127 66.4623 39.5703 67.0293 40.3364 67.37C41.2133 67.8246 42.3091 67.2563 43.4053 67.0293C44.6118 66.6887 45.7068 66.0077 46.9124 65.6671C49.9813 64.3048 53.4881 62.9425 56.6667 61.4669C59.6258 60.2182 62.4753 58.7423 65.3237 57.2666C65.4332 56.926 65.543 56.926 65.762 56.812C66.9587 56.3754 68.0442 55.6776 68.9403 54.7688C69.4884 54.6551 69.7074 54.6551 70.0361 54.4281C70.4744 54.0875 70.4744 53.5189 70.5842 53.2928C70.8035 53.1792 71.4611 53.5198 71.6801 53.2928C72.5569 53.0658 73.324 52.4982 73.9815 52.0442C74.4198 51.8172 74.9679 51.7035 75.4062 51.3632C75.4068 51.3484 75.4045 51.3336 75.3993 51.3198C75.394 51.3059 75.3861 51.2933 75.3758 51.2827C75.3655 51.272 75.3532 51.2636 75.3396 51.2579C75.326 51.2522 75.3114 51.2494 75.2967 51.2495C74.874 51.2697 74.4614 51.3862 74.0901 51.5902C75.0765 50.1146 76.3916 49.3196 77.2685 50.2279C78.0355 49.7733 78.6931 49.2063 79.4605 48.8656C78.9124 48.298 79.57 47.844 79.8987 47.5033C80.5563 46.9357 81.1053 46.5941 81.98 47.1627C81.7607 46.2535 82.4183 46.0274 83.1866 45.5734C83.8356 45.4356 84.4961 45.3596 85.1593 45.3464L84.721 44.5518C85.1912 44.4039 85.608 44.1208 85.9197 43.7374C86.2314 43.3541 86.4243 42.8873 86.4747 42.3948C86.6355 42.5139 86.768 42.6672 86.8628 42.8439C86.9576 43.0205 87.0122 43.2161 87.0228 43.4165C87.5181 42.9789 87.9596 42.4834 88.3379 41.9405C88.4474 41.9405 88.6667 42.1675 88.7762 42.3951C89.345 41.8064 89.969 41.2742 90.6394 40.8058C91.1875 40.3512 92.5026 40.4652 92.8314 39.5572V39.3302C93.1602 38.8756 93.5985 38.421 93.5985 38.0816C93.8177 37.4006 94.5848 37.0599 95.1329 37.0599C95.3522 37.0599 95.5712 37.4006 96.1192 37.6276C96.1048 37.0955 96.1415 36.5633 96.2287 36.0383C95.5739 36.4905 95.2451 36.7175 95.0258 35.9228H95.0255ZM11.0738 40.35C11.0738 40.35 10.8545 40.35 10.8545 40.0094C11.1192 39.8636 11.3161 39.6189 11.4026 39.3284C11.5271 38.935 11.7542 38.5823 12.0602 38.3068C12.2795 38.0798 12.4984 37.7391 12.7177 37.7391C13.2658 37.6255 13.5946 37.6255 14.0329 37.5121C14.7999 36.8311 15.2394 36.1498 15.7866 35.9228C15.9294 35.8247 16.0938 35.763 16.2657 35.7432C16.4376 35.7234 16.6117 35.746 16.7729 35.8092C14.8002 37.5121 12.937 38.8744 11.0738 40.35ZM86.4774 37.5121C85.4189 37.8605 84.4727 38.4877 83.7374 39.3284L80.9973 40.8043C79.0246 42.2803 77.0519 43.1883 75.0789 44.4369C74.4213 44.6639 73.9831 45.1179 73.5445 45.2315C73.7638 46.0262 74.0925 46.1407 74.202 46.3668C74.9691 46.0262 75.2979 45.5722 75.846 45.1182C76.1747 44.5506 76.7228 44.3236 77.1611 43.9829C77.913 43.2681 78.8105 42.7259 79.7914 42.3936C79.9725 42.3707 80.1426 42.2934 80.2794 42.1719C80.4162 42.0505 80.5134 41.8904 80.5584 41.7126C80.6679 41.599 80.8872 41.258 80.9967 41.258C82.7504 40.8034 84.175 39.4417 85.7095 38.7605C85.9288 37.9658 86.5863 37.9658 87.0246 37.7388C87.5134 37.6276 87.966 37.3932 88.3397 37.0578C88.3264 36.8648 88.2896 36.6742 88.2302 36.4902C88.1207 36.6038 87.9015 36.4902 87.3534 36.6038C87.1347 36.7175 86.8059 37.1715 86.4771 37.5121H86.4774ZM79.7917 39.5569C79.4629 39.8976 79.4629 40.2379 79.1341 40.2379C78.9148 40.4649 78.367 40.6925 78.1477 40.5785C77.0519 40.3516 76.9412 40.3516 76.5038 41.2595C76.175 41.4865 75.8463 41.2595 75.2973 41.4865C74.5302 41.9411 73.9821 42.3957 73.4341 42.7352V43.0758C73.2148 43.3028 73.2148 43.5304 73.2148 44.0975C74.2011 44.6651 74.4213 43.3028 75.5163 43.3028C76.2833 43.1892 77.0507 42.2812 77.8178 41.7135C78.6946 40.8043 79.4617 40.5782 80.7768 40.4649C80.3979 40.2227 80.0644 39.9154 79.7917 39.5569ZM89.1074 41.2598C88.7102 41.1405 88.3386 40.948 88.0116 40.6922C88.121 40.6922 88.121 40.4652 88.121 40.3516C88.4401 40.465 88.7883 40.465 89.1074 40.3516C89.2451 40.594 89.3205 40.8671 89.3267 41.1462C89.2172 41.1447 89.2172 41.2583 89.1077 41.2583L89.1074 41.2598ZM59.9546 52.0433C59.6106 52.42 59.1444 52.6615 58.6394 52.7243C58.8584 51.9293 59.4065 51.816 59.9546 52.0433ZM60.5032 56.4702C60.065 56.4702 59.9552 56.4702 59.7362 56.2432C59.4074 56.2432 59.6267 56.0162 59.6267 56.0162C60.0238 55.8969 60.3954 55.7044 60.7225 55.4485C60.756 55.8037 60.6794 56.1605 60.5032 56.4702V56.4702ZM77.9294 72.8173C77.8199 73.0443 77.7101 73.0443 77.1623 73.158C77.2718 73.0443 77.1623 72.8173 77.1623 72.5903C77.0528 72.3633 76.724 72.2497 76.3952 71.7957C76.3952 70.8865 77.7104 71.5687 78.0392 71.001C78.045 70.6943 78.0082 70.3883 77.9297 70.0918C78.2839 70.2244 78.5896 70.4618 78.8065 70.7728C78.8065 69.6375 78.916 69.0699 78.8065 68.2753C78.697 65.6643 78.149 63.2804 75.4089 62.3721L73.5457 61.4629C73.5268 61.5814 73.4899 61.6963 73.4362 61.8036C73.4197 61.9939 73.4639 62.1846 73.5624 62.3481C73.661 62.5115 73.8087 62.6393 73.9843 62.7128C75.5187 63.2804 75.957 64.756 75.8475 66.232C75.8475 67.0266 76.0668 67.8213 75.6282 68.7296C75.0801 69.2972 74.9706 70.0918 74.4216 71.0001C75.0792 71.2271 75.2985 71.2271 75.5175 71.3408C74.5311 73.1571 73.7638 73.7247 72.7774 73.4977C72.5581 73.9523 72.3391 74.86 71.6816 75.314C70.8394 76.4337 69.843 77.4275 68.7225 78.2656C66.9688 79.2872 65.2154 80.1955 63.3534 81.1035C63.149 81.3839 62.8867 81.6166 62.5845 81.7857C62.694 82.0127 62.694 82.0127 63.0228 82.2403C63.0642 82.1622 63.1283 82.0986 63.2067 82.058C63.285 82.0175 63.3737 82.0019 63.4611 82.0133C64.3921 81.2017 65.4239 80.5147 66.5305 79.9694C66.9688 79.7436 67.0789 79.4018 67.2976 79.289C68.832 78.3798 70.4759 77.4727 71.792 76.5644C72.0029 76.5048 72.1928 76.3868 72.34 76.2238C72.7255 75.9058 73.0915 75.5646 73.4359 75.2022C73.984 74.5212 74.4222 74.1805 74.751 73.6129C75.5181 72.8182 76.1756 72.5912 76.5047 73.3859C76.943 73.6129 76.724 74.0669 76.943 74.4075C78.2581 73.8399 79.4638 72.2506 78.6967 71.3423C78.367 71.7957 78.2575 72.3633 77.9285 72.8173H77.9294ZM33.651 69.2981L33.8703 69.5251C33.3222 70.0927 33.5415 70.2061 34.3085 70.2061C34.5278 70.5467 34.9661 70.5467 35.1854 70.7737C35.1854 70.8874 35.1854 70.8874 35.0759 71.0007L33.3222 70.5461C33.3089 70.3531 33.2721 70.1625 33.2127 69.9785C33.2127 69.7524 33.5415 69.5254 33.651 69.2981ZM75.9558 70.5467C75.8408 70.5269 75.7297 70.4885 75.627 70.4331C75.8463 69.9785 76.175 69.8654 76.175 69.5239C76.2845 69.5239 76.3943 69.6375 76.3943 69.8645L75.9558 70.5467ZM73.9831 70.8874C73.7224 71.3783 73.5727 71.921 73.5448 72.4767C73.8037 72.4653 74.0607 72.4272 74.3118 72.363C74.2023 71.682 74.0925 71.3414 74.2023 70.8874H73.9831ZM42.5284 74.5203C43.2325 74.7614 43.8972 75.1056 44.5011 75.5419C44.0386 75.6688 43.596 75.8598 43.186 76.1095C42.7477 75.5419 42.5284 74.8609 42.1997 74.6339C42.3091 74.5203 42.3091 74.5203 42.5284 74.5203ZM76.175 76.1095C76.175 76.2231 75.9559 76.2231 75.5175 76.1095C75.3625 76.0929 75.2068 76.1332 75.0792 76.2232C75.0792 76.2232 75.0792 76.6778 75.1887 76.6778C75.1887 76.7914 75.408 76.9048 75.627 76.7914C76.2271 76.4494 76.7798 76.0296 77.2709 75.5428C77.0516 75.5428 77.0516 75.4292 76.9421 75.4292C76.7231 75.5419 76.5038 75.8825 76.175 76.1095ZM48.9946 78.2665C49.1041 78.6071 49.4329 78.9475 49.5427 79.2881C49.5427 79.4018 49.4332 79.4018 49.1044 79.5151C48.908 79.1316 48.6028 78.8152 48.2275 78.6059C48.4545 78.4361 48.7167 78.32 48.9946 78.2665V78.2665ZM72.2293 79.0611C72.1198 80.3098 71.243 79.8558 70.6949 79.7421C69.9279 81.3314 68.5029 81.7854 67.2973 82.4667L65.7629 83.1477C65.3246 83.3747 65.2148 83.9423 64.7765 84.51V84.737C65.8724 84.056 66.7492 83.7153 67.6261 83.034C68.4052 82.5807 69.1077 82.0059 69.7074 81.3311C70.0361 81.1041 70.6937 80.9904 71.0225 80.5364C71.5706 80.4228 72.1183 80.3094 72.3376 79.9688C72.7774 79.7436 72.8872 79.1748 72.2296 79.0611H72.2293ZM58.7489 82.2397C59.7353 82.126 60.3928 81.5587 61.2697 81.5587C60.8314 80.6504 59.8451 80.991 58.7489 82.2397ZM61.3792 82.2397C60.8311 82.3533 60.5023 82.6943 59.9546 82.9207C60.7216 82.9207 61.0504 83.0343 61.9273 83.0343C61.708 82.5803 61.489 82.4667 61.378 82.2397H61.3792ZM45.8148 86.5535C45.8148 86.7805 45.7053 86.8942 45.7053 87.0081C46.034 87.1218 46.3628 87.4627 46.8011 87.4627C46.7723 87.2665 46.8109 87.0663 46.9106 86.8951C46.3643 86.6672 46.1454 86.5535 45.8163 86.5535H45.8148ZM42.5269 87.8022C42.3076 88.0292 41.7599 88.1428 41.5406 88.2568C41.6187 88.3276 41.6793 88.4158 41.7174 88.5144C41.7555 88.613 41.77 88.7192 41.7599 88.8244C42.3079 88.4838 42.5269 88.2568 42.7462 88.2568L42.5269 87.8022ZM38.5815 89.6185C39.3486 90.4131 39.5679 89.8455 40.1159 89.0508H40.883C40.7413 88.7246 40.557 88.4189 40.3349 88.1416C39.5679 88.9363 38.8005 89.6176 37.9237 89.0508C38.1445 89.5051 38.583 89.5051 38.583 89.6188L38.5815 89.6185ZM43.186 92.23L43.6243 92.457C44.3913 92.3433 45.0489 92.23 45.378 91.8893C46.1451 91.6623 47.1317 90.9801 47.7893 91.5487C48.1631 91.1008 48.6074 90.7173 49.1044 90.4134C50.4195 90.2998 51.7347 89.9588 53.2691 89.6188C53.202 89.3978 53.1651 89.1687 53.1596 88.9378C52.3925 88.9378 51.735 88.9378 51.2964 89.1648C50.5293 89.1648 50.0898 89.6194 49.5427 89.6194C48.8851 89.96 48.2275 90.3004 47.6795 90.641C47.1371 90.9653 46.5442 91.1955 45.9258 91.322L43.6243 91.6626C43.5148 91.662 43.4053 92.116 43.186 92.23ZM36.2819 91.208C36.3669 90.6632 36.514 90.1299 36.7201 89.6188C35.9531 89.8458 34.9664 89.7324 34.8569 90.981C35.2949 91.3208 35.843 91.662 36.2819 91.208ZM32.994 92.3433C33.1131 92.3508 33.2325 92.3345 33.3453 92.2956C33.4581 92.2566 33.5622 92.1957 33.6516 92.1163C33.6697 92.6485 33.633 93.1811 33.5421 93.7056C32.8839 93.365 32.6646 92.7973 32.994 92.343V92.3433ZM34.9667 93.7056C34.9667 93.7056 34.9667 94.0463 35.0762 94.1602C34.6958 94.2719 34.3284 94.4243 33.9804 94.6148C33.8798 94.5924 33.7909 94.5338 33.7303 94.4501C33.6698 94.3663 33.6418 94.2632 33.6516 94.1602C34.0893 94.046 34.5278 93.819 34.9661 93.7053L34.9667 93.7056ZM49.3246 103.014C49.5439 103.128 49.8727 103.582 49.9822 103.582C49.5439 103.696 48.8863 103.696 48.119 103.809C47.8997 103.809 47.7902 103.695 47.3519 103.582C46.475 103.127 45.9273 103.809 45.8175 104.717C45.0504 104.831 44.3925 105.058 43.9543 105.058C43.5386 105.104 43.1187 105.025 42.7477 104.831C43.186 104.604 43.5148 104.604 43.6246 104.263V104.036C42.7477 104.263 41.6519 104.263 40.775 104.717C40.7755 104.732 40.773 104.747 40.7677 104.76C40.7624 104.774 40.7544 104.787 40.7442 104.797C40.734 104.808 40.7217 104.816 40.7082 104.822C40.6947 104.828 40.6802 104.831 40.6655 104.831C40.8848 104.945 41.2136 104.945 41.4326 105.058V105.398C40.1175 105.398 38.583 105.512 37.1584 105.625C37.5967 104.716 38.1448 104.604 38.6928 104.944C38.9137 105.018 39.1493 105.036 39.3787 104.996C39.6081 104.957 39.8243 104.861 40.008 104.717C40.439 104.319 40.9691 104.044 41.5424 103.923C41.5465 103.654 41.5096 103.386 41.4329 103.128C42.748 103.923 43.6249 103.469 44.6112 103.242C45.0495 103.242 45.1593 102.901 45.2688 102.901C46.3646 103.128 47.2415 102.787 48.2279 102.22C49.9816 101.765 51.735 101.198 53.4887 100.744C52.3922 101.652 50.9676 101.992 49.3234 103.014H49.3246ZM36.6112 104.036C36.2825 103.922 35.7344 104.15 35.1866 104.15C34.3098 103.809 33.3234 103.582 32.6658 104.036C32.3318 103.861 32.0628 103.582 31.8988 103.241C31.7893 103.241 31.7893 103.014 31.7893 103.014C31.8988 102.901 32.1181 102.674 32.2276 102.674C32.9946 102.674 34.2003 102.674 35.0771 103.014C36.1532 103.006 37.2245 103.159 38.2555 103.469C37.7062 103.922 37.4884 104.716 36.61 104.036H36.6112Z" fill="#B10000"/>
<path d="M71.1724 97.7637H71.3284C71.3802 97.607 71.4843 97.607 71.6406 97.6591C71.6406 97.7113 71.6924 97.7113 71.7446 97.6591C72.0046 97.607 72.1087 97.3455 72.2128 97.1367C72.3168 96.9278 72.3687 96.6663 72.4728 96.405C72.4728 96.3529 72.5246 96.3005 72.5246 96.2484C72.5824 96.153 72.6179 96.0458 72.6287 95.9347C72.6806 95.778 72.6287 95.6734 72.6806 95.5689L72.8887 95.2031C72.954 95.0196 73.0409 94.8446 73.1475 94.6818C73.3035 94.316 73.6157 94.0026 73.7206 93.5844C73.8256 93.1662 74.0847 92.8007 73.9288 92.3303C73.9028 92.1571 73.9028 91.981 73.9288 91.8078V91.7032C73.87 91.5588 73.8004 91.4191 73.7206 91.2853L73.5647 91.1286C73.314 91.0428 73.049 91.0072 72.7847 91.0241C72.5151 90.9998 72.2442 91.0542 72.0046 91.1808C71.6406 91.378 71.2566 91.5356 70.8593 91.6511C70.7521 91.6944 70.6341 91.7025 70.522 91.6744C70.4099 91.6462 70.3096 91.5833 70.2352 91.4944C70.0638 91.3793 69.8671 91.3076 69.6621 91.2853C69.5646 91.2632 69.4626 91.2714 69.3698 91.3087C69.277 91.3461 69.1976 91.4108 69.1421 91.4944C69.0786 91.5769 69.0442 91.6781 69.0442 91.7823C69.0442 91.8866 69.0786 91.9878 69.1421 92.0703C69.4021 92.4361 69.298 92.854 69.2462 93.2722C69.2462 93.4289 69.0902 93.5335 69.0902 93.638C69.1421 93.8472 69.0383 93.9517 68.9343 94.1084C68.9343 94.1605 68.8824 94.1605 68.8824 94.213C68.8824 94.4221 68.8305 94.6309 68.8305 94.84C68.7786 95.0491 68.6746 95.2579 68.6224 95.4671C68.6224 95.5716 68.6743 95.7283 68.6743 95.885V95.9895C68.7783 96.3553 69.1424 96.512 69.4543 96.7211C69.6975 96.8284 69.9252 96.9682 70.1312 97.1367L70.4952 97.3458C70.5471 97.3979 70.7034 97.3979 70.7553 97.4503L71.1724 97.7637Z" fill="#B10000"/>
</g>
<path d="M129.902 54.1094H126.814V51.8184H135.888V54.1094H132.811V71H129.902V54.1094ZM140.959 51.8184H143.867V59.8481H147.315V51.8184H150.224V71H147.315V62.1392H143.867V71H140.959V51.8184ZM156.642 51.8184H163.751V54.1094H159.55V59.8481H162.796V62.1392H159.55V68.709H163.863V71H156.642V51.8184ZM176.351 67.1143C176.351 66.7025 176.373 66.3244 176.418 65.98C176.471 65.6281 176.545 65.25 176.643 64.8457H178.9V65.7778C178.9 66.2944 178.93 66.7511 178.99 67.1479C179.057 67.5448 179.162 67.8817 179.304 68.1587C179.454 68.4282 179.649 68.6341 179.888 68.7764C180.135 68.9111 180.435 68.9785 180.787 68.9785C181.341 68.9785 181.764 68.8288 182.056 68.5293C182.348 68.2223 182.494 67.7769 182.494 67.1929C182.494 66.8934 182.471 66.6201 182.426 66.373C182.389 66.1185 182.318 65.8677 182.213 65.6206C182.116 65.3735 181.981 65.1152 181.809 64.8457C181.637 64.5687 181.416 64.2617 181.146 63.9248L178.114 60.3198C177.575 59.631 177.159 58.9385 176.867 58.2422C176.575 57.5384 176.429 56.7897 176.429 55.9961C176.429 55.3597 176.527 54.7757 176.721 54.2441C176.924 53.7126 177.212 53.2559 177.586 52.874C177.96 52.4847 178.421 52.1852 178.967 51.9756C179.522 51.7585 180.147 51.6499 180.843 51.6499C181.689 51.6499 182.393 51.7697 182.954 52.0093C183.523 52.2489 183.976 52.5633 184.313 52.9526C184.65 53.342 184.886 53.7799 185.021 54.2666C185.163 54.7458 185.234 55.2287 185.234 55.7153C185.234 56.1271 185.2 56.509 185.133 56.8608C185.073 57.2052 185.002 57.5871 184.92 58.0063H182.674V57.0967C182.674 56.0785 182.528 55.2998 182.236 54.7607C181.944 54.2142 181.468 53.9409 180.809 53.9409C180.263 53.9409 179.855 54.0944 179.585 54.4014C179.316 54.7008 179.181 55.1051 179.181 55.6143C179.181 55.8838 179.2 56.1271 179.237 56.3442C179.282 56.5614 179.342 56.7635 179.417 56.9507C179.499 57.1304 179.596 57.3063 179.709 57.4785C179.821 57.6507 179.948 57.8304 180.091 58.0176L183.471 62.1055C184.085 62.9066 184.557 63.6777 184.886 64.4189C185.215 65.1527 185.38 65.9313 185.38 66.7549C185.38 67.4362 185.272 68.0501 185.054 68.5967C184.845 69.1432 184.542 69.6074 184.145 69.9893C183.748 70.3711 183.269 70.6668 182.707 70.8765C182.146 71.0786 181.513 71.1797 180.809 71.1797C179.941 71.1797 179.218 71.0636 178.642 70.8315C178.073 70.5994 177.616 70.2925 177.272 69.9106C176.935 69.5288 176.695 69.0946 176.553 68.6079C176.418 68.1213 176.351 67.6234 176.351 67.1143ZM193.045 51.8184H196.391L199.94 71H196.998L196.47 67.5635H192.966L192.461 71H189.507L193.045 51.8184ZM196.133 65.3735L194.785 55.8164H194.662L193.303 65.3735H196.133ZM204.909 51.8184H207.268L211.917 64.6548H211.985C211.962 64.3553 211.932 64.0221 211.895 63.6553C211.857 63.2884 211.824 62.8729 211.794 62.4087C211.764 61.937 211.738 61.4054 211.715 60.814C211.693 60.2225 211.681 59.5562 211.681 58.8149V51.8184H214.287V71H211.906L207.279 58.5005H207.189C207.212 58.8374 207.242 59.2043 207.279 59.6011C207.316 59.9904 207.35 60.4508 207.38 60.9824C207.41 61.514 207.436 62.1354 207.459 62.8467C207.481 63.5505 207.492 64.389 207.492 65.3623V71H204.909V51.8184ZM220.682 51.8184H223.703C224.16 51.8184 224.632 51.8333 225.118 51.8633C225.613 51.8857 226.092 51.9644 226.556 52.0991C227.028 52.2339 227.469 52.4435 227.881 52.728C228.3 53.005 228.667 53.3981 228.982 53.9072C229.296 54.4089 229.543 55.0452 229.723 55.8164C229.91 56.5801 230.004 57.516 230.004 58.624V64.1943C230.004 65.3024 229.91 66.242 229.723 67.0132C229.543 67.7843 229.296 68.4207 228.982 68.9224C228.667 69.424 228.3 69.8171 227.881 70.1016C227.469 70.3786 227.028 70.5845 226.556 70.7192C226.092 70.854 225.613 70.9364 225.118 70.9663C224.632 70.9888 224.16 71 223.703 71H220.682V51.8184ZM224.332 68.9673C224.856 68.9673 225.287 68.8999 225.624 68.7651C225.968 68.6304 226.238 68.3945 226.432 68.0576C226.635 67.7132 226.773 67.249 226.848 66.665C226.923 66.0736 226.96 65.3286 226.96 64.4302V58.478C226.96 57.5796 226.923 56.8384 226.848 56.2544C226.773 55.6629 226.635 55.1987 226.432 54.8618C226.238 54.5174 225.968 54.2778 225.624 54.1431C225.287 54.0083 224.856 53.9409 224.332 53.9409H223.591V68.9673H224.332ZM237.994 64.6099L234.131 51.8184H237.062L239.409 60.9937H239.544L241.868 51.8184H244.788L240.903 64.6099V71H237.994V64.6099ZM257.624 51.8184H264.958V54.1094H260.533V59.8481H264.003V62.1392H260.533V71H257.624V51.8184ZM274.251 71.1685C273.944 71.1685 273.611 71.1423 273.251 71.0898C272.892 71.0449 272.536 70.9438 272.184 70.7866C271.833 70.6294 271.492 70.4085 271.162 70.124C270.841 69.832 270.552 69.4502 270.298 68.9785C270.051 68.5068 269.852 67.9266 269.702 67.2378C269.553 66.5415 269.478 65.7142 269.478 64.7559V57.9614C269.478 56.9956 269.553 56.172 269.702 55.4907C269.86 54.8019 270.066 54.2254 270.32 53.7612C270.575 53.2896 270.863 52.9152 271.185 52.6382C271.514 52.3612 271.855 52.1515 272.207 52.0093C272.566 51.8595 272.922 51.7622 273.274 51.7173C273.626 51.6724 273.951 51.6499 274.251 51.6499C274.535 51.6499 274.85 51.6724 275.194 51.7173C275.546 51.7547 275.894 51.8446 276.239 51.9868C276.591 52.1216 276.931 52.3275 277.261 52.6045C277.59 52.874 277.882 53.2446 278.137 53.7163C278.391 54.1805 278.593 54.7607 278.743 55.457C278.9 56.1458 278.979 56.9806 278.979 57.9614V64.7559C278.979 65.7067 278.9 66.5265 278.743 67.2153C278.586 67.8966 278.38 68.4769 278.125 68.9561C277.871 69.4277 277.575 69.8096 277.238 70.1016C276.909 70.3861 276.568 70.6107 276.216 70.7754C275.872 70.9326 275.527 71.0374 275.183 71.0898C274.839 71.1423 274.528 71.1685 274.251 71.1685ZM274.251 68.9785C274.535 68.9785 274.782 68.9299 274.992 68.8325C275.209 68.7352 275.385 68.5667 275.52 68.3271C275.662 68.0876 275.767 67.7731 275.834 67.3838C275.909 66.987 275.947 66.4891 275.947 65.8901V57.1641C275.947 56.5501 275.909 56.0373 275.834 55.6255C275.767 55.2137 275.662 54.8843 275.52 54.6372C275.385 54.3826 275.209 54.203 274.992 54.0981C274.782 53.9933 274.535 53.9409 274.251 53.9409C273.959 53.9409 273.704 53.9933 273.487 54.0981C273.27 54.203 273.09 54.3826 272.948 54.6372C272.806 54.8843 272.697 55.2137 272.622 55.6255C272.555 56.0373 272.521 56.5501 272.521 57.1641V65.8901C272.521 66.4891 272.555 66.987 272.622 67.3838C272.697 67.7731 272.806 68.0876 272.948 68.3271C273.09 68.5667 273.27 68.7352 273.487 68.8325C273.704 68.9299 273.959 68.9785 274.251 68.9785ZM284.768 51.8184H287.699V65.8789C287.699 66.4779 287.729 66.9757 287.789 67.3726C287.849 67.7694 287.942 68.0876 288.07 68.3271C288.204 68.5592 288.373 68.7277 288.575 68.8325C288.785 68.9299 289.032 68.9785 289.316 68.9785C289.601 68.9785 289.848 68.9299 290.057 68.8325C290.275 68.7277 290.451 68.5592 290.585 68.3271C290.728 68.0876 290.832 67.7694 290.9 67.3726C290.975 66.9757 291.012 66.4779 291.012 65.8789V51.8184H293.91V65.104C293.91 66.0399 293.835 66.841 293.685 67.5073C293.535 68.1737 293.337 68.7314 293.09 69.1807C292.843 69.6299 292.558 69.9855 292.236 70.2476C291.922 70.5096 291.592 70.7118 291.248 70.854C290.911 70.9888 290.574 71.0749 290.237 71.1123C289.9 71.1497 289.593 71.1685 289.316 71.1685C289.039 71.1685 288.732 71.1497 288.395 71.1123C288.066 71.0749 287.733 70.9888 287.396 70.854C287.059 70.7118 286.733 70.5096 286.419 70.2476C286.104 69.9855 285.824 69.6299 285.577 69.1807C285.329 68.7314 285.131 68.1774 284.981 67.5186C284.839 66.8522 284.768 66.0474 284.768 65.104V51.8184ZM300.226 51.8184H302.585L307.234 64.6548H307.302C307.279 64.3553 307.249 64.0221 307.212 63.6553C307.174 63.2884 307.141 62.8729 307.111 62.4087C307.081 61.937 307.055 61.4054 307.032 60.814C307.01 60.2225 306.998 59.5562 306.998 58.8149V51.8184H309.604V71H307.223L302.596 58.5005H302.506C302.529 58.8374 302.559 59.2043 302.596 59.6011C302.634 59.9904 302.667 60.4508 302.697 60.9824C302.727 61.514 302.753 62.1354 302.776 62.8467C302.798 63.5505 302.809 64.389 302.809 65.3623V71H300.226V51.8184ZM315.999 51.8184H319.02C319.477 51.8184 319.949 51.8333 320.435 51.8633C320.93 51.8857 321.409 51.9644 321.873 52.0991C322.345 52.2339 322.786 52.4435 323.198 52.728C323.617 53.005 323.984 53.3981 324.299 53.9072C324.613 54.4089 324.86 55.0452 325.04 55.8164C325.227 56.5801 325.321 57.516 325.321 58.624V64.1943C325.321 65.3024 325.227 66.242 325.04 67.0132C324.86 67.7843 324.613 68.4207 324.299 68.9224C323.984 69.424 323.617 69.8171 323.198 70.1016C322.786 70.3786 322.345 70.5845 321.873 70.7192C321.409 70.854 320.93 70.9364 320.435 70.9663C319.949 70.9888 319.477 71 319.02 71H315.999V51.8184ZM319.649 68.9673C320.173 68.9673 320.604 68.8999 320.941 68.7651C321.285 68.6304 321.555 68.3945 321.749 68.0576C321.952 67.7132 322.09 67.249 322.165 66.665C322.24 66.0736 322.277 65.3286 322.277 64.4302V58.478C322.277 57.5796 322.24 56.8384 322.165 56.2544C322.09 55.6629 321.952 55.1987 321.749 54.8618C321.555 54.5174 321.285 54.2778 320.941 54.1431C320.604 54.0083 320.173 53.9409 319.649 53.9409H318.908V68.9673H319.649ZM333.143 51.8184H336.489L340.038 71H337.096L336.568 67.5635H333.064L332.559 71H329.605L333.143 51.8184ZM336.231 65.3735L334.883 55.8164H334.76L333.401 65.3735H336.231ZM346.782 54.1094H343.693V51.8184H352.768V54.1094H349.69V71H346.782V54.1094ZM357.838 51.8184H360.747V71H357.838V51.8184ZM371.387 71.1685C371.08 71.1685 370.747 71.1423 370.388 71.0898C370.028 71.0449 369.673 70.9438 369.321 70.7866C368.969 70.6294 368.628 70.4085 368.299 70.124C367.977 69.832 367.689 69.4502 367.434 68.9785C367.187 68.5068 366.989 67.9266 366.839 67.2378C366.689 66.5415 366.614 65.7142 366.614 64.7559V57.9614C366.614 56.9956 366.689 56.172 366.839 55.4907C366.996 54.8019 367.202 54.2254 367.457 53.7612C367.711 53.2896 367.999 52.9152 368.321 52.6382C368.651 52.3612 368.991 52.1515 369.343 52.0093C369.703 51.8595 370.058 51.7622 370.41 51.7173C370.762 51.6724 371.088 51.6499 371.387 51.6499C371.672 51.6499 371.986 51.6724 372.331 51.7173C372.682 51.7547 373.031 51.8446 373.375 51.9868C373.727 52.1216 374.068 52.3275 374.397 52.6045C374.726 52.874 375.018 53.2446 375.273 53.7163C375.527 54.1805 375.73 54.7607 375.879 55.457C376.037 56.1458 376.115 56.9806 376.115 57.9614V64.7559C376.115 65.7067 376.037 66.5265 375.879 67.2153C375.722 67.8966 375.516 68.4769 375.262 68.9561C375.007 69.4277 374.711 69.8096 374.374 70.1016C374.045 70.3861 373.704 70.6107 373.353 70.7754C373.008 70.9326 372.664 71.0374 372.319 71.0898C371.975 71.1423 371.664 71.1685 371.387 71.1685ZM371.387 68.9785C371.672 68.9785 371.919 68.9299 372.128 68.8325C372.346 68.7352 372.521 68.5667 372.656 68.3271C372.798 68.0876 372.903 67.7731 372.971 67.3838C373.046 66.987 373.083 66.4891 373.083 65.8901V57.1641C373.083 56.5501 373.046 56.0373 372.971 55.6255C372.903 55.2137 372.798 54.8843 372.656 54.6372C372.521 54.3826 372.346 54.203 372.128 54.0981C371.919 53.9933 371.672 53.9409 371.387 53.9409C371.095 53.9409 370.841 53.9933 370.624 54.0981C370.406 54.203 370.227 54.3826 370.084 54.6372C369.942 54.8843 369.834 55.2137 369.759 55.6255C369.691 56.0373 369.658 56.5501 369.658 57.1641V65.8901C369.658 66.4891 369.691 66.987 369.759 67.3838C369.834 67.7731 369.942 68.0876 370.084 68.3271C370.227 68.5667 370.406 68.7352 370.624 68.8325C370.841 68.9299 371.095 68.9785 371.387 68.9785ZM381.972 51.8184H384.33L388.979 64.6548H389.047C389.024 64.3553 388.994 64.0221 388.957 63.6553C388.92 63.2884 388.886 62.8729 388.856 62.4087C388.826 61.937 388.8 61.4054 388.777 60.814C388.755 60.2225 388.744 59.5562 388.744 58.8149V51.8184H391.349V71H388.968L384.341 58.5005H384.251C384.274 58.8374 384.304 59.2043 384.341 59.6011C384.379 59.9904 384.412 60.4508 384.442 60.9824C384.472 61.514 384.499 62.1354 384.521 62.8467C384.543 63.5505 384.555 64.389 384.555 65.3623V71H381.972V51.8184Z" fill="white"/>
<defs>
<filter id="filter0_d" x="0" y="0" width="125" height="120" filterUnits="userSpaceOnUse" color-interpolation-filters="sRGB">
<feFlood flood-opacity="0" result="BackgroundImageFix"/>
<feColorMatrix in="SourceAlpha" type="matrix" values="0 0 0 0 0 0 0 0 0 0 0 0 0 0 0 0 0 0 127 0"/>
<feOffset dx="4" dy="4"/>
<feGaussianBlur stdDeviation="4"/>
<feColorMatrix type="matrix" values="0 0 0 0 0 0 0 0 0 0 0 0 0 0 0 0 0 0 0.3 0"/>
<feBlend mode="normal" in2="BackgroundImageFix" result="effect1_dropShadow"/>
<feBlend mode="normal" in="SourceGraphic" in2="effect1_dropShadow" result="shape"/>
</filter>
</defs>
</svg>
