<svg width="320" height="102" viewBox="0 0 320 102" fill="none" xmlns="http://www.w3.org/2000/svg">
<g filter="url(#filter0_d)">
<path d="M94 17.8367C94 17.5721 94 17.0431 93.8308 16.9548C93.3236 16.1612 93.0699 15.191 92.309 14.7503C92.2246 14.5739 92.2246 14.4856 91.9709 14.3971C91.8865 13.8681 91.9709 13.2508 91.7173 13.0742C90.9564 12.1923 90.3644 11.3987 89.3499 10.8697C87.4053 9.5468 85.0379 9.19412 82.6717 9.01778C80.5579 8.9295 78.4444 9.19412 76.3306 9.28241C74.6396 9.45874 72.6105 9.63555 70.9196 10.2524C67.9604 10.7814 65.3394 11.5753 62.4647 12.3689L54.1772 14.8383C53.9236 14.9266 53.7544 14.9266 53.5855 15.1915V15.4561C54.2619 15.2797 55.0228 14.9271 55.4456 15.9851C55.4456 14.6622 56.5446 14.3978 57.3902 14.1332C58.7431 13.7801 60.0957 13.2513 61.6175 12.9867C61.8711 12.8984 62.2092 12.722 62.2939 12.8984C62.5476 13.2515 62.8012 13.0747 62.9704 12.8984C63.0918 12.7032 63.2686 12.5495 63.4776 12.4574C64.7458 12.1928 66.1831 11.7511 67.4513 11.4874C68.0756 11.2481 68.7304 11.0996 69.3959 11.0465C70.6641 10.8701 72.017 10.7819 73.6232 10.4292C73.7924 10.5175 73.7924 10.5175 73.7924 10.7823C73.7924 10.7823 73.7924 10.8706 73.9616 10.8706C72.8704 10.948 71.792 11.1552 70.7488 11.4879C70.8607 11.566 70.9507 11.6721 71.01 11.7959C71.0692 11.9197 71.0957 12.0569 71.0869 12.1942C70.5904 11.8343 70.0051 11.6206 69.3959 11.5769C68.8886 11.5769 68.2122 12.0179 67.5358 11.9301C66.7749 11.9301 66.8593 12.9883 66.2676 13.1646C65.6759 12.371 65.5912 12.2827 64.9147 12.4584C64.2383 12.723 63.6466 13.0756 63.1393 13.252V13.5166C63.4774 13.3403 63.9002 13.3403 64.2383 13.252C63.9002 13.5166 63.4774 13.781 63.4774 13.9583C63.3082 14.6646 62.801 14.3992 62.2937 14.3992C62.0994 14.5538 61.8638 14.6459 61.6173 14.6639C61.1945 14.8402 60.6865 14.6639 60.0955 14.6639C60.289 14.6353 60.4675 14.5421 60.6027 14.3992C61.1187 14.2495 61.6266 14.0729 62.1245 13.8702C62.209 13.8702 62.209 13.6939 62.2937 13.5171C62.2092 13.3407 62.0401 13.2525 61.9556 13.3407C61.5328 13.6939 61.2792 13.8698 60.8566 13.8698C59.9258 13.8698 59.4193 14.4871 58.7428 14.8397C58.5141 14.8489 58.2854 14.819 58.0664 14.7514V15.4577C57.7516 15.4887 57.4402 15.5477 57.1356 15.6341C57.3048 15.4577 57.3893 15.1931 57.5584 15.1051C57.2203 15.1051 56.7975 15.1051 56.7975 15.1933C56.6284 15.8996 55.9522 15.8996 55.6138 16.1633C55.2746 16.4903 54.9068 16.7855 54.5148 17.0452C54.5148 17.0452 54.1767 16.9569 54.092 16.7806C54.092 16.6923 53.9229 16.6923 53.9229 16.6923C53.5001 17.5742 52.6547 16.9569 51.9783 17.0455C51.471 17.2218 50.9637 16.7808 50.7101 17.5745C50.6256 17.6628 50.1184 17.6628 49.6956 17.7508C49.6111 18.2798 48.9347 18.8974 48.681 18.7208L48.5966 18.2798C48.9213 18.0974 49.2324 17.8911 49.5273 17.6625C49.1266 17.6601 48.7281 17.6007 48.3436 17.4862C48.6681 17.212 49.041 17.0025 49.4426 16.8689L49.189 16.7806C48.1745 17.0452 46.8216 17.6625 45.8071 18.1035C46.0607 18.5445 46.0607 19.0735 46.1452 19.3381C46.3988 19.0735 46.7369 18.3681 47.0759 18.1035C47.532 17.8143 48.0595 17.6614 48.5977 17.6625C48.5977 17.7508 48.6822 17.7508 48.6822 18.0157C48.4656 18.0939 48.2349 18.124 48.0058 18.104C47.8366 18.1922 47.7521 18.4571 47.414 18.5449C47.2449 18.8981 47.1604 19.2512 46.9912 19.2512C46.3995 19.6922 45.7231 19.7802 45.1311 20.0448C44.9619 20.2212 44.6238 20.3095 44.2857 20.398C44.4549 20.3097 44.2857 20.3097 44.2857 20.3097C44.5394 20.0451 44.6238 19.8687 44.9622 19.7807C43.7785 19.7807 43.102 20.3097 42.4258 21.1916C42.5103 21.1033 42.5103 20.8385 42.5103 20.8385C42.1941 20.6878 41.8435 20.6269 41.4958 20.6621C42.0875 20.0448 42.2567 19.7802 42.5103 19.7802C41.9186 19.7802 41.2421 20.0448 40.6502 20.3092C39.2128 20.4856 38.3675 21.8965 36.9301 22.1611C36.6809 22.225 36.4495 22.3458 36.2537 22.5143V22.7789L38.0291 22.5143C37.8787 22.6819 37.7083 22.8301 37.5219 22.9552C37.9447 23.0435 38.0291 23.0435 38.1983 23.2199C37.4374 23.573 36.9301 24.1898 36.5073 24.2781C36.3382 24.4544 36.3382 24.6313 36.2537 24.6313C35.5773 24.4549 35.07 24.6313 34.6481 25.4249C34.6481 25.6012 34.479 25.6012 34.3945 25.6895C34.2033 25.7512 34.0034 25.781 33.8028 25.7778C32.9574 26.3951 32.1118 26.6597 31.1817 26.4841C31.1104 26.5987 31.01 26.6918 30.8911 26.7539C30.7721 26.816 30.6389 26.8448 30.5053 26.8372C29.8289 27.3662 29.6599 27.8072 30.3361 28.5128C30.3248 28.5126 30.3135 28.5149 30.303 28.5193C30.2925 28.5237 30.283 28.5302 30.2751 28.5385C30.2672 28.5468 30.261 28.5566 30.257 28.5673C30.253 28.5781 30.2511 28.5896 30.2517 28.6011C30.1672 28.5128 29.9136 28.5128 29.7444 28.5128C29.4908 28.4245 29.1527 28.0718 28.899 28.0718C28.8146 28.0718 28.7299 28.5128 28.5609 28.5128C28.1381 28.5128 27.7156 28.5128 27.3772 28.7774C26.6163 29.1306 26.0243 29.8357 25.4326 30.1883C24.6717 30.6293 23.827 30.8056 23.1499 31.3349L22.9807 31.2466C23.488 30.7176 23.8261 30.5403 24.3336 30.1003C24.0767 30.0808 23.8186 30.1108 23.5727 30.1886C23.4035 30.1886 23.2346 30.2769 22.8963 30.5417C22.8118 30.63 22.8118 30.7181 22.7271 30.7181C22.6239 30.6756 22.5362 30.6021 22.4757 30.5074C22.4152 30.4128 22.385 30.3017 22.389 30.189C21.9662 30.3654 21.7126 30.63 21.3745 30.7181C21.6184 30.8326 21.8734 30.9213 22.1354 30.9827V31.2473C21.919 31.3372 21.6914 31.3965 21.4589 31.4236C21.1208 30.8946 20.698 31.3354 20.4444 31.6C20.1063 31.7763 19.8527 32.2173 19.5136 32.2173C17.4127 33.6977 15.459 35.3812 13.6798 37.2439C12.327 38.4785 11.3124 40.1541 10.6362 41.7406C10.2134 42.4469 9.87534 43.5045 10.0445 44.2098C9.95402 45.4211 10.0395 46.6393 10.2981 47.8256C10.5858 49.0068 10.9821 50.1582 11.4818 51.2647C12.0736 52.323 13.1728 53.0286 14.0182 53.9102C14.2718 54.1749 14.7791 54.1749 14.8635 54.3512C15.1172 54.9685 15.7089 55.4095 16.3853 55.7621C16.8926 56.2031 17.2307 56.5558 17.7382 56.8204C18.4146 57.3494 19.3438 57.5267 19.9364 57.8787C19.852 57.9669 19.852 57.9669 19.852 58.055C19.5362 58.0785 19.224 58.1376 18.9212 58.2313C19.9358 58.4959 21.1195 58.2313 21.7959 58.6723C22.8104 58.8486 23.4015 59.3786 24.3322 59.7305C25.4031 60.065 26.4486 60.4776 27.4605 60.9651C28.0523 61.3183 28.8134 61.5824 29.6588 62.0234C30.447 62.5174 31.266 62.9592 32.1106 63.3463C33.6801 63.9415 35.2058 64.6488 36.6763 65.4628C37.5216 65.8159 38.3672 66.521 39.3818 66.8737C40.4808 67.491 41.58 68.5493 43.0173 68.9019L43.1865 68.9902C43.7782 69.4312 44.2857 69.8722 44.8775 70.1365L45.1311 70.4897C45.3847 70.578 45.6384 70.9306 46.0619 71.196C45.8993 71.6223 45.7858 72.0662 45.7238 72.5189C45.8082 72.5189 45.8082 72.6071 45.8929 72.6071C46.2165 72.2908 46.5004 71.9353 46.7383 71.5489C46.9489 71.8278 47.2065 72.0669 47.4992 72.2552C47.0764 72.5198 46.6538 73.1371 46.4002 73.2251C45.6393 73.2251 44.9629 73.4015 44.6248 73.8424V74.0188C43.7715 74.1157 42.9247 74.2629 42.0884 74.4597C42.0226 74.4613 41.9579 74.478 41.8993 74.5085C41.8408 74.5391 41.7898 74.5827 41.7503 74.6361C41.8348 74.6361 41.8348 74.8124 41.8348 74.8124C42.1751 74.8047 42.5153 74.8343 42.8493 74.9007C43.103 74.9007 43.5258 75.077 43.6947 75.077C43.8639 74.8124 43.8639 74.4597 43.9483 74.4597C44.7092 74.2834 45.4701 74.1951 46.231 73.5778H46.4002C46.823 73.4895 47.4147 73.2247 48.0912 73.1369C48.2603 73.1369 48.5984 73.1369 48.6829 73.2251C48.8521 73.3134 48.8521 73.5783 48.9365 73.8424C49.042 73.8951 49.1571 73.9252 49.2746 73.9307L48.1756 74.637C48.5984 75.3433 48.9365 74.9902 49.2746 74.9016C50.3736 74.4607 50.712 74.4607 51.3884 75.5189C51.5338 75.7943 51.7355 76.035 51.9801 76.2252C52.8255 76.8425 52.8255 77.5481 52.2338 78.6064C51.1348 80.2819 49.8664 81.2519 48.1754 82.3101C47.499 82.6633 46.7381 83.0164 46.1463 83.3684C45.2156 83.7215 44.2862 83.9857 43.5253 84.2503C42.2571 84.6035 41.0734 84.6913 39.8897 85.1322C39.4669 85.3086 38.8752 85.3086 38.3679 85.5732C38.3679 85.6615 38.1988 85.8378 38.1988 86.0142C38.0296 85.3969 37.5223 85.3969 37.0151 85.3079C35.9158 85.1315 34.5632 85.1315 33.295 84.9547C32.7659 84.9741 32.2411 84.8523 31.7732 84.6016C31.1815 84.337 31.1815 83.5433 31.6041 83.0143C31.8636 82.6993 32.1462 82.4045 32.4494 82.1324C33.0412 81.7793 33.464 81.3388 34.055 81.2505C35.3232 80.5442 36.7605 80.1922 38.1969 79.4866C38.3661 79.3103 38.6197 79.222 38.6197 79.1335C38.7042 78.7803 38.7889 78.7803 39.2114 78.7803H39.8032C39.8032 78.6921 39.8876 78.3394 39.8876 78.0741C39.8032 77.8977 39.634 77.7209 39.4648 77.4568C38.7039 77.9858 38.112 78.6914 36.9285 78.6031C36.5057 78.5148 35.4067 78.0741 35.4067 79.485C35.0686 79.1318 34.6458 78.956 34.1385 78.6031C34.5613 78.4267 35.0693 77.9858 35.4067 77.8968C35.8184 77.7265 36.2145 77.5199 36.5904 77.2795C37.0132 77.1912 37.5212 77.0149 38.196 76.8385C38.7877 76.3976 39.6333 76.2212 40.4787 75.8685C40.9281 75.6859 41.3539 75.4488 41.7468 75.1623C41.7006 75.1142 41.671 75.0524 41.6624 74.9859C41.1551 75.0742 40.7316 74.9859 40.3095 75.0742C39.5976 75.3882 38.918 75.7722 38.2804 76.2207C38.1609 76.2078 38.0408 76.2392 37.9423 76.309C37.3514 76.379 36.7782 76.5583 36.2514 76.8381C36.0822 76.9263 35.7441 76.9263 35.406 77.1027C35.0679 77.279 34.5606 77.4558 34.1378 77.72C33.8532 77.7056 33.5682 77.7354 33.2925 77.8083C33.3769 77.6319 33.3769 77.2792 33.5461 77.191V77.0146C33.3315 76.7394 33.0746 76.501 32.7852 76.3083C31.4323 77.1903 29.9952 77.8075 28.5579 78.7775C28.1343 78.9569 27.7511 79.2214 27.4314 79.5548C27.1117 79.8883 26.8621 80.2839 26.6978 80.7177C26.4441 81.1587 26.6133 81.776 26.3597 82.305C25.6013 84.5938 27.1231 87.2389 28.8139 88.1213C30.3357 89.2676 32.365 89.0032 34.1404 89.5322C34.5632 89.5322 35.0712 89.6205 35.3241 89.5322C38.1141 89.5322 40.7351 89.3559 43.2714 88.6503C44.7088 88.2971 45.6388 87.8566 46.8223 87.5037C48.8514 86.7101 50.796 85.5635 52.9097 84.329C53.9243 83.7117 55.108 82.6534 55.0235 80.8898C54.939 80.4488 55.108 79.8315 55.0235 79.3906C54.939 78.3323 55.0235 77.0977 54.0927 76.2158C53.595 75.5019 53.2495 74.691 53.0782 73.8347C52.6554 73.2174 52.8246 73.1284 53.501 72.7764C54.4318 72.6881 55.1066 72.5118 55.6148 71.7182C55.023 71.5418 54.9383 71.5418 54.4311 72.1591C53.5857 72.6001 52.2328 72.5123 51.5564 71.9828V71.7186C51.9792 71.454 52.3173 71.1013 52.8246 70.8367C51.81 70.3077 50.9644 71.454 50.2882 70.3957C50.5419 70.3957 50.711 70.3075 50.88 70.3075C50.8913 70.3074 50.9025 70.3051 50.9129 70.3006C50.9233 70.2962 50.9328 70.2896 50.9406 70.2814C50.9485 70.2731 50.9547 70.2634 50.9588 70.2527C50.9628 70.242 50.9648 70.2306 50.9644 70.2192C50.6263 70.1309 50.288 70.1309 50.0337 70.0428C49.8645 70.0428 49.4419 70.0428 49.2728 69.8665C48.8745 69.1176 48.2094 68.5501 47.4126 68.2792C45.0532 66.3443 42.5035 64.6599 39.8036 63.2526C39.2119 62.9879 38.6199 62.7236 38.2818 62.3707C38.1127 62.2824 37.7746 62.1943 37.4365 62.0175C37.4365 62.0175 37.2673 61.6644 37.1828 61.6644C35.83 61.0471 34.4773 60.1651 33.1245 59.5478C31.9408 58.6659 30.5034 58.5779 29.4889 57.784C27.9671 56.9021 26.4453 56.3731 25.008 55.7558C23.6551 54.9621 22.3869 54.6095 21.2032 53.9039C19.9351 53.3749 18.8358 52.8456 17.6521 52.3166C16.8912 51.8757 15.792 51.4347 14.9466 50.8174C13.341 49.7591 12.7484 49.1418 13.341 46.849C13.3668 46.6071 13.4237 46.3697 13.5102 46.1427L13.1721 46.0544C13.4257 45.4371 13.5949 44.4672 13.7638 43.7616C14.8628 43.8499 15.3694 43.1443 15.5393 42.086C15.7084 41.9977 16.131 41.8214 16.2157 41.6451C16.3402 41.6295 16.4539 41.5657 16.5327 41.467C16.6116 41.3683 16.6495 41.2425 16.6385 41.116C17.1458 40.4098 17.4839 39.8815 18.2441 39.7051C18.4133 39.6168 18.4977 39.352 18.5822 39.0878C18.9203 38.8232 18.9203 38.6469 19.0895 38.2942C19.7659 37.941 20.4423 37.3242 21.3722 36.795L25.0094 34.2394C25.4322 34.1511 25.9401 33.7984 25.6858 33.1811C26.05 33.0227 26.3912 32.815 26.7003 32.5638C26.3622 33.0048 26.2775 33.1811 26.1086 33.2701C26.1086 33.5347 26.1086 33.5347 26.1931 33.6233C26.7848 32.7413 27.9685 33.2701 28.3068 32.2123C28.0532 32.2123 27.884 32.036 27.4615 32.036C27.7335 31.8707 28.0159 31.7234 28.3068 31.595C29.4336 30.847 30.6215 30.1979 31.8577 29.6549C33.5487 28.6849 35.1549 27.6266 36.9304 27.0093C37.0148 26.921 37.2685 26.6562 37.3532 26.6562C39.3822 25.7743 41.0732 24.8043 43.0178 23.9224C44.2015 23.3051 45.7233 23.0405 46.8225 22.4232C50.0353 20.8359 53.3328 19.6893 56.63 18.543C58.6591 17.7494 60.8573 17.3967 63.0555 16.6911C63.5628 16.5148 64.0701 16.1621 64.9157 15.9849C67.0294 15.4558 69.143 14.8383 71.3412 14.3976C71.4329 14.2853 71.5176 14.1674 71.5949 14.0444C71.8485 13.7798 72.1021 13.6913 72.4402 13.2508C72.3558 13.5154 72.4402 13.5154 72.4402 13.6918C72.3944 13.8347 72.366 13.9828 72.3558 14.1327C72.8309 14.0444 73.318 14.0444 73.7931 14.1327C74.3975 13.9251 75.0205 13.7774 75.6532 13.6918C77.0906 13.7801 78.4432 13.7801 79.9652 13.2508C80.1344 13.0745 80.2189 13.0745 80.3033 13.0745C81.8251 13.0745 83.0933 13.1628 84.3615 13.1628C84.5056 13.1736 84.6477 13.2033 84.7843 13.251C85.591 13.3337 86.3855 13.5112 87.1517 13.7801C87.3208 13.8683 87.6589 13.8683 88.1662 13.9564C87.6589 14.1327 87.4898 14.221 87.3208 14.221V14.3969C87.6539 14.47 87.9949 14.4996 88.3354 14.4852C88.5741 14.6123 88.8307 14.7016 89.0963 14.7498C90.28 14.8381 90.5336 15.1908 90.28 16.249C90.0263 17.219 90.0263 17.219 90.8717 17.4836C90.4489 18.1009 90.28 18.9828 89.7727 19.5118C89.7727 19.6001 89.6035 19.7765 89.3499 19.7765C89.2654 19.7765 89.0118 19.6001 88.9271 19.6001C88.9761 19.3896 89.0956 19.2027 89.2652 19.0711L89.7725 18.2775C89.9632 18.0765 90.1076 17.8353 90.1953 17.5712C89.9377 17.6108 89.6833 17.6697 89.4344 17.7475C88.6735 18.4538 88.589 19.7757 87.5742 20.305C87.5742 20.4813 87.4898 20.4813 87.4898 20.6581C87.4898 20.7464 87.4053 20.8345 87.4898 21.0113C87.6793 21.094 87.878 21.1532 88.0815 21.1876C88.0843 21.025 88.1443 20.8686 88.2507 20.7467C88.1662 19.8647 88.6735 20.2176 89.0116 20.0404L89.096 20.2167C88.5964 21.0474 87.9684 21.7917 87.2359 22.4213C87.2359 21.9803 86.9823 21.8923 86.8978 21.4513C86.7286 21.8044 86.3905 21.9803 85.8833 22.1576C85.8833 22.1576 85.8833 22.4222 86.0524 22.5107C86.1369 22.5107 86.5597 22.5107 86.6442 22.599C86.7286 22.599 86.8133 22.8636 86.8133 22.9522C86.8978 23.0405 86.8978 23.2168 87.1514 23.3053C86.8133 23.3936 86.7286 23.5699 86.3061 23.6585C86.1732 23.5983 86.0289 23.5681 85.8833 23.5702C86.3061 23.3938 86.6442 23.0412 86.814 22.9529C86.5033 22.892 86.1822 22.9173 85.8845 23.0259C85.5869 23.1346 85.3238 23.3226 85.1231 23.5702C84.0241 24.3638 83.094 25.3338 82.0795 26.304C81.8109 26.4928 81.5811 26.7327 81.403 27.0103C81.9948 27.8039 80.9802 27.6276 80.5577 27.9802C80.6601 28.0976 80.7905 28.1864 80.9364 28.2384C81.0823 28.2904 81.239 28.3038 81.3915 28.2773C81.544 28.2507 81.6872 28.1852 81.8076 28.0869C81.928 27.9886 82.0216 27.8608 82.0795 27.7156C82.3331 27.0983 82.5023 26.8337 83.1787 26.6574C83.7704 26.481 84.1095 25.9511 83.7704 25.3345C84.3378 25.0817 84.8324 24.6873 85.2078 24.1882C85.3321 24.1015 85.4795 24.055 85.6304 24.055C85.7814 24.055 85.9288 24.1015 86.0531 24.1882C85.9578 24.4317 85.8448 24.6678 85.715 24.8945C85.5459 25.0708 85.715 25.0708 85.715 25.0708C86.0054 24.9414 86.2878 24.7942 86.5604 24.6298C86.9832 24.1889 87.4058 23.4833 87.8286 22.9543C88.6739 21.896 89.6887 20.7497 90.5341 19.7795C90.5341 19.7795 90.7032 19.6912 90.7032 19.6032L91.634 17.8393C91.7811 17.7291 91.9583 17.6675 92.1413 17.663C92.2257 17.663 92.3104 17.8393 92.2257 17.8393C92.1413 18.5456 92.3949 19.6032 91.634 20.2205C90.7886 21.0141 90.7032 21.9841 90.5348 23.2189C89.6894 22.9543 89.3511 23.3072 89.3511 24.1889C89.3511 24.2772 89.3511 24.6298 89.2666 24.6298C88.7593 25.1588 88.4212 25.7764 87.9984 26.3054C87.4067 26.6585 86.8147 27.1873 86.5611 27.8046C86.3919 27.8929 86.3919 28.3336 86.3919 28.5982C86.5611 28.6865 86.5611 28.7746 86.73 28.8629C86.9837 28.8629 88.0829 28.1566 88.0829 27.8046C87.8293 27.011 88.421 26.4817 88.7593 26.0408C88.8978 25.9023 89.0748 25.8099 89.2666 25.7761C89.7739 26.2171 89.8583 25.6879 90.0275 25.423C90.1967 25.0699 90.4503 24.982 90.7039 24.8057C90.8745 24.4725 91.1037 24.1737 91.3804 23.9238C92.1439 23.0298 92.85 22.0872 93.4941 21.1017C93.7478 20.7485 94.0014 20.2198 93.8322 19.7788C93.7464 19.1594 93.9155 18.454 94 17.8367ZM75.9069 10.5172C75.7377 10.5172 75.5688 10.7819 75.5688 10.9582C75.2307 11.4872 74.7234 10.8699 74.2159 11.0465C74.1199 10.8226 74.0627 10.5837 74.0467 10.3402C75.2304 10.1639 76.245 9.89923 77.0903 9.89923C77.3985 9.71957 77.7492 9.6281 78.1049 9.63461C78.274 9.54632 78.6966 9.63461 78.8658 9.63461C78.1051 10.2533 76.9214 10.8699 75.9069 10.5172ZM78.9505 11.3992C79.2041 11.4874 79.6269 11.2228 80.1342 11.2228C79.4577 10.5165 78.7813 11.4874 78.1896 11.0465C78.5994 10.84 79.0232 10.6632 79.4577 10.5175C79.7114 10.6938 80.1342 10.7821 80.3031 10.9584C80.1342 11.7518 79.2043 12.1928 78.9505 11.3992ZM74.6385 12.0165C73.962 12.0165 73.4548 12.4574 72.6939 12.0165C73.5392 11.7518 74.0467 11.9282 74.7229 11.7518C74.7235 11.8469 74.694 11.9396 74.6387 12.0165H74.6385ZM69.3119 13.3393C69.3119 13.251 69.1427 13.163 69.0583 13.0747C68.7957 13.3375 68.5682 13.634 68.3818 13.9566C68.2614 13.7145 68.0879 13.5034 67.8746 13.3393C67.4518 13.5157 67.1137 13.6925 66.6064 13.9566C66.5731 13.8016 66.5161 13.6528 66.4372 13.5157L67.5362 12.9867C67.2826 12.8984 67.2826 12.722 67.1134 12.4576C67.4846 12.4797 67.8527 12.5388 68.2124 12.634C68.3403 12.6116 68.4584 12.5501 68.5505 12.4576C68.9733 12.0167 69.3115 11.9286 69.7343 12.5459C69.7343 12.6342 69.9034 12.6342 69.9879 12.8991C69.7819 13.0741 69.5549 13.2219 69.3121 13.3391L69.3119 13.3393ZM70.7493 12.9862C70.7493 12.7216 70.7493 12.7216 70.6648 12.633C71.111 12.5673 71.5411 12.4178 71.933 12.1921C71.9357 12.2473 71.9528 12.3009 71.9825 12.3473C72.0122 12.3938 72.0535 12.4315 72.1021 12.4567C71.6387 12.5986 71.1866 12.7757 70.7495 12.9864L70.7493 12.9862ZM63.732 14.3969L63.6475 14.0437C64.2392 13.8674 64.9157 13.7791 65.5076 13.5147C65.569 13.6532 65.5979 13.8041 65.5921 13.9557C64.9492 13.9758 64.3167 14.1258 63.732 14.3969ZM44.709 19.0713C44.9626 19.0713 45.1318 19.336 45.3854 19.7776C45.4699 19.513 45.6391 19.2486 45.6391 19.0713C45.6391 18.8941 45.2163 18.3651 45.1318 18.454C44.2864 18.9831 43.2717 19.336 42.5108 19.7769C42.9914 19.7866 43.4721 19.7571 43.9481 19.6886C43.8634 19.1594 44.4554 18.9831 44.709 19.0713ZM41.4118 21.8052C41.4118 21.452 41.1581 21.3642 41.1581 21.1879C40.7746 21.559 40.4343 21.9732 40.1436 22.4225C39.89 22.4225 39.89 22.0693 39.8055 22.0693C39.8523 21.9963 39.9144 21.9348 39.9875 21.889C40.0607 21.8432 40.1429 21.8144 40.2283 21.8047C40.2657 21.6588 40.3563 21.5326 40.4819 21.4515L40.7356 20.7452C41.1584 20.8335 41.4965 21.1862 41.9193 21.3625C41.8088 21.3965 41.7066 21.4534 41.6192 21.5296C41.5318 21.6058 41.461 21.6997 41.4115 21.8052H41.4118ZM36.9308 23.4807C36.9308 23.4807 36.8464 23.3924 36.9308 23.2161C36.3391 23.3924 36.1699 23.5692 35.578 23.657C35.0707 23.9217 34.5634 23.657 34.0562 23.5688L33.9717 23.9219C34.5634 24.0102 35.0707 24.1865 35.5773 24.1865C36.1697 24.1861 36.5078 23.5688 36.9306 23.4805L36.9308 23.4807ZM25.4322 29.1244C26.2775 29.5654 27.0377 28.5071 27.7996 28.3308C28.8141 27.8018 29.9133 26.6552 31.1815 26.4789C31.6888 26.3026 32.196 25.7726 32.7033 25.5089C32.6879 25.4127 32.6488 25.3219 32.5898 25.2449C32.5307 25.1678 32.4535 25.107 32.3652 25.068C33.296 25.068 33.9708 25.3326 34.5634 24.627C33.9717 24.2739 33.2106 25.3333 32.7033 24.1861C32.2805 24.4507 31.6888 24.7151 31.3504 25.068C31.1813 25.597 31.0123 25.7743 30.3359 25.597C30.27 25.5986 30.2054 25.6152 30.1468 25.6458C30.0882 25.6763 30.0373 25.7199 29.9978 25.7733C29.7159 26.1043 29.3708 26.3742 28.9833 26.567C28.8988 26.8316 28.8141 27.1843 28.5605 27.2732C28.0532 27.3615 27.3768 27.7142 26.7003 27.8023C26.6159 27.8023 26.6159 27.8023 26.4467 27.8905L26.8695 28.0669C26.2692 28.3795 25.5997 28.5313 24.9249 28.5078C24.3331 28.7725 23.7412 29.3898 23.4031 29.5661C23.636 29.8552 23.9686 30.0442 24.3338 30.0951C24.7557 29.9183 25.0094 29.5654 25.4322 29.1244ZM78.3587 31.4185L77.5978 32.1247V32.3894C77.9359 32.213 78.1896 32.3011 78.3587 32.213C78.866 31.9484 79.3733 31.4194 79.8805 30.8021C80.4723 30.3611 81.2334 30.0085 81.9943 29.3912C82.4171 28.7739 82.9251 28.3329 83.2625 27.8039C83.2625 27.7156 83.178 27.7156 83.178 27.6276C82.7966 27.7701 82.4287 27.9471 82.0788 28.1566C81.5715 28.7739 80.8106 29.6558 79.965 30.0085C79.7958 30.0085 79.7958 30.1848 79.7114 30.2731C79.1876 30.5569 78.7272 30.9468 78.3587 31.4185ZM85.2071 28.861C85.1226 29.2141 84.7843 29.39 84.5306 29.5673C84.6998 29.9204 85.0379 30.0082 85.2071 30.1846C85.0379 30.7136 84.6998 30.7136 84.4462 30.5377C84.1925 30.5377 84.0234 30.3614 83.9389 30.3614C83.6022 30.3166 83.2611 30.3166 82.9244 30.3614C82.9427 30.9816 82.9992 31.6001 83.0935 32.2133L83.0091 32.5664C83.7493 32.3294 84.4589 32.0038 85.1228 31.5964C85.292 31.5964 85.292 31.3318 85.4609 30.9791C85.5401 30.6925 85.5687 30.3939 85.5454 30.0972H85.7146C85.3762 29.83 85.3762 29.3891 85.2071 28.86V28.861ZM80.1344 29.2141C80.0314 29.1379 79.9174 29.0784 79.7963 29.0378C79.6776 29.034 79.5603 29.0647 79.4582 29.1261C79.2046 29.2144 79.0354 29.567 78.8665 29.6551L78.9509 29.8314C79.2162 29.8494 79.4808 29.7881 79.7118 29.6551C79.7965 29.6527 80.1342 29.3891 80.1342 29.2127L80.1344 29.2141ZM78.1898 29.5673C77.5189 30.0874 76.8126 30.5589 76.076 30.9782C77.0068 31.4192 78.2743 30.8899 78.866 30.3609C78.5555 30.1839 78.3161 29.9024 78.1896 29.5654L78.1898 29.5673ZM83.178 32.1247C83.2834 31.8734 83.3408 31.6041 83.3472 31.3311C83.5163 31.2428 83.9389 31.2428 84.3617 30.978C83.8544 31.5939 83.4316 31.7702 83.178 32.1229V32.1247ZM19.9364 33.5338C20.5282 32.3875 21.542 32.1229 22.2191 31.5936C22.3883 31.5936 22.3883 31.5936 22.3883 31.6819C21.6274 32.2992 21.0357 32.9165 19.9364 33.5338ZM73.2014 33.5338C72.6941 34.3274 71.8485 34.9447 71.4259 34.5038C70.4952 34.6801 70.2422 35.2974 69.8203 35.8266C69.8203 36.1798 69.3975 36.1798 69.0594 36.5329C69.6512 36.8861 69.9048 36.8861 70.3276 36.4446C70.5446 36.0414 70.8665 35.706 71.2584 35.4747C71.4275 35.2983 71.8501 35.2101 71.9348 35.1215C72.6957 34.7684 73.3722 34.2396 74.2175 33.6223C74.133 33.0933 74.302 32.916 75.0629 32.916C75.3165 33.0043 75.4857 32.7397 75.6546 32.4751C75.401 32.2104 74.9782 32.1219 74.6401 32.0341C74.0467 33.1811 73.8778 33.6221 73.2014 33.5338ZM81.7411 32.1229C81.0647 32.3875 80.8958 32.9165 80.473 33.0928C81.4037 33.9748 81.9103 33.8865 82.5867 32.9165C82.0788 33.0048 81.7407 32.9165 81.7407 32.1229H81.7411ZM75.992 33.7984C76.1612 33.6221 76.4148 33.2694 76.6684 33.1811C77.0913 33.0928 77.1757 32.9165 77.1757 32.2112C76.4148 32.9174 75.9075 33.2694 75.2311 33.7984C75.7377 34.2394 75.7377 34.2394 75.9913 33.7984H75.992ZM80.1339 33.7984C80.2184 33.7101 79.7958 33.5338 79.4575 33.7101L77.6821 35.1211C77.6821 35.1211 77.6821 35.2974 77.9357 35.4742C78.1893 35.3859 78.443 35.1211 78.7811 35.0332C78.7811 35.1215 78.8655 35.1215 78.9502 35.2096C78.443 35.6505 78.1049 36.0032 77.5129 36.0915C77.4284 36.0915 77.4284 36.0032 77.3437 36.0032C77.4131 35.8054 77.4418 35.5954 77.4282 35.3859C77.0054 35.2976 76.8365 35.2976 76.5828 35.1213C76.4137 35.2976 76.5828 35.2976 76.5828 35.3859C76.2447 35.7391 75.9064 36.0922 75.4838 36.6205C75.0723 36.791 74.6762 36.9976 74.3001 37.2378C74.0465 37.3261 73.962 37.5024 73.6237 37.7668C73.2596 37.8869 72.9171 38.0656 72.6091 38.2958C72.6302 38.5499 72.7177 38.7937 72.8628 39.0021C73.1164 39.4431 73.1164 39.4431 72.5247 39.5311C71.933 39.7075 71.5102 40.0601 71.0029 40.4131C70.4112 40.7662 69.9036 41.6476 69.3119 40.7662C69.2274 40.5899 69.1427 40.5899 68.9738 40.7662C68.2974 40.9425 67.7901 41.2072 68.1282 42.2654C67.8865 42.0787 67.6602 41.8722 67.4518 41.6481C66.86 42.2654 66.1836 42.6181 65.5072 43.2354C65.1691 43.4117 64.8307 43.4117 64.9999 44.2054C64.7089 44.0693 64.3891 44.0087 64.0691 44.029L63.4774 43.9407C63.1393 44.2939 62.8857 44.7344 62.4629 44.9107C62.2092 45.2639 61.8711 45.2639 61.5321 45.4397C60.7712 45.6161 60.0103 45.528 59.9265 46.586C59.3348 46.1451 58.5737 46.586 58.1511 47.4679C57.813 47.5562 57.2203 47.6443 57.2203 47.7326C57.1359 48.1735 57.1359 48.3499 56.6286 48.2618C56.375 48.2618 55.6978 48.2618 55.5294 48.1735C55.1913 47.5562 54.8529 47.2036 53.8384 47.7326C54.1765 47.1153 54.2612 46.8506 54.5993 46.4097C54.8529 46.2333 55.0221 46.1451 55.1066 45.9687C55.1066 46.3219 55.2757 46.4097 55.4447 46.9387C55.6138 46.4097 55.6138 46.2324 55.6983 45.9687C55.9161 46.047 56.117 46.1669 56.29 46.3219C56.3745 46.2336 56.3745 46.2336 56.5437 46.2336C56.3745 45.969 56.3745 45.7046 56.2056 45.3517C56.2056 45.3517 55.6138 45.3517 55.5291 45.44C55.1063 45.5282 55.1063 45.7046 54.8527 45.7931C54.4299 45.9694 53.8382 45.9694 53.4998 46.2341C53.4445 46.1572 53.4149 46.0645 53.4154 45.9694L54.1763 45.4404C54.2607 45.3521 54.4299 45.3521 54.5144 45.2641C54.6835 44.9995 54.9372 44.7348 55.0216 44.8231C55.6134 45.3521 56.2898 44.6468 56.7971 44.2058C57.2199 43.9412 57.8116 43.1476 58.4026 43.2359C59.248 43.1476 59.9244 42.0896 61.1926 42.0896C60.7698 42.3542 60.7698 42.5305 60.6009 42.6186C60.0936 43.0595 59.7555 43.2359 59.248 43.7651C58.6563 43.8534 58.0643 44.1182 57.6424 44.1182C57.1352 44.2065 56.7971 44.5592 56.7971 45.3528C57.8116 44.8238 58.5725 44.4709 59.4181 44.1182C59.5026 44.2065 59.5026 44.4714 59.5026 44.7355C59.9254 44.4709 60.179 44.2065 60.6016 44.0293C60.6016 43.8529 60.4324 43.5883 60.6016 43.5883C61.278 43.0593 61.7853 42.53 62.4617 42.0891C62.969 42.0008 62.969 41.9127 63.0534 41.3828C62.6306 41.6474 62.2925 41.6474 62.0389 41.8237C61.9544 41.6474 61.9544 41.6474 61.8697 41.6474L62.2925 40.9411C62.644 40.7259 62.9828 40.4901 63.3071 40.2348C62.6306 40.4995 61.5316 40.1465 61.3625 41.2931C61.2031 41.2025 61.0666 41.0757 60.9639 40.9227C60.8612 40.7696 60.7951 40.5945 60.7707 40.4112C60.015 40.8432 59.2821 41.315 58.5751 41.8245C58.5864 41.8245 58.5976 41.8268 58.608 41.8313C58.6184 41.8358 58.6279 41.8423 58.6357 41.8505C58.6436 41.8588 58.6498 41.8685 58.6539 41.8792C58.6579 41.8899 58.6599 41.9013 58.6595 41.9127C59.336 41.7364 59.9277 41.2954 60.5197 41.1191L60.6888 41.2074C59.9279 41.7364 59.167 42.0893 58.4061 42.6183C58.068 42.7066 57.8144 42.442 57.3071 42.442C57.2985 42.5084 57.2689 42.5703 57.2227 42.6183C56.969 42.7947 56.3773 42.7947 56.3773 43.0593C55.7009 44.0293 54.94 43.8529 54.0946 44.1175C53.841 44.2058 53.5873 44.1175 53.4182 44.2058C52.4036 44.7348 51.4736 45.3521 50.5435 45.7931C48.7681 46.5867 46.9926 47.5569 45.217 48.2623C43.6952 48.9686 42.1734 49.6732 40.4824 50.1142C39.4679 50.6432 38.0305 50.9078 36.7624 51.4371C36.1706 51.5253 35.917 52.2307 35.917 52.7599C36.0005 52.9392 36.0438 53.1349 36.0438 53.3331C36.0438 53.5313 36.0005 53.727 35.917 53.9062V54.4353C36.0862 54.9643 36.0862 55.5816 36.2551 56.1991C36.3396 56.4637 36.2551 56.9054 36.3396 57.1691C36.8468 57.5222 37.3541 57.9627 37.9451 58.2273C38.6216 58.5805 39.4669 58.139 40.3125 57.9627C41.2433 57.6981 42.088 57.1691 43.018 56.9044C45.3854 55.8462 48.0907 54.7879 50.5428 53.6416C52.8255 52.6716 55.0237 51.5251 57.221 50.3788C57.3055 50.1142 57.3902 50.1142 57.5591 50.0257C58.4824 49.6865 59.3197 49.1444 60.011 48.4384C60.4338 48.3501 60.6027 48.3501 60.8564 48.1738C61.1945 47.9091 61.1945 47.4675 61.2792 47.2918C61.4483 47.2036 61.9556 47.4682 62.1245 47.2918C62.801 47.1155 63.3927 46.6745 63.9 46.3219C64.2381 46.1455 64.6609 46.0573 64.999 45.7929C64.9995 45.7814 64.9977 45.7699 64.9936 45.7591C64.9896 45.7484 64.9835 45.7386 64.9756 45.7303C64.9676 45.722 64.9581 45.7155 64.9477 45.7111C64.9372 45.7066 64.9259 45.7044 64.9145 45.7046C64.5884 45.7202 64.2702 45.8107 63.9837 45.9692C64.7446 44.8229 65.7592 44.2054 66.4356 44.9109C67.0274 44.5578 67.5346 44.1173 68.1266 43.8527C67.7038 43.4117 68.2111 43.0591 68.4647 42.7944C68.972 42.3535 69.3955 42.0881 70.0703 42.5298C69.9011 41.8235 70.4084 41.6479 71.001 41.2952C71.5017 41.1881 72.0112 41.1291 72.5228 41.1189L72.1847 40.5016C72.5475 40.3867 72.8689 40.1668 73.1094 39.869C73.3499 39.5712 73.4987 39.2086 73.5376 38.826C73.6616 38.9185 73.7639 39.0376 73.837 39.1749C73.9101 39.3121 73.9522 39.464 73.9604 39.6197C74.3425 39.2797 74.6831 38.8948 74.9749 38.4731C75.0594 38.4731 75.2286 38.6494 75.313 38.8263C75.7518 38.3689 76.2332 37.9555 76.7504 37.5917C77.1732 37.2385 78.1877 37.327 78.4413 36.6217V36.4454C78.695 36.0922 79.0331 35.7391 79.0331 35.4754C79.2022 34.9464 79.794 34.6817 80.2168 34.6817C80.3859 34.6817 80.5549 34.9464 80.9777 35.1227C80.9666 34.7094 80.9949 34.2959 81.0621 33.8881C80.557 34.2394 80.3033 34.4157 80.1342 33.7984H80.1339ZM15.371 37.2376C15.371 37.2376 15.2019 37.2376 15.2019 36.973C15.4061 36.8597 15.5579 36.6696 15.6247 36.4439C15.7207 36.1383 15.8959 35.8643 16.1319 35.6503C16.3011 35.474 16.47 35.2093 16.6392 35.2093C17.062 35.1211 17.3156 35.1211 17.6537 35.033C18.2455 34.504 18.5845 33.9748 19.0066 33.7984C19.1168 33.7222 19.2436 33.6743 19.3763 33.6589C19.5089 33.6435 19.6432 33.6611 19.7675 33.7101C18.2457 35.033 16.8084 36.0913 15.371 37.2376ZM73.5397 35.033C72.7231 35.3037 71.9932 35.7909 71.4259 36.4439L69.3121 37.5905C67.7903 38.737 66.2685 39.4424 64.7465 40.4123C64.2392 40.5887 63.9011 40.9414 63.5628 41.0296C63.732 41.6469 63.9856 41.7359 64.0701 41.9116C64.6618 41.6469 64.9154 41.2943 65.3382 40.9416C65.5919 40.5006 66.0147 40.3243 66.3528 40.0597C66.9328 39.5044 67.6251 39.0832 68.3818 38.8251C68.5216 38.8072 68.6528 38.7472 68.7583 38.6529C68.8639 38.5585 68.9389 38.4342 68.9736 38.2961C69.058 38.2078 69.2272 37.9429 69.3117 37.9429C70.6645 37.5898 71.7635 36.532 72.9473 36.0027C73.1164 35.3855 73.6237 35.3855 73.9618 35.2091C74.3389 35.1227 74.688 34.9407 74.9763 34.6801C74.966 34.5302 74.9377 34.3821 74.8919 34.2391C74.8074 34.3274 74.6382 34.2391 74.2154 34.3274C74.0467 34.4157 73.7931 34.7684 73.5395 35.033H73.5397ZM68.3821 36.6215C68.1284 36.8861 68.1284 37.1505 67.8748 37.1505C67.7056 37.3268 67.2831 37.5036 67.1139 37.4151C66.2685 37.2388 66.1831 37.2388 65.8457 37.9441C65.5921 38.1204 65.3385 37.9441 64.915 38.1204C64.3232 38.4736 63.9004 38.8267 63.4776 39.0904V39.355C63.3085 39.5314 63.3085 39.7082 63.3085 40.1487C64.0694 40.5896 64.2392 39.5314 65.0839 39.5314C65.6756 39.4431 66.2676 38.7377 66.8593 38.2968C67.5358 37.5905 68.1275 37.4149 69.142 37.3268C68.8497 37.1387 68.5925 36.8999 68.3821 36.6215ZM75.5685 37.9443C75.2621 37.8517 74.9755 37.7021 74.7232 37.5034C74.8076 37.5034 74.8076 37.327 74.8076 37.2388C75.0538 37.3269 75.3224 37.3269 75.5685 37.2388C75.6748 37.4271 75.7329 37.6392 75.7377 37.8561C75.6532 37.8549 75.6532 37.9432 75.5688 37.9432L75.5685 37.9443ZM53.0791 46.3212C52.8138 46.6138 52.4542 46.8014 52.0646 46.8502C52.2335 46.2326 52.6563 46.1446 53.0791 46.3212ZM53.5024 49.7601C53.1643 49.7601 53.0796 49.7601 52.9107 49.5838C52.657 49.5838 52.8262 49.4074 52.8262 49.4074C53.1326 49.3147 53.4192 49.1652 53.6716 48.9665C53.6974 49.2423 53.6383 49.5195 53.5024 49.7601ZM66.9454 62.4589C66.861 62.6353 66.7763 62.6353 66.3537 62.7236C66.4382 62.6353 66.3537 62.4589 66.3537 62.2826C66.2692 62.1063 66.0156 62.018 65.762 61.6653C65.762 60.959 66.7765 61.489 67.0301 61.048C67.0347 60.8097 67.0062 60.572 66.9457 60.3417C67.2189 60.4447 67.4548 60.6291 67.6221 60.8707C67.6221 59.9888 67.7066 59.5478 67.6221 58.9305C67.5376 56.9023 67.1148 55.0504 65.0011 54.3448L63.5637 53.6386C63.5492 53.7306 63.5207 53.8199 63.4793 53.9032C63.4666 54.0511 63.5007 54.1992 63.5767 54.3262C63.6527 54.4532 63.7666 54.5524 63.9021 54.6095C65.0858 55.0504 65.4239 56.1967 65.3394 57.3433C65.3394 57.9606 65.5086 58.5779 65.1702 59.2835C64.7474 59.7244 64.663 60.3417 64.2395 61.0473C64.7467 61.2236 64.9159 61.2236 65.0848 61.3119C64.3239 62.7229 63.732 63.1638 62.9711 62.9875C62.8019 63.3406 62.633 64.0457 62.1257 64.3984C61.476 65.2682 60.7074 66.0402 59.843 66.6913C58.4901 67.4849 57.1375 68.1905 55.7011 68.8958C55.5434 69.1137 55.3411 69.2944 55.108 69.4258C55.1924 69.6021 55.1924 69.6021 55.4461 69.7789C55.478 69.7182 55.5275 69.6688 55.5879 69.6373C55.6483 69.6058 55.7168 69.5937 55.7842 69.6026C56.5024 68.9722 57.2983 68.4385 58.152 68.0148C58.4901 67.8395 58.5751 67.5739 58.7438 67.4863C59.9275 66.78 61.1956 66.0754 62.2109 65.3698C62.3736 65.3235 62.5201 65.2318 62.6337 65.1052C62.931 64.8581 63.2133 64.5931 63.479 64.3115C63.9018 63.7825 64.2399 63.5179 64.4936 63.0769C65.0853 62.4596 65.5926 62.2833 65.8464 62.9006C66.1845 63.0769 66.0156 63.4296 66.1845 63.6942C67.1991 63.2533 68.1291 62.0187 67.5374 61.3131C67.2831 61.6653 67.1986 62.1063 66.9447 62.4589H66.9454ZM32.7878 59.7251L32.9569 59.9015C32.5341 60.3424 32.7033 60.4305 33.295 60.4305C33.4642 60.6951 33.8023 60.6951 33.9715 60.8714C33.9715 60.9597 33.9715 60.9597 33.887 61.0478L32.5341 60.6946C32.5239 60.5447 32.4955 60.3966 32.4497 60.2537C32.4497 60.078 32.7033 59.9017 32.7878 59.7251ZM65.4229 60.6951C65.3343 60.6797 65.2486 60.6499 65.1693 60.6068C65.3385 60.2537 65.5921 60.1658 65.5921 59.9005C65.6766 59.9005 65.7613 59.9888 65.7613 60.1651L65.4229 60.6951ZM63.9011 60.9597C63.7 61.3411 63.5846 61.7626 63.563 62.1943C63.7628 62.1855 63.961 62.1559 64.1548 62.106C64.0703 61.577 63.9856 61.3124 64.0703 60.9597H63.9011ZM39.6361 63.7818C40.1792 63.9691 40.692 64.2366 41.1579 64.5755C40.8011 64.674 40.4596 64.8224 40.1434 65.0164C39.8053 64.5755 39.6361 64.0464 39.3825 63.8701C39.4669 63.7818 39.4669 63.7818 39.6361 63.7818ZM65.5921 65.0164C65.5921 65.1046 65.423 65.1046 65.0848 65.0164C64.9653 65.0035 64.8452 65.0348 64.7467 65.1047C64.7467 65.1047 64.7467 65.4578 64.8312 65.4578C64.8312 65.5461 65.0004 65.6342 65.1693 65.5461C65.6322 65.2805 66.0586 64.9543 66.4375 64.5762C66.2683 64.5762 66.2683 64.4879 66.1838 64.4879C66.0149 64.5755 65.8457 64.8401 65.5921 65.0164ZM44.6243 66.692C44.7088 66.9566 44.9624 67.221 45.0471 67.4856C45.0471 67.5739 44.9626 67.5739 44.709 67.6619C44.5575 67.364 44.3221 67.1183 44.0326 66.9556C44.2076 66.8237 44.4099 66.7336 44.6243 66.692ZM62.5483 67.3093C62.4638 68.2792 61.7874 67.9266 61.3646 67.8383C60.7728 69.0729 59.6736 69.4255 58.7435 69.9548L57.5598 70.4838C57.2217 70.6601 57.137 71.1011 56.7989 71.5421V71.7184C57.6443 71.1894 58.3207 70.9248 58.9972 70.3955C59.5982 70.0433 60.1401 69.5968 60.6027 69.0726C60.8564 68.8963 61.3636 68.808 61.6173 68.4553C62.0401 68.3671 62.4626 68.279 62.6318 68.0144C62.9711 67.8395 63.0558 67.3975 62.5485 67.3093H62.5483ZM52.1491 69.7785C52.91 69.6902 53.4172 69.2494 54.0937 69.2494C53.7556 68.5439 52.9947 68.8085 52.1491 69.7785ZM54.1781 69.7785C53.7553 69.8667 53.5017 70.1316 53.0791 70.3075C53.6709 70.3075 53.9245 70.3957 54.6009 70.3957C54.4318 70.0431 54.2628 69.9548 54.1772 69.7785H54.1781ZM42.1713 73.1296C42.1713 73.3059 42.0868 73.3942 42.0868 73.4827C42.3404 73.571 42.5941 73.8358 42.9322 73.8358C42.9099 73.6834 42.9397 73.5279 43.0166 73.3949C42.5952 73.2178 42.4263 73.1296 42.1724 73.1296H42.1713ZM39.6349 74.0995C39.4658 74.2759 39.0432 74.3642 38.874 74.4527C38.9343 74.5077 38.981 74.5762 39.0104 74.6528C39.0398 74.7294 39.051 74.8119 39.0432 74.8936C39.466 74.629 39.6349 74.4527 39.8041 74.4527L39.6349 74.0995ZM36.5913 75.5105C37.1831 76.1278 37.3522 75.6868 37.775 75.0695H38.3668C38.2575 74.8161 38.1153 74.5786 37.944 74.3632C37.3522 74.9805 36.7603 75.5098 36.0838 75.0695C36.2542 75.4224 36.5925 75.4224 36.5925 75.5107L36.5913 75.5105ZM40.1434 77.5392L40.4815 77.7155C41.0732 77.6272 41.5805 77.5392 41.8343 77.2745C42.4261 77.0982 43.1872 76.5682 43.6945 77.0099C43.9829 76.662 44.3256 76.3641 44.709 76.128C45.7235 76.0397 46.7381 75.7748 47.9218 75.5107C47.87 75.3391 47.8416 75.1611 47.8373 74.9817C47.2456 74.9817 46.7383 74.9817 46.4 75.158C45.8082 75.158 45.4692 75.5112 45.0471 75.5112C44.5398 75.7758 44.0326 76.0402 43.6098 76.3048C43.1913 76.5567 42.734 76.7355 42.2569 76.8338L40.4815 77.0984C40.397 77.098 40.3125 77.4506 40.1434 77.5392ZM34.8173 76.7453C34.8829 76.322 34.9964 75.9078 35.1554 75.5107C34.5637 75.687 33.8025 75.599 33.7181 76.569C34.0559 76.8329 34.4787 77.098 34.8173 76.7453ZM32.281 77.6272C32.3728 77.633 32.4649 77.6204 32.5519 77.5901C32.639 77.5599 32.7193 77.5125 32.7882 77.4509C32.8022 77.8643 32.7739 78.278 32.7038 78.6855C32.196 78.4208 32.0269 77.9799 32.281 77.627V77.6272ZM33.8028 78.6855C33.8028 78.6855 33.8028 78.9501 33.8872 79.0386C33.5937 79.1253 33.3103 79.2437 33.0419 79.3918C32.9643 79.3743 32.8957 79.3288 32.849 79.2638C32.8023 79.1987 32.7807 79.1186 32.7882 79.0386C33.1259 78.9499 33.4642 78.7735 33.8023 78.6852L33.8028 78.6855ZM44.8789 85.9167C45.048 86.005 45.3017 86.3577 45.3861 86.3577C45.048 86.4459 44.5408 86.4459 43.9488 86.534C43.7796 86.534 43.6952 86.4457 43.3571 86.3577C42.6806 86.0045 42.2581 86.534 42.1734 87.2396C41.5816 87.3279 41.0741 87.5042 40.736 87.5042C40.4154 87.54 40.0914 87.4786 39.8053 87.3279C40.1434 87.1515 40.397 87.1515 40.4817 86.8869V86.7106C39.8053 86.8869 38.9599 86.8869 38.2835 87.2396C38.2838 87.251 38.2819 87.2624 38.2778 87.2731C38.2737 87.2838 38.2675 87.2935 38.2597 87.3018C38.2518 87.31 38.2424 87.3165 38.2319 87.321C38.2215 87.3255 38.2103 87.3278 38.199 87.3279C38.3682 87.4161 38.6218 87.4161 38.7907 87.5042V87.7686C37.7762 87.7686 36.5925 87.8569 35.4935 87.9449C35.8316 87.2386 36.2544 87.1513 36.6772 87.4159C36.8476 87.4733 37.0293 87.4872 37.2063 87.4564C37.3833 87.4257 37.55 87.3512 37.6917 87.2396C38.0242 86.9299 38.4332 86.7166 38.8754 86.6223C38.8786 86.4134 38.8501 86.2052 38.791 86.005C39.8055 86.6223 40.4819 86.2696 41.2428 86.0933C41.5809 86.0933 41.6656 85.8286 41.7501 85.8286C42.5955 86.005 43.2719 85.7404 44.0328 85.2996C45.3857 84.9465 46.7383 84.506 48.0912 84.1533C47.2453 84.8584 46.1463 85.1228 44.8779 85.9167H44.8789ZM35.0714 86.7103C34.8178 86.622 34.395 86.7986 33.9724 86.7986C33.296 86.534 32.5351 86.3577 32.0278 86.7103C31.7701 86.5742 31.5626 86.3578 31.4361 86.093C31.3516 86.093 31.3516 85.9167 31.3516 85.9167C31.4361 85.8284 31.6052 85.6521 31.6897 85.6521C32.2814 85.6521 33.2115 85.6521 33.8879 85.9167C34.7181 85.9099 35.5445 86.0289 36.3398 86.2698C35.9161 86.622 35.7481 87.2389 35.0705 86.7103H35.0714Z" fill="#B10000"/>
<path d="M67.5764 80.7975H67.71C67.7545 80.6632 67.8437 80.6632 67.9776 80.7078C67.9776 80.7525 68.0221 80.7525 68.0668 80.7078C68.2897 80.6632 68.3789 80.439 68.4681 80.26C68.5573 80.081 68.6017 79.8568 68.6909 79.6329C68.6909 79.5882 68.7354 79.5433 68.7354 79.4986C68.7849 79.4169 68.8154 79.325 68.8246 79.2297C68.8691 79.0954 68.8246 79.0058 68.8691 78.9162L69.0475 78.6026C69.1034 78.4453 69.1779 78.2953 69.2693 78.1558C69.403 77.8423 69.6706 77.5737 69.7605 77.2152C69.8505 76.8567 70.0726 76.5434 69.9389 76.1403C69.9167 75.9918 69.9167 75.8409 69.9389 75.6924V75.6028C69.8886 75.479 69.8289 75.3593 69.7605 75.2446L69.6269 75.1103C69.412 75.0367 69.1848 75.0062 68.9583 75.0206C68.7272 74.9998 68.495 75.0465 68.2897 75.1549C67.9776 75.324 67.6485 75.4591 67.308 75.5581C67.2161 75.5952 67.1149 75.6022 67.0189 75.578C66.9228 75.5539 66.8368 75.5 66.7731 75.4238C66.6261 75.3252 66.4575 75.2637 66.2818 75.2446C66.1982 75.2256 66.1108 75.2326 66.0313 75.2646C65.9517 75.2966 65.8836 75.3521 65.8361 75.4238C65.7817 75.4945 65.7521 75.5813 65.7521 75.6706C65.7521 75.7599 65.7817 75.8467 65.8361 75.9174C66.059 76.2309 65.9698 76.5892 65.9253 76.9476C65.9253 77.0819 65.7916 77.1716 65.7916 77.2612C65.8361 77.4404 65.7471 77.53 65.6579 77.6643C65.6579 77.709 65.6135 77.709 65.6135 77.754C65.6135 77.9332 65.569 78.1122 65.569 78.2914C65.5245 78.4707 65.4353 78.6497 65.3906 78.8289C65.3906 78.9185 65.4351 79.0528 65.4351 79.1871V79.2768C65.5243 79.5903 65.8363 79.7246 66.1037 79.9039C66.3122 79.9958 66.5073 80.1156 66.6839 80.26L66.9959 80.4392C67.0404 80.4839 67.1743 80.4839 67.2188 80.5289L67.5764 80.7975Z" fill="#B10000"/>
</g>
<path d="M106.562 43.375H103.34V40.9844H112.809V43.375H109.598V61H106.562V43.375ZM114.859 40.9844H117.895V49.3633H121.492V40.9844H124.527V61H121.492V51.7539H117.895V61H114.859V40.9844ZM127.984 40.9844H135.402V43.375H131.02V49.3633H134.406V51.7539H131.02V58.6094H135.52V61H127.984V40.9844ZM142.07 56.9453C142.07 56.5156 142.094 56.1211 142.141 55.7617C142.195 55.3945 142.273 55 142.375 54.5781H144.73V55.5508C144.73 56.0898 144.762 56.5664 144.824 56.9805C144.895 57.3945 145.004 57.7461 145.152 58.0352C145.309 58.3164 145.512 58.5312 145.762 58.6797C146.02 58.8203 146.332 58.8906 146.699 58.8906C147.277 58.8906 147.719 58.7344 148.023 58.4219C148.328 58.1016 148.48 57.6367 148.48 57.0273C148.48 56.7148 148.457 56.4297 148.41 56.1719C148.371 55.9062 148.297 55.6445 148.188 55.3867C148.086 55.1289 147.945 54.8594 147.766 54.5781C147.586 54.2891 147.355 53.9688 147.074 53.6172L143.91 49.8555C143.348 49.1367 142.914 48.4141 142.609 47.6875C142.305 46.9531 142.152 46.1719 142.152 45.3438C142.152 44.6797 142.254 44.0703 142.457 43.5156C142.668 42.9609 142.969 42.4844 143.359 42.0859C143.75 41.6797 144.23 41.3672 144.801 41.1484C145.379 40.9219 146.031 40.8086 146.758 40.8086C147.641 40.8086 148.375 40.9336 148.961 41.1836C149.555 41.4336 150.027 41.7617 150.379 42.168C150.73 42.5742 150.977 43.0312 151.117 43.5391C151.266 44.0391 151.34 44.543 151.34 45.0508C151.34 45.4805 151.305 45.8789 151.234 46.2461C151.172 46.6055 151.098 47.0039 151.012 47.4414H148.668V46.4922C148.668 45.4297 148.516 44.6172 148.211 44.0547C147.906 43.4844 147.41 43.1992 146.723 43.1992C146.152 43.1992 145.727 43.3594 145.445 43.6797C145.164 43.9922 145.023 44.4141 145.023 44.9453C145.023 45.2266 145.043 45.4805 145.082 45.707C145.129 45.9336 145.191 46.1445 145.27 46.3398C145.355 46.5273 145.457 46.7109 145.574 46.8906C145.691 47.0703 145.824 47.2578 145.973 47.4531L149.5 51.7188C150.141 52.5547 150.633 53.3594 150.977 54.1328C151.32 54.8984 151.492 55.7109 151.492 56.5703C151.492 57.2812 151.379 57.9219 151.152 58.4922C150.934 59.0625 150.617 59.5469 150.203 59.9453C149.789 60.3438 149.289 60.6523 148.703 60.8711C148.117 61.082 147.457 61.1875 146.723 61.1875C145.816 61.1875 145.062 61.0664 144.461 60.8242C143.867 60.582 143.391 60.2617 143.031 59.8633C142.68 59.4648 142.43 59.0117 142.281 58.5039C142.141 57.9961 142.07 57.4766 142.07 56.9453ZM156.25 40.9844H159.742L163.445 61H160.375L159.824 57.4141H156.168L155.641 61H152.559L156.25 40.9844ZM159.473 55.1289L158.066 45.1562H157.938L156.52 55.1289H159.473ZM165.391 40.9844H167.852L172.703 54.3789H172.773C172.75 54.0664 172.719 53.7188 172.68 53.3359C172.641 52.9531 172.605 52.5195 172.574 52.0352C172.543 51.543 172.516 50.9883 172.492 50.3711C172.469 49.7539 172.457 49.0586 172.457 48.2852V40.9844H175.176V61H172.691L167.863 47.957H167.77C167.793 48.3086 167.824 48.6914 167.863 49.1055C167.902 49.5117 167.938 49.9922 167.969 50.5469C168 51.1016 168.027 51.75 168.051 52.4922C168.074 53.2266 168.086 54.1016 168.086 55.1172V61H165.391V40.9844ZM178.609 40.9844H181.762C182.238 40.9844 182.73 41 183.238 41.0312C183.754 41.0547 184.254 41.1367 184.738 41.2773C185.23 41.418 185.691 41.6367 186.121 41.9336C186.559 42.2227 186.941 42.6328 187.27 43.1641C187.598 43.6875 187.855 44.3516 188.043 45.1562C188.238 45.9531 188.336 46.9297 188.336 48.0859V53.8984C188.336 55.0547 188.238 56.0352 188.043 56.8398C187.855 57.6445 187.598 58.3086 187.27 58.832C186.941 59.3555 186.559 59.7656 186.121 60.0625C185.691 60.3516 185.23 60.5664 184.738 60.707C184.254 60.8477 183.754 60.9336 183.238 60.9648C182.73 60.9883 182.238 61 181.762 61H178.609V40.9844ZM182.418 58.8789C182.965 58.8789 183.414 58.8086 183.766 58.668C184.125 58.5273 184.406 58.2812 184.609 57.9297C184.82 57.5703 184.965 57.0859 185.043 56.4766C185.121 55.8594 185.16 55.082 185.16 54.1445V47.9336C185.16 46.9961 185.121 46.2227 185.043 45.6133C184.965 44.9961 184.82 44.5117 184.609 44.1602C184.406 43.8008 184.125 43.5508 183.766 43.4102C183.414 43.2695 182.965 43.1992 182.418 43.1992H181.645V58.8789H182.418ZM193.434 54.332L189.402 40.9844H192.461L194.91 50.5586H195.051L197.477 40.9844H200.523L196.469 54.332V61H193.434V54.332ZM207.438 40.9844H215.09V43.375H210.473V49.3633H214.094V51.7539H210.473V61H207.438V40.9844ZM221.547 61.1758C221.227 61.1758 220.879 61.1484 220.504 61.0938C220.129 61.0469 219.758 60.9414 219.391 60.7773C219.023 60.6133 218.668 60.3828 218.324 60.0859C217.988 59.7812 217.688 59.3828 217.422 58.8906C217.164 58.3984 216.957 57.793 216.801 57.0742C216.645 56.3477 216.566 55.4844 216.566 54.4844V47.3945C216.566 46.3867 216.645 45.5273 216.801 44.8164C216.965 44.0977 217.18 43.4961 217.445 43.0117C217.711 42.5195 218.012 42.1289 218.348 41.8398C218.691 41.5508 219.047 41.332 219.414 41.1836C219.789 41.0273 220.16 40.9258 220.527 40.8789C220.895 40.832 221.234 40.8086 221.547 40.8086C221.844 40.8086 222.172 40.832 222.531 40.8789C222.898 40.918 223.262 41.0117 223.621 41.1602C223.988 41.3008 224.344 41.5156 224.688 41.8047C225.031 42.0859 225.336 42.4727 225.602 42.9648C225.867 43.4492 226.078 44.0547 226.234 44.7812C226.398 45.5 226.48 46.3711 226.48 47.3945V54.4844C226.48 55.4766 226.398 56.332 226.234 57.0508C226.07 57.7617 225.855 58.3672 225.59 58.8672C225.324 59.3594 225.016 59.7578 224.664 60.0625C224.32 60.3594 223.965 60.5938 223.598 60.7656C223.238 60.9297 222.879 61.0391 222.52 61.0938C222.16 61.1484 221.836 61.1758 221.547 61.1758ZM221.547 58.8906C221.844 58.8906 222.102 58.8398 222.32 58.7383C222.547 58.6367 222.73 58.4609 222.871 58.2109C223.02 57.9609 223.129 57.6328 223.199 57.2266C223.277 56.8125 223.316 56.293 223.316 55.668V46.5625C223.316 45.9219 223.277 45.3867 223.199 44.957C223.129 44.5273 223.02 44.1836 222.871 43.9258C222.73 43.6602 222.547 43.4727 222.32 43.3633C222.102 43.2539 221.844 43.1992 221.547 43.1992C221.242 43.1992 220.977 43.2539 220.75 43.3633C220.523 43.4727 220.336 43.6602 220.188 43.9258C220.039 44.1836 219.926 44.5273 219.848 44.957C219.777 45.3867 219.742 45.9219 219.742 46.5625V55.668C219.742 56.293 219.777 56.8125 219.848 57.2266C219.926 57.6328 220.039 57.9609 220.188 58.2109C220.336 58.4609 220.523 58.6367 220.75 58.7383C220.977 58.8398 221.242 58.8906 221.547 58.8906ZM229.281 40.9844H232.34V55.6562C232.34 56.2812 232.371 56.8008 232.434 57.2148C232.496 57.6289 232.594 57.9609 232.727 58.2109C232.867 58.4531 233.043 58.6289 233.254 58.7383C233.473 58.8398 233.73 58.8906 234.027 58.8906C234.324 58.8906 234.582 58.8398 234.801 58.7383C235.027 58.6289 235.211 58.4531 235.352 58.2109C235.5 57.9609 235.609 57.6289 235.68 57.2148C235.758 56.8008 235.797 56.2812 235.797 55.6562V40.9844H238.82V54.8477C238.82 55.8242 238.742 56.6602 238.586 57.3555C238.43 58.0508 238.223 58.6328 237.965 59.1016C237.707 59.5703 237.41 59.9414 237.074 60.2148C236.746 60.4883 236.402 60.6992 236.043 60.8477C235.691 60.9883 235.34 61.0781 234.988 61.1172C234.637 61.1562 234.316 61.1758 234.027 61.1758C233.738 61.1758 233.418 61.1562 233.066 61.1172C232.723 61.0781 232.375 60.9883 232.023 60.8477C231.672 60.6992 231.332 60.4883 231.004 60.2148C230.676 59.9414 230.383 59.5703 230.125 59.1016C229.867 58.6328 229.66 58.0547 229.504 57.3672C229.355 56.6719 229.281 55.832 229.281 54.8477V40.9844ZM242.172 40.9844H244.633L249.484 54.3789H249.555C249.531 54.0664 249.5 53.7188 249.461 53.3359C249.422 52.9531 249.387 52.5195 249.355 52.0352C249.324 51.543 249.297 50.9883 249.273 50.3711C249.25 49.7539 249.238 49.0586 249.238 48.2852V40.9844H251.957V61H249.473L244.645 47.957H244.551C244.574 48.3086 244.605 48.6914 244.645 49.1055C244.684 49.5117 244.719 49.9922 244.75 50.5469C244.781 51.1016 244.809 51.75 244.832 52.4922C244.855 53.2266 244.867 54.1016 244.867 55.1172V61H242.172V40.9844ZM255.391 40.9844H258.543C259.02 40.9844 259.512 41 260.02 41.0312C260.535 41.0547 261.035 41.1367 261.52 41.2773C262.012 41.418 262.473 41.6367 262.902 41.9336C263.34 42.2227 263.723 42.6328 264.051 43.1641C264.379 43.6875 264.637 44.3516 264.824 45.1562C265.02 45.9531 265.117 46.9297 265.117 48.0859V53.8984C265.117 55.0547 265.02 56.0352 264.824 56.8398C264.637 57.6445 264.379 58.3086 264.051 58.832C263.723 59.3555 263.34 59.7656 262.902 60.0625C262.473 60.3516 262.012 60.5664 261.52 60.707C261.035 60.8477 260.535 60.9336 260.02 60.9648C259.512 60.9883 259.02 61 258.543 61H255.391V40.9844ZM259.199 58.8789C259.746 58.8789 260.195 58.8086 260.547 58.668C260.906 58.5273 261.188 58.2812 261.391 57.9297C261.602 57.5703 261.746 57.0859 261.824 56.4766C261.902 55.8594 261.941 55.082 261.941 54.1445V47.9336C261.941 46.9961 261.902 46.2227 261.824 45.6133C261.746 44.9961 261.602 44.5117 261.391 44.1602C261.188 43.8008 260.906 43.5508 260.547 43.4102C260.195 43.2695 259.746 43.1992 259.199 43.1992H258.426V58.8789H259.199ZM270.039 40.9844H273.531L277.234 61H274.164L273.613 57.4141H269.957L269.43 61H266.348L270.039 40.9844ZM273.262 55.1289L271.855 45.1562H271.727L270.309 55.1289H273.262ZM281.031 43.375H277.809V40.9844H287.277V43.375H284.066V61H281.031V43.375ZM289.328 40.9844H292.363V61H289.328V40.9844ZM300.227 61.1758C299.906 61.1758 299.559 61.1484 299.184 61.0938C298.809 61.0469 298.438 60.9414 298.07 60.7773C297.703 60.6133 297.348 60.3828 297.004 60.0859C296.668 59.7812 296.367 59.3828 296.102 58.8906C295.844 58.3984 295.637 57.793 295.48 57.0742C295.324 56.3477 295.246 55.4844 295.246 54.4844V47.3945C295.246 46.3867 295.324 45.5273 295.48 44.8164C295.645 44.0977 295.859 43.4961 296.125 43.0117C296.391 42.5195 296.691 42.1289 297.027 41.8398C297.371 41.5508 297.727 41.332 298.094 41.1836C298.469 41.0273 298.84 40.9258 299.207 40.8789C299.574 40.832 299.914 40.8086 300.227 40.8086C300.523 40.8086 300.852 40.832 301.211 40.8789C301.578 40.918 301.941 41.0117 302.301 41.1602C302.668 41.3008 303.023 41.5156 303.367 41.8047C303.711 42.0859 304.016 42.4727 304.281 42.9648C304.547 43.4492 304.758 44.0547 304.914 44.7812C305.078 45.5 305.16 46.3711 305.16 47.3945V54.4844C305.16 55.4766 305.078 56.332 304.914 57.0508C304.75 57.7617 304.535 58.3672 304.27 58.8672C304.004 59.3594 303.695 59.7578 303.344 60.0625C303 60.3594 302.645 60.5938 302.277 60.7656C301.918 60.9297 301.559 61.0391 301.199 61.0938C300.84 61.1484 300.516 61.1758 300.227 61.1758ZM300.227 58.8906C300.523 58.8906 300.781 58.8398 301 58.7383C301.227 58.6367 301.41 58.4609 301.551 58.2109C301.699 57.9609 301.809 57.6328 301.879 57.2266C301.957 56.8125 301.996 56.293 301.996 55.668V46.5625C301.996 45.9219 301.957 45.3867 301.879 44.957C301.809 44.5273 301.699 44.1836 301.551 43.9258C301.41 43.6602 301.227 43.4727 301 43.3633C300.781 43.2539 300.523 43.1992 300.227 43.1992C299.922 43.1992 299.656 43.2539 299.43 43.3633C299.203 43.4727 299.016 43.6602 298.867 43.9258C298.719 44.1836 298.605 44.5273 298.527 44.957C298.457 45.3867 298.422 45.9219 298.422 46.5625V55.668C298.422 56.293 298.457 56.8125 298.527 57.2266C298.605 57.6328 298.719 57.9609 298.867 58.2109C299.016 58.4609 299.203 58.6367 299.43 58.7383C299.656 58.8398 299.922 58.8906 300.227 58.8906ZM308.031 40.9844H310.492L315.344 54.3789H315.414C315.391 54.0664 315.359 53.7188 315.32 53.3359C315.281 52.9531 315.246 52.5195 315.215 52.0352C315.184 51.543 315.156 50.9883 315.133 50.3711C315.109 49.7539 315.098 49.0586 315.098 48.2852V40.9844H317.816V61H315.332L310.504 47.957H310.41C310.434 48.3086 310.465 48.6914 310.504 49.1055C310.543 49.5117 310.578 49.9922 310.609 50.5469C310.641 51.1016 310.668 51.75 310.691 52.4922C310.715 53.2266 310.727 54.1016 310.727 55.1172V61H308.031V40.9844Z" fill="#B10000"/>
<defs>
<filter id="filter0_d" x="-4" y="-4" width="119" height="114" filterUnits="userSpaceOnUse" color-interpolation-filters="sRGB">
<feFlood flood-opacity="0" result="BackgroundImageFix"/>
<feColorMatrix in="SourceAlpha" type="matrix" values="0 0 0 0 0 0 0 0 0 0 0 0 0 0 0 0 0 0 127 0"/>
<feOffset dx="4" dy="4"/>
<feGaussianBlur stdDeviation="4"/>
<feColorMatrix type="matrix" values="0 0 0 0 0 0 0 0 0 0 0 0 0 0 0 0 0 0 0.3 0"/>
<feBlend mode="normal" in2="BackgroundImageFix" result="effect1_dropShadow"/>
<feBlend mode="normal" in="SourceGraphic" in2="effect1_dropShadow" result="shape"/>
</filter>
</defs>
</svg>
